<?xml version="1.0" encoding="utf-8"?>
<!-- Generator: Adobe Illustrator 21.0.2, SVG Export Plug-In . SVG Version: 6.00 Build 0)  -->
<svg version="1.1" id="Layer_1" xmlns="http://www.w3.org/2000/svg" xmlns:xlink="http://www.w3.org/1999/xlink" x="0px" y="0px"
	 viewBox="0 0 512 512" style="enable-background:new 0 0 512 512;" xml:space="preserve">
<style type="text/css">
	.st0{fill:none;stroke:#049DE9;stroke-width:3;stroke-miterlimit:10;}
</style>
<g transform="translate(1 1)">
	<g>
		<g>
			<path class="st0" d="M485.4,75.8H24.6C10.1,75.8-1,86.9-1,101.4v170.7c0,14.5,11.1,25.6,25.6,25.6h460.8
				c14.5,0,25.6-11.1,25.6-25.6V101.4C511,86.9,499.9,75.8,485.4,75.8z M493.9,272.1c0,5.1-3.4,8.5-8.5,8.5H24.6
				c-5.1,0-8.5-3.4-8.5-8.5V101.4c0-5.1,4.3-8.5,8.5-8.5h460.8c5.1,0,8.5,3.4,8.5,8.5L493.9,272.1L493.9,272.1z"/>
			<path class="st0" d="M220.9,152.6h68.3c5.1,0,8.5-3.4,8.5-8.5c0-5.1-3.4-8.5-8.5-8.5h-68.3c-5.1,0-8.5,3.4-8.5,8.5
				C212.3,149.2,215.7,152.6,220.9,152.6z"/>
			<path class="st0" d="M468.3,246.5H41.7c-5.1,0-8.5,3.4-8.5,8.5c0,5.1,3.4,8.5,8.5,8.5h426.7c5.1,0,8.5-3.4,8.5-8.5
				C476.9,249.9,473.5,246.5,468.3,246.5z"/>
			<path class="st0" d="M468.3,212.3H41.7c-5.1,0-8.5,3.4-8.5,8.5c0,5.1,3.4,8.5,8.5,8.5h426.7c5.1,0,8.5-3.4,8.5-8.5
				C476.9,215.7,473.5,212.3,468.3,212.3z"/>
			<path class="st0" d="M259.3,358.3c-8.5-4.3-12.8-9.4-12.8-13.7c0-4.3,5.1-9.4,11.9-14.5c4.3-1.7,5.1-6.8,3.4-11.1
				c-1.7-4.3-6.8-6-11.1-3.4c-13.7,7.7-21.3,17.9-21.3,29s7.7,21.3,21.3,29.9c8.5,4.3,12.8,9.4,12.8,13.7s-5.1,9.4-12.8,13.7
				c-4.3,1.7-6,6.8-3.4,11.1c1.7,2.6,4.3,4.3,7.7,4.3c1.7,0,2.6,0,4.3-0.9c13.7-7.7,21.3-17.9,21.3-29S272.9,365.1,259.3,358.3z"/>
			<path class="st0" d="M165.4,375.3c-8.5-4.3-12.8-9.4-12.8-13.7s5.1-9.4,11.9-14.5c4.3-1.7,6-6.8,3.4-11.1
				c-1.7-4.3-6.8-6-11.1-3.4c-13.7,7.7-21.3,17.9-21.3,29c0,11.1,7.7,21.3,21.3,29.9c8.5,4.3,12.8,9.4,12.8,13.7s-5.1,9.4-12.8,13.7
				c-4.3,1.7-6,6.8-3.4,11.1c1.7,2.6,4.3,4.3,7.7,4.3c1.7,0,2.6,0,4.3-0.9c13.7-7.7,21.3-17.9,21.3-29S179.1,382.1,165.4,375.3z"/>
			<path class="st0" d="M353.1,375.3c-8.5-4.3-12.8-9.4-12.8-13.7s5.1-9.4,11.9-14.5c4.3-1.7,5.1-6.8,3.4-11.1
				c-1.7-4.3-6.8-6-11.1-3.4c-13.7,7.7-21.3,17.9-21.3,29c0,11.1,7.7,21.3,21.3,29.9c8.5,4.3,12.8,9.4,12.8,13.7s-5.1,9.4-12.8,13.7
				c-4.3,1.7-6,6.8-3.4,11.1c1.7,2.6,4.3,4.3,7.7,4.3c1.7,0,2.6,0,4.3-0.9c13.7-7.7,21.3-17.9,21.3-29S366.8,382.1,353.1,375.3z"/>
		</g>
	</g>
</g>
</svg>
