<?xml version="1.0" encoding="utf-8"?>
<!-- Generator: Adobe Illustrator 21.0.2, SVG Export Plug-In . SVG Version: 6.00 Build 0)  -->
<svg version="1.1" id="Capa_1" xmlns="http://www.w3.org/2000/svg" xmlns:xlink="http://www.w3.org/1999/xlink" x="0px" y="0px"
	 viewBox="0 0 512 512" style="enable-background:new 0 0 512 512;" xml:space="preserve">
<style type="text/css">
	.st0{fill:none;stroke:#049DE9;stroke-width:3;stroke-miterlimit:10;}
</style>
<path class="st0" d="M112.8,13.4v485.2h286.3V13.4H112.8z M391.7,427.3h-6.5V232h6.5V427.3z M304.3,20.9v15.9L292.1,49V20.9H304.3z
	 M304.3,426.4l-12.2,12.2v-16.5l12.2-12.2V426.4z M292.1,166.3l12.2-12.2v46.6l-12.2,12.2V166.3z M292.1,403l12.2-12.2v8.5
	l-12.2,12.2V403z M304.3,380.2l-12.2,12.2v-89.1l12.2-12.2V380.2z M304.3,280.5l-12.2,12.2v-8.9l12.2-12.2V280.5z M304.3,261
	l-12.2,12.2v-49.7l12.2-12.2V261z M304.3,143.5l-12.2,12.2V143l12.2-12.2V143.5z M304.3,120.2l-12.2,12.2V59.6l12.2-12.2V120.2z
	 M292.1,449.2l12.2-12.2v33.6h-12.2V449.2z M259.8,20.9h24.9v449.7h-24.9V20.9z M252.3,20.9v449.7h-24.9V20.9H252.3z M219.9,426.4
	l-12.2,12.2v-16.5l12.2-12.2V426.4z M219.9,399.4l-12.2,12.2V403l12.2-12.2V399.4z M219.9,380.2l-12.2,12.2v-89.1l12.2-12.2V380.2z
	 M219.9,280.5l-12.2,12.2v-8.9l12.2-12.2V280.5z M219.9,261l-12.2,12.2v-49.7l12.2-12.2V261z M219.9,200.7l-12.2,12.2v-46.6
	l12.2-12.2V200.7z M219.9,143.5l-12.2,12.2V143l12.2-12.2V143.5z M219.9,120.2l-12.2,12.2V59.6l12.2-12.2V120.2z M207.7,449.2
	l12.2-12.2v33.6h-12.2V449.2z M219.9,20.9v15.9L207.7,49V20.9H219.9z M120.3,232h6.5v195.2h-6.5V232z M120.3,434.8h14V224.5h-14
	V20.9h79.9v449.7h-79.9V434.8z M391.7,491.1H120.3v-13h271.3L391.7,491.1L391.7,491.1z M311.8,470.6V20.9h79.9v203.6h-14v210.2h14
	v35.8H311.8z"/>
</svg>
