<?xml version="1.0" encoding="utf-8"?>
<!-- Generator: Adobe Illustrator 21.0.2, SVG Export Plug-In . SVG Version: 6.00 Build 0)  -->
<svg version="1.1" id="Layer_1" xmlns="http://www.w3.org/2000/svg" xmlns:xlink="http://www.w3.org/1999/xlink" x="0px" y="0px"
	 viewBox="0 0 512 512" style="enable-background:new 0 0 512 512;" xml:space="preserve">
<style type="text/css">
	.st0{fill:none;stroke:#049DE9;stroke-width:3;stroke-miterlimit:10;}
</style>
<g>
	<g>
		<g>
			<rect x="119.7" y="15.7" class="st0" width="272.7" height="14.7"/>
		</g>
	</g>
	<g>
		<g>
			<polygon class="st0" points="130.4,36.8 130.4,51.5 144.4,51.5 144.4,126.3 159.1,126.3 159.1,51.5 248.6,51.5 248.6,258 
				263.4,258 263.4,51.5 352.9,51.5 352.9,258 367.6,258 367.6,51.5 381.6,51.5 381.6,36.8 			"/>
		</g>
	</g>
	<g>
		<g>
			<path class="st0" d="M402.3,445.3v-59.2c8.4-3,14.4-11.1,14.4-20.5c0-9.4-6-17.5-14.4-20.5v-45h-14.7v45
				c-8.4,3-14.4,11.1-14.4,20.5c0,9.4,6,17.5,14.4,20.5v59.2h-54.8v-59.2c8.4-3,14.4-11.1,14.4-20.5c0-9.4-6-17.5-14.4-20.5v-59.2
				h91.4v-14.7H87.8v14.7h21.9v59.2c-8.4,3-14.4,11.1-14.4,20.5c0,9.4,6,17.5,14.4,20.5v59.2H87.8v7.4c0,24.1,19.6,43.7,43.7,43.7
				h249c24.1,0,43.7-19.6,43.7-43.7v-7.4L402.3,445.3L402.3,445.3z M395,358.5c3.9,0,7.1,3.2,7.1,7.1s-3.2,7.1-7.1,7.1
				c-3.9,0-7.1-3.2-7.1-7.1C387.9,361.7,391.1,358.5,395,358.5z M325.5,358.5c3.9,0,7.1,3.2,7.1,7.1s-3.2,7.1-7.1,7.1
				c-3.9,0-7.1-3.2-7.1-7.1S321.6,358.5,325.5,358.5z M263.4,386.1c8.4-3,14.4-11.1,14.4-20.5c0-9.4-6-17.5-14.4-20.5v-59.2h54.8
				v59.2c-8.4,3-14.4,11.1-14.4,20.5c0,9.4,6,17.5,14.4,20.5v59.2h-54.8V386.1z M256,358.5c3.9,0,7.1,3.2,7.1,7.1s-3.2,7.1-7.1,7.1
				c-3.9,0-7.1-3.2-7.1-7.1S252.1,358.5,256,358.5z M193.9,386.1c8.4-3,14.4-11.1,14.4-20.5c0-9.4-6-17.5-14.4-20.5v-59.2h54.8v59.2
				c-8.4,3-14.4,11.1-14.4,20.5c0,9.4,6,17.5,14.4,20.5v59.2h-54.8V386.1z M186.5,358.5c3.9,0,7.1,3.2,7.1,7.1s-3.2,7.1-7.1,7.1
				s-7.1-3.2-7.1-7.1S182.6,358.5,186.5,358.5z M124.4,386.1c8.4-3,14.4-11.1,14.4-20.5c0-9.4-6-17.5-14.4-20.5v-59.2h54.8v59.2
				c-8.4,3-14.4,11.1-14.4,20.5c0,9.4,6,17.5,14.4,20.5v59.2h-54.8V386.1z M117,358.5c3.9,0,7.1,3.2,7.1,7.1s-3.2,7.1-7.1,7.1
				c-3.9,0-7.1-3.2-7.1-7.1S113.1,358.5,117,358.5z M380.5,481.6h-249c-13.4,0-24.8-9.2-28-21.6h305.1
				C405.3,472.4,394,481.6,380.5,481.6z"/>
		</g>
	</g>
	<g>
		<g>
			<rect x="144.4" y="143.4" class="st0" width="14.7" height="14.7"/>
		</g>
	</g>
	<g>
		<g>
			<rect x="144.4" y="175.8" class="st0" width="14.7" height="82.2"/>
		</g>
	</g>
	<g>
		<g>
			
				<rect x="164.2" y="130.6" transform="matrix(0.5736 -0.8192 0.8192 0.5736 -29.4118 219.4864)" class="st0" width="63.8" height="14.7"/>
		</g>
	</g>
	<g>
		<g>
			
				<rect x="178.4" y="156.7" transform="matrix(0.5736 -0.8192 0.8192 0.5736 -44.7687 242.2038)" class="st0" width="63.8" height="14.7"/>
		</g>
	</g>
	<g>
		<g>
			
				<rect x="269.8" y="130.6" transform="matrix(0.5736 -0.8192 0.8192 0.5736 15.6368 306.0092)" class="st0" width="63.8" height="14.7"/>
		</g>
	</g>
	<g>
		<g>
			
				<rect x="284" y="156.8" transform="matrix(0.5736 -0.8192 0.8192 0.5736 0.2782 328.7567)" class="st0" width="63.8" height="14.7"/>
		</g>
	</g>
</g>
</svg>
