<?xml version="1.0" encoding="utf-8"?>
<!-- Generator: Adobe Illustrator 21.0.2, SVG Export Plug-In . SVG Version: 6.00 Build 0)  -->
<svg version="1.1" id="Layer_1" xmlns="http://www.w3.org/2000/svg" xmlns:xlink="http://www.w3.org/1999/xlink" x="0px" y="0px"
	 viewBox="0 0 500 500" style="enable-background:new 0 0 500 500;" xml:space="preserve">
<style type="text/css">
	.st0{fill:none;stroke:#049DE9;stroke-width:3;stroke-miterlimit:10;}
</style>
<title>bedroom</title>
<path class="st0" d="M168.3,175.1h163.8c2.7,0,5,2.2,5,5v58.3c0,2.7-2.2,5-5,5H168.3c-2.7,0-5-2.2-5-5v-58.3
	C163.4,177.4,165.6,175.1,168.3,175.1z"/>
<path class="st0" d="M184.1,199.2h61.3c2.7,0,5,2.2,5,5v34.2c0,2.7-2.2,5-5,5h-61.3c-2.7,0-5-2.2-5-5v-34.2
	C179.2,201.5,181.4,199.2,184.1,199.2z"/>
<path class="st0" d="M255.4,199.2h61.3c2.7,0,5,2.2,5,5v34.2c0,2.7-2.2,5-5,5h-61.3c-2.7,0-5-2.2-5-5v-34.2
	C250.4,201.5,252.6,199.2,255.4,199.2z"/>
<path class="st0" d="M146.2,243.4h207.7c2.7,0,5,2.2,5,5v72.2c0,2.7-2.2,5-5,5H146.2c-2.7,0-5-2.2-5-5v-72.2
	C141.2,245.6,143.4,243.4,146.2,243.4z"/>
<path class="st0" d="M157.9,307h143.7c1.8,0,3.3,1.5,3.3,3.3v0c0,1.8-1.5,3.3-3.3,3.3H157.9c-1.8,0-3.3-1.5-3.3-3.3v0
	C154.6,308.4,156,307,157.9,307z"/>
<path class="st0" d="M315,307h19.1c1.8,0,3.3,1.5,3.3,3.3v0c0,1.8-1.5,3.3-3.3,3.3H315c-1.8,0-3.3-1.5-3.3-3.3v0
	C311.7,308.4,313.2,307,315,307z"/>
<path class="st0" d="M163,325.5L163,325.5c1.9,0,3.3,1.5,3.3,3.3v4.1c0,1.8-1.5,3.3-3.3,3.3h0c-1.8,0-3.3-1.5-3.3-3.3v-4.1
	C159.7,326.9,161.2,325.5,163,325.5z"/>
<path class="st0" d="M336.7,325.5L336.7,325.5c1.9,0,3.3,1.5,3.3,3.3v4.1c0,1.8-1.5,3.3-3.3,3.3h0c-1.8,0-3.3-1.5-3.3-3.3v-4.1
	C333.4,326.9,334.9,325.5,336.7,325.5z"/>
<polygon class="st0" points="135.3,195.5 82,195.5 95.3,163.8 122,163.8 "/>
<line class="st0" x1="108.7" y1="195.5" x2="108.7" y2="323"/>
<line class="st0" x1="91.6" y1="322.8" x2="125.6" y2="322.8"/>
<polygon class="st0" points="418,195.5 364.7,195.5 378,163.8 404.7,163.8 "/>
<line class="st0" x1="391.3" y1="195.5" x2="391.3" y2="323"/>
<line class="st0" x1="374.3" y1="322.8" x2="408.3" y2="322.8"/>
</svg>
