<?xml version="1.0" encoding="utf-8"?>
<!-- Generator: Adobe Illustrator 21.0.2, SVG Export Plug-In . SVG Version: 6.00 Build 0)  -->
<svg version="1.1" id="Capa_1" xmlns="http://www.w3.org/2000/svg" xmlns:xlink="http://www.w3.org/1999/xlink" x="0px" y="0px"
	 viewBox="0 0 512 512" style="enable-background:new 0 0 512 512;" xml:space="preserve">
<style type="text/css">
	.st0{fill:none;stroke:#049DE9;stroke-width:3;stroke-miterlimit:10;}
</style>
<g>
	<g>
		<path class="st0" d="M484.9,17.1H27.1c-5.5,0-10,4.5-10,10v39.8c0,5.5,4.5,10,10,10h10v408.1c0,5.5,4.5,10,10,10
			c13.2,0,20-7.7,24.9-13.3c4.3-5,6.1-6.6,10-6.6c3.9,0,5.6,1.6,10,6.6c4.9,5.6,11.7,13.3,24.9,13.3c13.2,0,20.3-8,24.9-13.4
			c4.3-4.9,6.1-6.6,9.9-6.6c3.8,0,5.6,1.6,9.9,6.6c4.6,5.3,11.7,13.4,24.9,13.4c3.5,0,6.6-1.8,8.5-4.7c1.8-2.9,2-6.6,0.4-9.7
			l-75.8-151.6c36.3-26.9,61.5-67.2,69.6-111.9l25.5-140.2h82.9L323,217c8.1,44.6,33.3,84.9,69.6,111.9l-75.8,151.3
			c-0.9,1.8-1.2,4.2-0.9,6.2c0.7,4.9,4.9,8.6,9.9,8.6c13.2,0,20-7.7,24.9-13.3c4.3-5,6.1-6.6,10-6.6c3.9,0,5.6,1.6,10,6.6
			c4.9,5.6,11.7,13.3,24.9,13.3c13.2,0,20.3-8,24.9-13.4c4.3-4.9,6.1-6.6,9.9-6.6c3.8,0,5.6,1.6,9.9,6.6
			c4.6,5.3,11.7,13.4,24.9,13.4c5.5,0,10-4.5,10-10V76.8h10c5.5,0,10-4.5,10-10V27.1C494.9,21.6,490.4,17.1,484.9,17.1z M161,456.6
			c-2.8-1-5.9-1.6-9.5-1.6c-13.2,0-20.2,8-24.9,13.4c-4.3,4.9-6.1,6.6-9.9,6.6c-3.9,0-5.6-1.6-10-6.6c-4.9-5.6-11.7-13.3-24.9-13.3
			c-13.2,0-20,7.7-24.9,13.3v-140c13.5,5.2,31.1,6.8,43.6,7.1L161,456.6z M169.5,213.5c-7.5,41.3-31.5,78.3-65.9,102.2
			c-23.6-0.5-44.6-5.7-46.6-9.9V76.8h137.4L169.5,213.5z M455.1,468.4c-4.6-5.3-11.7-13.3-24.8-13.3c-13.2,0-20.2,8-24.9,13.4
			c-4.3,4.9-6.1,6.6-9.9,6.6c-3.9,0-5.6-1.6-10-6.6c-4.9-5.6-11.7-13.3-24.9-13.3c-3.8,0-7,0.6-9.8,1.6l60.8-121.2
			c12.5-0.3,30.1-1.9,43.6-7.1L455.1,468.4L455.1,468.4z M455.1,305.6c-2.2,4.4-23.1,9.6-46.6,10c-34.4-23.9-58.4-60.9-65.9-102.2
			L317.7,76.8h137.4V305.6z M475,56.9H37V37h438L475,56.9L475,56.9z"/>
	</g>
</g>
</svg>
