<?xml version="1.0" encoding="utf-8"?>
<!-- Generator: Adobe Illustrator 21.0.2, SVG Export Plug-In . SVG Version: 6.00 Build 0)  -->
<svg version="1.1" id="Layer_1" xmlns="http://www.w3.org/2000/svg" xmlns:xlink="http://www.w3.org/1999/xlink" x="0px" y="0px"
	 viewBox="0 0 500 500" style="enable-background:new 0 0 500 500;" xml:space="preserve">
<style type="text/css">
	.st0{fill:none;stroke:#049DE9;stroke-width:3;stroke-miterlimit:10;}
</style>
<title>dinning room</title>
<polyline class="st0" points="227.7,432.4 227.7,372.6 227.7,337.8 227.7,312.8 227.7,301 227.7,273.9 150.3,273.9 150.3,301 
	150.3,312.8 150.3,337.8 150.3,372.6 150.3,432.4 "/>
<rect x="150.3" y="337.8" class="st0" width="77.4" height="34.8"/>
<polyline class="st0" points="348,432.4 348,372.6 348,337.8 348,312.8 348,301 348,273.9 270.6,273.9 270.6,301 270.6,312.8 
	270.6,337.8 270.6,372.6 270.6,432.4 "/>
<rect x="270.6" y="337.8" class="st0" width="77.4" height="34.8"/>
<rect x="69.5" y="294.9" class="st0" width="80.7" height="11.8"/>
<rect x="227.7" y="294.9" class="st0" width="42.9" height="11.8"/>
<rect x="348" y="294.9" class="st0" width="82.4" height="11.8"/>
<rect x="108.9" y="306.6" class="st0" width="12.8" height="121.9"/>
<rect x="377.2" y="306.6" class="st0" width="12.8" height="121.9"/>
<path class="st0" d="M237.1,124.4h28.1c22.9,0,41.4,18.5,41.4,41.4c0,0,0,0,0,0l0,0l0,0H195.7l0,0l0,0
	C195.7,143,214.3,124.4,237.1,124.4z"/>
<rect x="244.5" y="67.6" class="st0" width="13.4" height="56.8"/>
</svg>
