<?xml version="1.0" encoding="utf-8"?>
<!-- Generator: Adobe Illustrator 21.0.2, SVG Export Plug-In . SVG Version: 6.00 Build 0)  -->
<svg version="1.1" id="Capa_1" xmlns="http://www.w3.org/2000/svg" xmlns:xlink="http://www.w3.org/1999/xlink" x="0px" y="0px"
	 viewBox="0 0 512 512" style="enable-background:new 0 0 512 512;" xml:space="preserve">
<style type="text/css">
	.st0{fill:none;stroke:#049DE9;stroke-width:3;stroke-miterlimit:10;}
</style>
<g>
	<path class="st0" d="M280.7,488.9V23.1c0-5.7-4.7-10.4-10.4-10.4H36.5c-5.7,0-10.4,4.6-10.4,10.4v465.8c0,5.7,4.7,10.4,10.4,10.4
		h233.8C276,499.3,280.7,494.7,280.7,488.9z M259.9,478.5h-213v-445h213V478.5z"/>
	<path class="st0" d="M79.8,308.8h143.7c5.7,0,10.4-4.6,10.4-10.4V64.6c0-5.7-4.7-10.4-10.4-10.4H79.8c-5.7,0-10.4,4.6-10.4,10.4
		v233.8C69.4,304.2,74.1,308.8,79.8,308.8z M90.2,75h122.9v213H90.2V75z"/>
	<path class="st0" d="M475.5,308.8c5.7,0,10.4-4.6,10.4-10.4V64.6c0-5.7-4.6-10.4-10.4-10.4H331.8c-5.7,0-10.4,4.6-10.4,10.4v233.8
		c0,5.7,4.7,10.4,10.4,10.4L475.5,308.8L475.5,308.8L475.5,308.8z M342.2,191.9h51.1V288h-51.1V191.9z M414,288v-96.1h51.1V288H414z
		 M465.1,171.1H414V75h51.1V171.1z M393.2,75v96.1h-51.1V75H393.2z"/>
	<path class="st0" d="M225.3,330.5H81.5c-5.7,0-10.4,4.6-10.4,10.4v101.3c0,5.7,4.7,10.4,10.4,10.4h143.7c5.7,0,10.4-4.6,10.4-10.4
		V340.9C235.6,335.1,231,330.5,225.3,330.5z M214.9,431.8H91.9v-80.5h122.9L214.9,431.8L214.9,431.8z"/>
</g>
</svg>
