<?xml version="1.0" encoding="utf-8"?>
<!-- Generator: Adobe Illustrator 21.0.2, SVG Export Plug-In . SVG Version: 6.00 Build 0)  -->
<svg version="1.1" id="Layer_1" xmlns="http://www.w3.org/2000/svg" xmlns:xlink="http://www.w3.org/1999/xlink" x="0px" y="0px"
	 viewBox="0 0 500 500" style="enable-background:new 0 0 500 500;" xml:space="preserve">
<style type="text/css">
	.st0{fill:none;stroke:#049DE9;stroke-width:3;stroke-miterlimit:10;}
</style>
<title>drawing room</title>
<polygon class="st0" points="162,239.2 108.6,239.2 122,207.5 148.6,207.5 "/>
<line class="st0" x1="135.3" y1="239.2" x2="135.3" y2="366.7"/>
<line class="st0" x1="118.2" y1="366.5" x2="152.3" y2="366.5"/>
<line class="st0" x1="289.3" y1="322.8" x2="185.3" y2="322.8"/>
<path class="st0" d="M171.2,296.7V277c0-3.7,3-6.7,6.7-6.7h118.8c3.7,0,6.7,3,6.7,6.7v19.7"/>
<rect x="185.3" y="329" class="st0" width="104" height="21.7"/>
<path class="st0" d="M164.1,296.6h14.6c3.7,0,6.7,3,6.7,6.7v45.8c0,3.7-3,6.7-6.7,6.7h-14.6c-3.7,0-6.7-3-6.7-6.7v-45.8
	C157.4,299.6,160.4,296.6,164.1,296.6z"/>
<path class="st0" d="M295.9,296.6h14.6c3.7,0,6.7,3,6.7,6.7v45.8c0,3.7-3,6.7-6.7,6.7h-14.6c-3.7,0-6.7-3-6.7-6.7v-45.8
	C289.3,299.6,292.3,296.6,295.9,296.6z"/>
<rect x="165.3" y="359.7" class="st0" width="12.6" height="7"/>
<rect x="295.5" y="359.7" class="st0" width="12.6" height="7"/>
<line class="st0" x1="336.8" y1="315" x2="329.9" y2="366.7"/>
<rect x="327.1" y="310.6" class="st0" width="80.3" height="4.4"/>
<line class="st0" x1="399.3" y1="315" x2="406.3" y2="366.7"/>
<rect x="353" y="293.3" class="st0" width="9.7" height="16.1"/>
<rect x="367.8" y="293.3" class="st0" width="9.7" height="16.1"/>
<rect x="295.5" y="193.3" class="st0" width="55.2" height="55.2"/>
<path class="st0" d="M327.6,234.4h-23.3c-1,0-1.8-0.8-1.8-1.8c0-0.3,0.1-0.5,0.2-0.8l14-28.3l0,0l12.5,28.4c0.4,0.9,0,2-1,2.4
	C328,234.4,327.8,234.4,327.6,234.4z"/>
<path class="st0" d="M321.9,234.4h21.8c1,0,1.8-0.8,1.8-1.8c0-0.3-0.1-0.5-0.2-0.7l-8.9-20.2c-0.4-0.9-1.4-1.4-2.3-1
	c-0.4,0.2-0.8,0.5-1,1l-6.7,13.7"/>
</svg>
