<?xml version="1.0" encoding="utf-8"?>
<!-- Generator: Adobe Illustrator 21.0.2, SVG Export Plug-In . SVG Version: 6.00 Build 0)  -->
<svg version="1.1" id="Capa_1" xmlns="http://www.w3.org/2000/svg" xmlns:xlink="http://www.w3.org/1999/xlink" x="0px" y="0px"
	 viewBox="0 0 512 512" style="enable-background:new 0 0 512 512;" xml:space="preserve">
<style type="text/css">
	.st0{fill:none;stroke:#049DE9;stroke-width:3;stroke-miterlimit:10;}
</style>
<g>
	<g>
		<path class="st0" d="M170.7,145.1v-9.5c23.1-23.6,22.7-61.4-0.9-84.5C146.2,28,108.4,28.4,85.3,52c-22.8,23.2-22.8,60.4,0,83.6
			v9.5H68.3v17.1h119.5v-17.1L170.7,145.1L170.7,145.1z M156.4,125.6c-1.8,1.6-2.8,3.9-2.8,6.3v13.1h-17.1V123l23.1-23.1l-12.1-12.1
			L128,107.4l-19.6-19.6L96.4,99.9l23.1,23.1v22.1h-17.1V132c0-2.4-1-4.7-2.8-6.3C82,109.9,80.5,82.9,96.2,65.4s42.7-19.1,60.2-3.4
			c17.6,15.7,19.1,42.7,3.4,60.2C158.8,123.4,157.6,124.5,156.4,125.6z"/>
	</g>
</g>
<g>
	<g>
		<rect x="307.2" y="34.1" class="st0" width="68.3" height="17.1"/>
	</g>
</g>
<g>
	<g>
		<rect x="341.4" y="68.3" class="st0" width="34.1" height="17.1"/>
	</g>
</g>
<g>
	<g>
		<path class="st0" d="M324.3,290.1c-18.9,0-34.1,15.3-34.1,34.1s15.3,34.1,34.1,34.1s34.1-15.3,34.1-34.1S343.1,290.1,324.3,290.1z
			 M324.3,341.4c-9.4,0-17.1-7.6-17.1-17.1s7.6-17.1,17.1-17.1s17.1,7.6,17.1,17.1S333.7,341.4,324.3,341.4z"/>
	</g>
</g>
<g>
	<g>
		<path class="st0" d="M469.1,204.9c-7.6-9.2-16.1-17.7-25.3-25.3V59.7c0-4.7-3.8-8.5-8.5-8.5h-25.6V8.5c0-4.7-3.8-8.5-8.5-8.5H8.5
			C3.8,0,0,3.8,0,8.5v392.6c0,4.7,3.8,8.5,8.5,8.5h42.7v25.6c0,4.7,3.8,8.5,8.5,8.5h119.8c66,79.9,184.2,91.3,264.2,25.3
			C523.7,403.1,535,284.8,469.1,204.9z M34.1,392.6H17.1V17.1h17.1C34.1,17.1,34.1,392.6,34.1,392.6z M409.6,68.3h17.1V167
			c-5.5-3.6-11.2-6.9-17.1-9.9V68.3z M51.2,392.6V17.1h341.4v132.4c-96.5-37.8-205.3,9.8-243.1,106.3c-17.2,44-17.2,92.8,0,136.8
			L51.2,392.6L51.2,392.6z M68.3,426.7v-17.1h88.9c3,5.9,6.3,11.6,9.9,17.1H68.3z M324.3,495c-94.3,0-170.7-76.4-170.7-170.7
			c0-94.3,76.4-170.7,170.7-170.7c94.3,0,170.7,76.4,170.7,170.7C494.9,418.5,418.5,494.9,324.3,495z"/>
	</g>
</g>
<g>
	<g>
		<rect x="281.6" y="409.6" class="st0" width="85.3" height="17.1"/>
	</g>
</g>
<g>
	<g>
		<rect x="256" y="443.8" class="st0" width="136.5" height="17.1"/>
	</g>
</g>
<g>
	<g>
		<rect x="315.8" y="196.3" class="st0" width="17.1" height="17.1"/>
	</g>
</g>
<g>
	<g>
		<rect x="349.9" y="196.3" class="st0" width="17.1" height="17.1"/>
	</g>
</g>
<g>
	<g>
		<rect x="281.6" y="196.3" class="st0" width="17.1" height="17.1"/>
	</g>
</g>
<g>
	<g>
		<path class="st0" d="M324.3,256c-37.7,0-68.3,30.6-68.3,68.3s30.6,68.3,68.3,68.3s68.3-30.6,68.3-68.3
			C392.5,286.6,362,256.1,324.3,256z M324.3,375.5c-28.3,0-51.2-22.9-51.2-51.2s22.9-51.2,51.2-51.2c28.3,0,51.2,22.9,51.2,51.2
			C375.5,352.6,352.6,375.5,324.3,375.5z"/>
	</g>
</g>
</svg>
