<?xml version="1.0" encoding="utf-8"?>
<!-- Generator: Adobe Illustrator 21.0.2, SVG Export Plug-In . SVG Version: 6.00 Build 0)  -->
<svg version="1.1" id="Capa_1" xmlns="http://www.w3.org/2000/svg" xmlns:xlink="http://www.w3.org/1999/xlink" x="0px" y="0px"
	 viewBox="0 0 512 512" style="enable-background:new 0 0 512 512;" xml:space="preserve">
<style type="text/css">
	.st0{fill:none;stroke:#049DE9;stroke-width:3;stroke-miterlimit:10;}
</style>
<g>
	<path class="st0" d="M463.7,106.5h-50.4C381.6,43.4,316.3,0,241,0S100.3,43.4,68.6,106.5H9.7c-5.3,0-9.7,4.3-9.7,9.7V261
		c0,26.5,21.5,48.2,48.1,48.3v193c0,5.3,4.3,9.7,9.7,9.7h366.5c5.3,0,9.7-4.3,9.7-9.7V395.9h29.9c26.6,0,48.3-21.7,48.3-48.3V154.7
		C512,128.1,490.4,106.5,463.7,106.5z M19.3,261V125.8h40.8c-7.6,20.5-11.9,42.6-12,65.7c0,0.1,0,0.2,0,0.4V290
		C32.2,289.9,19.3,276.9,19.3,261z M414.6,492.7H67.4V192.9c0-23.8,4.8-46.5,13.5-67.1h246.5c5.3,0,9.7-4.3,9.7-9.7
		s-4.3-9.7-9.7-9.7H90.5c30-52,86.2-87.2,150.5-87.2c64.3,0,120.5,35.1,150.5,87.2h-24.9c-5.3,0-9.7,4.3-9.7,9.7s4.3,9.7,9.7,9.7
		h34.5c8.7,20.7,13.5,43.4,13.5,67.1V492.7L414.6,492.7z M492.7,347.6c0,16-13,29-29,29h-29.9V191.9c0-0.1,0-0.2,0-0.4
		c-0.2-23.1-4.4-45.2-12-65.7h41.9c16,0,29,13,29,29L492.7,347.6L492.7,347.6z"/>
	<path class="st0" d="M251.1,154.3h-18.5c-21.3,0-38.6,17.3-38.6,38.6V425c0,21.3,17.3,38.6,38.6,38.6h18.5
		c21.3,0,38.6-17.3,38.6-38.6V192.9C289.7,171.6,272.4,154.3,251.1,154.3z M270.4,425c0,10.6-8.7,19.3-19.3,19.3h-18.5
		c-10.6,0-19.3-8.7-19.3-19.3v-9.9h20c5.3,0,9.7-4.3,9.7-9.7c0-5.3-4.3-9.7-9.7-9.7h-20v-19.1h20c5.3,0,9.7-4.3,9.7-9.7
		s-4.3-9.7-9.7-9.7h-20v-19.2h20c5.3,0,9.7-4.3,9.7-9.7c0-5.3-4.3-9.7-9.7-9.7h-20v-19.1h20c5.3,0,9.7-4.3,9.7-9.7s-4.3-9.7-9.7-9.7
		h-20v-19.7h20c5.3,0,9.7-4.3,9.7-9.7s-4.3-9.7-9.7-9.7h-20v-19.1h20c5.3,0,9.7-4.3,9.7-9.7s-4.3-9.7-9.7-9.7h-20v-10
		c0-10.6,8.7-19.3,19.3-19.3h18.5c10.6,0,19.3,8.7,19.3,19.3V425z"/>
</g>
</svg>
