<?xml version="1.0" encoding="utf-8"?>
<!-- Generator: Adobe Illustrator 21.0.2, SVG Export Plug-In . SVG Version: 6.00 Build 0)  -->
<svg version="1.1" id="Layer_1" xmlns="http://www.w3.org/2000/svg" xmlns:xlink="http://www.w3.org/1999/xlink" x="0px" y="0px"
	 viewBox="0 0 500 500" style="enable-background:new 0 0 500 500;" xml:space="preserve">
<style type="text/css">
	.st0{fill:none;stroke:#049DE9;stroke-width:3;stroke-miterlimit:10;}
</style>
<title>electrical</title>
<path class="st0" d="M213.9,289.2c1.3-1.9,52.1-69.1,52.1-69.1l-8.1,40.2l32,2.5l-52.7,82.9l8.2-52.1L213.9,289.2z"/>
<path class="st0" d="M123.9,191h253.3l0,0v104.6c0,43.5-35.2,78.7-78.7,78.8h-95.8c-43.5,0-78.8-35.3-78.8-78.8l0,0V191L123.9,191z"
	/>
<path class="st0" d="M195.6,64.3L195.6,64.3c10.1,0,18.3,8.2,18.3,18.3V191l0,0h-36.7l0,0V82.6C177.3,72.5,185.5,64.3,195.6,64.3z"
	/>
<path class="st0" d="M305.6,64.3L305.6,64.3c10.1,0,18.3,8.2,18.3,18.3V191l0,0h-36.7l0,0V82.6C287.3,72.5,295.5,64.3,305.6,64.3z"
	/>
<rect x="195.6" y="374.3" class="st0" width="110" height="62.2"/>
</svg>
