<?xml version="1.0" encoding="utf-8"?>
<!-- Generator: Adobe Illustrator 21.0.2, SVG Export Plug-In . SVG Version: 6.00 Build 0)  -->
<svg version="1.1" id="Layer_1" xmlns="http://www.w3.org/2000/svg" xmlns:xlink="http://www.w3.org/1999/xlink" x="0px" y="0px"
	 viewBox="0 0 500 500" style="enable-background:new 0 0 500 500;" xml:space="preserve">
<style type="text/css">
	.st0{fill:none;stroke:#049DE9;stroke-width:3;stroke-miterlimit:10;}
</style>
<title>external finish</title>
<g>
	<path class="st0" d="M348.1,220.1v32.5c0,4.8-3.9,8.6-8.6,8.6h-90.4"/>
	<path class="st0" d="M146.8,215.4v18c-5-0.3-8.7-4.6-8.4-9.5C138.7,219.3,142.3,215.7,146.8,215.4z"/>
	<path class="st0" d="M348.1,220.1v-22.2c0-4.8-3.9-8.6-8.6-8.6h-184c-4.8,0-8.6,3.8-8.7,8.6c0,0,0,0,0,0v54.6
		c0,4.8,3.9,8.6,8.6,8.6c0,0,0,0,0,0h93.6"/>
	<path class="st0" d="M348.1,220.1h5.3c4.6,0,8.3,3.7,8.3,8.3l0,0v48.9c0,4.6-3.7,8.3-8.3,8.3l0,0H249.1"/>
	<path class="st0" d="M233,310.2h27.1c4.3,0,7.7,3.4,7.7,7.7v86.9c0,4.3-3.4,7.7-7.7,7.7H233c-4.3,0-7.7-3.4-7.7-7.7v-86.9
		C225.3,313.6,228.7,310.2,233,310.2z"/>
	<polyline class="st0" points="249.1,310.2 249.1,285.4 313.6,285.4 	"/>
	<path class="st0" d="M192.4,173.6c0-17.1-5.5-22.6-22.6-22.6c17.1,0,22.6-5.5,22.6-22.6c0,17.1,5.5,22.6,22.6,22.6
		C197.9,151.1,192.4,156.6,192.4,173.6z"/>
	<path class="st0" d="M213.7,182.1c0-10-3.3-13.1-13.1-13.1c10,0,13.1-3.3,13.1-13.1c0,10,3.3,13.1,13.1,13.1
		C216.8,169,213.7,172.1,213.7,182.1z"/>
	<path class="st0" d="M312.2,167.6c0-30.3,9.7-40,40-40c-30.3,0-40-9.7-40-40c0,30.3-9.7,40-40,40
		C302.5,127.6,312.2,137.2,312.2,167.6z"/>
	<path class="st0" d="M274.6,182.4c0-17.5,5.6-23.1,23.1-23.1c-17.5,0-23.1-5.6-23.1-23.1c0,17.5-5.6,23.1-23.1,23.1
		C269,159.3,274.6,164.9,274.6,182.4z"/>
</g>
</svg>
