<?xml version="1.0" encoding="utf-8"?>
<!-- Generator: Adobe Illustrator 21.0.2, SVG Export Plug-In . SVG Version: 6.00 Build 0)  -->
<svg version="1.1" id="Capa_1" xmlns="http://www.w3.org/2000/svg" xmlns:xlink="http://www.w3.org/1999/xlink" x="0px" y="0px"
	 viewBox="0 0 512 512" style="enable-background:new 0 0 512 512;" xml:space="preserve">
<style type="text/css">
	.st0{fill:none;stroke:#049DE9;stroke-width:3;stroke-miterlimit:10;}
</style>
<g>
	<path class="st0" d="M475.5,425.4v-13.6c20.7-6,36.5-25.2,36.5-48c0-27.5-22.2-49.9-49.8-49.9s-50.1,22.4-50.1,49.9
		c0,22.7,15.2,41.9,35.9,47.9v13h-67.2V14.8c0-7.6-5.6-13.8-13.2-13.8H141.9c-7.6,0-14.4,6.2-14.4,13.8v410.1H63.7v-13
		c20.7-6,36.4-25.2,36.4-47.9c0-27.5-22.2-49.9-49.8-49.9S0.2,336.3,0.2,363.9c0,22.8,15.3,42,36,48v13.6
		C15.5,428.7,0,446.5,0,467.9v29.3c0,7.6,6.7,13.8,14.4,13.8h484.1c7.6,0,13.2-6.2,13.2-13.8v-29.3
		C511.7,446.5,496.2,428.7,475.5,425.4z M198.1,424.9h15.5v58.6h-15.5V424.9z M241.2,424.9h27.6v58.6h-13.2h-14.4L241.2,424.9
		L241.2,424.9z M296.3,424.9h15.5v58.6h-15.5V424.9z M339.4,411.1c0-7.6-5.6-13.8-13.2-13.8H184.9c-7.6,0-14.4,6.2-14.4,13.8v72.4
		h-13.2h-2.3V28.6h100.5h97.6v454.9h0.6h-14.4V411.1z M27.6,467.9c0-8.6,7.5-15.5,16.1-15.5h83.8v31H27.6V467.9z M380.8,452.4h88.4
		c8.6,0,14.9,7,14.9,15.5v15.5H380.8V452.4z M462.4,341.5c12.3,0,22.3,10,22.3,22.3c0,12.3-10,22.3-22.3,22.3
		c-12.3,0-22.3-10-22.3-22.3C440,351.5,450.1,341.5,462.4,341.5z M50.5,341.5c12.3,0,22.3,10,22.3,22.3c0,12.3-10,22.3-22.3,22.3
		s-22.3-10-22.3-22.3C28.1,351.5,38.2,341.5,50.5,341.5z"/>
	<path class="st0" d="M197,57.9c-3.6,0-7.2,1.5-9.7,4c-2.6,2.6-4,6.1-4,9.8c0,3.6,1.5,7.2,4,9.8c2.6,2.6,6.1,4,9.7,4
		c3.6,0,7.2-1.5,9.8-4c2.6-2.6,4-6.1,4-9.8c0-3.6-1.5-7.2-4-9.8C204.2,59.3,200.6,57.9,197,57.9z"/>
	<path class="st0" d="M244.1,61.9c-2.6,2.6-4,6.1-4,9.8c0,3.6,1.5,7.2,4,9.8c2.6,2.6,6.1,4,9.7,4c0.6,0,1.2-0.1,1.7-0.1
		c3-0.4,5.9-1.8,8-3.9c2.6-2.6,4-6.1,4-9.8c0-3.6-1.5-7.2-4-9.8c-2.2-2.2-5-3.5-8-3.9c-0.6-0.1-1.1-0.1-1.7-0.1
		C250.2,57.9,246.7,59.3,244.1,61.9z"/>
	<path class="st0" d="M310.7,57.9c-3.6,0-7.2,1.5-9.7,4c-2.6,2.6-4,6.1-4,9.8c0,3.6,1.5,7.2,4,9.8c2.5,2.6,6.1,4,9.7,4
		c3.6,0,7.2-1.5,9.8-4c2.6-2.6,4-6.1,4-9.8c0-3.6-1.5-7.2-4-9.8C317.9,59.3,314.3,57.9,310.7,57.9z"/>
	<path class="st0" d="M197,114.7c-3.6,0-7.2,1.5-9.7,4c-2.6,2.6-4,6.1-4,9.8c0,3.6,1.5,7.2,4,9.8c2.6,2.6,6.1,4,9.7,4s7.2-1.5,9.8-4
		c2.6-2.6,4-6.1,4-9.8c0-3.6-1.5-7.2-4-9.8C204.2,116.2,200.6,114.7,197,114.7z"/>
	<path class="st0" d="M244.1,118.8c-2.6,2.6-4,6.1-4,9.8c0,3.6,1.5,7.2,4,9.8c2.6,2.6,6.1,4,9.7,4c0.6,0,1.2-0.1,1.7-0.1
		c3-0.4,5.9-1.8,8-3.9c2.6-2.6,4-6.1,4-9.8c0-3.6-1.5-7.2-4-9.8c-2.2-2.2-5-3.5-8-3.9c-0.6-0.1-1.1-0.1-1.7-0.1
		C250.2,114.7,246.7,116.2,244.1,118.8z"/>
	<path class="st0" d="M310.7,114.7c-3.6,0-7.2,1.5-9.7,4c-2.6,2.6-4,6.1-4,9.8c0,3.6,1.5,7.2,4,9.8c2.6,2.6,6.1,4,9.7,4
		c3.6,0,7.2-1.5,9.8-4c2.6-2.6,4-6.1,4-9.8c0-3.6-1.5-7.2-4-9.8C317.9,116.2,314.3,114.7,310.7,114.7z"/>
	<path class="st0" d="M197,171.6c-3.6,0-7.2,1.5-9.7,4c-2.6,2.6-4,6.1-4,9.8c0,3.6,1.5,7.2,4,9.8c2.6,2.5,6.1,4,9.7,4
		c3.6,0,7.2-1.5,9.8-4c2.6-2.6,4-6.1,4-9.8c0-3.6-1.5-7.2-4-9.8C204.2,173,200.6,171.6,197,171.6z"/>
	<path class="st0" d="M244.1,175.6c-2.6,2.6-4,6.1-4,9.8c0,3.6,1.5,7.2,4,9.8c2.6,2.5,6.1,4,9.8,4c0.6,0,1.2-0.1,1.7-0.1
		c3-0.4,5.9-1.8,8-3.9c2.6-2.6,4-6.1,4-9.8c0-3.6-1.5-7.2-4-9.8c-2.2-2.2-5-3.5-8-3.9c-0.6-0.1-1.1-0.1-1.7-0.1
		C250.2,171.6,246.7,173,244.1,175.6z"/>
	<path class="st0" d="M310.7,171.6c-3.6,0-7.2,1.5-9.8,4c-2.5,2.6-4,6.1-4,9.8c0,3.6,1.5,7.2,4,9.8c2.6,2.5,6.1,4,9.8,4
		c3.6,0,7.2-1.5,9.8-4c2.6-2.6,4-6.1,4-9.8c0-3.6-1.5-7.2-4-9.8C317.9,173,314.3,171.6,310.7,171.6z"/>
	<path class="st0" d="M197,228.4c-3.6,0-7.2,1.5-9.7,4c-2.6,2.6-4,6.1-4,9.8c0,3.6,1.5,7.2,4,9.8c2.6,2.6,6.1,4,9.7,4
		c3.6,0,7.2-1.5,9.8-4c2.6-2.6,4-6.1,4-9.8c0-3.6-1.5-7.2-4-9.8C204.2,229.9,200.6,228.4,197,228.4z"/>
	<path class="st0" d="M244.1,232.5c-2.6,2.6-4,6.1-4,9.8c0,3.6,1.5,7.2,4,9.8c2.6,2.6,6.1,4,9.7,4c0.6,0,1.2-0.1,1.7-0.1
		c3-0.4,5.9-1.8,8-3.9c2.6-2.6,4-6.1,4-9.8c0-3.6-1.5-7.2-4-9.8c-2.2-2.1-5-3.5-8-3.9c-0.6-0.1-1.1-0.1-1.7-0.1
		C250.2,228.4,246.7,229.9,244.1,232.5z"/>
	<path class="st0" d="M310.7,228.4c-3.6,0-7.2,1.5-9.7,4c-2.6,2.6-4,6.1-4,9.8c0,3.6,1.5,7.2,4,9.8c2.6,2.6,6.1,4,9.7,4
		c3.6,0,7.2-1.5,9.8-4c2.6-2.6,4-6.1,4-9.8c0-3.6-1.5-7.2-4-9.8C317.9,229.9,314.3,228.4,310.7,228.4z"/>
	<path class="st0" d="M197,285.3c-3.6,0-7.2,1.5-9.7,4c-2.6,2.6-4,6.1-4,9.8c0,3.6,1.5,7.2,4,9.8c2.6,2.5,6.1,4,9.7,4
		c3.6,0,7.2-1.5,9.8-4c2.6-2.6,4-6.1,4-9.8c0-3.6-1.5-7.2-4-9.8C204.2,286.8,200.6,285.3,197,285.3z"/>
	<path class="st0" d="M244.1,289.3c-2.6,2.6-4,6.1-4,9.8c0,3.6,1.5,7.2,4,9.8c2.6,2.5,6.1,4,9.8,4c0.6,0,1.2,0,1.7-0.1
		c3-0.4,5.9-1.8,8-3.9c2.6-2.6,4-6.1,4-9.8c0-3.6-1.5-7.2-4-9.8c-2.2-2.1-5-3.5-8-3.9c-0.6-0.1-1.1-0.1-1.7-0.1
		C250.2,285.3,246.7,286.8,244.1,289.3z"/>
	<path class="st0" d="M310.7,285.3c-3.6,0-7.2,1.5-9.7,4c-2.6,2.6-4,6.1-4,9.8c0,3.6,1.5,7.2,4,9.8c2.6,2.5,6.1,4,9.7,4
		c3.6,0,7.2-1.5,9.8-4c2.6-2.6,4-6.1,4-9.8c0-3.6-1.5-7.2-4-9.8C317.9,286.8,314.3,285.3,310.7,285.3z"/>
	<path class="st0" d="M197,342.1c-3.6,0-7.2,1.5-9.7,4c-2.6,2.6-4,6.1-4,9.8c0,3.6,1.5,7.2,4,9.8c2.6,2.6,6.1,4,9.7,4
		c3.6,0,7.2-1.5,9.8-4c2.6-2.6,4-6.1,4-9.8c0-3.6-1.5-7.2-4-9.8C204.2,343.6,200.6,342.1,197,342.1z"/>
	<path class="st0" d="M244.1,346.2c-2.6,2.6-4,6.1-4,9.8c0,3.6,1.5,7.2,4,9.8c2.6,2.6,6.1,4,9.7,4c0.6,0,1.2,0,1.7-0.1
		c3-0.4,5.9-1.8,8-3.9c2.6-2.6,4-6.1,4-9.8c0-3.6-1.5-7.2-4-9.8c-2.2-2.2-5-3.5-8-3.9c-0.6-0.1-1.1-0.1-1.7-0.1
		C250.2,342.1,246.7,343.6,244.1,346.2z"/>
	<path class="st0" d="M310.7,342.1c-3.6,0-7.2,1.5-9.7,4c-2.6,2.6-4,6.1-4,9.8c0,3.6,1.5,7.2,4,9.8c2.5,2.6,6.1,4,9.7,4
		c3.6,0,7.2-1.5,9.8-4c2.6-2.6,4-6.1,4-9.8c0-3.6-1.5-7.2-4-9.8C317.9,343.6,314.3,342.1,310.7,342.1z"/>
</g>
</svg>
