<?xml version="1.0" encoding="utf-8"?>
<!-- Generator: Adobe Illustrator 21.0.2, SVG Export Plug-In . SVG Version: 6.00 Build 0)  -->
<svg version="1.1" id="Layer_1" xmlns="http://www.w3.org/2000/svg" xmlns:xlink="http://www.w3.org/1999/xlink" x="0px" y="0px"
	 viewBox="0 0 500 500" style="enable-background:new 0 0 500 500;" xml:space="preserve">
<style type="text/css">
	.st0{fill:none;stroke:#049DE9;stroke-width:3;stroke-miterlimit:10;}
</style>
<title>facilities</title>
<path class="st0" d="M248.5,174.4L157,236.1c-0.9,0.6-1.4,1.6-1.4,2.6v115c0,1.8,1.5,3.3,3.3,3.3h183.3c1.8,0,3.3-1.5,3.3-3.3v-115
	c0-1-0.5-2-1.4-2.6l-92.1-61.7C251,173.7,249.6,173.7,248.5,174.4z M285.5,295.4h-18.2c-1.8,0-3.3,1.5-3.3,3.3v17.9
	c0,1.8-1.5,3.3-3.3,3.3h-21c-1.8,0-3.3-1.5-3.3-3.3v-18.1c0-1.8-1.5-3.3-3.3-3.3h-18c-1.8,0-3.3-1.5-3.3-3.3v-21
	c0-1.8,1.5-3.3,3.3-3.3h18.3c1.8,0,3.3-1.5,3.3-3.3v-18c0-1.8,1.5-3.3,3.3-3.3h21.3c1.8,0,3.3,1.5,3.3,3.3v18.2
	c0,1.8,1.5,3.3,3.3,3.3h18.2c1.8,0,3.3,1.5,3.3,3.3v21.3c-0.2,1.8-1.8,3.2-3.6,3C285.7,295.4,285.6,295.4,285.5,295.4z"/>
<path class="st0" d="M123.1,356.9h253.8c1.8,0,3.2,1.4,3.2,3.2v11c0,1.8-1.4,3.2-3.2,3.2H123.1c-1.8,0-3.2-1.4-3.2-3.2v-11
	C119.9,358.3,121.3,356.9,123.1,356.9z"/>
<path class="st0" d="M363.8,210l-7.4,10.4c-1.1,1.4-3,1.7-4.5,0.8l-100.3-70.8c-1.1-0.7-2.6-0.7-3.7,0l-100.3,70.9
	c-1.4,0.9-3.3,0.5-4.3-0.8l-7.5-10.6c-0.8-1.4-0.5-3.3,0.8-4.3l113.3-80l0,0l113.3,80C364.5,206.8,364.7,208.6,363.8,210z"/>
</svg>
