<?xml version="1.0" encoding="utf-8"?>
<!-- Generator: Adobe Illustrator 21.0.2, SVG Export Plug-In . SVG Version: 6.00 Build 0)  -->
<svg version="1.1" id="Layer_1" xmlns="http://www.w3.org/2000/svg" xmlns:xlink="http://www.w3.org/1999/xlink" x="0px" y="0px"
	 viewBox="0 0 500 500" style="enable-background:new 0 0 500 500;" xml:space="preserve">
<style type="text/css">
	.st0{fill:none;stroke:#049DE9;stroke-width:3;stroke-miterlimit:10;}
</style>
<title>fans</title>
<circle class="st0" cx="246.2" cy="280.8" r="24"/>
<path class="st0" d="M259.5,251l-26.7-0.2c-4.5,0-8.1-3.7-8.1-8.2c0-0.1,0-0.1,0-0.2l3.3-115.7c0.1-4.4,3.8-8,8.2-7.9h21.4
	c4.4,0,8,3.6,8.1,8l1.8,115.8c0.2,4.5-3.4,8.3-7.9,8.5C259.6,251,259.5,251,259.5,251z"/>
<path class="st0" d="M212.2,285.1l12.3,23.6c2.1,4,0.5,8.9-3.4,11c-0.1,0-0.1,0.1-0.2,0.1l-103.8,51.4c-4,2-8.8,0.4-10.9-3.5l-10-19
	c-2-3.9-0.6-8.8,3.3-10.9l101.4-56c4-2.2,8.9-0.7,11.1,3.2C212.1,285,212.2,285.1,212.2,285.1z"/>
<path class="st0" d="M266.7,308.4l14.6-22.2c2.5-3.8,7.5-4.8,11.3-2.3c0.1,0,0.1,0.1,0.2,0.1l95.4,65.7c3.7,2.5,4.6,7.5,2.2,11.2
	l-11.8,17.9c-2.4,3.7-7.4,4.8-11.2,2.4l-98.3-61.3c-3.8-2.4-5-7.5-2.5-11.3C266.6,308.5,266.6,308.4,266.7,308.4z"/>
</svg>
