<?xml version="1.0" encoding="utf-8"?>
<!-- Generator: Adobe Illustrator 21.0.2, SVG Export Plug-In . SVG Version: 6.00 Build 0)  -->
<svg version="1.1" id="Layer_1" xmlns="http://www.w3.org/2000/svg" xmlns:xlink="http://www.w3.org/1999/xlink" x="0px" y="0px"
	 viewBox="0 0 500 500" style="enable-background:new 0 0 500 500;" xml:space="preserve">
<style type="text/css">
	.st0{fill:none;stroke:#049DE9;stroke-width:3;stroke-miterlimit:10;}
</style>
<title>fire protection</title>
<path class="st0" d="M330.2,335.8c-24.5,24-51.4,45.3-80.2,63.8c-26.3-16.8-50.9-36-73.6-57.4c-15.7-14.7-27.6-32.9-34.7-53.1
	c-18.9-54.6-11-116.2-11-116.2c50.4-14.2,47.9-72.5,47.9-72.5h142.8c0,0-2.5,58.3,47.9,72.5c0,0,10,78.1-19.5,136.4
	C344.7,319.1,338.1,328.1,330.2,335.8z"/>
<path class="st0" d="M295.5,338.6c-14.4,12.3-29.6,23.5-45.5,33.7c-15.2-9.7-29.8-20.5-43.6-32.1c-30.8-25.8-50.2-62.6-54.1-102.5
	c-1.6-16.9-1.6-33.9,0.2-50.7c41.2-11.6,45.8-64.9,45.8-64.9h103.3c0,0,4.6,53.3,45.8,64.9c1.9,18.2,1.8,36.6-0.2,54.8
	C342.8,279.4,324.4,314,295.5,338.6z"/>
<path class="st0" d="M234.7,160c0.7,16.6-3.6,33-12.5,47.1c0,0-3.3-10.8-7.1-14.2c0,0-7.5,17.1-11.7,23.8
	c-4.2,6.7-31.5,74.6,31.4,92.9c0,0-24.7-37.9,4.5-68.3c0,0-1.2,46.7,34.2,68.3c0,0,65.8-37.5,16.3-107.5c0,0-5.4,16.3-10.8,17.1
	C278.9,219.2,276,184.6,234.7,160z"/>
</svg>
