<?xml version="1.0" encoding="utf-8"?>
<!-- Generator: Adobe Illustrator 21.0.2, SVG Export Plug-In . SVG Version: 6.00 Build 0)  -->
<svg version="1.1" id="Layer_1" xmlns="http://www.w3.org/2000/svg" xmlns:xlink="http://www.w3.org/1999/xlink" x="0px" y="0px"
	 viewBox="0 0 500 500" style="enable-background:new 0 0 500 500;" xml:space="preserve">
<style type="text/css">
	.st0{fill:none;stroke:#049DE9;stroke-width:3;stroke-miterlimit:10;}
</style>
<title>fittings</title>
<polyline class="st0" points="282.5,192.5 295.8,192.5 295.8,163.3 230.8,163.3 230.8,192.5 244.7,192.5 "/>
<polyline class="st0" points="244.7,192.5 244.7,176.7 282.5,176.7 282.5,192.5 "/>
<path class="st0" d="M174.6,203.3h175c11,0,20,9,20,20v103.8c0,11-9,20-20,20h-175c-11,0-20-9-20-20V223.3
	C154.6,212.3,163.6,203.3,174.6,203.3z"/>
<rect x="154.6" y="257.2" class="st0" width="215" height="12.8"/>
<path class="st0" d="M253.1,281.7l14.4,13.6c0,0,2.8,17.6-16.2,17.5l-15.4-15.6c0,0-5.9,28.8,19.7,36.1c4.9,1,10,1,14.9,0l13.9,12.6
	h34.3l-31.7-30c0,0,9.7-22.6-17.8-34.3C263.8,280.7,258.4,280.7,253.1,281.7z"/>
</svg>
