<?xml version="1.0" encoding="utf-8"?>
<!-- Generator: Adobe Illustrator 21.0.2, SVG Export Plug-In . SVG Version: 6.00 Build 0)  -->
<svg version="1.1" id="Layer_1" xmlns="http://www.w3.org/2000/svg" xmlns:xlink="http://www.w3.org/1999/xlink" x="0px" y="0px"
	 viewBox="0 0 500 500" style="enable-background:new 0 0 500 500;" xml:space="preserve">
<style type="text/css">
	.st0{fill:none;stroke:#049DE9;stroke-width:3;stroke-miterlimit:10;}
</style>
<title>furnishings</title>
<path class="st0" d="M362.5,163.9v36.9c-0.1,5.4-4.4,9.7-9.8,9.8H249.8"/>
<path class="st0" d="M133.3,158.6v20.4c-5.6-0.3-10-5.2-9.6-10.8C124,163.1,128.1,158.9,133.3,158.6z"/>
<path class="st0" d="M362.5,163.9v-25.2c-0.1-5.4-4.4-9.7-9.8-9.8H143.3c-5.5,0-9.9,4.4-10,9.8v62.1c0.1,5.5,4.5,9.8,10,9.8H250"/>
<path class="st0" d="M362.5,163.9h6c5.2,0,9.4,4.2,9.4,9.4l0,0v55.6c0,5.2-4.2,9.4-9.4,9.4H249.8"/>
<path class="st0" d="M230.4,266.5h32.9c4.3,0,7.7,3.4,7.7,7.7v100.9c0,4.3-3.4,7.7-7.7,7.7h-32.9c-4.3,0-7.7-3.4-7.7-7.7V274.2
	C222.7,269.9,226.2,266.5,230.4,266.5z"/>
<polyline class="st0" points="249.8,266.5 249.8,238.3 323.1,238.3 "/>
</svg>
