<?xml version="1.0" encoding="utf-8"?>
<!-- Generator: Adobe Illustrator 21.0.2, SVG Export Plug-In . SVG Version: 6.00 Build 0)  -->
<svg version="1.1" id="Layer_1" xmlns="http://www.w3.org/2000/svg" xmlns:xlink="http://www.w3.org/1999/xlink" x="0px" y="0px"
	 viewBox="0 0 500 500" style="enable-background:new 0 0 500 500;" xml:space="preserve">
<style type="text/css">
	.st0{fill:none;stroke:#049DE9;stroke-width:3;stroke-miterlimit:10;}
</style>
<title>green area</title>
<path class="st0" d="M241.1,132.2l-41.7,71.1c-14,23.8-6,54.5,17.8,68.4c7.7,4.5,16.4,6.9,25.3,6.9l0,0
	c27.6-0.1,49.9-22.5,49.9-50.1c0-9.3-2.6-18.4-7.5-26.3L241.1,132.2z"/>
<path class="st0" d="M266.4,197.4c0,0,19.3,35.3-4.7,58.1"/>
<line class="st0" x1="242.5" y1="278.6" x2="242.5" y2="367.8"/>
<path class="st0" d="M330.8,204.7L301.9,254c-9.7,16.5-4.2,37.6,12.3,47.3c5.4,3.1,11.5,4.8,17.7,4.8l0,0
	c19.1,0,34.6-15.4,34.6-34.5c0-6.5-1.8-12.9-5.3-18.4L330.8,204.7z"/>
<path class="st0" d="M348.3,249.8c0,0,13.3,24.4-3.3,40.2"/>
<line class="st0" x1="331.7" y1="306.1" x2="331.7" y2="367.8"/>
<line class="st0" x1="133.7" y1="367.8" x2="366.3" y2="367.8"/>
<rect x="138.5" y="323.6" class="st0" width="90.9" height="11.4"/>
<rect x="138.5" y="349.5" class="st0" width="90.9" height="0.3"/>
<line class="st0" x1="153.4" y1="349.5" x2="153.4" y2="367.8"/>
<line class="st0" x1="210.5" y1="349.5" x2="210.5" y2="367.8"/>
<line class="st0" x1="148.1" y1="334.9" x2="148.1" y2="323.6"/>
<line class="st0" x1="160" y1="334.9" x2="160" y2="323.6"/>
<line class="st0" x1="171.8" y1="334.9" x2="171.8" y2="323.6"/>
<line class="st0" x1="183.6" y1="334.9" x2="183.6" y2="323.6"/>
<line class="st0" x1="195.4" y1="334.9" x2="195.4" y2="323.6"/>
<line class="st0" x1="207.2" y1="334.9" x2="207.2" y2="323.6"/>
<line class="st0" x1="219" y1="334.9" x2="219" y2="323.6"/>
<line class="st0" x1="153.4" y1="334.9" x2="153.4" y2="349.5"/>
<line class="st0" x1="210.5" y1="334.9" x2="210.5" y2="349.5"/>
</svg>
