<?xml version="1.0" encoding="utf-8"?>
<!-- Generator: Adobe Illustrator 21.0.2, SVG Export Plug-In . SVG Version: 6.00 Build 0)  -->
<svg version="1.1" id="Layer_1" xmlns="http://www.w3.org/2000/svg" xmlns:xlink="http://www.w3.org/1999/xlink" x="0px" y="0px"
	 viewBox="0 0 500 500" style="enable-background:new 0 0 500 500;" xml:space="preserve">
<style type="text/css">
	.st0{fill:none;stroke:#049DE9;stroke-width:3;stroke-miterlimit:10;}
</style>
<title>health</title>
<path class="st0" d="M128.9,147.8h43c3.7,0,6.7,3,6.7,6.7v191.1c0,3.7-3,6.7-6.7,6.7h-43c-3.7,0-6.7-3-6.7-6.7V154.4
	C122.3,150.8,125.3,147.8,128.9,147.8z"/>
<path class="st0" d="M95.3,187.7h20.3c3.7,0,6.7,3,6.7,6.7v111.2c0,3.7-3,6.7-6.7,6.7H95.3c-3.7,0-6.7-3-6.7-6.7V194.4
	C88.6,190.7,91.6,187.7,95.3,187.7z"/>
<path class="st0" d="M371.1,352.2h-43c-3.7,0-6.7-3-6.7-6.7V154.5c0-3.7,3-6.7,6.7-6.7h43c3.7,0,6.7,3,6.7,6.7v191.1
	C377.7,349.2,374.7,352.2,371.1,352.2z"/>
<path class="st0" d="M404.7,312.3h-20.3c-3.7,0-6.7-3-6.7-6.7V194.4c0-3.7,3-6.7,6.7-6.7h20.3c3.7,0,6.7,3,6.7,6.7v111.2
	C411.4,309.3,408.4,312.3,404.7,312.3z"/>
<path class="st0" d="M185.3,230h129.4c3.7,0,6.7,3,6.7,6.7v25c0,3.7-3,6.7-6.7,6.7H185.3c-3.7,0-6.7-3-6.7-6.7v-25
	C178.6,233,181.6,230,185.3,230z"/>
</svg>
