<?xml version="1.0" encoding="utf-8"?>
<!-- Generator: Adobe Illustrator 21.0.2, SVG Export Plug-In . SVG Version: 6.00 Build 0)  -->
<svg version="1.1" id="Capa_1" xmlns="http://www.w3.org/2000/svg" xmlns:xlink="http://www.w3.org/1999/xlink" x="0px" y="0px"
	 viewBox="0 0 512 512" style="enable-background:new 0 0 512 512;" xml:space="preserve">
<style type="text/css">
	.st0{fill:none;stroke:#049DE9;stroke-width:3;stroke-miterlimit:10;}
</style>
<g>
	<g>
		<path class="st0" d="M476.2,0H35.8C15.7,0,0,15.7,0,35.8v440.4C0,496.3,15.7,512,35.8,512h440.4c20.1,0,35.8-15.7,35.8-35.8V35.8
			C512,15.7,496.3,0,476.2,0z M495.5,476.2c0,10.8-8.5,19.3-19.3,19.3H35.8c-10.8,0-19.3-8.5-19.3-19.3V35.8
			c0-10.8,8.5-19.3,19.3-19.3h440.4c10.8,0,19.3,8.5,19.3,19.3L495.5,476.2L495.5,476.2z"/>
	</g>
</g>
<g>
	<g>
		<path class="st0" d="M145.9,55.1c-50.1,0-90.8,40.8-90.8,90.8s40.8,90.8,90.8,90.8s90.8-40.8,90.8-90.8S196,55.1,145.9,55.1z
			 M145.9,220.2c-41,0-74.3-33.3-74.3-74.3s33.3-74.3,74.3-74.3s74.3,33.3,74.3,74.3C220.2,186.9,186.9,220.2,145.9,220.2z"/>
	</g>
</g>
<g>
	<g>
		<path class="st0" d="M366.1,275.3c-34.9,0-63.3,28.4-63.3,63.3s28.4,63.3,63.3,63.3c34.9,0,63.3-28.4,63.3-63.3
			C429.4,303.7,401,275.3,366.1,275.3z M366.1,385.4c-25.8,0-46.8-21-46.8-46.8c0-25.8,21-46.8,46.8-46.8c25.8,0,46.8,21,46.8,46.8
			C412.9,364.4,391.9,385.4,366.1,385.4z"/>
	</g>
</g>
<g>
	<g>
		<path class="st0" d="M145.9,275.3c-34.9,0-63.3,28.4-63.3,63.3s28.4,63.3,63.3,63.3s63.3-28.4,63.3-63.3S180.8,275.3,145.9,275.3z
			 M145.9,385.4c-25.8,0-46.8-21-46.8-46.8c0-25.8,21-46.8,46.8-46.8s46.8,21,46.8,46.8C192.7,364.4,171.7,385.4,145.9,385.4z"/>
	</g>
</g>
<g>
	<g>
		<path class="st0" d="M366.1,55.1c-50.1,0-90.8,40.8-90.8,90.8s40.8,90.8,90.8,90.8c50.1,0,90.8-40.8,90.8-90.8
			C456.9,95.8,416.2,55.1,366.1,55.1z M366.1,220.2c-41,0-74.3-33.3-74.3-74.3s33.3-74.3,74.3-74.3c41,0,74.3,33.3,74.3,74.3
			C440.4,186.9,407.1,220.2,366.1,220.2z"/>
	</g>
</g>
<g>
	<g>
		<path class="st0" d="M173.6,440.4c-59-1.2-59.1-1.2-62.2,3.8c-1.5,2.5-1.7,5.6-0.4,8.1c1.4,2.9,4.4,4.6,7.4,4.6
			c0.7,0,1.5-0.1,2.3-0.3c5.2-0.4,30.2-0.1,52.6,0.3c4.6,0.1,8.3-3.5,8.4-8.1C181.8,444.3,178.1,440.5,173.6,440.4z"/>
	</g>
</g>
<g>
	<g>
		<path class="st0" d="M325.9,440.4h-1.1c-4.6,0-8.3,3.7-8.3,8.3c0,4.6,3.7,8.3,8.3,8.3h1.1c4.6,0,8.3-3.7,8.3-8.3
			C334.2,444.1,330.5,440.4,325.9,440.4z"/>
	</g>
</g>
<g>
	<g>
		<path class="st0" d="M353.4,440.4h-1.1c-4.6,0-8.3,3.7-8.3,8.3c0,4.6,3.7,8.3,8.3,8.3h1.1c4.6,0,8.3-3.7,8.3-8.3
			C361.7,444.1,358,440.4,353.4,440.4z"/>
	</g>
</g>
<g>
	<g>
		<path class="st0" d="M381,440.4h-1.1c-4.6,0-8.3,3.7-8.3,8.3c0,4.6,3.7,8.3,8.3,8.3h1.1c4.6,0,8.3-3.7,8.3-8.3
			C389.2,444.1,385.5,440.4,381,440.4z"/>
	</g>
</g>
<g>
	<g>
		<path class="st0" d="M408.5,440.4h-1.1c-4.6,0-8.3,3.7-8.3,8.3c0,4.6,3.7,8.3,8.3,8.3h1.1c4.6,0,8.3-3.7,8.3-8.3
			C416.8,444.1,413.1,440.4,408.5,440.4z"/>
	</g>
</g>
</svg>
