<?xml version="1.0" encoding="utf-8"?>
<!-- Generator: Adobe Illustrator 21.0.2, SVG Export Plug-In . SVG Version: 6.00 Build 0)  -->
<svg version="1.1" id="Capa_1" xmlns="http://www.w3.org/2000/svg" xmlns:xlink="http://www.w3.org/1999/xlink" x="0px" y="0px"
	 viewBox="0 0 512 512" style="enable-background:new 0 0 512 512;" xml:space="preserve">
<style type="text/css">
	.st0{fill:none;stroke:#049DE9;stroke-width:3;stroke-miterlimit:10;}
</style>
<g>
	<path class="st0" d="M197.8,257.5c0-36.6-29.7-66.3-66.3-66.3s-66.3,29.7-66.3,66.3c0,36.6,29.7,66.3,66.3,66.3
		S197.8,294,197.8,257.5z M81.7,257.5c0-27.4,22.3-49.8,49.8-49.8s49.8,22.3,49.8,49.8s-22.3,49.8-49.8,49.8S81.7,284.9,81.7,257.5z
		"/>
	<path class="st0" d="M131.5,237.3c4.8,0,8.6-3.9,8.6-8.6s-3.9-8.6-8.6-8.6s-8.6,3.9-8.6,8.6S126.7,237.3,131.5,237.3z"/>
	<path class="st0" d="M110.9,235.6c-1.3-0.8-2.8-1.2-4.3-1.2c-3.1,0-5.9,1.7-7.5,4.3c-1.2,2-1.5,4.3-0.9,6.6c0.6,2.2,2,4.1,4,5.3
		c1.3,0.8,2.8,1.2,4.3,1.2c3.1,0,5.9-1.7,7.5-4.3c1.2-2,1.5-4.3,0.9-6.6C114.3,238.6,112.9,236.7,110.9,235.6z"/>
	<path class="st0" d="M106.6,263.6L106.6,263.6c-4.6,0-8.3,3.7-8.3,8.3s3.7,8.3,8.3,8.3c4.6,0,8.3-3.7,8.3-8.3
		S111.1,263.6,106.6,263.6z"/>
	<path class="st0" d="M140.2,286.3c0-4.8-3.9-8.6-8.6-8.6s-8.6,3.9-8.6,8.6s3.9,8.6,8.6,8.6C136.3,294.9,140.2,291.1,140.2,286.3z"
		/>
	<path class="st0" d="M152.2,279.4c1.3,0.8,2.8,1.2,4.3,1.2c3.1,0,5.9-1.7,7.5-4.3c1.2-2,1.5-4.3,0.9-6.6c-0.6-2.2-2-4.1-4-5.2
		c-1.3-0.8-2.8-1.2-4.3-1.2c-3.1,0-6,1.7-7.5,4.3c-1.2,2-1.5,4.3-0.9,6.6S150.1,278.2,152.2,279.4z"/>
	<path class="st0" d="M156.5,251.7c1.5,0,3-0.4,4.3-1.2c4.1-2.4,5.5-7.7,3.2-11.8c-1.5-2.7-4.4-4.3-7.5-4.3c-1.5,0-3,0.4-4.3,1.2
		c-4.1,2.4-5.5,7.7-3.2,11.8C150.5,250,153.4,251.7,156.5,251.7z"/>
	<path class="st0" d="M131.5,121.1c12.9,0,23.5-10.5,23.5-23.5c0-4.6-3.7-8.3-8.3-8.3c-4.6,0-8.3,3.7-8.3,8.3c0,3.8-3.1,7-7,7
		s-7-3.1-7-7s3.1-7,7-7c4.6,0,8.3-3.7,8.3-8.3s-3.7-8.3-8.3-8.3c-12.9,0-23.5,10.5-23.5,23.5S118.6,121.1,131.5,121.1z"/>
	<path class="st0" d="M92.9,165.5h45.4c4.6,0,8.3-3.7,8.3-8.3c0-4.6-3.7-8.3-8.3-8.3H92.9c-10,0-18.2-8.1-18.3-18.2
		c1.2-44.9,3-78.8,3.5-88.1c0.3-4.6-3.2-8.5-7.8-8.7c-4.5-0.3-8.5,3.2-8.7,7.8c-0.5,9.4-2.4,43.5-3.5,88.7c0,0.1,0,0.1,0,0.2
		C58.2,149.9,73.8,165.5,92.9,165.5z"/>
	<path class="st0" d="M164,165.5h6.1c19.2,0,34.8-15.6,34.8-34.8c0-0.1,0-0.1,0-0.2c-1.2-45.2-3-79.3-3.5-88.7
		c-0.3-4.6-4.2-8-8.7-7.8c-4.6,0.3-8,4.2-7.8,8.7c0.5,9.3,2.3,43.2,3.5,88.1c-0.1,10-8.2,18.2-18.3,18.2H164c-4.6,0-8.3,3.7-8.3,8.3
		S159.5,165.5,164,165.5z"/>
	<path class="st0" d="M480.2,31.5C479.5,20,470.1,8.7,458.9,5.8C458,5.6,435.5,0,380.5,0c-55,0-77.5,5.6-78.4,5.8
		c-11.2,2.9-20.6,14.2-21.3,25.7c-0.1,0.9-5.3,86.8-5.3,187.4c0.1,100.6,5.3,186.5,5.3,187.4c0.7,11.6,10.1,22.9,21.3,25.7
		c0.9,0.2,21.2,5.3,70.5,5.8v32.7c0,13.8-11.2,25.1-25.1,25.1H164.8c-13.8,0-25.1-11.2-25.1-25.1v-32.7c49-0.5,69.3-5.5,70.1-5.7
		c11.2-2.9,20.6-14.2,21.3-25.7c0.1-0.9,5.3-86.8,5.3-187.4c-0.1-100.6-5.3-186.5-5.3-187.4C230.5,20,221.1,8.7,209.9,5.8
		C209,5.6,186.6,0,131.5,0S54,5.6,53.1,5.8C41.9,8.7,32.5,20,31.8,31.5c-0.1,0.9-5.3,86.8-5.3,187.4c0.1,100.6,5.3,186.5,5.3,187.4
		c0.7,11.6,10.1,22.9,21.3,25.7c0.9,0.2,21.1,5.2,70.1,5.7v32.7c0,22.9,18.7,41.6,41.6,41.6h182.7c22.9,0,41.6-18.7,41.6-41.6v-32.7
		c48.8-0.5,68.9-5.5,69.8-5.7c11.2-2.9,20.6-14.2,21.3-25.7c0.1-0.9,5.3-86.8,5.3-187.4C485.4,118.3,480.2,32.4,480.2,31.5z
		 M48.3,405.2c-0.1-0.9-5.2-86.3-5.3-186.3c0.1-100,5.2-185.5,5.3-186.3c0.3-4.4,4.6-9.7,8.9-10.7c0.2-0.1,21.8-5.3,74.3-5.3
		s74.1,5.2,74.3,5.3c4.3,1.1,8.6,6.3,8.9,10.7c0.1,0.9,5.2,86.3,5.3,186.3c-0.1,100-5.2,185.5-5.3,186.3c-0.3,4.4-4.6,9.7-8.9,10.7
		c-0.2,0.1-21.8,5.3-74.3,5.3S57.4,416,57.2,416C52.9,414.9,48.6,409.7,48.3,405.2z M463.7,405.2c-0.3,4.4-4.6,9.7-8.9,10.7
		c-0.2,0.1-21.8,5.3-74.3,5.3c-52.5,0-74.1-5.2-74.3-5.3c-4.3-1.1-8.6-6.3-8.9-10.7c-0.1-0.9-5.2-86.3-5.3-186.3
		c0.1-100,5.2-185.5,5.3-186.4c0.3-4.4,4.6-9.7,8.9-10.7c0.2-0.1,21.8-5.3,74.3-5.3c52.5,0,74.1,5.2,74.3,5.3
		c4.3,1.1,8.6,6.3,8.9,10.7c0.1,0.9,5.2,86.3,5.3,186.3C468.9,318.9,463.8,404.4,463.7,405.2z"/>
	<path class="st0" d="M341.6,166h45.8c4.6,0,8.3-3.7,8.3-8.3s-3.7-8.3-8.3-8.3h-45.8c-10.2,0-18.5-8.2-18.5-18.4
		c1.2-45.4,3-79.5,3.6-88.9c0.3-4.6-3.2-8.5-7.8-8.7c-4.6-0.3-8.5,3.2-8.7,7.8c-0.5,9.5-2.4,43.9-3.6,89.6c0,0.1,0,0.1,0,0.2
		C306.5,150.3,322.3,166,341.6,166z"/>
	<path class="st0" d="M380.5,123c4.6,0,8.3-3.7,8.3-8.3V84.7c0-4.6-3.7-8.3-8.3-8.3c-4.6,0-8.3,3.7-8.3,8.3v30.1
		C372.2,119.3,375.9,123,380.5,123z"/>
	<path class="st0" d="M450.9,41.2c-0.3-4.6-4.2-8-8.7-7.8c-4.6,0.3-8,4.2-7.8,8.7c0.5,9.4,2.4,43.7,3.6,88.9
		c-0.1,10.2-8.3,18.4-18.5,18.4h-6.1c-4.6,0-8.3,3.7-8.3,8.3c0,4.6,3.7,8.3,8.3,8.3h6.1c19.3,0,35-15.7,35-35c0-0.1,0-0.1,0-0.2
		C453.2,85.2,451.4,50.7,450.9,41.2z"/>
	<path class="st0" d="M170.4,386.6c0-4.6-3.7-8.3-8.3-8.3h-60.4c-4.6,0-8.3,3.7-8.3,8.3s3.7,8.3,8.3,8.3h60.4
		C166.7,394.8,170.4,391.1,170.4,386.6z"/>
	<path class="st0" d="M441,191.9H320c-4.6,0-8.3,3.7-8.3,8.3s3.7,8.3,8.3,8.3h121c4.6,0,8.3-3.7,8.3-8.3S445.5,191.9,441,191.9z"/>
</g>
</svg>
