<?xml version="1.0" encoding="utf-8"?>
<!-- Generator: Adobe Illustrator 21.0.2, SVG Export Plug-In . SVG Version: 6.00 Build 0)  -->
<svg version="1.1" id="Layer_1" xmlns="http://www.w3.org/2000/svg" xmlns:xlink="http://www.w3.org/1999/xlink" x="0px" y="0px"
	 viewBox="0 0 500 500" style="enable-background:new 0 0 500 500;" xml:space="preserve">
<style type="text/css">
	.st0{fill:none;stroke:#049DE9;stroke-width:3;stroke-miterlimit:10;}
</style>
<title>kitchen</title>
<g>
	<rect x="86.1" y="179.9" class="st0" width="100" height="210"/>
	<rect x="321.6" y="110.1" class="st0" width="66.1" height="56.1"/>
	<polygon class="st0" points="413.9,211.3 298.9,211.3 321.6,166.3 387.8,166.3 	"/>
	<rect x="186.1" y="276.6" class="st0" width="112.8" height="112.8"/>
	<line class="st0" x1="186.1" y1="314" x2="298.9" y2="314"/>
	<line class="st0" x1="186.1" y1="352.4" x2="298.9" y2="352.4"/>
	<line class="st0" x1="234.9" y1="296.9" x2="256.9" y2="296.9"/>
	<line class="st0" x1="234.9" y1="333.2" x2="256.9" y2="333.2"/>
	<line class="st0" x1="234.9" y1="369.9" x2="256.9" y2="369.9"/>
	<rect x="298.9" y="276.6" class="st0" width="110.6" height="113.2"/>
	<rect x="315.6" y="322.9" class="st0" width="78.6" height="51.9"/>
	<line class="st0" x1="298.9" y1="304.6" x2="409.4" y2="304.6"/>
	<rect x="313.1" y="286.8" class="st0" width="12.1" height="12.1"/>
	<rect x="337.8" y="286.8" class="st0" width="12.1" height="12.1"/>
	<rect x="362.5" y="286.8" class="st0" width="12.1" height="12.1"/>
	<rect x="387.2" y="286.8" class="st0" width="12.1" height="12.1"/>
	<path class="st0" d="M312.5,234.2c0,0,7.6,0.7,7.5,10.3c-0.1,9.6-7.5,8.9-7.5,8.9s-3.7,0.7-2.9,9.2c0.8,8.5,7.5,8.6,7.5,8.6"/>
	<path class="st0" d="M332.9,234.2c0,0,7.6,0.7,7.5,10.3c-0.1,9.6-7.5,8.9-7.5,8.9s-3.7,0.7-2.9,9.2c0.8,8.5,7.5,8.6,7.5,8.6"/>
	<path class="st0" d="M353.4,234.2c0,0,7.6,0.7,7.5,10.3c-0.1,9.6-7.5,8.9-7.5,8.9s-3.7,0.7-2.9,9.2c0.8,8.5,7.5,8.6,7.5,8.6"/>
	<path class="st0" d="M373.8,234.2c0,0,7.6,0.7,7.5,10.3c-0.1,9.6-7.5,8.9-7.5,8.9s-3.7,0.7-2.9,9.2c0.8,8.5,7.5,8.6,7.5,8.6"/>
	<path class="st0" d="M394.2,234.2c0,0,7.6,0.7,7.5,10.3c-0.1,9.6-7.5,8.9-7.5,8.9s-3.7,0.7-2.9,9.2c0.8,8.5,7.5,8.6,7.5,8.6"/>
	<rect x="203.9" y="229.3" class="st0" width="82.6" height="47.3"/>
	<rect x="264.1" y="229.3" class="st0" width="22.4" height="47.3"/>
	<rect x="216.1" y="238.9" class="st0" width="43.5" height="32.2"/>
	<line class="st0" x1="86.1" y1="264" x2="186.1" y2="264"/>
	<line class="st0" x1="101.1" y1="218.2" x2="101.1" y2="241.1"/>
	<line class="st0" x1="101.1" y1="292.8" x2="101.1" y2="311.5"/>
</g>
</svg>
