<?xml version="1.0" encoding="utf-8"?>
<!-- Generator: Adobe Illustrator 21.0.2, SVG Export Plug-In . SVG Version: 6.00 Build 0)  -->
<svg version="1.1" id="Layer_1" xmlns="http://www.w3.org/2000/svg" xmlns:xlink="http://www.w3.org/1999/xlink" x="0px" y="0px"
	 viewBox="0 0 500 500" style="enable-background:new 0 0 500 500;" xml:space="preserve">
<style type="text/css">
	.st0{fill:none;stroke:#049DE9;stroke-width:3;stroke-miterlimit:10;}
</style>
<title>lift</title>
<path class="st0" d="M134.4,117.8h231.1c5.5,0,10,4.5,10,10v244.4c0,5.5-4.5,10-10,10H134.4c-5.5,0-10-4.5-10-10V127.8
	C124.4,122.2,128.9,117.8,134.4,117.8z"/>
<path class="st0" d="M175,169.4h148.9c5.5,0,10,4.5,10,10v192.8c0,5.5-4.5,10-10,10H175c-5.5,0-10-4.5-10-10V179.4
	C165,173.9,169.5,169.4,175,169.4z"/>
<path class="st0" d="M180.6,261L195,243c3.5-4.3,9.8-5,14.1-1.5c0.6,0.5,1.2,1.1,1.7,1.8l13.3,17.7"/>
<path class="st0" d="M224.2,303l-14.4,17.9c-3.5,4.3-9.8,5-14.1,1.5c-0.6-0.5-1.2-1.1-1.7-1.8L180.6,303"/>
<circle class="st0" cx="275.2" cy="225.9" r="18.3"/>
<path class="st0" d="M246.1,318.6V271c0-5.5,4.5-10,10-10h38.1c5.5,0,10,4.5,10,10v47.7"/>
<path class="st0" d="M296.1,318.6v53.6c0,5.5-4.5,10-10,10h-22.2c-5.5,0-10-4.5-10-10v-53.6"/>
<line class="st0" x1="246.1" y1="319.2" x2="253.9" y2="319.2"/>
<line class="st0" x1="296.4" y1="319.2" x2="304.2" y2="319.2"/>
</svg>
