<?xml version="1.0" encoding="utf-8"?>
<!-- Generator: Adobe Illustrator 21.0.2, SVG Export Plug-In . SVG Version: 6.00 Build 0)  -->
<svg version="1.1" id="Layer_1" xmlns="http://www.w3.org/2000/svg" xmlns:xlink="http://www.w3.org/1999/xlink" x="0px" y="0px"
	 viewBox="0 0 500 500" style="enable-background:new 0 0 500 500;" xml:space="preserve">
<style type="text/css">
	.st0{fill:none;stroke:#049DE9;stroke-width:3;stroke-miterlimit:10;}
</style>
<title>master bedroom</title>
<path class="st0" d="M177.6,127.5h143.8c1.8,0,3.3,1.5,3.3,3.3v74.9c0,1.8-1.5,3.3-3.3,3.3H177.6c-1.8,0-3.3-1.5-3.3-3.3v-74.9
	C174.3,129,175.8,127.5,177.6,127.5z"/>
<circle class="st0" cx="206.8" cy="154.4" r="12.1"/>
<path class="st0" d="M154.7,247.4h189c1.8,0,3.3,1.5,3.3,3.3v38.7c0,1.8-1.5,3.3-3.3,3.3h-189c-1.8,0-3.3-1.5-3.3-3.3v-38.7
	C151.4,248.9,152.9,247.4,154.7,247.4z"/>
<path class="st0" d="M137.2,292.8h225.6c1.8,0,3.3,1.5,3.3,3.3v22.1c0,1.8-1.5,3.3-3.3,3.3H137.2c-1.8,0-3.3-1.5-3.3-3.3v-22.1
	C133.9,294.3,135.4,292.8,137.2,292.8z"/>
<path class="st0" d="M368.7,370.6l-43-36.2c-0.6-0.5-1.4-0.8-2.1-0.8H178.8c-0.8,0-1.5,0.3-2.1,0.7L131,371
	c-1.4,1.1-3.5,0.9-4.7-0.5c-0.5-0.6-0.7-1.3-0.7-2.1V325c0-1.8,1.5-3.3,3.3-3.3h241.9c1.8,0,3.3,1.5,3.3,3.3v43.3
	c-0.1,1.8-1.8,3.2-3.6,3.1C369.9,371.4,369.2,371.1,368.7,370.6z"/>
<path class="st0" d="M173.5,270.1h63.3c1.8,0,3.3,1.5,3.3,3.3v16c0,1.8-1.5,3.3-3.3,3.3h-63.3c-1.8,0-3.3-1.5-3.3-3.3v-16
	C170.1,271.6,171.6,270.1,173.5,270.1z"/>
<path class="st0" d="M262.1,270.1h63.3c1.8,0,3.3,1.5,3.3,3.3v16c0,1.8-1.5,3.3-3.3,3.3h-63.3c-1.8,0-3.3-1.5-3.3-3.3v-16
	C258.8,271.6,260.3,270.1,262.1,270.1z"/>
<path class="st0" d="M140.9,216H95.7c-1.8,0-3.3-1.5-3.3-3.3c0-0.4,0.1-0.7,0.2-1.1l14.3-41c0.5-1.3,1.7-2.2,3.1-2.2h16.7
	c1.4,0,2.7,0.9,3.1,2.2l14.3,41c0.6,1.7-0.3,3.6-2,4.3C141.7,215.9,141.3,216,140.9,216z"/>
<path class="st0" d="M115.5,216h2.8c1.8,0,3.3,1.5,3.3,3.3v24.8c0,1.8-1.5,3.3-3.3,3.3h-2.8c-1.8,0-3.3-1.5-3.3-3.3v-24.8
	C112.1,217.5,113.6,216,115.5,216z"/>
<path class="st0" d="M104.5,247.4h26.1c1.8,0,3.3,1.5,3.3,3.3v10c0,1.8-1.5,3.3-3.3,3.3h-26.1c-1.8,0-3.3-1.5-3.3-3.3v-10
	C101.2,248.9,102.7,247.4,104.5,247.4z"/>
<path class="st0" d="M125.6,338.4H81.9c-1.8,0-3.3-1.5-3.3-3.3v-67.7c0-1.8,1.5-3.3,3.3-3.3h60.4c1.8,0,3.3,1.5,3.3,3.3v25.4"/>
<path class="st0" d="M92.1,274.3h50.1c1.8,0,3.3,1.5,3.3,3.3v10c0,1.8-1.5,3.3-3.3,3.3H92.1c-1.8,0-3.3-1.5-3.3-3.3v-10
	C88.8,275.8,90.3,274.3,92.1,274.3z"/>
<path class="st0" d="M125.6,330.9H91c-1.8,0-3.3-1.5-3.3-3.3v-23c0-1.8,1.5-3.3,3.3-3.3h42.9"/>
<circle class="st0" cx="118.5" cy="282.9" r="3.5"/>
<path class="st0" d="M359.1,216h45.1c1.8,0,3.3-1.5,3.3-3.3c0-0.4-0.1-0.7-0.2-1.1l-14.3-41c-0.5-1.3-1.7-2.2-3.1-2.2h-16.7
	c-1.4,0-2.7,0.9-3.1,2.2l-14.3,41c-0.6,1.7,0.3,3.6,2,4.3C358.3,215.9,358.7,216,359.1,216z"/>
<path class="st0" d="M384.6,247.4h-2.8c-1.8,0-3.3-1.5-3.3-3.3v-24.8c0-1.8,1.5-3.3,3.3-3.3h2.8c1.8,0,3.3,1.5,3.3,3.3v24.8
	C387.9,245.9,386.4,247.4,384.6,247.4z"/>
<path class="st0" d="M395.5,264h-26.1c-1.8,0-3.3-1.5-3.3-3.3v-10c0-1.8,1.5-3.3,3.3-3.3h26.1c1.8,0,3.3,1.5,3.3,3.3v10
	C398.8,262.5,397.3,264,395.5,264z"/>
<path class="st0" d="M354.4,292.8v-25.4c0-1.8,1.5-3.3,3.3-3.3h60.4c1.8,0,3.3,1.5,3.3,3.3v67.7c0,1.8-1.5,3.3-3.3,3.3h-43.7"/>
<path class="st0" d="M407.9,291h-50.1c-1.8,0-3.3-1.5-3.3-3.3v-10c0-1.8,1.5-3.3,3.3-3.3h50.1c1.8,0,3.3,1.5,3.3,3.3v10
	C411.2,289.5,409.7,291,407.9,291z"/>
<path class="st0" d="M366.1,301.2H409c1.8,0,3.3,1.5,3.3,3.3v23c0,1.8-1.5,3.3-3.3,3.3h-34.6"/>
<circle class="st0" cx="380" cy="282.9" r="4"/>
<path class="st0" d="M282.5,209.1h-43.1c-1.8,0-3.3-1.5-3.4-3.3c0-0.5,0.1-1.1,0.4-1.5l26-52.4l0,0l23.1,52.5c0.8,1.7,0,3.7-1.7,4.4
	C283.4,209,282.9,209.1,282.5,209.1z"/>
<path class="st0" d="M271.8,209.1h40.4c1.8,0,3.3-1.5,3.3-3.3c0-0.5-0.1-0.9-0.3-1.3L298.8,167c-0.8-1.7-2.8-2.4-4.4-1.6
	c-0.7,0.3-1.3,0.9-1.6,1.6L280,192.2"/>
</svg>
