<?xml version="1.0" encoding="utf-8"?>
<!-- Generator: Adobe Illustrator 21.0.2, SVG Export Plug-In . SVG Version: 6.00 Build 0)  -->
<svg version="1.1" id="Capa_1" xmlns="http://www.w3.org/2000/svg" xmlns:xlink="http://www.w3.org/1999/xlink" x="0px" y="0px"
	 viewBox="0 0 512 512" style="enable-background:new 0 0 512 512;" xml:space="preserve">
<style type="text/css">
	.st0{fill:none;stroke:#049DE9;stroke-width:3;stroke-miterlimit:10;}
</style>
<path class="st0" d="M315.7,25.6H85c-9.3,0-16.7,7.5-16.7,16.7v427.3c0,9.3,7.5,16.8,16.8,16.8h239.6c9.3,0,16.8-7.5,16.8-16.8V51.2
	C341.3,37.1,329.9,25.6,315.7,25.6z M324.3,341.3v128H85.3v-128H324.3z M145.2,324.3H85.3v-128h238.9v128h0h-51.2
	c4.4,0-38.5,0-34.1,0h-59.7C183.6,324.3,140.8,324.3,145.2,324.3z M324.3,179.2H85.3V42.7h238.9L324.3,179.2L324.3,179.2z"/>
<g>
	<g>
		<path class="st0" d="M463.5,213.8l-19.8-6.6V25.6c0-14.1-11.5-25.6-25.6-25.6h-17.1c-14.1,0-25.6,11.5-25.6,25.6v392.5h-8.5V42.7
			c0-23.6-19.1-42.6-42.7-42.7H85.3C61.8,0,42.7,19.1,42.7,42.7v426.7c0,23.6,19.1,42.6,42.7,42.7h238.9c23.6,0,42.6-19.1,42.7-42.7
			v-8.5h8.5v25.6c0,14.1,11.5,25.6,25.6,25.6h17.1c14.1,0,25.6-11.5,25.6-25.6V304.8l19.8-6.6c3.5-1.2,5.8-4.4,5.8-8.1v-68.3
			C469.3,218.2,467,214.9,463.5,213.8z M426.7,486.4c0,4.7-3.8,8.5-8.5,8.5h-17.1c-4.7,0-8.5-3.8-8.5-8.5v-34.1
			c0-4.7-3.8-8.5-8.5-8.5h-25.6c-4.7,0-8.5,3.8-8.5,8.5v17.1c0,14.1-11.5,25.6-25.6,25.6H85.3c-14.1,0-25.6-11.5-25.6-25.6V42.7
			c0-14.1,11.5-25.6,25.6-25.6h238.9c14.1,0,25.6,11.5,25.6,25.6v384c0,4.7,3.8,8.5,8.5,8.5H384c4.7,0,8.5-3.8,8.5-8.5V25.6
			c0-4.7,3.8-8.5,8.5-8.5h17.1c4.7,0,8.5,3.8,8.5,8.5L426.7,486.4L426.7,486.4z M452.3,284l-8.5,2.8v-61.6l8.5,2.8V284z"/>
	</g>
</g>
<g>
	<g>
		<path class="st0" d="M136.5,59.7h-25.6c-4.7,0-8.5,3.8-8.5,8.5s3.8,8.5,8.5,8.5h25.6c4.7,0,8.5-3.8,8.5-8.5S141.2,59.7,136.5,59.7
			z"/>
	</g>
</g>
<g>
	<g>
		<path class="st0" d="M281.6,59.7H170.7c-4.7,0-8.5,3.8-8.5,8.5s3.8,8.5,8.5,8.5h110.9c4.7,0,8.5,3.8,8.5,8.5v25.6
			c0,4.7,3.8,8.5,8.5,8.5c4.7,0,8.5-3.8,8.5-8.5V85.3C307.2,71.2,295.7,59.7,281.6,59.7z"/>
	</g>
</g>
</svg>
