<?xml version="1.0" encoding="utf-8"?>
<!-- Generator: Adobe Illustrator 21.0.2, SVG Export Plug-In . SVG Version: 6.00 Build 0)  -->
<svg version="1.1" id="Layer_1" xmlns="http://www.w3.org/2000/svg" xmlns:xlink="http://www.w3.org/1999/xlink" x="0px" y="0px"
	 viewBox="0 0 500 500" style="enable-background:new 0 0 500 500;" xml:space="preserve">
<style type="text/css">
	.st0{fill:none;stroke:#049DE9;stroke-width:3;stroke-miterlimit:10;}
</style>
<title>modular kitchen</title>
<rect x="336.9" y="151.4" class="st0" width="85.6" height="197.2"/>
<rect x="77.5" y="273.1" class="st0" width="259.4" height="75.6"/>
<line class="st0" x1="226.1" y1="273.1" x2="226.1" y2="348.6"/>
<line class="st0" x1="226.1" y1="309.7" x2="336.9" y2="309.7"/>
<line class="st0" x1="266.5" y1="292.2" x2="295.5" y2="292.2"/>
<line class="st0" x1="266.5" y1="327.2" x2="295.5" y2="327.2"/>
<rect x="165.3" y="300.8" class="st0" width="47.5" height="34.4"/>
<line class="st0" x1="100.3" y1="297.5" x2="129.2" y2="297.5"/>
<circle class="st0" cx="170.1" cy="287.8" r="4.6"/>
<circle class="st0" cx="189" cy="287.8" r="4.6"/>
<circle class="st0" cx="207.9" cy="287.8" r="4.6"/>
<rect x="160.6" y="263.2" class="st0" width="14.7" height="7.6"/>
<rect x="181.7" y="263.2" class="st0" width="14.7" height="7.6"/>
<rect x="202.8" y="263.2" class="st0" width="14.7" height="7.6"/>
<path class="st0" d="M115,186.4L115,186.4c13.5,0,24.4,10.9,24.4,24.4l0,0l0,0l0,0H90.6l0,0l0,0C90.6,197.3,101.5,186.4,115,186.4
	L115,186.4z"/>
<line class="st0" x1="114.7" y1="151.4" x2="114.7" y2="186.5"/>
<path class="st0" d="M274.3,186.4L274.3,186.4c13.5,0,24.4,10.9,24.4,24.4l0,0l0,0l0,0H250l0,0l0,0
	C250,197.4,260.9,186.5,274.3,186.4z"/>
<line class="st0" x1="274" y1="151.4" x2="274" y2="186.5"/>
<line class="st0" x1="88.6" y1="151.4" x2="304.7" y2="151.4"/>
<rect x="184.4" y="151.4" class="st0" width="9.2" height="35"/>
<polygon class="st0" points="230.8,210.8 150.3,210.8 163.6,186.5 217.5,186.5 "/>
<rect x="365.7" y="172.6" class="st0" width="27.1" height="29.6"/>
<line class="st0" x1="353.2" y1="246.8" x2="353.2" y2="267"/>
<line class="st0" x1="353.2" y1="300.8" x2="353.2" y2="323.9"/>
<rect x="250.3" y="242.6" class="st0" width="19.6" height="29.4"/>
<rect x="292.4" y="242.6" class="st0" width="19.6" height="29.4"/>
<line class="st0" x1="281" y1="229.7" x2="281" y2="272"/>
<rect x="274.3" y="244.1" class="st0" width="13.7" height="6.8"/>
</svg>
