<?xml version="1.0" encoding="utf-8"?>
<!-- Generator: Adobe Illustrator 21.0.2, SVG Export Plug-In . SVG Version: 6.00 Build 0)  -->
<svg version="1.1" id="Layer_1" xmlns="http://www.w3.org/2000/svg" xmlns:xlink="http://www.w3.org/1999/xlink" x="0px" y="0px"
	 viewBox="0 0 500 500" style="enable-background:new 0 0 500 500;" xml:space="preserve">
<style type="text/css">
	.st0{fill:none;stroke:#049DE9;stroke-width:3;stroke-miterlimit:10;}
</style>
<title>other bedroom</title>
<path class="st0" d="M124.7,138.2H376c2.7,0,5,2.2,5,5v92.7c0,2.7-2.2,5-5,5H124.7c-2.7,0-5-2.2-5-5v-92.7
	C119.7,140.4,122,138.2,124.7,138.2z"/>
<path class="st0" d="M148.4,174.5h97.2c2.7,0,5,2.2,5,5v56.5c0,2.7-2.2,5-5,5h-97.2c-2.7,0-5-2.2-5-5v-56.5
	C143.5,176.7,145.7,174.5,148.4,174.5z"/>
<path class="st0" d="M255.6,174.5h97.2c2.7,0,5,2.2,5,5v56.5c0,2.7-2.2,5-5,5h-97.2c-2.7,0-5-2.2-5-5v-56.5
	C250.6,176.7,252.8,174.5,255.6,174.5z"/>
<path class="st0" d="M91.4,240.9h317.3c2.7,0,5,2.2,5,5v113.7c0,2.7-2.2,5-5,5H91.4c-2.7,0-5-2.2-5-5V245.8
	C86.4,243.1,88.6,240.9,91.4,240.9z"/>
<path class="st0" d="M111.5,336.5h216.2c2.7,0,5,2.2,5,5v0c0,2.7-2.2,5-5,5H111.5c-2.7,0-5-2.2-5-5v0
	C106.5,338.7,108.7,336.5,111.5,336.5z"/>
<path class="st0" d="M347.7,336.5h28.7c2.7,0,5,2.2,5,5v0c0,2.7-2.2,5-5,5h-28.7c-2.7,0-5-2.2-5-5v0
	C342.8,338.7,345,336.5,347.7,336.5z"/>
<path class="st0" d="M119.2,364.3L119.2,364.3c2.8,0,5,2.2,5,5v6.2c0,2.7-2.2,5-5,5h0c-2.7,0-5-2.2-5-5v-6.2
	C114.2,366.5,116.4,364.3,119.2,364.3z"/>
<path class="st0" d="M380.4,364.3L380.4,364.3c2.8,0,5,2.2,5,5v6.2c0,2.7-2.2,5-5,5h0c-2.7,0-5-2.2-5-5v-6.2
	C375.5,366.5,377.7,364.3,380.4,364.3z"/>
</svg>
