<?xml version="1.0" encoding="utf-8"?>
<!-- Generator: Adobe Illustrator 21.0.2, SVG Export Plug-In . SVG Version: 6.00 Build 0)  -->
<svg version="1.1" id="Layer_1" xmlns="http://www.w3.org/2000/svg" xmlns:xlink="http://www.w3.org/1999/xlink" x="0px" y="0px"
	 viewBox="0 0 500 500" style="enable-background:new 0 0 500 500;" xml:space="preserve">
<style type="text/css">
	.st0{fill:none;stroke:#049DE9;stroke-width:3;stroke-miterlimit:10;}
	.st1{fill:#049DE9;}
	.st2{font-family:'ArialMT';}
	.st3{font-size:40px;}
</style>
<title>parking</title>
<rect x="124.9" y="164.5" class="st0" width="56.8" height="67.3"/>
<line class="st0" x1="153.3" y1="231.8" x2="153.3" y2="319.1"/>
<rect x="144.1" y="305.9" class="st0" width="18.1" height="15.6"/>
<rect x="116.6" y="326.1" class="st0" width="266.9" height="9.8"/>
<circle class="st0" cx="226.5" cy="313.2" r="10.5"/>
<path class="st0" d="M311,314.4c0.6,5.8,5.7,10,11.4,9.4c5-0.5,8.9-4.4,9.4-9.4"/>
<path class="st0" d="M331.9,314.4c0-0.4,0-0.8,0-1.2c0-5.8-4.7-10.5-10.5-10.5c-5.8,0-10.5,4.7-10.5,10.5c0,0.4,0,0.8,0,1.2"/>
<path class="st0" d="M216,314.4h-13.9c-2.2-3.5-2.6-7.8-1.1-11.7c2.3-7.4,10.4-16.1,40.9-20.8c9.4-6.1,19.2-11.7,29.3-16.7h40.7
	c0,0,20.6,9.7,24.2,11.9c3.7,2.2,8,3.5,12.3,3.6c6.2-0.2,4.9,15.3,4.9,15.3h2.7v14.6h-2.7v3.6h-21.5c0-0.4,0-0.8,0-1.2
	c0-5.8-4.7-10.5-10.5-10.5c-5.8,0-10.5,4.7-10.5,10.5c0,0.4,0,0.8,0,1.2h-74"/>
<line class="st0" x1="235" y1="283.3" x2="351.4" y2="283.3"/>
<line class="st0" x1="271.9" y1="266.8" x2="271.9" y2="283.3"/>
<line class="st0" x1="311.9" y1="265.4" x2="311.9" y2="283.3"/>
<text transform="matrix(1 0 0 1 135.5996 220.4658)" class="st1 st2 st3">P</text>
<text transform="matrix(1 0 0 1 135.5996 220.4658)" class="st0 st2 st3">P</text>
</svg>
