<?xml version="1.0" encoding="utf-8"?>
<!-- Generator: Adobe Illustrator 21.0.2, SVG Export Plug-In . SVG Version: 6.00 Build 0)  -->
<svg version="1.1" id="Layer_1" xmlns="http://www.w3.org/2000/svg" xmlns:xlink="http://www.w3.org/1999/xlink" x="0px" y="0px"
	 viewBox="0 0 500 500" style="enable-background:new 0 0 500 500;" xml:space="preserve">
<style type="text/css">
	.st0{fill:none;stroke:#049DE9;stroke-width:3;stroke-miterlimit:10;}
</style>
<title>plot sizes</title>
<g>
	<path class="st0" d="M388.4,181.1v-62c0-4.1-3.4-7.5-7.5-7.5H205.6c-4.1,0-7.5,3.4-7.5,7.5v54.5c0,4.1,3.4,7.5,7.5,7.5H319"/>
	<path class="st0" d="M318.8,181.1c0.3-0.2,0,86.8,0,113.3c0,4.1,3.3,7.5,7.4,7.5c0,0,0,0,0.1,0h54.5c4.1,0,7.5-3.4,7.5-7.5V119.1
		c0-4.1-3.4-7.5-7.5-7.5h-62"/>
	<line class="st0" x1="227.7" y1="111.6" x2="198.2" y2="141.2"/>
	<line class="st0" x1="261.9" y1="111.6" x2="198.3" y2="175.2"/>
	<line class="st0" x1="296" y1="111.6" x2="226.5" y2="181.1"/>
	<line class="st0" x1="330.2" y1="111.6" x2="260.7" y2="181.1"/>
	<line class="st0" x1="364.3" y1="111.6" x2="294.8" y2="181.1"/>
	<line class="st0" x1="388.4" y1="121.7" x2="318.9" y2="191.1"/>
	<line class="st0" x1="388.4" y1="155.8" x2="318.9" y2="225.3"/>
	<line class="st0" x1="388.4" y1="190" x2="318.9" y2="259.4"/>
	<line class="st0" x1="388.4" y1="224.1" x2="318.9" y2="293.6"/>
	<line class="st0" x1="388.4" y1="258.3" x2="344.8" y2="301.8"/>
	<line class="st0" x1="388.4" y1="292.4" x2="378.9" y2="301.8"/>
	<path class="st0" d="M181.1,198.1h-62c-4.1,0-7.5,3.4-7.5,7.5v175.2c0,4.1,3.4,7.5,7.5,7.5l0,0h54.5c4.1,0,7.5-3.4,7.5-7.5l0,0
		V267.5"/>
	<path class="st0" d="M181.1,267.6c-0.2-0.3,86.8,0,113.3,0c4.1,0,7.5-3.3,7.5-7.4c0,0,0,0,0-0.1v-54.5c0-4.1-3.4-7.5-7.5-7.5H119.1
		c-4.1,0-7.5,3.4-7.5,7.5v62"/>
	<line class="st0" x1="111.6" y1="358.8" x2="141.2" y2="388.4"/>
	<line class="st0" x1="111.6" y1="324.6" x2="175.2" y2="388.2"/>
	<line class="st0" x1="111.6" y1="290.5" x2="181.1" y2="360"/>
	<line class="st0" x1="111.6" y1="256.3" x2="181.1" y2="325.8"/>
	<line class="st0" x1="111.6" y1="222.2" x2="181.1" y2="291.7"/>
	<line class="st0" x1="121.7" y1="198.1" x2="191.1" y2="267.5"/>
	<line class="st0" x1="155.8" y1="198.1" x2="225.3" y2="267.5"/>
	<line class="st0" x1="190" y1="198.1" x2="259.4" y2="267.6"/>
	<line class="st0" x1="224.1" y1="198.1" x2="293.6" y2="267.6"/>
	<line class="st0" x1="258.3" y1="198.1" x2="301.8" y2="241.7"/>
	<line class="st0" x1="292.4" y1="198.1" x2="301.8" y2="207.6"/>
</g>
</svg>
