<?xml version="1.0" encoding="utf-8"?>
<!-- Generator: Adobe Illustrator 21.0.2, SVG Export Plug-In . SVG Version: 6.00 Build 0)  -->
<svg version="1.1" id="Layer_1" xmlns="http://www.w3.org/2000/svg" xmlns:xlink="http://www.w3.org/1999/xlink" x="0px" y="0px"
	 viewBox="0 0 500 500" style="enable-background:new 0 0 500 500;" xml:space="preserve">
<style type="text/css">
	.st0{fill:none;stroke:#049DE9;stroke-width:3;stroke-miterlimit:10;}
</style>
<title>power backup</title>
<g>
	<path class="st0" d="M143.9,191.3h209l0,0v167c0,5.5-4.5,10-10,10h-189c-5.5,0-10-4.5-10-10V191.3L143.9,191.3z"/>
	<path class="st0" d="M141.4,156.1h217.3c5.5,0,10,4.5,10,10v17l0,0H131.4l0,0v-17C131.4,160.6,135.8,156.1,141.4,156.1z"/>
	<rect x="170.3" y="131.7" class="st0" width="40.8" height="24.5"/>
	<rect x="287" y="131.7" class="st0" width="40.8" height="24.5"/>
	<path class="st0" d="M211.1,286.1c1.3-1.9,52.3-69.1,52.3-69.1l-8.3,40.2l32,2.5l-52.7,82.9l8.2-52.1L211.1,286.1z"/>
</g>
</svg>
