<?xml version="1.0" encoding="utf-8"?>
<!-- Generator: Adobe Illustrator 21.0.2, SVG Export Plug-In . SVG Version: 6.00 Build 0)  -->
<svg version="1.1" id="Layer_1" xmlns="http://www.w3.org/2000/svg" xmlns:xlink="http://www.w3.org/1999/xlink" x="0px" y="0px"
	 viewBox="0 0 500 500" style="enable-background:new 0 0 500 500;" xml:space="preserve">
<style type="text/css">
	.st0{fill:none;stroke:#049DE9;stroke-width:3;stroke-miterlimit:10;}
</style>
<title>servant room</title>
<g>
	<path class="st0" d="M193.1,114h114.2l0,0v70.5c0,31.5-25.6,57.1-57.1,57.1l0,0c-31.6,0-57.1-25.6-57.1-57.1l0,0L193.1,114
		L193.1,114z"/>
	<line class="st0" x1="193.1" y1="160.7" x2="307.3" y2="160.7"/>
	<path class="st0" d="M277.9,234.4c47.8,12,81.3,55,81.3,104.3V386H140.8v-47.3c0-49.4,33.6-92.4,81.5-104.3"/>
	<polyline class="st0" points="303.6,244.5 207.9,293.2 207.9,386 	"/>
	<line class="st0" x1="227.9" y1="313.8" x2="242.1" y2="313.8"/>
	<line class="st0" x1="227.9" y1="339.3" x2="242.1" y2="339.3"/>
	<line class="st0" x1="227.9" y1="364.9" x2="242.1" y2="364.9"/>
	<line class="st0" x1="270" y1="323.9" x2="309.6" y2="323.9"/>
	<line class="st0" x1="317.3" y1="384.7" x2="317.3" y2="345.1"/>
	<line class="st0" x1="182.6" y1="384.7" x2="182.6" y2="345.1"/>
</g>
</svg>
