<?xml version="1.0" encoding="utf-8"?>
<!-- Generator: Adobe Illustrator 21.0.2, SVG Export Plug-In . SVG Version: 6.00 Build 0)  -->
<svg version="1.1" id="Layer_1" xmlns="http://www.w3.org/2000/svg" xmlns:xlink="http://www.w3.org/1999/xlink" x="0px" y="0px"
	 viewBox="0 0 500 500" style="enable-background:new 0 0 500 500;" xml:space="preserve">
<style type="text/css">
	.st0{fill:none;stroke:#049DE9;stroke-width:3;stroke-miterlimit:10;}
</style>
<title>sewage</title>
<path class="st0" d="M148.2,187.1l38.4-32.1c0.9-0.8,1.5-1.9,1.5-3.1v-31c0-2.3,1.8-4.1,4-4.2h0H206c2.2,0.1,4,1.9,4,4.2v6.2
	c-0.1,2.3,1.7,4.2,4,4.2c1,0,1.9-0.3,2.7-0.9l30.5-24.5c1.5-1.2,3.7-1.2,5.2,0l99.2,81.6c1.8,1.4,2,4,0.6,5.8
	c-0.1,0.1-0.2,0.2-0.2,0.3l-6.9,7.1c-1.4,1.5-3.7,1.7-5.4,0.4l-9.7-7.3c-1.8-1.4-4.3-1.1-5.8,0.6c-0.6,0.8-0.9,1.7-0.9,2.7v48.7
	c0.1,2.3-1.7,4.1-4,4.2c0,0,0,0,0,0h-104c-2.2,0-4.1,1.8-4.1,4l-0.8,46c0,2.3,1.8,4.1,4,4.2c0,0,0,0,0.1,0h8.2c2.3,0,4.1-1.9,4-4.2
	c0,0,0,0,0,0v-35.7c0-2.3,1.8-4.1,4.1-4.1l0,0h75.3c2.2,0.1,3.9,1.9,3.9,4.1v72.4c0,1.1,0.4,2.1,1.2,2.9l3.3,3.3
	c0.8,0.8,1.2,1.8,1.2,2.9l0,0c0.1,2.2-1.7,4.1-3.9,4.2h-35.6c-2.3,0-4.1-1.8-4.1-4.1l0,0v-0.6c0-1.1,0.4-2.1,1.2-2.9l3.6-3.6
	c0.8-0.8,1.2-1.8,1.2-2.9V299c0-2.3-1.8-4.1-4.1-4.1l0,0h-11.3c-2.3,0-4.1,1.8-4.1,4.1l0,0v40.8c0,2.3-1.8,4.1-4.1,4.1l0,0h-74.3
	c-2.3,0-4.1-1.8-4.1-4.1l0,0V198.2c-0.1-2.3-1.9-4.1-4.2-4c-0.9,0-1.8,0.3-2.5,0.9l-7,6c-1.5,1.3-3.8,1.3-5.4,0l-9-7.7
	c-1.7-1.5-1.9-4.1-0.4-5.8C147.9,187.4,148.1,187.2,148.2,187.1z"/>
<path class="st0" d="M201.9,184.7h29.5c2.3,0,4.1,1.8,4.1,4.1v39.6c0,2.3-1.8,4.1-4.1,4.1h-29.5c-2.3,0-4.1-1.8-4.1-4.1v-39.6
	C197.8,186.5,199.6,184.7,201.9,184.7z"/>
<path class="st0" d="M277.3,378.4c0-4.4,1.8-8.6,4.9-11.7l9.2-9.2c1.6-1.6,4.2-1.6,5.8,0c0,0,0,0,0,0l9.2,9.2
	c5.6,5.5,6.5,14.3,2.3,20.9c-0.2,0.3-0.4,0.5-0.6,0.8l-2.1,2.1c-6.5,6.5-17,6.6-23.6,0.1c0,0-0.1-0.1-0.1-0.1
	c-0.7-0.7-1.4-1.6-2-2.4C278.2,385.1,277.2,381.8,277.3,378.4z"/>
</svg>
