<?xml version="1.0" encoding="utf-8"?>
<!-- Generator: Adobe Illustrator 21.0.2, SVG Export Plug-In . SVG Version: 6.00 Build 0)  -->
<svg version="1.1" id="Capa_1" xmlns="http://www.w3.org/2000/svg" xmlns:xlink="http://www.w3.org/1999/xlink" x="0px" y="0px"
	 viewBox="0 0 500 500" style="enable-background:new 0 0 500 500;" xml:space="preserve">
<style type="text/css">
	.st0{fill:none;stroke:#049DE9;stroke-width:3;stroke-miterlimit:10;}
</style>
<g>
	<path class="st0" d="M432.8,229.5c-36.5,0-66.2,29.1-67.2,65.3l0,52.4H134.4l0-52.4c-1-36.2-30.7-65.3-67.2-65.3
		C30.1,229.5,0,259.6,0,296.7s30.1,67.2,67.2,67.2c1.2,0,2.3,0,3.4-0.1c0,0,0,37.3,0,38c0,30.2,24.5,54.6,54.6,54.6h12v15.8
		c0,3.4,2.7,6.1,6.1,6.1h40.4c3.4,0,6.1-2.7,6.1-6.1v-15.8h120.1v15.8c0,3.4,2.7,6.1,6.1,6.1h40.4c3.4,0,6.1-2.7,6.1-6.1v-15.8h12
		c30.2,0,54.6-24.5,54.6-54.6c0-0.3,0-0.5,0-0.8v-37.2c1.2,0.1,2.3,0.1,3.5,0.1c37.1,0,67.2-30.1,67.2-67.2
		C500,259.6,469.9,229.5,432.8,229.5z"/>
	<path class="st0" d="M154.6,294.2l0,0.6l0,32.1h190.7l0-32.7c1.3-47.7,39.7-85,87.4-85c1.4,0,2.7,0,4.1,0.1V204
		c0-100.7-81.6-182.4-182.4-182.4h-9.1C144.7,21.7,63.1,103.3,63.1,204v5.3c1.4-0.1,2.7-0.1,4.1-0.1
		C114.9,209.2,153.3,246.6,154.6,294.2z"/>
</g>
</svg>
