<?xml version="1.0" encoding="utf-8"?>
<!-- Generator: Adobe Illustrator 21.0.2, SVG Export Plug-In . SVG Version: 6.00 Build 0)  -->
<svg version="1.1" id="Capa_1" xmlns="http://www.w3.org/2000/svg" xmlns:xlink="http://www.w3.org/1999/xlink" x="0px" y="0px"
	 viewBox="0 0 512 512" style="enable-background:new 0 0 512 512;" xml:space="preserve">
<style type="text/css">
	.st0{clip-path:url(#SVGID_2_);fill:none;stroke:#049DE9;stroke-width:3;stroke-miterlimit:10;}
	.st1{fill:none;stroke:#049DE9;stroke-width:3;stroke-miterlimit:10;}
</style>
<g>
	<g>
		<defs>
			<rect id="SVGID_1_" x="27.6" width="456.8" height="512"/>
		</defs>
		<clipPath id="SVGID_2_">
			<use xlink:href="#SVGID_1_"  style="overflow:visible;"/>
		</clipPath>
		<path class="st0" d="M458.3,199.8h-59.4v-0.1l-3-5c-9.5-15-24.9-26-42.9-29.6l32.9-57.7v-0.3c0.3-0.4,0.5-0.8,0.6-1.2
			c0.1-0.4,0.3-0.7,0.3-0.9c0.4-1.2,0.3-2.1,0.1-2.7c-0.1-0.2-0.3-0.5-0.4-0.7c-0.3-0.5-0.6-0.8-0.6-0.8l-49.1-57.2
			c7.4-12.4,6.4-27.5-3.1-36.7c-11.4-10.8-30.7-8.9-43.1,4.2c-1.7,1.8-3.1,3.6-4.3,5.6h-0.1l-48.7,18.5L260,57.9l1.8,2l41.9,43.2
			l17-44.8l35.5,41.3c0,0,0.5,0.5,1.2,1.4c1.5,2.1,3.6,6.3,1.3,10.2c0,0.1-0.1,0.1-0.1,0.3l-30.3,53.3
			c-19.8,3.3-36.7,15.3-46.3,31.8c-0.1,0.1-0.3,0.3-0.3,0.3c-0.5,0.6-0.9,1.3-1.3,2.1c-0.1,0-0.1,0.1-0.1,0.3
			c-0.1,0.3-0.3,0.4-0.4,0.6H53.7c-14.4,0-26.1,11.8-26.1,26.1v275.9c0,10.6,10.8,10.2,10.8,10.2h7.2c7.7,0,9.1-6.4,9.3-9.7V249.3
			c0-12.9,10.3-23.4,23.1-23.4h356.6c12.7,0,23,10.4,23,23.4v252.9c0,9.4,9.1,9.8,9.1,9.8h9.8c8.2,0,8-9.1,8-9.1v-277
			C484.4,211.5,472.6,199.8,458.3,199.8L458.3,199.8z"/>
	</g>
</g>
<path class="st1" d="M370.1,301.7h-59.5c-7.5,0-13.5-5.8-13.5-12.9c0-7.1,6.1-12.9,13.5-12.9h59.5c7.5,0,13.5,5.8,13.5,12.9
	C383.6,295.9,377.6,301.7,370.1,301.7L370.1,301.7z M405.6,249.3H273c-1,0-2.2,0.1-3.3,0.4v-0.4h-22.3v92.4h22.3v-0.4
	c1.1,0.3,2.2,0.4,3.3,0.4h132.6c14.2,0,25.6-10.8,25.6-24.3v-43.8C431.2,260.2,419.9,249.3,405.6,249.3L405.6,249.3z"/>
<path class="st1" d="M369.1,417.5h-59.5c-7.5,0-13.5-5.8-13.5-12.9c0-7.1,6.1-12.9,13.5-12.9h59.5c7.5,0,13.5,5.8,13.5,12.9
	C382.6,411.7,376.6,417.5,369.1,417.5L369.1,417.5z M405.6,368.4H273c-1,0-2.2,0.1-3.3,0.4v-0.4h-22.3v92.5h22.3v-0.4
	c1.1,0.3,2.2,0.4,3.3,0.4h132.6c14.2,0,25.6-11,25.6-24.3v-44C431.2,379.2,419.9,368.4,405.6,368.4L405.6,368.4z"/>
</svg>
