<?xml version="1.0" encoding="utf-8"?>
<!-- Generator: Adobe Illustrator 21.0.2, SVG Export Plug-In . SVG Version: 6.00 Build 0)  -->
<svg version="1.1" id="Layer_1" xmlns="http://www.w3.org/2000/svg" xmlns:xlink="http://www.w3.org/1999/xlink" x="0px" y="0px"
	 viewBox="0 0 500 500" style="enable-background:new 0 0 500 500;" xml:space="preserve">
<style type="text/css">
	.st0{fill:none;stroke:#049DE9;stroke-width:3;stroke-miterlimit:10;}
</style>
<title>techology</title>
<rect x="204.2" y="189.2" class="st0" width="105.8" height="105.8"/>
<rect x="186.7" y="171.7" class="st0" width="140.8" height="140.8"/>
<line class="st0" x1="217.5" y1="137.9" x2="217.5" y2="171.7"/>
<line class="st0" x1="243.8" y1="137.9" x2="243.8" y2="171.7"/>
<line class="st0" x1="270" y1="137.9" x2="270" y2="171.7"/>
<line class="st0" x1="296.3" y1="137.9" x2="296.3" y2="171.7"/>
<line class="st0" x1="217.5" y1="314.6" x2="217.5" y2="348.3"/>
<line class="st0" x1="243.8" y1="314.6" x2="243.8" y2="348.3"/>
<line class="st0" x1="270" y1="314.6" x2="270" y2="348.3"/>
<line class="st0" x1="296.3" y1="314.6" x2="296.3" y2="348.3"/>
<line class="st0" x1="361.2" y1="202.7" x2="327.5" y2="202.7"/>
<line class="st0" x1="361.2" y1="229" x2="327.5" y2="229"/>
<line class="st0" x1="361.2" y1="255.2" x2="327.5" y2="255.2"/>
<line class="st0" x1="361.2" y1="281.5" x2="327.5" y2="281.5"/>
<line class="st0" x1="186.7" y1="202.7" x2="152.9" y2="202.7"/>
<line class="st0" x1="186.7" y1="229" x2="152.9" y2="229"/>
<line class="st0" x1="186.7" y1="255.2" x2="152.9" y2="255.2"/>
<line class="st0" x1="186.7" y1="281.5" x2="152.9" y2="281.5"/>
<rect x="214.6" y="202.7" class="st0" width="21.9" height="21.9"/>
<rect x="244.8" y="202.7" class="st0" width="21.9" height="21.9"/>
<rect x="275" y="202.7" class="st0" width="21.9" height="21.9"/>
<rect x="214.6" y="231.1" class="st0" width="21.9" height="21.9"/>
<rect x="244.8" y="231.1" class="st0" width="21.9" height="21.9"/>
<rect x="275" y="231.1" class="st0" width="21.9" height="21.9"/>
<rect x="214.6" y="259.6" class="st0" width="21.9" height="21.9"/>
<rect x="244.8" y="259.6" class="st0" width="21.9" height="21.9"/>
<rect x="275" y="259.6" class="st0" width="21.9" height="21.9"/>
</svg>
