<?xml version="1.0" encoding="utf-8"?>
<!-- Generator: Adobe Illustrator 21.0.2, SVG Export Plug-In . SVG Version: 6.00 Build 0)  -->
<svg version="1.1" id="Layer_1" xmlns="http://www.w3.org/2000/svg" xmlns:xlink="http://www.w3.org/1999/xlink" x="0px" y="0px"
	 viewBox="0 0 500 500" style="enable-background:new 0 0 500 500;" xml:space="preserve">
<style type="text/css">
	.st0{fill:#049DE9;stroke:#049DE9;stroke-width:3;stroke-miterlimit:10;}
	.st1{fill:none;stroke:#049DE9;stroke-width:3;stroke-miterlimit:10;}
</style>
<title>Tv</title>
<path class="st0" d="M240,215.6h-54.8c-2.1,0-3.8-1.7-3.8-3.8c0-2.1,1.7-3.8,3.8-3.8H240c2.1,0,3.8,1.7,3.8,3.8
	C243.8,213.9,242.1,215.6,240,215.6z"/>
<path class="st0" d="M212.7,278.3c-2.1,0-3.8-1.7-3.8-3.8v-62.7c0-2.1,1.7-3.8,3.8-3.8s3.8,1.7,3.8,3.8v62.7
	C216.5,276.6,214.8,278.3,212.7,278.3L212.7,278.3z"/>
<path class="st0" d="M286.8,279.8L286.8,279.8c-1.5-0.1-2.8-1-3.3-2.3l-28.1-64.2c-0.8-1.9,0.1-4.2,2.1-5c1.9-0.8,4,0.1,4.9,1.9
	l24.4,56.2l24.5-56.2c0.8-1.9,3-2.9,5-2.1c1.9,0.8,2.9,3,2.1,5c0,0,0,0.1-0.1,0.1l-27.9,64.2C289.7,278.9,288.4,279.8,286.8,279.8z"
	/>
<rect x="98" y="160.8" class="st1" width="304.1" height="180.6"/>
<rect x="108.2" y="169.2" class="st1" width="283.7" height="149.3"/>
<path class="st1" d="M242.6,326.6h14.8c1.4,0,2.6,1.1,2.6,2.6l0,0c0,1.4-1.1,2.5-2.6,2.5h-14.8c-1.4,0-2.6-1.1-2.6-2.5l0,0
	C240.1,327.8,241.2,326.6,242.6,326.6z"/>
<path class="st1" d="M181.4,366.7c5-15,19-25.2,34.9-25.3h67.3c15.9,0.1,29.9,10.2,34.9,25.3"/>
</svg>
