<?xml version="1.0" encoding="utf-8"?>
<!-- Generator: Adobe Illustrator 21.0.2, SVG Export Plug-In . SVG Version: 6.00 Build 0)  -->
<svg version="1.1" id="Layer_1" xmlns="http://www.w3.org/2000/svg" xmlns:xlink="http://www.w3.org/1999/xlink" x="0px" y="0px"
	 viewBox="0 0 500 500" style="enable-background:new 0 0 500 500;" xml:space="preserve">
<style type="text/css">
	.st0{fill:none;stroke:#049DE9;stroke-width:3;stroke-miterlimit:10;}
</style>
<title>water</title>
<path class="st0" d="M255.9,131.5c-2.3-2.9-6.4-3.4-9.4-1.2c-0.4,0.3-0.8,0.7-1.2,1.2c-23.3,30.5-43.6,61.3-54.2,97.6
	c-12,40.9,13.5,81.4,53.4,84.3c46.7,3.3,78.8-37.5,65.8-83.7C300,193,279.5,162,255.9,131.5z"/>
<path class="st0" d="M210.2,371.7L210.2,371.7c-2.9-20.7-5.6-41.5-18.6-59.1c-6.3-9.5-17.7-14.2-28.9-11.9
	c-12.9,2-23.1,12.2-25,25.1c-2.4,13.3,4.8,26.5,17.3,31.8C172,364.9,192.5,365.9,210.2,371.7z"/>
<path class="st0" d="M290.8,364.5c-0.5,3.6,2.1,7,5.7,7.5c0.6,0.1,1.2,0.1,1.9,0c17.8-2.6,34.5-6.1,49.4-15.8
	c11.3-7.4,17-17.9,14.2-31.5c-2-12.3-11.6-21.9-24-23.8c-13.7-2.7-24.2,3-31.5,14.3C296.7,330,293.2,346.7,290.8,364.5z"/>
<path class="st0" d="M170.6,283.3L170.6,283.3c-3.3-10.9-3.1-25.2-7.5-35.7c-3.2-8.6-12.2-13.6-21.2-11.7c-8.4,1-15,7.6-15.9,16
	c-1.8,9,3.3,18,11.9,21.1C148.5,277.2,159.7,280,170.6,283.3z"/>
<path class="st0" d="M326.1,280.5L326.1,280.5c11.7-3.9,26.9-3.9,38.1-9c7.8-3.5,11.8-12.1,9.6-20.3c-1.2-8-7.5-14.2-15.5-15.3
	c-8.2-2.1-16.8,2-20.3,9.8C333.1,256.7,330,268.8,326.1,280.5z"/>
</svg>
