<?xml version="1.0" encoding="iso-8859-1"?>
<!-- Generator: Adobe Illustrator 18.0.0, SVG Export Plug-In . SVG Version: 6.00 Build 0)  -->
<!DOCTYPE svg PUBLIC "-//W3C//DTD SVG 1.1//EN" "http://www.w3.org/Graphics/SVG/1.1/DTD/svg11.dtd">
<svg xmlns="http://www.w3.org/2000/svg" xmlns:xlink="http://www.w3.org/1999/xlink" version="1.1" id="Capa_1" x="0px" y="0px" viewBox="0 0 452.922 452.922" style="enable-background:new 0 0 452.922 452.922;" xml:space="preserve" width="512px" height="512px">
<path d="M92.818,0v452.922h267.286V0H92.818z M353.104,386.333h-6.095V204.101h6.095V386.333z M271.52,7v14.85l-11.359,11.359V7  H271.52z M271.52,385.562l-11.359,11.359v-15.373l11.359-11.359V385.562z M260.161,142.688l11.359-11.359v43.536l-11.359,11.359  V142.688z M260.161,363.668l11.359-11.359v7.98l-11.359,11.359V363.668z M271.52,342.41l-11.359,11.359v-83.193l11.359-11.359  V342.41z M271.52,249.317l-11.359,11.359v-8.284l11.359-11.359V249.317z M271.52,231.132l-11.359,11.359v-46.367l11.359-11.359  V231.132z M271.52,121.43l-11.359,11.359V120.95l11.359-11.359V121.43z M271.52,99.69l-11.359,11.359V43.11L271.52,31.75V99.69z   M260.161,406.822l11.359-11.359v31.321h-11.359V406.822z M229.961,7h23.2v419.784h-23.2V7z M222.961,7v419.784h-23.2V7H222.961z   M192.761,385.562l-11.359,11.36v-15.373l11.359-11.36V385.562z M192.761,360.289l-11.359,11.36v-7.98l11.359-11.359V360.289z   M192.761,342.409l-11.359,11.359v-83.192l11.359-11.36V342.409z M192.761,249.317l-11.359,11.36v-8.285l11.359-11.36V249.317z   M192.761,231.132l-11.359,11.36v-46.367l11.359-11.36V231.132z M192.761,174.865l-11.359,11.36v-43.536l11.359-11.359V174.865z   M192.761,121.429l-11.359,11.359V120.95l11.359-11.36V121.429z M192.761,99.69l-11.359,11.36V43.109l11.359-11.36V99.69z   M181.402,406.821l11.359-11.36v31.322h-11.359V406.821z M192.761,7v14.85l-11.359,11.36V7H192.761z M99.818,204.101h6.095v182.233  h-6.095V204.101z M99.818,393.333h13.095V197.101H99.818V7h74.583v419.784H99.818V393.333z M353.104,445.922H99.818v-12.138h253.286  V445.922z M278.52,426.784V7h74.583v190.101h-13.095v196.233h13.095v33.45H278.52z" fill="#059de9"/>
<g>
</g>
<g>
</g>
<g>
</g>
<g>
</g>
<g>
</g>
<g>
</g>
<g>
</g>
<g>
</g>
<g>
</g>
<g>
</g>
<g>
</g>
<g>
</g>
<g>
</g>
<g>
</g>
<g>
</g>
</svg>
