<svg id="Layer_1" data-name="Layer 1" xmlns="http://www.w3.org/2000/svg" viewBox="0 0 122.84 122.84"><defs><style>.cls-1{fill:#015ba1;}</style></defs><title>Bathroom</title><path class="cls-1" d="M27.74,29.72h4A11.9,11.9,0,0,1,43.59,17.83v-4A11.9,11.9,0,0,1,31.7,2h-4A11.9,11.9,0,0,1,15.85,13.87v4A11.9,11.9,0,0,1,27.74,29.72Zm2-20.07a16,16,0,0,0,6.2,6.2,16,16,0,0,0-6.2,6.2,16,16,0,0,0-6.2-6.2,16,16,0,0,0,6.2-6.2Zm0,0"/><path class="cls-1" d="M122.84,67.37V7.93h-.1A8.9,8.9,0,0,0,113.93,0H102a8.9,8.9,0,0,0-8.82,7.93h-.1V50.64a7.85,7.85,0,0,0-4-1.1H72.84A15.83,15.83,0,0,1,85.2,43.59v-4A15.87,15.87,0,0,1,69.35,23.78h-4A15.87,15.87,0,0,1,49.53,39.63v4a15.83,15.83,0,0,1,12.35,5.94h-54A7.9,7.9,0,0,0,7.13,65.3a41.65,41.65,0,0,0,36.24,37.37c-.43,1.81-1.75,4.32-5.73,4.32H25.76c-4.8,0-13.87,2.9-13.87,13.87v2h111v-2c0-11-9.07-13.87-13.87-13.87-.16,0-4-.07-4-5.94V89c5-.7,17.83-4.2,17.83-21.62ZM97.09,8.92a5,5,0,0,1,5-5h11.89a5,5,0,0,1,5,5v5H97.09ZM58.17,41.61a20,20,0,0,0,9.2-9.2,19.93,19.93,0,0,0,9.2,9.2,20,20,0,0,0-9.2,9.2,19.94,19.94,0,0,0-9.2-9.2ZM7.93,61.42a4,4,0,0,1,0-7.93H64.22a15.75,15.75,0,0,1,1.17,5.94h4a15.75,15.75,0,0,1,1.17-5.94H89.16a4,4,0,0,1,0,7.93Zm3.18,4H86a37.64,37.64,0,0,1-74.86,0ZM109,111c.37,0,8.58.1,9.76,7.93H16c1.14-7.63,8.83-7.92,9.77-7.93H37.65c6.53,0,9.05-4.5,9.71-8,.4,0,.79.06,1.19.06A41.66,41.66,0,0,0,90,65.3a7.91,7.91,0,0,0,7.13-7.85V17.83h21.79V67.37c0,17.54-15.21,17.83-15.85,17.83h-2V101c0,7.84,5.18,9.91,7.93,9.91Zm0,0"/><rect class="cls-1" x="17.83" y="69.35" width="3.96" height="3.96"/><rect class="cls-1" x="25.76" y="69.35" width="3.96" height="3.96"/><rect class="cls-1" x="33.68" y="69.35" width="3.96" height="3.96"/></svg>