<svg id="Layer_1" data-name="Layer 1" xmlns="http://www.w3.org/2000/svg" viewBox="0 0 122.69 98.15"><defs><style>.cls-1{fill:#015ba1;}</style></defs><title>Bed_room</title><path class="cls-1" d="M38,38.85H23.31a6.89,6.89,0,0,1-7-7V29.45a6.89,6.89,0,0,1,7-7H38a6.89,6.89,0,0,1,7,7V31.9A6.89,6.89,0,0,1,38,38.85ZM23.31,26.58a2.8,2.8,0,0,0-2.86,2.86V31.9a2.8,2.8,0,0,0,2.86,2.86H38A2.8,2.8,0,0,0,40.9,31.9V29.44A2.8,2.8,0,0,0,38,26.58Z"/><path class="cls-1" d="M8.18,98.15H4.09A4.1,4.1,0,0,1,0,94.06V36.81a1.93,1.93,0,0,1,2-2H30.67a1.93,1.93,0,0,1,2,2V65.43a1.93,1.93,0,0,1-2,2H12.27V94.06A4.1,4.1,0,0,1,8.18,98.15ZM4.09,38.85V94.06H8.18V65.43a1.93,1.93,0,0,1,2-2h18.4V38.85Z"/><path class="cls-1" d="M10.22,38.85H2a1.93,1.93,0,0,1-2-2V4.09A4.1,4.1,0,0,1,4.09,0H8.18a4.1,4.1,0,0,1,4.09,4.09V36.81A1.93,1.93,0,0,1,10.22,38.85ZM4.09,34.76H8.18V4.09H4.09Z"/><path class="cls-1" d="M118.6,98.15h-4.09a4.1,4.1,0,0,1-4.09-4.09V67.48H30.67a1.93,1.93,0,0,1-2-2V36.81a1.93,1.93,0,0,1,2-2h77.7a14.23,14.23,0,0,1,14.31,14.31v45A4.1,4.1,0,0,1,118.6,98.15ZM32.72,63.39h79.75a1.93,1.93,0,0,1,2,2V94.06h4.09v-45a10.12,10.12,0,0,0-10.22-10.22H32.72Z"/></svg>