<svg id="Layer_1" data-name="Layer 1" xmlns="http://www.w3.org/2000/svg" viewBox="0 0 150 150"><defs><style>.cls-1,.cls-2{fill:none;stroke:#29abe2;stroke-miterlimit:10;}.cls-1{stroke-linecap:round;}</style></defs><title>bedroom</title><rect class="cls-1" x="49.01" y="52.54" width="52.12" height="20.48" rx="1.49" ry="1.49"/><rect class="cls-1" x="53.75" y="59.77" width="21.37" height="13.25" rx="1.49" ry="1.49"/><rect class="cls-1" x="75.12" y="59.77" width="21.37" height="13.25" rx="1.49" ry="1.49"/><rect class="cls-1" x="42.36" y="73.01" width="65.28" height="24.65" rx="1.49" ry="1.49"/><rect class="cls-1" x="46.37" y="92.09" width="45.1" height="1.99" rx="0.99" ry="0.99"/><rect class="cls-1" x="93.51" y="92.09" width="7.7" height="1.99" rx="0.99" ry="0.99"/><rect class="cls-1" x="47.91" y="97.64" width="1.99" height="3.22" rx="0.99" ry="0.99"/><rect class="cls-1" x="100.03" y="97.64" width="1.99" height="3.22" rx="0.99" ry="0.99"/><polygon class="cls-2" points="40.59 58.64 24.59 58.64 28.59 49.14 36.59 49.14 40.59 58.64"/><line class="cls-2" x1="32.6" y1="58.64" x2="32.6" y2="96.89"/><line class="cls-2" x1="27.47" y1="96.85" x2="37.68" y2="96.85"/><polygon class="cls-2" points="125.41 58.64 109.41 58.64 113.41 49.14 121.41 49.14 125.41 58.64"/><line class="cls-2" x1="117.4" y1="58.64" x2="117.4" y2="96.89"/><line class="cls-2" x1="112.28" y1="96.85" x2="122.49" y2="96.85"/></svg>