<svg id="Layer_1" data-name="Layer 1" xmlns="http://www.w3.org/2000/svg" viewBox="0 0 122.17 106.67"><defs><style>.cls-1{fill:#015ba1;}</style></defs><title>Commercial Shop</title><path class="cls-1" d="M86.8,58.09H70.2A8.25,8.25,0,0,0,62,66.33V79.06A8.25,8.25,0,0,0,70.2,87.3H86.8A8.25,8.25,0,0,0,95,79.06V66.33a8.25,8.25,0,0,0-8.24-8.24Zm2.25,21a2.25,2.25,0,0,1-2.25,2.25H70.2A2.25,2.25,0,0,1,68,79.06V66.33a2.25,2.25,0,0,1,2.25-2.25H86.8A2.25,2.25,0,0,1,89,66.33Zm0,0"/><path class="cls-1" d="M122.17,34.95a2.77,2.77,0,0,0-.4-1.47l-18.17-32A3,3,0,0,0,101,0H21.14a3,3,0,0,0-2.6,1.52L.4,33.48A3,3,0,0,0,0,34.95,17.52,17.52,0,0,0,10.49,51v52.7a3,3,0,0,0,3,3h95.18a3,3,0,0,0,3-3V51.35a1.35,1.35,0,0,0,0-.32,17.57,17.57,0,0,0,10.53-16.08ZM22.89,6H99.25l14.21,25H8.71ZM86.95,37a11.51,11.51,0,0,1-22.67,0Zm-29,0a11.53,11.53,0,0,1-22.69,0ZM6.19,37H28.88A11.53,11.53,0,0,1,6.19,37Zm44.14,63.71H33.1V68.35a4.27,4.27,0,0,1,4.27-4.27h8.71a4.27,4.27,0,0,1,4.27,4.27v32.33Zm55.34,0H56.32V68.35A10.28,10.28,0,0,0,46.06,58.09H37.35A10.28,10.28,0,0,0,27.09,68.35V100.7H16.48V52.45c.35,0,.7,0,1,0a17.5,17.5,0,0,0,14.53-7.74,17.51,17.51,0,0,0,29.06,0,17.46,17.46,0,0,0,29,0,17.5,17.5,0,0,0,14.53,7.74l1,0Zm-1-54.2A11.51,11.51,0,0,1,93.31,37H116a11.58,11.58,0,0,1-11.36,9.49Zm0,0"/></svg>