<svg id="Layer_1" data-name="Layer 1" xmlns="http://www.w3.org/2000/svg" viewBox="0 0 110.98 122.67"><defs><style>.cls-1{fill:#015ba1;}</style></defs><title>Dinning_room</title><path class="cls-1" d="M5.58,97.36H5.46L3.54,66.2H0v54.51H3.54l1-11.68H21.85l1.44,11.68h2V97.36Zm16,9.73H4.74l.34-3.89H21.12Zm0,0"/><path class="cls-1" d="M105,97.36H83.73v23.36H87.2L88.66,109h17.28l1,11.67h4V66.2h-4Zm.73,9.73H88.88l.49-3.89h16.05Zm0,0"/><path class="cls-1" d="M95.41,84v-6.3a1.72,1.72,0,0,0-1.72-1.72H17.29a1.72,1.72,0,0,0-1.71,1.72V84a1.72,1.72,0,0,0,1.71,1.73H38.94v3.89h7.79v29a1.43,1.43,0,0,0,0,.22H38.94v3.89H72v-3.89h-7.8c0-.07,0-.15,0-.22v-29H72V85.68H93.7A1.72,1.72,0,0,0,95.41,84Zm0,0"/><path class="cls-1" d="M44,0V27.88h-1.3c-1.56,5.21-3.75,9.63-3.75,16.71,0,6.32,2.51,11.74,3.1,14.89h6.8A46.57,46.57,0,0,0,51.47,44.6c0-7.09-1.69-11.5-3.25-16.71H46.59V0Zm0,0"/><path class="cls-1" d="M62.22,0V12.27H61c-1.64,5.2-3.36,10.1-3.36,17.54,0,7.85,2.45,12.45,3.08,15.75h6.73a48.84,48.84,0,0,0,2.85-15.74c0-7.45-1.84-12.34-3.48-17.55h-2V0Zm0,0"/></svg>