<svg id="Layer_1" data-name="Layer 1" xmlns="http://www.w3.org/2000/svg" viewBox="0 0 150 150"><defs><style>.cls-1{fill:none;stroke:#29abe2;stroke-miterlimit:10;}</style></defs><title>drawing room</title><polygon class="cls-1" points="48.59 71.75 32.59 71.75 36.59 62.25 44.59 62.25 48.59 71.75"/><line class="cls-1" x1="40.6" y1="71.75" x2="40.6" y2="110"/><line class="cls-1" x1="35.47" y1="109.96" x2="45.68" y2="109.96"/><line class="cls-1" x1="86.78" y1="96.84" x2="55.59" y2="96.84"/><path class="cls-1" d="M51.35,89V83.1a2,2,0,0,1,2-2H89a2,2,0,0,1,2,2V89"/><rect class="cls-1" x="55.6" y="98.69" width="31.19" height="6.5"/><rect class="cls-1" x="47.22" y="88.97" width="8.38" height="17.75" rx="2" ry="2"/><rect class="cls-1" x="86.78" y="88.97" width="8.38" height="17.75" rx="2" ry="2"/><rect class="cls-1" x="49.6" y="107.91" width="3.78" height="2.09"/><rect class="cls-1" x="88.66" y="107.91" width="3.78" height="2.09"/><line class="cls-1" x1="101.05" y1="94.5" x2="98.97" y2="110"/><rect class="cls-1" x="98.14" y="93.17" width="24.08" height="1.33"/><line class="cls-1" x1="119.8" y1="94.5" x2="121.88" y2="110"/><rect class="cls-1" x="105.89" y="88" width="2.92" height="4.83"/><rect class="cls-1" x="110.35" y="88" width="2.92" height="4.83"/><rect class="cls-1" x="88.66" y="58" width="16.55" height="16.55"/><path class="cls-1" d="M98.29,70.33h-7a.54.54,0,0,1-.48-.78L95,61.06h0l3.75,8.52A.54.54,0,0,1,98.29,70.33Z"/><path class="cls-1" d="M96.56,70.33h6.55a.54.54,0,0,0,.49-.76l-2.67-6.06a.54.54,0,0,0-1,0l-2,4.11"/></svg>