<svg id="Layer_1" data-name="Layer 1" xmlns="http://www.w3.org/2000/svg" viewBox="0 0 122.18 76.2"><defs><style>.cls-1{fill:#015ba1;}</style></defs><title>Drawing Room</title><path class="cls-1" d="M31.64,28.44a1.89,1.89,0,0,0,1.66-.83,3.09,3.09,0,0,0,.42-1.87L27.07,3.53c-.21-.42-.42-.62-.62-1C24.37.83,20.64.21,17.73,0H16.28C13.37.21,9.63.62,7.56,2.49a1.77,1.77,0,0,0-.62,1L.08,26A2.12,2.12,0,0,0,.5,27.82a1.89,1.89,0,0,0,1.66.83H6.52v4.78A4,4,0,0,0,4.44,37a4.15,4.15,0,1,0,8.3,0,4,4,0,0,0-2.08-3.53V28.65h4.15V72H6.73a2.08,2.08,0,0,0,0,4.15H26.86a2.08,2.08,0,0,0,0-4.15h-8.1V28.65H31.64ZM10.46,5.61c1-.62,3.53-1,6-1h.62a17.47,17.47,0,0,1,6,1l5.61,18.69H4.86Z"/><path class="cls-1" d="M117.8,49.21h-1v-11c0-6.64-3.94-10.8-10.8-10.8H87.49a10.77,10.77,0,0,0-8.72,3.74Q76,27.41,70,27.41H51.57c-6.64,0-10.8,3.94-10.8,10.8v11h-1a4.61,4.61,0,0,0-4.57,4.57V65.19a4.61,4.61,0,0,0,4.57,4.57h1v4.15a2.08,2.08,0,0,0,4.15,0V69.76H112.4v4.15a2.08,2.08,0,0,0,4.15,0V69.76h1a4.61,4.61,0,0,0,4.57-4.57V53.77A4.31,4.31,0,0,0,117.8,49.21ZM87.49,31.56H106c4.36,0,6.64,2.08,6.64,6.64v11H80.85v-11C80.85,33.63,83.13,31.56,87.49,31.56ZM44.93,38.2c0-4.36,2.08-6.64,6.64-6.64H70c4.36,0,6.64,2.08,6.64,6.64v11H44.93Zm73.29,27a.45.45,0,0,1-.42.42H39.94a.45.45,0,0,1-.42-.42V53.77a.45.45,0,0,1,.42-.42H117.8a.45.45,0,0,1,.42.42Z"/><circle class="cls-1" cx="52.82" cy="40.69" r="2.08"/><circle class="cls-1" cx="69.01" cy="40.69" r="2.08"/><circle class="cls-1" cx="88.53" cy="40.69" r="2.08"/><circle class="cls-1" cx="104.93" cy="40.69" r="2.08"/></svg>