<?xml version="1.0" encoding="iso-8859-1"?>
<!-- Generator: Adobe Illustrator 19.0.0, SVG Export Plug-In . SVG Version: 6.00 Build 0)  -->
<svg xmlns="http://www.w3.org/2000/svg" xmlns:xlink="http://www.w3.org/1999/xlink" version="1.1" id="Capa_1" x="0px" y="0px" viewBox="0 0 479.974 479.974" style="enable-background:new 0 0 479.974 479.974;" xml:space="preserve" width="512px" height="512px">
<g>
	<g>
		<path d="M160,136v-8.888c21.645-22.091,21.283-57.547-0.808-79.192C137.1,26.275,101.645,26.637,80,48.728    c-21.333,21.773-21.333,56.61,0,78.384V136H64v16h112v-16H160z M146.664,117.752c-1.693,1.516-2.662,3.68-2.664,5.952V136h-16    v-20.688l21.656-21.656l-11.312-11.312L120,100.688l-18.344-18.344L90.344,93.656L112,115.312V136H96v-12.296    c0-2.271-0.966-4.435-2.656-5.952c-16.469-14.724-17.884-40.011-3.16-56.48c14.724-16.469,40.011-17.884,56.48-3.16    c16.469,14.724,17.884,40.011,3.16,56.48C148.831,115.703,147.775,116.758,146.664,117.752z" fill="#059de9"/>
	</g>
</g>
<g>
	<g>
		<rect x="288" y="32" width="64" height="16" fill="#059de9"/>
	</g>
</g>
<g>
	<g>
		<rect x="320" y="64" width="32" height="16" fill="#059de9"/>
	</g>
</g>
<g>
	<g>
		<path d="M304,272c-17.673,0-32,14.327-32,32c0,17.673,14.327,32,32,32c17.673,0,32-14.327,32-32C336,286.327,321.673,272,304,272z     M304,320c-8.837,0-16-7.163-16-16s7.163-16,16-16s16,7.163,16,16S312.837,320,304,320z" fill="#059de9"/>
	</g>
</g>
<g>
	<g>
		<path d="M439.746,192.082c-7.14-8.654-15.091-16.606-23.746-23.746V56c0-4.418-3.582-8-8-8h-24V8c0-4.418-3.582-8-8-8H8    C3.582,0,0,3.582,0,8v368c0,4.418,3.582,8,8,8h40v24c0,4.418,3.582,8,8,8h112.336c61.833,74.948,172.716,85.579,247.664,23.746    S501.579,267.029,439.746,192.082z M32,368H16V16h16V368z M384,64h16v92.6c-5.167-3.374-10.508-6.474-16-9.288V64z M48,368V16h320    v124.096c-90.463-35.405-192.499,9.229-227.904,99.692c-16.13,41.215-16.13,86.996,0,128.212H48z M64,400v-16h83.312    c2.814,5.492,5.914,10.833,9.288,16H64z M304,464c-88.366,0-160-71.634-160-160s71.634-160,160-160s160,71.634,160,160    C463.899,392.323,392.324,463.899,304,464z" fill="#059de9"/>
	</g>
</g>
<g>
	<g>
		<rect x="264" y="384" width="80" height="16" fill="#059de9"/>
	</g>
</g>
<g>
	<g>
		<rect x="240" y="416" width="128" height="16" fill="#059de9"/>
	</g>
</g>
<g>
	<g>
		<rect x="296" y="184" width="16" height="16" fill="#059de9"/>
	</g>
</g>
<g>
	<g>
		<rect x="328" y="184" width="16" height="16" fill="#059de9"/>
	</g>
</g>
<g>
	<g>
		<rect x="264" y="184" width="16" height="16" fill="#059de9"/>
	</g>
</g>
<g>
	<g>
		<path d="M304,240c-35.346,0-64,28.654-64,64c0,35.346,28.654,64,64,64c35.346,0,64-28.654,64-64    C367.96,268.67,339.33,240.04,304,240z M304,352c-26.51,0-48-21.49-48-48c0-26.51,21.49-48,48-48c26.51,0,48,21.49,48,48    C351.974,330.499,330.499,351.974,304,352z" fill="#059de9"/>
	</g>
</g>
<g>
</g>
<g>
</g>
<g>
</g>
<g>
</g>
<g>
</g>
<g>
</g>
<g>
</g>
<g>
</g>
<g>
</g>
<g>
</g>
<g>
</g>
<g>
</g>
<g>
</g>
<g>
</g>
<g>
</g>
</svg>
