<svg id="Layer_1" data-name="Layer 1" xmlns="http://www.w3.org/2000/svg" viewBox="0 0 98.51 122.67"><defs><style>.cls-1{fill:#015ba1;}</style></defs><title>Electrical</title><path class="cls-1" d="M71.89,110H26.64A26.66,26.66,0,0,1,0,83.36V51a8,8,0,0,1,8-8H90.53a8,8,0,0,1,8,8V83.36A26.65,26.65,0,0,1,71.89,110ZM8,46.84A4.21,4.21,0,0,0,3.8,51V83.36a22.85,22.85,0,0,0,22.84,22.82H71.89A22.85,22.85,0,0,0,94.71,83.36V51a4.19,4.19,0,0,0-4.18-4.2Zm0,0"/><path class="cls-1" d="M27.33,46.84a1.9,1.9,0,0,1-1.89-1.89V9.48A5.7,5.7,0,0,0,19.75,3.8h-.63a5.68,5.68,0,0,0-5.68,5.68V44.95a1.9,1.9,0,0,1-3.8,0V9.48A9.49,9.49,0,0,1,19.12,0h.61a9.48,9.48,0,0,1,9.48,9.48V44.95a1.87,1.87,0,0,1-1.89,1.89Zm0,0"/><path class="cls-1" d="M87,46.84a1.9,1.9,0,0,1-1.91-1.89V9.48A5.7,5.7,0,0,0,79.38,3.8h-.61a5.7,5.7,0,0,0-5.7,5.68V44.95a1.89,1.89,0,1,1-3.78,0V9.48A9.49,9.49,0,0,1,78.77,0h.61a9.49,9.49,0,0,1,9.48,9.48V44.95A1.9,1.9,0,0,1,87,46.84Zm0,0"/><path class="cls-1" d="M63.48,122.67H35a1.9,1.9,0,0,1-1.89-1.89V108.09A1.9,1.9,0,0,1,35,106.19H63.48a1.9,1.9,0,0,1,1.89,1.91v12.68a1.9,1.9,0,0,1-1.89,1.89Zm-26.55-3.8H61.59V110H36.93Zm0,0"/><path class="cls-1" d="M43.73,88.79l4.61-12.66-5.81-1.66,10.9-13L50.17,72.83,56,74.5Zm0,0"/><path class="cls-1" d="M43.73,90.68a1.79,1.79,0,0,1-.95-.26A1.88,1.88,0,0,1,42,88.14l3.91-10.75L42,76.29A1.86,1.86,0,0,1,40.71,75a1.93,1.93,0,0,1,.35-1.78L52,60.28a1.9,1.9,0,0,1,2.33-.45,1.87,1.87,0,0,1,.92,2.2l-2.74,9.5,4,1.13a1.9,1.9,0,0,1,.92,3.05L45.17,90a1.91,1.91,0,0,1-1.44.65Zm5.7-16.11a2,2,0,0,1,.59.69,1.9,1.9,0,0,1,.09,1.52l-1,2.87,3.55-4.15-3-.85a1,1,0,0,1-.22-.08Zm-3.57-1.13,3,.87a1,1,0,0,1,.22.08,2.14,2.14,0,0,1-.57-.63,1.88,1.88,0,0,1-.15-1.44l.8-2.76Zm0,0"/></svg>