<svg id="Layer_1" data-name="Layer 1" xmlns="http://www.w3.org/2000/svg" viewBox="0 0 91.35 122.5"><defs><style>.cls-1{fill:#015ba1;}</style></defs><title>External_Finish</title><path class="cls-1" d="M15.36,61.52H82a4.85,4.85,0,0,0,4.85-4.85v-6h0V46.77h0v-6A4.85,4.85,0,0,0,82,35.9H15.36a4.85,4.85,0,0,0-4.85,4.85V56.67A4.85,4.85,0,0,0,15.36,61.52Zm76-10.87V46.77H88.88v3.88ZM50.6,80V74.47c0-4.11-4.35-7.45-9.7-7.45H9.7A5.83,5.83,0,0,1,3.88,61.2V56.47A5.82,5.82,0,0,1,8.43,50.8V46.87A9.71,9.71,0,0,0,0,56.48V61.2a9.71,9.71,0,0,0,9.7,9.7H40.89c3.43,0,5.82,1.88,5.82,3.57V80Zm4.71,35.87V83.94H42v31.91a6.65,6.65,0,1,0,13.3,0Z"/><path class="cls-1" d="M62.43,26.4l.84,2.28a.22.22,0,0,0,.41,0l.84-2.28a6.72,6.72,0,0,1,4-4l2.28-.84a.22.22,0,0,0,0-.41l-2.28-.84a6.72,6.72,0,0,1-4-4l-.84-2.28a.22.22,0,0,0-.41,0l-.84,2.28a6.72,6.72,0,0,1-4,4l-2.28.84a.22.22,0,0,0,0,.41l2.28.84a6.72,6.72,0,0,1,4,4Zm0,0"/><path class="cls-1" d="M23.67,10.4l-2.28-.84a6.72,6.72,0,0,1-4-4L16.57,3.3a.22.22,0,0,0-.41,0l-.84,2.28a6.72,6.72,0,0,1-4,4l-2.28.84a.22.22,0,0,0,0,.41l2.28.84a6.72,6.72,0,0,1,4,4l.84,2.28a.22.22,0,0,0,.41,0l.84-2.28a6.72,6.72,0,0,1,4-4l2.28-.84a.22.22,0,0,0,0-.41Zm0,0"/><path class="cls-1" d="M78,14.18l-1.08-.4a3.18,3.18,0,0,1-1.89-1.89l-.4-1.08a.1.1,0,0,0-.1-.07.1.1,0,0,0-.1.07l-.4,1.08a3.19,3.19,0,0,1-1.89,1.89l-1.08.4a.1.1,0,0,0,0,.19l1.08.4a3.19,3.19,0,0,1,1.89,1.89l.4,1.08a.1.1,0,0,0,.19,0l.4-1.08a3.19,3.19,0,0,1,1.89-1.89l1.08-.4a.1.1,0,0,0,0-.19Zm0,0"/><path class="cls-1" d="M34.57,3.43,33.49,3A3.19,3.19,0,0,1,31.6,1.15L31.2.07a.1.1,0,0,0-.1-.07.1.1,0,0,0-.1.07l-.4,1.08A3.18,3.18,0,0,1,28.72,3l-1.08.4a.1.1,0,0,0,0,.19l1.08.4a3.19,3.19,0,0,1,1.89,1.89L31,7a.1.1,0,0,0,.1.07A.1.1,0,0,0,31.2,7l.4-1.08A3.19,3.19,0,0,1,33.49,4l1.08-.4a.1.1,0,0,0,0-.19Zm0,0"/><path class="cls-1" d="M82.84,25.31l-1.36-.5a4,4,0,0,1-2.37-2.37l-.5-1.36a.13.13,0,0,0-.24,0l-.5,1.36a4,4,0,0,1-2.37,2.37l-1.36.5a.13.13,0,0,0,0,.24l1.36.5a4,4,0,0,1,2.37,2.37l.5,1.36a.13.13,0,0,0,.24,0l.5-1.36a4,4,0,0,1,2.37-2.37l1.36-.5a.13.13,0,0,0,0-.24Zm0,0"/></svg>