<svg id="Layer_1" data-name="Layer 1" xmlns="http://www.w3.org/2000/svg" viewBox="0 0 150 150"><defs><style>.cls-1,.cls-2{fill:none;stroke:#29abe2;}.cls-1{stroke-miterlimit:10;}.cls-2{stroke-linecap:round;stroke-linejoin:round;}.cls-3{fill:#29abe2;}</style></defs><title>external finish</title><path class="cls-1" d="M104.49,53.85v9.74a2.59,2.59,0,0,1-2.59,2.59H74.79"/><path class="cls-1" d="M44.11,52.46v5.39a2.7,2.7,0,0,1,0-5.39Z"/><path class="cls-1" d="M104.49,53.85V47.2a2.59,2.59,0,0,0-2.59-2.59H46.71a2.59,2.59,0,0,0-2.6,2.59V63.58a2.59,2.59,0,0,0,2.6,2.59H74.79"/><path class="cls-1" d="M104.49,53.85h1.58a2.48,2.48,0,0,1,2.48,2.48V71a2.48,2.48,0,0,1-2.48,2.48H74.79"/><rect class="cls-1" x="67.65" y="80.89" width="12.75" height="30.68" rx="2.31" ry="2.31"/><polyline class="cls-2" points="74.79 80.89 74.79 73.46 94.13 73.46"/><path class="cls-3" d="M57.78,39.93c0-5.13-1.64-6.78-6.78-6.78,5.13,0,6.78-1.64,6.78-6.78,0,5.13,1.64,6.78,6.78,6.78C59.42,33.16,57.78,34.8,57.78,39.93Z"/><path class="cls-3" d="M64.16,42.46c0-3-1-3.92-3.92-3.92,3,0,3.92-1,3.92-3.92,0,3,1,3.92,3.92,3.92C65.11,38.53,64.16,39.48,64.16,42.46Z"/><path class="cls-3" d="M93.72,38.1c0-9.08,2.9-12,12-12-9.08,0-12-2.9-12-12,0,9.08-2.9,12-12,12C90.81,26.11,93.72,29,93.72,38.1Z"/><path class="cls-3" d="M82.44,42.56c0-5.26,1.68-6.94,6.94-6.94-5.26,0-6.94-1.68-6.94-6.94,0,5.26-1.68,6.94-6.94,6.94C80.75,35.62,82.44,37.3,82.44,42.56Z"/></svg>