<svg id="Layer_1" data-name="Layer 1" xmlns="http://www.w3.org/2000/svg" viewBox="0 0 150 150"><defs><style>.cls-1{fill:none;stroke:#29abe2;stroke-miterlimit:10;}</style></defs><title>facilities </title><path class="cls-1" d="M74.56,52.31,47.09,70.82a1,1,0,0,0-.42.79V106.1a1,1,0,0,0,1,1h55a1,1,0,0,0,1-1V71.61a1,1,0,0,0-.42-.79L75.63,52.31A1,1,0,0,0,74.56,52.31ZM85.65,88.62H80.19a1,1,0,0,0-1,1V95a1,1,0,0,1-1,1H71.89a1,1,0,0,1-1-1V89.58a1,1,0,0,0-1-1H64.5a1,1,0,0,1-1-1V81.28a1,1,0,0,1,1-1H70a1,1,0,0,0,1-1V73.89a1,1,0,0,1,1-1h6.38a1,1,0,0,1,1,1v5.47a1,1,0,0,0,1,1h5.47a1,1,0,0,1,1,1v6.38A1,1,0,0,1,85.65,88.62Z"/><rect class="cls-1" x="35.97" y="107.06" width="78.06" height="5.23" rx="0.96" ry="0.96"/><path class="cls-1" d="M109.15,63l-2.21,3.13a1,1,0,0,1-1.34.23L75.5,45.13a1,1,0,0,0-1.11,0L44.3,66.4A1,1,0,0,1,43,66.17L40.76,63A1,1,0,0,1,41,61.71l34-24h0l34,24A1,1,0,0,1,109.15,63Z"/></svg>