<svg id="Layer_1" data-name="Layer 1" xmlns="http://www.w3.org/2000/svg" viewBox="0 0 150 150"><defs><style>.cls-1{fill:none;stroke:#29abe2;stroke-miterlimit:10;}</style></defs><title>fans</title><circle class="cls-1" cx="73.87" cy="84.23" r="7.19"/><path class="cls-1" d="M77.84,75.3l-8-.06a2.45,2.45,0,0,1-2.43-2.52l1-34.72a2.45,2.45,0,0,1,2.47-2.38l6.43,0a2.45,2.45,0,0,1,2.43,2.41l.53,34.73A2.45,2.45,0,0,1,77.84,75.3Z"/><path class="cls-1" d="M63.66,85.54l3.7,7.07a2.45,2.45,0,0,1-1.08,3.33L35.14,111.36a2.45,2.45,0,0,1-3.26-1.06l-3-5.7a2.45,2.45,0,0,1,1-3.28L60.31,84.53A2.45,2.45,0,0,1,63.66,85.54Z"/><path class="cls-1" d="M80,92.51l4.38-6.67a2.45,2.45,0,0,1,3.44-.67l28.61,19.7a2.45,2.45,0,0,1,.66,3.36l-3.53,5.38a2.45,2.45,0,0,1-3.35.73L80.73,95.94A2.45,2.45,0,0,1,80,92.51Z"/></svg>