<svg id="Layer_1" data-name="Layer 1" xmlns="http://www.w3.org/2000/svg" viewBox="0 0 150 150"><defs><style>.cls-1{fill:none;stroke:#29abe2;stroke-miterlimit:10;}</style></defs><title>fire protection</title><path class="cls-1" d="M99.07,100.75A149.42,149.42,0,0,1,75,119.88a151,151,0,0,1-22.09-17.21,40,40,0,0,1-10.4-15.93c-5.67-16.37-3.31-34.86-3.31-34.86,15.12-4.25,14.37-21.75,14.37-21.75H96.42s-.75,17.5,14.37,21.75c0,0,3,23.44-5.86,40.91A30.92,30.92,0,0,1,99.07,100.75Z"/><path class="cls-1" d="M88.65,101.59A124.44,124.44,0,0,1,75,111.7a124.32,124.32,0,0,1-13.09-9.64A46,46,0,0,1,45.67,71.31a76.12,76.12,0,0,1,.05-15.22c12.37-3.48,13.75-19.46,13.75-19.46h31s1.39,16,13.75,19.46a76.45,76.45,0,0,1-.07,16.43A44.93,44.93,0,0,1,88.65,101.59Z"/><path class="cls-1" d="M70.42,48a24.43,24.43,0,0,1-3.75,14.13s-1-3.25-2.12-4.25c0,0-2.25,5.13-3.5,7.13s-9.44,22.38,9.41,27.88c0,0-7.41-11.37,1.34-20.5,0,0-.37,14,10.25,20.5,0,0,19.75-11.25,4.88-32.25,0,0-1.62,4.88-3.25,5.13C83.67,65.75,82.8,55.38,70.42,48Z"/></svg>