<svg id="Layer_1" data-name="Layer 1" xmlns="http://www.w3.org/2000/svg" viewBox="0 0 114.6 122.42"><defs><style>.cls-1{fill:#015ba1;}</style></defs><title>Fire Protection</title><path class="cls-1" d="M58.46,8.09a2.6,2.6,0,0,0-2.72.25L46,15.63H29.61L8.46,6.24A2.6,2.6,0,1,0,6.35,11h0L20,17.06A29,29,0,0,0,0,44.57v59.61a2.6,2.6,0,0,0,5.21,0V44.57A23.76,23.76,0,0,1,26,21v5.69c-7.76,2.95-13,10.14-13,18.1v75a2.6,2.6,0,0,0,2.6,2.6H52.09a2.6,2.6,0,0,0,2.6-2.6v-75c0-8-5.26-15.15-13-18.1v-5.9H45.8l9.66,9.66a2.6,2.6,0,0,0,4.45-1.84V10.42A2.6,2.6,0,0,0,58.46,8.09Zm-9,109.12H18.23V112H49.49Zm0-72.37v62H18.23v-62c0-6.25,4.57-11.9,11.11-13.71a2.6,2.6,0,0,0,1.91-2.51V20.84h5.21v7.78a2.6,2.6,0,0,0,1.9,2.51c6.54,1.82,11.12,7.45,11.12,13.71ZM54.7,22.36l-3.86-3.85,3.86-2.89Z"/><path class="cls-1" d="M83.35,18.23h-13a2.6,2.6,0,0,0,0,5.21h13a2.6,2.6,0,0,0,0-5.21Z"/><path class="cls-1" d="M82.17,32.76l-11-3.95a2.6,2.6,0,1,0-1.88,4.86l.11,0,11,4a2.56,2.56,0,0,0,.88.16,2.6,2.6,0,0,0,.88-5.05Z"/><path class="cls-1" d="M70.32,13a2.56,2.56,0,0,0,.88-.16l11-4A2.6,2.6,0,1,0,80.53,4l-.11,0-11,4A2.6,2.6,0,0,0,70.32,13Z"/><path class="cls-1" d="M114.6,20.84a11.58,11.58,0,0,0-7.59-11,8.91,8.91,0,0,0-1.79-5.44,11.32,11.32,0,0,0-9-4.41,2.6,2.6,0,1,0,0,5.21A6,6,0,0,1,101,7.49a3.76,3.76,0,0,1,.59,3.45,2.6,2.6,0,0,0,1.71,3.26l.3.07a6.58,6.58,0,0,1,5.76,6.56,6.28,6.28,0,0,1-5.67,6.54,2.6,2.6,0,0,0-1.95,3.75,2.78,2.78,0,0,1,0,2.85c-.92,1.49-3.16,2.49-5.58,2.49a2.6,2.6,0,0,0,0,5.21c4.29,0,8.13-1.9,10-5a7.66,7.66,0,0,0,1.13-4.93A11.38,11.38,0,0,0,114.6,20.84Z"/></svg>