<svg id="Layer_1" data-name="Layer 1" xmlns="http://www.w3.org/2000/svg" viewBox="0 0 119.31 122.35"><defs><style>.cls-1{fill:#015ba1;}</style></defs><title>Fittings</title><path class="cls-1" d="M117.41,7.6h-1.65V1.9a1.9,1.9,0,0,0-1.9-1.9H99.17a1.9,1.9,0,0,0-1.9,1.9V7.6H95.12a1.9,1.9,0,0,0-1.9,1.9v6.08a1.9,1.9,0,0,0,1.9,1.9h2.15v5.7a1.9,1.9,0,1,0,3.8,0v-5.7H112V45a20.92,20.92,0,0,1-20.9,20.9H76.76V54.46H91.57a9.51,9.51,0,0,0,9.5-9.5V33.31a1.9,1.9,0,0,0-3.8,0V45a5.71,5.71,0,0,1-5.7,5.7H76.76V48a1.9,1.9,0,0,0-1.9-1.9H68.78a1.9,1.9,0,0,0-1.9,1.9v2.66H62.57V37.24h2a7,7,0,1,0,0-3.8H56.73a7,7,0,1,0,0,3.8h2V50.66H54.46V48a1.9,1.9,0,0,0-1.9-1.9H46.48a1.9,1.9,0,0,0-1.9,1.9v2.66H28.75a24.73,24.73,0,0,0-24.7,24.7V84a1.9,1.9,0,0,0,3.8,0V75.36a20.92,20.92,0,0,1,20.9-20.9H44.58v11.4H28.24a9.51,9.51,0,0,0-9.5,9.5v29H7.85V94.11a1.9,1.9,0,1,0-3.8,0v10.26H1.9a1.9,1.9,0,0,0-1.9,1.9v6.08a1.9,1.9,0,0,0,1.9,1.9H4.05v5.7a1.9,1.9,0,0,0,1.9,1.9H20.65a1.9,1.9,0,0,0,1.9-1.9v-5.7h1.65a1.9,1.9,0,0,0,1.9-1.9v-6.08a1.9,1.9,0,0,0-1.9-1.9H22.55v-29a5.71,5.71,0,0,1,5.7-5.7H44.58v2.66a1.9,1.9,0,0,0,1.9,1.9h6.08a1.9,1.9,0,0,0,1.9-1.9V69.66H66.88v2.66a1.9,1.9,0,0,0,1.9,1.9h6.08a1.9,1.9,0,0,0,1.9-1.9V69.66H91.07A24.73,24.73,0,0,0,115.77,45V17.48h1.65a1.9,1.9,0,0,0,1.9-1.9V9.5A1.9,1.9,0,0,0,117.41,7.6ZM71.31,32.17a3.17,3.17,0,1,1-3.17,3.17A3.17,3.17,0,0,1,71.31,32.17ZM50,38.5a3.17,3.17,0,1,1,3.17-3.17A3.17,3.17,0,0,1,50,38.5ZM18.75,118H7.85v-3.8H18.75Zm3.55-7.6H3.8v-2.28H22.29Zm28.37-40H48.38V49.9h2.28Zm16.21-4.56H54.46V54.46H66.88ZM73,70.42H70.68V49.9H73ZM101.07,3.8H112V7.6H101.07Zm14.44,9.88H97V11.4h18.49Z"/><path class="cls-1" d="M68,88.42a1.9,1.9,0,0,0-.68,2.6c5.38,9.16,6.18,13.17,6.18,14.74a12.79,12.79,0,1,1-25.59,0c0-5.46,8.17-18.41,12.79-25.07.67,1,1.53,2.23,2.47,3.67a1.9,1.9,0,1,0,3.18-2.08c-2.3-3.5-4-5.9-4.1-6a1.92,1.92,0,0,0-3.08,0c-1.54,2.12-15.05,21-15.05,29.49a16.59,16.59,0,0,0,33.18,0c0-3.53-2.19-9-6.7-16.67A1.9,1.9,0,0,0,68,88.42Z"/><path class="cls-1" d="M60.67,112.47a1.9,1.9,0,0,0,0,3.8,10.52,10.52,0,0,0,10.51-10.51c0-.84-.42-4.32-5.86-13.59A1.9,1.9,0,1,0,62,94.09c5.15,8.78,5.34,11.58,5.34,11.67A6.72,6.72,0,0,1,60.67,112.47Z"/></svg>