<svg id="Layer_1" data-name="Layer 1" xmlns="http://www.w3.org/2000/svg" viewBox="0 0 122.71 110.48"><defs><style>.cls-1,.cls-3{fill:#015ba1;}.cls-2{fill:none;stroke:#015ba1;stroke-miterlimit:10;stroke-width:3px;}.cls-3{font-size:18.01px;font-family:Gotham-Bold, Gotham;font-weight:700;}</style></defs><title>Furnishings</title><path class="cls-1" d="M8.46,110.48h4.23v-6.35H110v6.35h4.23v-6.35h8.46V76.63a10.6,10.6,0,0,0-8.46-10.36V27.58a6.35,6.35,0,1,0-4.23,0v5.8l-3.29-1.23a129.19,129.19,0,0,0-90.75,0l-3.29,1.23v-5.8a6.35,6.35,0,1,0-4.23,0V66.26A10.6,10.6,0,0,0,0,76.63v27.5H8.46Zm103.67-91A2.12,2.12,0,1,1,110,21.62,2.12,2.12,0,0,1,112.13,19.5Zm-101.55,0a2.12,2.12,0,1,1-2.12,2.12A2.12,2.12,0,0,1,10.58,19.5Zm6.89,16.6a125,125,0,0,1,87.78,0L110,37.9V66h-8.46V61.82A10.59,10.59,0,0,0,91,51.24H74A10.59,10.59,0,0,0,63.47,61.82V66H59.24V61.82A10.59,10.59,0,0,0,48.66,51.24H31.73A10.59,10.59,0,0,0,21.16,61.82V66H12.69V37.9ZM97.32,66H67.7V61.82A6.35,6.35,0,0,1,74,55.47H91a6.35,6.35,0,0,1,6.35,6.35ZM55,66H25.39V61.82a6.35,6.35,0,0,1,6.35-6.35H48.66A6.35,6.35,0,0,1,55,61.82ZM4.23,76.63a6.35,6.35,0,0,1,6.35-6.35H112.13a6.35,6.35,0,0,1,6.35,6.35V91.44H4.23Zm0,19H118.48V99.9H4.23Z"/><rect class="cls-1" x="101.55" y="76.63" width="4.23" height="4.23"/><rect class="cls-1" x="93.09" y="80.86" width="4.23" height="4.23"/><rect class="cls-1" x="59.24" y="34.31" width="4.23" height="4.23"/><rect class="cls-1" x="67.7" y="42.78" width="4.23" height="4.23"/><rect class="cls-1" x="50.78" y="42.78" width="4.23" height="4.23"/><rect class="cls-1" x="42.31" y="34.31" width="4.23" height="4.23"/><rect class="cls-1" x="33.85" y="42.78" width="4.23" height="4.23"/><rect class="cls-1" x="76.16" y="34.31" width="4.23" height="4.23"/><rect class="cls-1" x="84.63" y="42.78" width="4.23" height="4.23"/><rect class="cls-1" x="23.27" y="38.54" width="4.23" height="4.23"/><rect class="cls-1" x="95.2" y="38.54" width="4.23" height="4.23"/><circle class="cls-2" cx="61.35" cy="14.06" r="12.56"/><text class="cls-3" transform="translate(55.49 20.07)">3</text></svg>