<svg id="Layer_1" data-name="Layer 1" xmlns="http://www.w3.org/2000/svg" viewBox="0 0 122.69 122.69"><defs><style>.cls-1{fill:#015ba1;}</style></defs><title>Generic</title><path class="cls-1" d="M73.61,28.63a2,2,0,0,0,2-2,6.13,6.13,0,1,1,12.27,0V38.85a2,2,0,0,0,4.09,0V26.58a10.22,10.22,0,1,0-20.45,0A2,2,0,0,0,73.61,28.63Z"/><path class="cls-1" d="M14.31,69.52a2,2,0,0,0,2-2,6.13,6.13,0,0,1,12.27,0,2,2,0,1,0,4.09,0,10.22,10.22,0,0,0-20.45,0A2,2,0,0,0,14.31,69.52Z"/><path class="cls-1" d="M61.34,40.9a2,2,0,0,0,2-2V30.67a2,2,0,0,0-4.09,0v8.18A2,2,0,0,0,61.34,40.9Z"/><path class="cls-1" d="M73.61,40.9a2,2,0,0,0,2-2V34.76a2,2,0,0,0-4.09,0v4.09A2,2,0,0,0,73.61,40.9Z"/><path class="cls-1" d="M61.34,12.27a2,2,0,0,0,2-2V2A2,2,0,1,0,59.3,2v8.18A2,2,0,0,0,61.34,12.27Z"/><path class="cls-1" d="M61.34,24.54a2,2,0,0,0,2-2V18.4a2,2,0,1,0-4.09,0v4.09A2,2,0,0,0,61.34,24.54Z"/><path class="cls-1" d="M14.31,81.79a2,2,0,0,0,2-2V75.66a2,2,0,0,0-4.09,0v4.09A2,2,0,0,0,14.31,81.79Z"/><path class="cls-1" d="M14.31,94.06a2,2,0,0,0,2-2V87.93a2,2,0,0,0-4.09,0V92A2,2,0,0,0,14.31,94.06Z"/><path class="cls-1" d="M92,69.52a2,2,0,0,0,2-2,6.13,6.13,0,1,1,12.27,0,2,2,0,0,0,4.09,0,10.22,10.22,0,0,0-20.45,0A2,2,0,0,0,92,69.52Z"/><path class="cls-1" d="M110.42,75.66a2,2,0,0,0-4.09,0v4.09a2,2,0,0,0,4.09,0Z"/><path class="cls-1" d="M108.37,85.88a2,2,0,0,0-2,2V92a2,2,0,0,0,4.09,0V87.93A2,2,0,0,0,108.37,85.88Z"/><path class="cls-1" d="M120.64,118.6H110.19a14.29,14.29,0,0,0,4.15-8.18h2.21a2,2,0,0,0,2-2v-8.18a2,2,0,0,0-2-2H67.48V94.06H83.84a10.24,10.24,0,0,0,10-8.18h2.25a2,2,0,0,0,2-2V75.66a2,2,0,0,0-2-2H67.48V65.43h6.13a10.24,10.24,0,0,0,10-8.18h2.25a2,2,0,0,0,2-2V47a2,2,0,0,0-2-2H36.81a2,2,0,0,0-2,2v8.18a2,2,0,0,0,2,2h2.25a10.24,10.24,0,0,0,10,8.18h6.13v8.18H26.58a2,2,0,0,0-2,2v8.18a2,2,0,0,0,2,2h2.25a10.24,10.24,0,0,0,10,8.18H55.21v4.09H6.13a2,2,0,0,0-2,2v8.18a2,2,0,0,0,2,2H8.34a14.28,14.28,0,0,0,4.15,8.18H2a2,2,0,0,0,0,4.09h118.6a2,2,0,1,0,0-4.09ZM59.3,65.43h4.09v8.18H59.3Zm0,28.63h4.09v4.09H59.3Z"/><path class="cls-1" d="M32.71,40.9a2,2,0,0,0,2-2V26.58a6.13,6.13,0,0,1,12.27,0,2,2,0,1,0,4.09,0,10.22,10.22,0,0,0-20.45,0V38.85A2,2,0,0,0,32.71,40.9Z"/><path class="cls-1" d="M49.07,32.72a2,2,0,0,0-2,2v4.09a2,2,0,1,0,4.09,0V34.76A2,2,0,0,0,49.07,32.72Z"/></svg>