<svg id="Layer_1" data-name="Layer 1" xmlns="http://www.w3.org/2000/svg" viewBox="0 0 150 150"><defs><style>.cls-1,.cls-2{fill:none;stroke:#29abe2;stroke-linecap:round;}.cls-1{stroke-linejoin:round;}.cls-2{stroke-miterlimit:10;}</style></defs><title>green area</title><path class="cls-1" d="M72.33,39.67,59.81,61A15,15,0,0,0,72.74,83.59h0A15,15,0,0,0,85.44,60.67Z"/><path class="cls-2" d="M79.91,59.23s5.78,10.58-1.4,17.44"/><line class="cls-1" x1="72.74" y1="83.59" x2="72.74" y2="110.33"/><path class="cls-1" d="M99.23,61.41,90.56,76.2a10.37,10.37,0,0,0,9,15.62h0a10.37,10.37,0,0,0,8.8-15.87Z"/><path class="cls-2" d="M104.48,74.95s4,7.33-1,12.07"/><line class="cls-1" x1="99.51" y1="91.82" x2="99.51" y2="110.33"/><line class="cls-1" x1="40.1" y1="110.33" x2="109.9" y2="110.33"/><rect class="cls-1" x="41.56" y="97.07" width="27.27" height="3.41"/><rect class="cls-1" x="41.56" y="104.84" width="27.27" height="0.08"/><line class="cls-1" x1="46.01" y1="104.84" x2="46.01" y2="110.33"/><line class="cls-1" x1="63.15" y1="104.84" x2="63.15" y2="110.33"/><line class="cls-1" x1="44.44" y1="100.47" x2="44.44" y2="97.07"/><line class="cls-1" x1="47.99" y1="100.47" x2="47.99" y2="97.07"/><line class="cls-1" x1="51.53" y1="100.47" x2="51.53" y2="97.07"/><line class="cls-1" x1="55.08" y1="100.47" x2="55.08" y2="97.07"/><line class="cls-1" x1="58.63" y1="100.47" x2="58.63" y2="97.07"/><line class="cls-1" x1="62.16" y1="100.47" x2="62.16" y2="97.07"/><line class="cls-1" x1="65.71" y1="100.47" x2="65.71" y2="97.07"/><line class="cls-1" x1="46.01" y1="100.47" x2="46.01" y2="104.84"/><line class="cls-1" x1="63.15" y1="100.47" x2="63.15" y2="104.84"/></svg>