<svg id="Layer_1" data-name="Layer 1" xmlns="http://www.w3.org/2000/svg" viewBox="0 0 114.58 122.75"><defs><style>.cls-1{fill:#015ba1;}</style></defs><title>Health</title><path class="cls-1" d="M110.12,82.33a9.66,9.66,0,0,0-9.3-.48L79.88,92v-1.1a9.31,9.31,0,0,0-9.38-9.49H50.21a42.14,42.14,0,0,1-12.33-1.91L24.67,75.39V70.06a2.92,2.92,0,0,0-2.83-3.14H3.34A3.36,3.36,0,0,0,0,70.06v49a3.27,3.27,0,0,0,3.34,3H21.85a2.83,2.83,0,0,0,2.83-3v-4.94l2.21,1.64a32,32,0,0,0,19.92,6.94H64.62a31.43,31.43,0,0,0,17.8-5.47l28-19.11a9.46,9.46,0,0,0-.32-15.84ZM18.5,116H6.17V73.09H18.5ZM107,93.09l-28,19.1a25.28,25.28,0,0,1-14.33,4.39H46.8A25.83,25.83,0,0,1,30.75,111l-6.07-4.75V81.85L36.07,85.4a48.29,48.29,0,0,0,14.15,2.19H70.5a3.14,3.14,0,0,1,3.21,3.33v3.73A53.28,53.28,0,0,1,52.58,96a3,3,0,0,0-3.47,2.55,3.11,3.11,0,0,0,2.59,3.54,49.74,49.74,0,0,0,7.87.6A62.61,62.61,0,0,0,78,99.88h0l.33-.14h0L103.66,87.4a3.3,3.3,0,0,1,4.75,3A3.3,3.3,0,0,1,107,93.09Z"/><path class="cls-1" d="M111.49.62H93a3.27,3.27,0,0,0-3.24,3.14V8.69l-2-1.7A31.5,31.5,0,0,0,68,0H50.21a31.48,31.48,0,0,0-17.8,5.52l-28,19.14a9.48,9.48,0,0,0,.32,15.86A9.26,9.26,0,0,0,13.8,41L34.54,30.84v1.1a9.83,9.83,0,0,0,9.79,9.7H64.62a40.67,40.67,0,0,1,12.12,1.81l13,4v5.33a3.17,3.17,0,0,0,3.24,3h18.51a2.91,2.91,0,0,0,2.93-3v-49A3,3,0,0,0,111.49.62ZM78.56,37.56a46.83,46.83,0,0,0-13.94-2.09H44.33a3.66,3.66,0,0,1-3.62-3.53V28.21c4-1,12.57-2.8,21.33-1.39a3.12,3.12,0,0,0,3.57-2.55,3.07,3.07,0,0,0-2.54-3.54c-13.2-2.13-25.62,2-26.3,2.24h0l-.17.07-.18.07L11.17,35.46a3.3,3.3,0,0,1-4.75-3,3.3,3.3,0,0,1,1.44-2.73l28-19.15A25.34,25.34,0,0,1,50.21,6.17H68A25.31,25.31,0,0,1,83.88,11.8l5.87,4.81V41Zm29.69,12.1H95.92V6.79h12.34Z"/><path class="cls-1" d="M56.87,75.45a3.08,3.08,0,0,0,3.58,0,62.78,62.78,0,0,0,6.06-5c4.5-4.27,6.69-7.88,6.69-11A9.67,9.67,0,0,0,58.66,51a9.67,9.67,0,0,0-14.54,8.36c0,3.16,2.19,6.78,6.69,11A62.78,62.78,0,0,0,56.87,75.45ZM53.8,55.88A3.47,3.47,0,0,1,56.38,57a3.08,3.08,0,0,0,4.55,0,3.47,3.47,0,0,1,2.59-1.14A3.51,3.51,0,0,1,67,59.38c0,2-4.12,6.34-8.37,9.7-4.25-3.36-8.37-7.73-8.37-9.7A3.51,3.51,0,0,1,53.8,55.88Z"/></svg>