<?xml version="1.0" encoding="iso-8859-1"?>
<!-- Generator: Adobe Illustrator 17.1.0, SVG Export Plug-In . SVG Version: 6.00 Build 0)  -->
<!DOCTYPE svg PUBLIC "-//W3C//DTD SVG 1.1//EN" "http://www.w3.org/Graphics/SVG/1.1/DTD/svg11.dtd">
<svg xmlns="http://www.w3.org/2000/svg" xmlns:xlink="http://www.w3.org/1999/xlink" version="1.1" id="Capa_1" x="0px" y="0px" viewBox="0 0 465 465" style="enable-background:new 0 0 465 465;" xml:space="preserve" width="512px" height="512px">
<g>
	<path d="M179.649,233.835c0-33.201-27.011-60.211-60.211-60.211s-60.211,27.011-60.211,60.211   c0,33.201,27.011,60.212,60.211,60.212S179.649,267.037,179.649,233.835z M74.227,233.835c0-24.93,20.282-45.211,45.211-45.211   s45.211,20.282,45.211,45.211s-20.282,45.212-45.211,45.212S74.227,258.765,74.227,233.835z" fill="#059de9"/>
	<path d="M119.438,215.51c4.33,0,7.852-3.522,7.852-7.852s-3.522-7.852-7.852-7.852s-7.852,3.522-7.852,7.852   S115.108,215.51,119.438,215.51z" fill="#059de9"/>
	<path d="M100.699,213.951c-1.193-0.69-2.553-1.056-3.931-1.056c-2.797,0-5.404,1.506-6.796,3.92   c-1.051,1.817-1.331,3.934-0.789,5.962c0.542,2.024,1.84,3.716,3.661,4.77c1.191,0.688,2.548,1.051,3.923,1.051   c2.794,0,5.398-1.502,6.802-3.929c1.047-1.816,1.325-3.932,0.782-5.957C103.808,216.687,102.508,214.994,100.699,213.951z" fill="#059de9"/>
	<path d="M96.797,239.424h-0.01c-4.142,0-7.495,3.358-7.495,7.5s3.363,7.5,7.505,7.5c4.143,0,7.5-3.358,7.5-7.5   S100.94,239.424,96.797,239.424z" fill="#059de9"/>
	<path d="M127.29,260.013c0-4.33-3.522-7.852-7.852-7.852s-7.852,3.522-7.852,7.852s3.522,7.852,7.852,7.852   S127.29,264.343,127.29,260.013z" fill="#059de9"/>
	<path d="M138.191,253.729c1.19,0.685,2.544,1.047,3.917,1.047c2.794,0,5.398-1.502,6.805-3.934   c1.045-1.815,1.321-3.929,0.779-5.951c-0.544-2.029-1.846-3.723-3.652-4.763c-1.193-0.69-2.553-1.055-3.931-1.055   c-2.801,0-5.408,1.508-6.797,3.92c-1.05,1.816-1.331,3.933-0.789,5.959C135.065,250.978,136.363,252.671,138.191,253.729z" fill="#059de9"/>
	<path d="M142.109,228.599c1.378,0,2.737-0.365,3.93-1.055c3.74-2.163,5.029-6.969,2.871-10.719   c-1.398-2.423-4.004-3.929-6.802-3.929c-1.378,0-2.738,0.365-3.931,1.055c-3.743,2.165-5.03,6.974-2.874,10.714   C136.701,227.091,139.308,228.599,142.109,228.599z" fill="#059de9"/>
	<path d="M119.438,109.994c11.757,0,21.322-9.565,21.322-21.322c0-4.142-3.358-7.5-7.5-7.5s-7.5,3.358-7.5,7.5   c0,3.486-2.836,6.322-6.322,6.322c-3.486,0-6.322-2.836-6.322-6.322c0-3.486,2.836-6.322,6.322-6.322c4.142,0,7.5-3.358,7.5-7.5   s-3.358-7.5-7.5-7.5c-11.757,0-21.322,9.565-21.322,21.322C98.116,100.429,107.681,109.994,119.438,109.994z" fill="#059de9"/>
	<path d="M84.411,150.309h41.243c4.142,0,7.5-3.358,7.5-7.5s-3.358-7.5-7.5-7.5H84.411c-9.114,0-16.535-7.391-16.583-16.494   c1.076-40.777,2.721-71.56,3.2-80.03c0.234-4.135-2.929-7.677-7.064-7.911c-4.129-0.235-7.678,2.928-7.911,7.064   c-0.483,8.529-2.141,39.55-3.222,80.589c-0.001,0.065-0.002,0.131-0.002,0.197C52.827,136.141,66.996,150.309,84.411,150.309z" fill="#059de9"/>
	<path d="M148.96,150.309h5.505c17.415,0,31.583-14.168,31.583-31.583c0-0.066-0.001-0.132-0.002-0.197   c-1.081-41.039-2.739-72.06-3.222-80.589c-0.234-4.136-3.778-7.31-7.911-7.064c-4.136,0.234-7.299,3.776-7.064,7.911   c0.479,8.47,2.125,39.253,3.2,80.03c-0.049,9.103-7.469,16.494-16.583,16.494h-5.505c-4.142,0-7.5,3.358-7.5,7.5   S144.818,150.309,148.96,150.309z" fill="#059de9"/>
	<path d="M436.115,28.641c-0.646-10.508-9.142-20.777-19.344-23.378C415.928,5.047,395.555,0,345.563,0   c-49.993,0-70.365,5.047-71.208,5.262c-10.203,2.601-18.7,12.871-19.344,23.379c-0.047,0.777-4.77,78.818-4.824,170.161   c0.055,91.334,4.777,169.375,4.824,170.152c0.644,10.509,9.141,20.778,19.344,23.379c0.801,0.204,19.26,4.77,63.999,5.223v29.683   c0,12.55-10.21,22.76-22.761,22.76H149.698c-12.55,0-22.76-10.21-22.76-22.76v-29.686c44.528-0.47,62.909-5.016,63.708-5.22   c10.202-2.601,18.699-12.87,19.343-23.379c0.048-0.777,4.77-78.819,4.824-170.162c-0.054-91.334-4.776-169.375-4.824-170.153   c-0.645-10.508-9.141-20.777-19.343-23.378C189.803,5.047,169.431,0,119.438,0S49.073,5.047,48.23,5.262   c-10.203,2.601-18.699,12.87-19.343,23.379c-0.048,0.777-4.77,78.818-4.825,170.161c0.055,91.334,4.777,169.375,4.825,170.153   c0.644,10.509,9.141,20.778,19.343,23.379c0.8,0.204,19.18,4.75,63.708,5.22v29.686c0,20.821,16.939,37.76,37.76,37.76h165.895   c20.821,0,37.761-16.939,37.761-37.76v-29.688c44.318-0.487,62.62-5.014,63.417-5.217c10.202-2.601,18.698-12.87,19.344-23.379   c0.047-0.777,4.769-78.819,4.823-170.162C440.883,107.459,436.162,29.418,436.115,28.641z M43.858,368.037   c-0.047-0.773-4.742-78.386-4.796-169.235c0.054-90.858,4.749-168.47,4.796-169.243c0.247-4.022,4.172-8.766,8.057-9.757   C52.108,19.754,71.746,15,119.438,15s67.33,4.754,67.502,4.797c3.905,0.996,7.83,5.74,8.077,9.762   c0.047,0.773,4.742,78.359,4.796,169.234c-0.054,90.858-4.749,168.47-4.796,169.243c-0.247,4.022-4.172,8.767-8.057,9.757   c-0.193,0.048-19.831,4.802-67.523,4.802s-67.33-4.754-67.503-4.797C48.03,376.803,44.105,372.06,43.858,368.037z M421.142,368.037   c-0.246,4.022-4.172,8.767-8.057,9.757c-0.192,0.048-19.831,4.802-67.522,4.802c-47.692,0-67.33-4.754-67.503-4.797   c-3.905-0.996-7.83-5.739-8.076-9.762c-0.048-0.773-4.743-78.359-4.797-169.235c0.054-90.858,4.749-168.47,4.797-169.244   c0.246-4.022,4.171-8.766,8.057-9.756c0.192-0.048,19.83-4.802,67.522-4.802c47.691,0,67.33,4.754,67.503,4.797   c3.904,0.996,7.83,5.74,8.076,9.762c0.048,0.773,4.742,78.359,4.796,169.234C425.884,289.651,421.19,367.264,421.142,368.037z" fill="#059de9"/>
	<path d="M310.208,150.797h41.628c4.143,0,7.5-3.358,7.5-7.5s-3.357-7.5-7.5-7.5h-41.628c-9.238,0-16.76-7.491-16.809-16.719   c1.088-41.217,2.748-72.246,3.231-80.781c0.234-4.135-2.929-7.678-7.064-7.912c-4.151-0.243-7.678,2.928-7.912,7.064   c-0.486,8.594-2.159,39.86-3.252,81.341c-0.002,0.066-0.003,0.132-0.003,0.198C278.399,136.528,292.668,150.797,310.208,150.797z" fill="#059de9"/>
	<path d="M345.563,111.751c4.143,0,7.5-3.358,7.5-7.5V76.92c0-4.142-3.357-7.5-7.5-7.5s-7.5,3.358-7.5,7.5v27.332   C338.063,108.394,341.42,111.751,345.563,111.751z" fill="#059de9"/>
	<path d="M409.472,37.451c-0.234-4.136-3.806-7.297-7.911-7.065c-4.136,0.234-7.299,3.776-7.065,7.912   c0.484,8.558,2.146,39.655,3.23,80.782c-0.049,9.227-7.57,16.718-16.809,16.718h-5.557c-4.143,0-7.5,3.358-7.5,7.5   s3.357,7.5,7.5,7.5h5.557c17.539,0,31.809-14.27,31.809-31.809c0-0.066-0.001-0.132-0.003-0.198   C411.633,77.403,409.959,46.068,409.472,37.451z" fill="#059de9"/>
	<path d="M154.773,351.1c0-4.142-3.358-7.5-7.5-7.5H92.453c-4.142,0-7.5,3.358-7.5,7.5s3.358,7.5,7.5,7.5h54.821   C151.416,358.6,154.773,355.242,154.773,351.1z" fill="#059de9"/>
	<path d="M400.492,174.247H290.634c-4.143,0-7.5,3.358-7.5,7.5s3.357,7.5,7.5,7.5h109.857c4.143,0,7.5-3.358,7.5-7.5   S404.634,174.247,400.492,174.247z" fill="#059de9"/>
</g>
<g>
</g>
<g>
</g>
<g>
</g>
<g>
</g>
<g>
</g>
<g>
</g>
<g>
</g>
<g>
</g>
<g>
</g>
<g>
</g>
<g>
</g>
<g>
</g>
<g>
</g>
<g>
</g>
<g>
</g>
</svg>
