<?xml version="1.0"?>
<svg xmlns="http://www.w3.org/2000/svg" xmlns:xlink="http://www.w3.org/1999/xlink" version="1.1" id="Capa_1" x="0px" y="0px" viewBox="0 0 297 297" style="enable-background:new 0 0 297 297;" xml:space="preserve" width="512px" height="512px" class=""><g><g>
	<path d="M263.443,93.138l0.093-20.557c0-0.065,0.05-0.131,0.049-0.196c-0.203-13.185-6.261-28.639-15.852-40.332   c-12.342-15.047-29.698-23.334-48.895-23.334c-3.519,0-6.884,1.417-9.346,3.932c-2.462,2.514-2.303,5.914-2.23,9.432v71.043H34.641   C15.736,93.126,0,108.452,0,127.357v9.061c0,18.905,15.736,34.23,34.641,34.23h2.818l84.532,47.517l-81.357,45.61   c-6.305,3.535-8.551,11.512-5.016,17.817c2.4,4.281,6.847,6.69,11.429,6.69c2.167,0,4.364-0.539,6.389-1.673l95.449-53.327   l94.868,53.327c2.025,1.135,4.222,1.673,6.389,1.673c4.582,0,9.029-2.41,11.429-6.69c3.535-6.305,1.289-14.283-5.016-17.817   l-80.985-45.401l85.423-47.725h2.19c18.905,0,33.82-15.326,33.82-34.23v-9.061C297,108.608,282.131,93.389,263.443,93.138z    M213.445,37.399c17.424,6.853,23.832,26.251,24.017,35.38l0.009,20.347h-24.026V37.399z M148.593,203.251l-58.157-32.603H206.75   L148.593,203.251z M270.824,136.418c0,4.448-3.606,8.054-8.054,8.054H34.231c-4.448,0-8.054-3.606-8.054-8.054v-9.061   c0-4.448,3.606-8.054,8.054-8.054H262.77c4.448,0,8.054,3.606,8.054,8.054V136.418z" data-original="#000000" class="active-path" data-old_color="#059de9" fill="#059de9"/>
</g></g> </svg>
