<svg id="Layer_1" data-name="Layer 1" xmlns="http://www.w3.org/2000/svg" viewBox="0 0 122.67 122.67"><defs><style>.cls-1{fill:#015ba1;}</style></defs><title>Kitchen</title><path id="SVGCleanerId_0" data-name="SVGCleanerId 0" class="cls-1" d="M87.91,122.67H34.76a2,2,0,0,1-2-2v-45a2,2,0,0,1,2-2H87.91a2,2,0,0,1,2,2v45A2,2,0,0,1,87.91,122.67ZM36.8,118.58H85.87V77.69H36.8Z"/><path id="SVGCleanerId_0-2" data-name="SVGCleanerId 0" class="cls-1" d="M87.91,122.67H34.76a2,2,0,0,1-2-2v-45a2,2,0,0,1,2-2H87.91a2,2,0,0,1,2,2v45A2,2,0,0,1,87.91,122.67ZM36.8,118.58H85.87V77.69H36.8Z"/><path class="cls-1" d="M34.76,122.67H2a2,2,0,0,1-2-2v-45a2,2,0,0,1,2-2H34.76a2,2,0,0,1,2,2v45A2,2,0,0,1,34.76,122.67ZM4.09,118.58H32.71V77.69H4.09Z"/><path class="cls-1" d="M120.62,122.67H87.91a2,2,0,0,1-2-2v-45a2,2,0,0,1,2-2h32.71a2,2,0,0,1,2,2v45A2,2,0,0,1,120.62,122.67ZM90,118.58h28.62V77.69H90Z"/><path class="cls-1" d="M79.73,114.49H42.93a2,2,0,0,1-2-2V92a2,2,0,0,1,2-2h36.8a2,2,0,0,1,2,2v20.44A2,2,0,0,1,79.73,114.49ZM45,110.4H77.69V94H45Z"/><rect class="cls-1" x="63.38" y="81.78" width="4.09" height="4.09"/><rect class="cls-1" x="55.2" y="81.78" width="4.09" height="4.09"/><rect class="cls-1" x="47.02" y="81.78" width="4.09" height="4.09"/><rect class="cls-1" x="71.56" y="81.78" width="4.09" height="4.09"/><rect class="cls-1" x="2.04" y="89.96" width="32.71" height="4.09"/><rect class="cls-1" x="14.31" y="81.78" width="8.18" height="4.09"/><rect class="cls-1" x="14.31" y="98.13" width="8.18" height="4.09"/><rect class="cls-1" x="87.91" y="89.96" width="32.71" height="4.09"/><rect class="cls-1" x="102.22" y="92" width="4.09" height="28.62"/><rect class="cls-1" x="100.18" y="81.78" width="8.18" height="4.09"/><rect class="cls-1" x="94.04" y="102.22" width="4.09" height="6.13"/><rect class="cls-1" x="110.4" y="102.22" width="4.09" height="6.13"/><path class="cls-1" d="M85.87,36.8H36.8a2,2,0,0,1-1.45-3.49l7.58-7.58V2a2,2,0,0,1,2-2H77.69a2,2,0,0,1,2,2V25.73l7.58,7.58a2,2,0,0,1-1.45,3.49ZM41.74,32.71h39.2L76.24,28a2,2,0,0,1-.6-1.45V4.09H47V26.58a2,2,0,0,1-.6,1.45Z"/><path class="cls-1" d="M118.58,75.64h-4.09V53.16a4.09,4.09,0,0,0-8.18,0v2h-4.09v-2a8.18,8.18,0,0,1,16.36,0Z"/><rect class="cls-1" x="110.4" y="65.42" width="6.13" height="4.09"/><path class="cls-1" d="M59.29,77.69H38.84a2,2,0,0,1-2-2V63.38a2,2,0,0,1,2-2H59.29a2,2,0,0,1,2,2V75.64A2,2,0,0,1,59.29,77.69ZM40.89,73.6H57.24V65.42H40.89Z"/><rect class="cls-1" x="32.71" y="65.42" width="6.13" height="4.09"/><rect class="cls-1" x="59.29" y="65.42" width="6.13" height="4.09"/><path class="cls-1" d="M34.76,28.62H2a2,2,0,0,1-2-2V2A2,2,0,0,1,2,0H34.76a2,2,0,0,1,2,2V26.58A2,2,0,0,1,34.76,28.62ZM4.09,24.53H32.71V4.09H4.09Z"/><rect class="cls-1" x="24.53" y="12.27" width="4.09" height="8.18"/><path class="cls-1" d="M120.62,28.62H87.91a2,2,0,0,1-2-2V2a2,2,0,0,1,2-2h32.71a2,2,0,0,1,2,2V26.58A2,2,0,0,1,120.62,28.62ZM90,24.53h28.62V4.09H90Z"/><rect class="cls-1" x="94.04" y="12.27" width="4.09" height="8.18"/><rect class="cls-1" y="40.89" width="36.8" height="4.09"/><rect class="cls-1" x="4.09" y="36.8" width="4.09" height="18.4"/><path class="cls-1" d="M6.13,65.42a6.13,6.13,0,1,1,6.13-6.13A6.14,6.14,0,0,1,6.13,65.42Zm0-8.18a2,2,0,1,0,2,2A2,2,0,0,0,6.13,57.24Z"/><rect class="cls-1" x="12.27" y="36.8" width="4.09" height="18.4"/><path class="cls-1" d="M14.31,65.42a6.13,6.13,0,1,1,6.13-6.13A6.14,6.14,0,0,1,14.31,65.42Zm0-8.18a2,2,0,1,0,2,2A2,2,0,0,0,14.31,57.24Z"/><rect class="cls-1" x="20.44" y="36.8" width="4.09" height="18.4"/><path class="cls-1" d="M22.49,65.42a6.13,6.13,0,1,1,6.13-6.13A6.14,6.14,0,0,1,22.49,65.42Zm0-8.18a2,2,0,1,0,2,2A2,2,0,0,0,22.49,57.24Z"/></svg>