<svg id="Layer_1" data-name="Layer 1" xmlns="http://www.w3.org/2000/svg" viewBox="0 0 150 150"><defs><style>.cls-1{fill:none;stroke:#29abe2;stroke-miterlimit:10;}.cls-2{fill:#29abe2;}</style></defs><title>kitchen </title><path class="cls-1" d="M65.13,32.67V43.74a1.75,1.75,0,0,1-.6,1.32L50,57.78a1.75,1.75,0,0,0,1.15,3.07H98.72a1.75,1.75,0,0,0,1.16-3.06L85.64,45.09a1.75,1.75,0,0,1-.58-1.39l.53-11"/><rect class="cls-1" x="33.38" y="84.44" width="83.24" height="32.89" rx="1.75" ry="1.75"/><rect class="cls-1" x="57.84" y="84.44" width="34.04" height="9.01" rx="1.75" ry="1.75"/><rect class="cls-1" x="68.28" y="100.89" width="13.73" height="7.01" rx="1.75" ry="1.75"/><rect class="cls-1" x="57.84" y="84.44" width="34.04" height="32.89" rx="1.75" ry="1.75"/><circle class="cls-2" cx="68.48" cy="58.08" r="0.88"/><circle class="cls-2" cx="75" cy="58.08" r="0.88"/><circle class="cls-2" cx="81.52" cy="58.08" r="0.88"/><circle class="cls-2" cx="67.92" cy="82.13" r="0.88"/><circle class="cls-2" cx="74.44" cy="82.13" r="0.88"/><circle class="cls-2" cx="80.95" cy="82.13" r="0.88"/><rect class="cls-1" x="58.75" y="80.37" width="31.38" height="3.5" rx="1.75" ry="1.75"/><rect class="cls-1" x="36.5" y="95.67" width="10.67" height="2.67" rx="1.33" ry="1.33"/><rect class="cls-1" x="36.5" y="103.06" width="10.67" height="2.67" rx="1.33" ry="1.33"/><rect class="cls-1" x="102.33" y="95.67" width="10.67" height="2.67" rx="1.33" ry="1.33"/><rect class="cls-1" x="102.33" y="103.06" width="10.67" height="2.67" rx="1.33" ry="1.33"/></svg>