<svg id="Layer_1" data-name="Layer 1" xmlns="http://www.w3.org/2000/svg" viewBox="0 0 150 150"><defs><style>.cls-1,.cls-2{fill:none;stroke:#29abe2;stroke-miterlimit:10;}.cls-2{stroke-linecap:round;}</style></defs><title>lift </title><rect class="cls-1" x="37.33" y="35.33" width="75.33" height="79.33" rx="3" ry="3"/><rect class="cls-1" x="49.5" y="50.83" width="50.67" height="63.83" rx="3" ry="3"/><path class="cls-2" d="M54.17,78.29l4.33-5.38a3,3,0,0,1,4.73.07l4,5.31"/><path class="cls-2" d="M67.25,90.89l-4.33,5.38a3,3,0,0,1-4.73-.07l-4-5.31"/><circle class="cls-2" cx="82.55" cy="67.78" r="5.5"/><path class="cls-2" d="M73.83,95.59V81.29a3,3,0,0,1,3-3H88.25a3,3,0,0,1,3,3v14.3"/><path class="cls-2" d="M88.83,95.59v16.08a3,3,0,0,1-3,3H79.17a3,3,0,0,1-3-3V95.59"/><line class="cls-2" x1="73.83" y1="95.77" x2="76.17" y2="95.77"/><line class="cls-2" x1="88.92" y1="95.77" x2="91.25" y2="95.77"/></svg>