<svg id="Layer_1" data-name="Layer 1" xmlns="http://www.w3.org/2000/svg" viewBox="0 0 150 150"><defs><style>.cls-1,.cls-2{fill:none;stroke:#29abe2;stroke-miterlimit:10;}.cls-2{stroke-width:0.75px;}</style></defs><title>master bedroom</title><rect class="cls-1" x="52.29" y="38.25" width="45.13" height="24.48" rx="1" ry="1"/><circle class="cls-1" cx="62.03" cy="46.32" r="3.62"/><rect class="cls-1" x="45.42" y="74.22" width="58.7" height="13.61" rx="1" ry="1"/><rect class="cls-1" x="40.17" y="87.83" width="69.69" height="8.62" rx="1" ry="1"/><path class="cls-1" d="M110.6,111.18,97.7,100.31a1,1,0,0,0-.64-.24H53.64a1,1,0,0,0-.62.22l-13.71,11a1,1,0,0,1-1.62-.78v-13a1,1,0,0,1,1-1h72.57a1,1,0,0,1,1,1v13A1,1,0,0,1,110.6,111.18Z"/><rect class="cls-1" x="51.04" y="81.02" width="20.98" height="6.81" rx="1" ry="1"/><rect class="cls-1" x="77.64" y="81.02" width="20.98" height="6.81" rx="1" ry="1"/><path class="cls-1" d="M42.26,64.79H28.72a1,1,0,0,1-.94-1.33l4.3-12.3a1,1,0,0,1,.94-.67h5a1,1,0,0,1,.94.67l4.3,12.3A1,1,0,0,1,42.26,64.79Z"/><rect class="cls-1" x="33.64" y="64.79" width="2.83" height="9.43" rx="1" ry="1"/><rect class="cls-1" x="30.35" y="74.22" width="9.83" height="5" rx="1" ry="1"/><path class="cls-1" d="M37.68,101.53H24.56a1,1,0,0,1-1-1V80.21a1,1,0,0,1,1-1H42.67a1,1,0,0,1,1,1v7.62"/><rect class="cls-1" x="26.64" y="82.29" width="17.03" height="5" rx="1" ry="1"/><path class="cls-1" d="M37.68,99.28H27.31a1,1,0,0,1-1-1V91.37a1,1,0,0,1,1-1H40.17"/><circle class="cls-2" cx="35.54" cy="84.87" r="1.04"/><path class="cls-1" d="M107.74,64.79h13.54a1,1,0,0,0,.94-1.33l-4.3-12.3a1,1,0,0,0-.94-.67h-5a1,1,0,0,0-.94.67l-4.3,12.3A1,1,0,0,0,107.74,64.79Z"/><rect class="cls-1" x="113.53" y="64.79" width="2.83" height="9.43" rx="1" ry="1" transform="translate(229.9 139.01) rotate(-180)"/><rect class="cls-1" x="109.83" y="74.22" width="9.83" height="5" rx="1" ry="1" transform="translate(229.48 153.43) rotate(180)"/><path class="cls-1" d="M106.33,87.83V80.21a1,1,0,0,1,1-1h18.11a1,1,0,0,1,1,1v20.31a1,1,0,0,1-1,1H112.32"/><rect class="cls-1" x="106.33" y="82.29" width="17.03" height="5" rx="1" ry="1" transform="translate(229.69 169.59) rotate(-180)"/><path class="cls-1" d="M109.83,90.37h12.86a1,1,0,0,1,1,1v6.91a1,1,0,0,1-1,1H112.32"/><circle class="cls-2" cx="114.01" cy="84.88" r="1.19"/><path class="cls-1" d="M84.74,62.73H71.81a1,1,0,0,1-.9-1.45l7.81-15.71h0l6.93,15.75A1,1,0,0,1,84.74,62.73Z"/><path class="cls-1" d="M81.53,62.73H93.65a1,1,0,0,0,.92-1.4L89.63,50.11a1,1,0,0,0-1.81,0L84,57.67"/></svg>