<svg id="Layer_1" data-name="Layer 1" xmlns="http://www.w3.org/2000/svg" viewBox="0 0 122.75 122.75"><defs><style>.cls-1{fill:#015ba1;}</style></defs><title>Master Bedroom</title><path class="cls-1" d="M43,85.93a2,2,0,1,1-2-2,2,2,0,0,1,2,2Zm0,0"/><path class="cls-1" d="M55.24,85.93a2,2,0,1,1-2-2,2,2,0,0,1,2,2Zm0,0"/><path class="cls-1" d="M67.51,85.93a2,2,0,1,1-2-2,2,2,0,0,1,2,2Zm0,0"/><path class="cls-1" d="M79.78,85.93a2,2,0,1,1-2-2,2,2,0,0,1,2,2Zm0,0"/><path class="cls-1" d="M92.06,85.93a2,2,0,1,1-2-2,2,2,0,0,1,2,2Zm0,0"/><path class="cls-1" d="M122.75,77.74V57.28h-6.13V55.53A8.5,8.5,0,0,0,108.14,47H14.61a8.5,8.5,0,0,0-8.48,8.48v1.75H0V77.74H6.13V88h-2a2,2,0,1,0,0,4.1H0v30.69H22.51v-6.13h77.74v6.13h22.51V92.06h-4.1a2,2,0,0,0,0-4.1h-2V77.74Zm-4.1-16.36V73.65h-8.18V61.37ZM4.1,61.37h8.18V73.65H4.1Zm14.31,57.28H4.1V96.16h8.18v20.46h6.13Zm4.1-6.13H16.36V96.16h90v16.36ZM29,79.78a3,3,0,0,1,.52-3.54L37.7,68.2a3.12,3.12,0,0,1,4.39,0l8.17,8.05a2.93,2.93,0,0,1,.52,3.54ZM26.6,86a2,2,0,0,0,4.09,0,2,2,0,0,0-.83-1.6,10.13,10.13,0,0,1,2.88-.45H90a10.25,10.25,0,0,1,10,8.18H98.19a2,2,0,1,0-4.08,0H85.93a2,2,0,1,0-4.1,0H73.65a2,2,0,0,0-4.1,0H61.37a2,2,0,0,0-4.1,0H49.1a2,2,0,1,0-4.08,0H36.82a2,2,0,1,0-4.08,0H24.56a2,2,0,0,0-1.25-1.88A10.34,10.34,0,0,1,26.6,86Zm43.84-9.71,8.17-8.05a3.12,3.12,0,0,1,4.39,0l8.17,8.05a2.93,2.93,0,0,1,.52,3.54H69.93a3,3,0,0,1,.52-3.54Zm48.21,42.4H104.34v-2h6.13V96.16h8.18ZM112.52,88h-2a2,2,0,1,0,0,4.1h-6.3A14.35,14.35,0,0,0,95.66,81,7,7,0,0,0,94,73.33l-8.17-8.05a7.25,7.25,0,0,0-10.14,0l-8.16,8.05a7,7,0,0,0-2,6.45H55.09a7,7,0,0,0-2-6.45L45,65.28a7.25,7.25,0,0,0-10.14,0l-8.16,8.05a7,7,0,0,0-1.2,8.45,14.36,14.36,0,0,0-6.88,10.28h-6.3a2,2,0,1,0,0-4.1h-2V77.74h6.13V57.28H10.23V55.53a4.39,4.39,0,0,1,4.39-4.39h93.52a4.39,4.39,0,0,1,4.39,4.39v1.75h-6.13V77.74h6.13Zm0,0"/><path class="cls-1" d="M98.19,8.18H24.56v26.6H98.19ZM94.11,30.69H28.64V12.28H94.11Zm0,0"/><path class="cls-1" d="M106.39,0h-90V43h90Zm-4.1,38.87H20.46V4.1h81.83Zm0,0"/><path class="cls-1" d="M36.82,26.59a2,2,0,0,0,1.45-.6L43,21.31,47.65,26a2.05,2.05,0,0,0,2.9,0l4.7-4.68L59.93,26a2,2,0,0,0,2.89,0l4.69-4.68L72.2,26a2.05,2.05,0,0,0,2.9,0l4.68-4.68L84.48,26a2,2,0,0,0,2.89-2.89L81.23,17a2,2,0,0,0-2.9,0l-4.68,4.7L69,17a2,2,0,0,0-2.89,0l-4.7,4.7L56.68,17a2,2,0,0,0-2.89,0l-4.7,4.7L44.41,17a2,2,0,0,0-2.9,0l-6.13,6.14a2,2,0,0,0,1.44,3.49Zm0,0"/></svg>