<svg id="Layer_1" data-name="Layer 1" xmlns="http://www.w3.org/2000/svg" viewBox="0 0 150 150"><defs><style>.cls-1{fill:none;stroke:#29abe2;stroke-linecap:round;stroke-linejoin:round;}</style></defs><title>modular kitchen</title><rect class="cls-1" x="101.08" y="45.42" width="25.67" height="59.17"/><rect class="cls-1" x="23.25" y="81.92" width="77.83" height="22.67"/><line class="cls-1" x1="67.83" y1="81.92" x2="67.83" y2="104.58"/><line class="cls-1" x1="67.83" y1="92.92" x2="101.08" y2="92.92"/><line class="cls-1" x1="79.96" y1="87.67" x2="88.65" y2="87.67"/><line class="cls-1" x1="79.96" y1="98.17" x2="88.65" y2="98.17"/><rect class="cls-1" x="49.58" y="90.25" width="14.25" height="10.33"/><line class="cls-1" x1="30.08" y1="89.25" x2="38.75" y2="89.25"/><circle class="cls-1" cx="51.04" cy="86.33" r="1.38"/><circle class="cls-1" cx="56.71" cy="86.33" r="1.38"/><circle class="cls-1" cx="62.38" cy="86.33" r="1.38"/><rect class="cls-1" x="48.17" y="78.96" width="4.42" height="2.29"/><rect class="cls-1" x="54.5" y="78.96" width="4.42" height="2.29"/><rect class="cls-1" x="60.83" y="78.96" width="4.42" height="2.29"/><path class="cls-1" d="M34.5,55.92h0a7.33,7.33,0,0,1,7.33,7.33v0a0,0,0,0,1,0,0H27.17a0,0,0,0,1,0,0v0A7.33,7.33,0,0,1,34.5,55.92Z"/><line class="cls-1" x1="34.42" y1="45.42" x2="34.42" y2="55.95"/><path class="cls-1" d="M82.29,55.92h0a7.33,7.33,0,0,1,7.33,7.33v0a0,0,0,0,1,0,0H75a0,0,0,0,1,0,0v0a7.33,7.33,0,0,1,7.33-7.33Z"/><line class="cls-1" x1="82.21" y1="45.42" x2="82.21" y2="55.95"/><line class="cls-1" x1="26.58" y1="45.42" x2="91.42" y2="45.42"/><rect class="cls-1" x="55.33" y="45.42" width="2.75" height="10.5"/><polygon class="cls-1" points="69.25 63.25 45.08 63.25 49.08 55.95 65.25 55.95 69.25 63.25"/><rect class="cls-1" x="109.71" y="51.79" width="8.13" height="8.88"/><line class="cls-1" x1="105.96" y1="74.04" x2="105.96" y2="80.1"/><line class="cls-1" x1="105.96" y1="90.25" x2="105.96" y2="97.17"/><rect class="cls-1" x="75.08" y="72.79" width="5.88" height="8.81"/><rect class="cls-1" x="87.71" y="72.79" width="5.88" height="8.81"/><line class="cls-1" x1="84.3" y1="68.92" x2="84.3" y2="81.6"/><rect class="cls-1" x="82.29" y="73.23" width="4.1" height="2.03"/></svg>