<svg id="Layer_1" data-name="Layer 1" xmlns="http://www.w3.org/2000/svg" viewBox="0 0 122.42 122.68"><defs><style>.cls-1{fill:#015ba1;}</style></defs><title>Modular Kitchen</title><path class="cls-1" d="M59.39,77.62H7.12V116H115.3V77.62H59.39Zm0,11.57V112H10.75V81.25H59.39Zm52.28,23.14H63v-7.94h48.65Zm0-11.57H63V92.82h48.65Zm0-11.57H63V81.25h48.65Z"/><path class="cls-1" d="M0,0V34.3H29v7.23H93.44V34.3h29V0ZM89.81,37.9H32.61V34.3h57.2Zm29-7.23H3.63v-27H118.79v27Z"/><path class="cls-1" d="M45.6,28.53h69.7V5.77H7.12V28.53H45.6ZM80.45,9.4h31.22V24.9H80.45ZM45.6,9.4H76.82V24.9H45.6V9.4Zm-34.85,0H42V24.9H10.75Z"/><path class="cls-1" d="M116.36,67.33l1.75-12.16H92.18l1.75,12.16A7.9,7.9,0,0,0,95.4,70.9H87.64v-6H82.48V60.3H77.3v3.63h1.55v1h-9v-1h1.75V60.3H66.26v4.64H56.16V60.3H51v3.63h1.55v1h-9v-1h1.75V60.3H39.94v4.64H34.78v6H0v51.78H122.42V70.9h-7.52A7.9,7.9,0,0,0,116.36,67.33Zm-2.44-8.53-1.16,8a4.37,4.37,0,0,1-4.3,3.72h-6.64a4.37,4.37,0,0,1-4.3-3.73l-1.16-8ZM38.41,68.57H84V70.9H38.41Zm80.38,6V119H3.63V74.53H118.79Z"/><rect class="cls-1" x="21.19" y="19.32" width="9.22" height="3.63"/><rect class="cls-1" x="32.34" y="19.32" width="3.63" height="3.63"/><rect class="cls-1" x="28.83" y="86.73" width="9.22" height="3.63"/><rect class="cls-1" x="39.98" y="86.73" width="3.63" height="3.63"/><rect class="cls-1" x="81.51" y="83.41" width="9.22" height="3.63"/><rect class="cls-1" x="92.67" y="83.41" width="3.63" height="3.63"/><rect class="cls-1" x="81.51" y="94.97" width="9.22" height="3.63"/><rect class="cls-1" x="92.67" y="94.97" width="3.63" height="3.63"/><rect class="cls-1" x="81.51" y="106.54" width="9.22" height="3.63"/><rect class="cls-1" x="92.67" y="106.54" width="3.63" height="3.63"/><rect class="cls-1" x="55.45" y="19.32" width="9.22" height="3.63"/><rect class="cls-1" x="66.61" y="19.32" width="3.63" height="3.63"/><rect class="cls-1" x="90.66" y="19.32" width="9.22" height="3.63"/></svg>