<svg id="Layer_1" data-name="Layer 1" xmlns="http://www.w3.org/2000/svg" viewBox="0 0 122.66 82.91"><defs><style>.cls-1{fill:#015ba1;}</style></defs><title>Other_Bedroom</title><path class="cls-1" d="M110.72,32.14V12.2c0-8.92-6.3-12.2-12.2-12.2H23.74c-5.9,0-12.2,3.15-12.2,12.2V32.14C5.64,32.8,0,36.73,0,45.78V61.26A4.7,4.7,0,0,0,4.72,66H6.3v12.2A4.7,4.7,0,0,0,11,82.91h4.46a4.7,4.7,0,0,0,4.72-4.72V65.85h82.25V78.19a4.7,4.7,0,0,0,4.72,4.72h4.46a4.7,4.7,0,0,0,4.72-4.72V65.85h1.57a4.7,4.7,0,0,0,4.72-4.72V45.78C122.26,36.73,116.62,32.8,110.72,32.14ZM16.27,12.2c0-6.17,4.07-7.48,7.48-7.48H98.52C101.93,4.72,106,6,106,12.2V32h-3.54V20.73A4.7,4.7,0,0,0,97.73,16H68.87a4.7,4.7,0,0,0-4.72,4.72V32H58.64V20.73A4.7,4.7,0,0,0,53.92,16H25.06a4.7,4.7,0,0,0-4.72,4.72V32H16V12.2ZM97.73,32H68.87V20.73H97.73ZM54.18,32H25.32V20.73H54.18ZM13.64,36.73h94.85c3.41,0,9.05,1.18,9.05,9.05v3.8H4.59v-3.8C4.59,37.91,10.36,36.73,13.64,36.73Zm1.71,41.45H10.89V65.85h4.46Zm96,0h-4.46V65.85h4.46Zm0-16.92H4.59v-7H117.54v7Z"/></svg>