<svg id="Layer_1" data-name="Layer 1" xmlns="http://www.w3.org/2000/svg" viewBox="0 0 122.35 88.69"><defs><style>.cls-1{fill:#015ba1;}</style></defs><title>Parking</title><path class="cls-1" d="M86.77,36.17a4.53,4.53,0,0,0-1.2.17L81,37.6,76.26,26a10.35,10.35,0,0,0-8.85-5.93H23A10.35,10.35,0,0,0,14.17,26L9.44,37.58,4.93,36.34a4.5,4.5,0,0,0-1.2-.17A3.7,3.7,0,0,0,0,40.09v2.69a4.81,4.81,0,0,0,4.81,4.81h.52l-.77,1.87A36.08,36.08,0,0,0,2.3,60.93V83.88A4.81,4.81,0,0,0,7.1,88.69h6.28a4.81,4.81,0,0,0,4.81-4.81V78.15h54v5.73A4.82,4.82,0,0,0,77,88.69h6.28a4.81,4.81,0,0,0,4.81-4.81V60.93a36.1,36.1,0,0,0-2.26-11.47l-.76-1.87h.58a4.82,4.82,0,0,0,4.81-4.81V40.09a3.7,3.7,0,0,0-3.72-3.92ZM12.88,45l7.17-17.47A6.22,6.22,0,0,1,25.37,24h39.7a6.21,6.21,0,0,1,5.31,3.56L77.54,45a2.4,2.4,0,0,1-2.39,3.56H15.27A2.4,2.4,0,0,1,12.88,45Zm16,22.1A1.93,1.93,0,0,1,27,69H13.35a1.93,1.93,0,0,1-1.92-1.92V60.55a1.93,1.93,0,0,1,1.92-1.92H27a1.93,1.93,0,0,1,1.92,1.92Zm50,0A1.93,1.93,0,0,1,77,69H63.33a1.93,1.93,0,0,1-1.92-1.92V60.55a1.93,1.93,0,0,1,1.92-1.92H77a1.93,1.93,0,0,1,1.92,1.92Zm0,0"/><path class="cls-1" d="M116.34,0H93.56a6,6,0,0,0-6,6V28.79a6,6,0,0,0,6,6h9.14V85.93a2.24,2.24,0,0,0,4.49,0V34.81h9.15a6,6,0,0,0,6-6V6a6,6,0,0,0-6-6Zm-5.16,18.89a8.33,8.33,0,0,1-5.73,1.78h-3.3a.72.72,0,0,0-.72.72v5.56a1.1,1.1,0,0,1-1.1,1.1h-2.5a1.1,1.1,0,0,1-1.1-1.1V7.87a1.1,1.1,0,0,1,1.1-1.1h6.29c4.17,0,5.72.63,7,1.71a6.48,6.48,0,0,1,2,5.21,6.66,6.66,0,0,1-2,5.19Zm0,0"/><path class="cls-1" d="M107.61,11.38a5.53,5.53,0,0,0-3.2-.69h-2.26a.72.72,0,0,0-.72.72V16a.72.72,0,0,0,.72.72h1.35c.5,0,1.3,0,1.79-.08a6.15,6.15,0,0,0,2.31-.61,2.72,2.72,0,0,0,.89-2.3,2.74,2.74,0,0,0-.89-2.32Zm0,0"/></svg>