<svg id="Layer_1" data-name="Layer 1" xmlns="http://www.w3.org/2000/svg" viewBox="0 0 150 150"><defs><style>.cls-1{fill:none;stroke:#29abe2;stroke-miterlimit:10;}</style></defs><title>plot sizes</title><path class="cls-1" d="M116.51,54.34V35.74a2.25,2.25,0,0,0-2.25-2.25H61.69a2.25,2.25,0,0,0-2.25,2.25V52.09a2.25,2.25,0,0,0,2.25,2.25h34"/><path class="cls-1" d="M95.65,54.34c.08-.06,0,26.05,0,34a2.24,2.24,0,0,0,2.25,2.25h16.36a2.25,2.25,0,0,0,2.25-2.25V35.74a2.25,2.25,0,0,0-2.25-2.25H95.65"/><line class="cls-1" x1="68.32" y1="33.49" x2="59.45" y2="42.37"/><line class="cls-1" x1="78.57" y1="33.49" x2="59.5" y2="52.56"/><line class="cls-1" x1="88.81" y1="33.49" x2="67.96" y2="54.34"/><line class="cls-1" x1="99.05" y1="33.49" x2="78.21" y2="54.34"/><line class="cls-1" x1="109.29" y1="33.49" x2="88.44" y2="54.34"/><line class="cls-1" x1="116.51" y1="36.52" x2="95.68" y2="57.34"/><line class="cls-1" x1="116.51" y1="46.75" x2="95.68" y2="67.58"/><line class="cls-1" x1="116.51" y1="57" x2="95.68" y2="77.83"/><line class="cls-1" x1="116.51" y1="67.23" x2="95.66" y2="88.09"/><line class="cls-1" x1="116.51" y1="77.48" x2="103.44" y2="90.55"/><line class="cls-1" x1="116.51" y1="87.72" x2="113.68" y2="90.55"/><path class="cls-1" d="M54.34,59.45H35.74a2.25,2.25,0,0,0-2.25,2.25v52.57a2.25,2.25,0,0,0,2.25,2.25H52.09a2.25,2.25,0,0,0,2.25-2.25v-34"/><path class="cls-1" d="M54.34,80.3c-.06-.08,26.05,0,34,0a2.24,2.24,0,0,0,2.25-2.25V61.69a2.25,2.25,0,0,0-2.25-2.25H35.74a2.25,2.25,0,0,0-2.25,2.25V80.3"/><line class="cls-1" x1="33.49" y1="107.63" x2="42.37" y2="116.51"/><line class="cls-1" x1="33.49" y1="97.38" x2="52.56" y2="116.46"/><line class="cls-1" x1="33.49" y1="87.15" x2="54.34" y2="108"/><line class="cls-1" x1="33.49" y1="76.9" x2="54.34" y2="97.75"/><line class="cls-1" x1="33.49" y1="66.67" x2="54.34" y2="87.52"/><line class="cls-1" x1="36.52" y1="59.45" x2="57.34" y2="80.27"/><line class="cls-1" x1="46.75" y1="59.45" x2="67.58" y2="80.27"/><line class="cls-1" x1="57" y1="59.45" x2="77.83" y2="80.28"/><line class="cls-1" x1="67.23" y1="59.45" x2="88.09" y2="80.3"/><line class="cls-1" x1="77.48" y1="59.45" x2="90.55" y2="72.52"/><line class="cls-1" x1="87.72" y1="59.45" x2="90.55" y2="62.28"/></svg>