<svg id="Layer_1" data-name="Layer 1" xmlns="http://www.w3.org/2000/svg" viewBox="0 0 122.69 110.19"><defs><style>.cls-1{fill:#015ba1;}</style></defs><title>Plot_sizes</title><path class="cls-1" d="M40.71,102.83V72.78l-4.09-1.43v31.28a5.94,5.94,0,0,0,6.13,5.72h.61c-2-.82-2.66-2.86-2.66-5.52"/><path class="cls-1" d="M8,51.31a4.63,4.63,0,0,0-5.72,2.25,4.57,4.57,0,0,0,2.45,6.13l5.11,1.84A4.42,4.42,0,0,1,8.41,56a4.63,4.63,0,0,1,5.72-2.25Z"/><path class="cls-1" d="M32.53,44.77h6.13a4.09,4.09,0,1,1,0-8.18H32.53a4.09,4.09,0,1,0,0,8.18"/><path class="cls-1" d="M102,36.59a6.94,6.94,0,0,0-5.93-5.93,2.34,2.34,0,0,1,0-1.23c4.5-4.29,1.23-9.81-6.13-7.16a3.85,3.85,0,0,1,0-3.07c3.48-4.5,1.43-9-4.09-6.34-.61.2-1.23-.41-2-.61h0c0-.2-.2-1.43-.2-2a8.16,8.16,0,0,0-8-6.13c-1.43,0,3.07.41,2,1.23-.41.2-1.64-.61-2-1a6.88,6.88,0,0,0-5.32-2.45A7.24,7.24,0,0,0,63.2,9c0,.41-6.13-1.23-5.32,5.11.41,4.5-.82,3.27-2.86,2-6.54-4.09-9.4,3.48-6.13,7.16.2.2,1.84,2.66-2,1.23-3.48-1.23-6.13,4.09-6.34,8,0,2-3.48,2.45-4.29,4.09Z"/><path class="cls-1" d="M83.44,10c.2.61.2,1.84.41,2h0c.82.2,1.43.82,2,.61,5.52-2.45,7.56,2,4.09,6.54-.61.82-.2,3.27,0,3.07a7.51,7.51,0,0,1,5.93-.2c-.2-.61-.41-2.25.2-2.86,3.48-4.5,1.43-9-4.09-6.54-.61.2-1.23-.41-2-.61h0c0-.2-.2-1.43-.2-2a8.19,8.19,0,0,0-11-5.52A8.47,8.47,0,0,1,83.44,10"/><path class="cls-1" d="M102.24,30.66a2.34,2.34,0,0,1,0-1.23c4.29-4.29,1.23-9.61-5.93-7.16,2.25,1.43,2.45,4.5-.2,7.16-.2.2,0,1.23,0,1.23A6.94,6.94,0,0,1,102,36.59h6.13a6.94,6.94,0,0,0-5.93-5.93"/><path class="cls-1" d="M116.35,46.81H32.53a6.13,6.13,0,0,1,0-12.27h83.82a6.13,6.13,0,0,1,0,12.27ZM32.53,38.64a2,2,0,0,0,0,4.09h83.82a2,2,0,1,0,0-4.09Z"/><path class="cls-1" d="M100,95.88a8.69,8.69,0,0,1-2.25-.41L4.12,61.53A6.52,6.52,0,0,1,.44,57.85a6.86,6.86,0,0,1,.2-5.32A6.65,6.65,0,0,1,9,49.27L102.45,84a6.1,6.1,0,0,1,3.48,8A6.43,6.43,0,0,1,100,95.88ZM6.37,52.95a2.51,2.51,0,0,0-2.25,1.43,2.37,2.37,0,0,0,0,2,2.47,2.47,0,0,0,1.43,1.43L99.18,91.79h0a2.07,2.07,0,1,0,1.43-3.88L7.18,53.15C7,52.95,6.77,52.95,6.37,52.95Z"/><path class="cls-1" d="M104.08,102a10.21,10.21,0,0,1-10.22-9.2A2.22,2.22,0,0,1,94.68,91a1.84,1.84,0,0,1,2-.2l2.45,1a2.07,2.07,0,1,0,1.43-3.88l-2-.82a1.78,1.78,0,0,1-1.23-1.64,2,2,0,0,1,.82-1.84,9.49,9.49,0,0,1,5.93-2,10.22,10.22,0,1,1,0,20.44Zm-4.5-6.13a5.86,5.86,0,0,0,4.5,2,6.14,6.14,0,0,0,.41-12.27,5.92,5.92,0,0,1,1,6.34A5.79,5.79,0,0,1,99.59,95.88Z"/><path class="cls-1" d="M104.08,110.19a18.32,18.32,0,0,1-18.4-18.4,10.8,10.8,0,0,1,.2-2.45,1.54,1.54,0,0,1,1-1.43,2,2,0,0,1,1.84-.2l10.63,3.88a2.07,2.07,0,0,0,1.43-3.88L90.39,83.82a2.16,2.16,0,0,1-1.23-1.43,2.09,2.09,0,0,1,.41-1.84,18,18,0,0,1,14.72-7.36,18.32,18.32,0,0,1,18.4,18.4A18.67,18.67,0,0,1,104.08,110.19ZM89.77,92.61a14.32,14.32,0,1,0,14.31-15.13,13.29,13.29,0,0,0-9.4,3.68L102.24,84a6.15,6.15,0,1,1-4.5,11.45Z"/><path class="cls-1" d="M110.63,38.64H33.15l1.43-2.86a6,6,0,0,1,2.86-2.66,6.36,6.36,0,0,0,1.23-.82c0-2.86,1.43-7,4.09-8.79a6.18,6.18,0,0,1,3.27-1c-.82-2.45-.61-5.32,1-7.16,1.64-2,4.7-3.27,8.79-.82-.2-2.25.2-4.09,1.43-5.32a5.33,5.33,0,0,1,4.09-1.84,9.22,9.22,0,0,1,9-7.36,8.82,8.82,0,0,1,6.54,2.86.71.71,0,0,0,.41.2,8.75,8.75,0,0,1,4.5-1.23A9.9,9.9,0,0,1,91.61,9.4a2.59,2.59,0,0,1,.2,1.23c2.86-1,5.52-.61,7,1.23,1.64,2,1.23,5.11-.61,7.77,3.68-.61,5.93.82,7.16,2.66a6.61,6.61,0,0,1-.41,7,8.9,8.9,0,0,1,5.32,7ZM42.14,34.55h63a5.62,5.62,0,0,0-3.27-2h-1.23l-.41-1.23a2.53,2.53,0,0,1,.61-3.07C102,27,102.45,25.55,102,24.74c-.61-.82-2.45-1.23-5.11-.2l-1.43.61-1-1.23c-.61-1-1.23-4.09.2-5.52,1.23-2,1.23-3.68.82-4.09-.2-.2-1.23-.41-2.86.2a3.09,3.09,0,0,1-3.07-.41l-.2-.2-1.64-.2V12.06a15.85,15.85,0,0,0-.2-1.84A6,6,0,0,0,81.8,5.93a5.77,5.77,0,0,0-3.07.82c-2,1.23-4.5-1.23-4.5-1.23a5.5,5.5,0,0,0-3.68-1.64A5.06,5.06,0,0,0,65.45,9v.82l-.61.61a2.69,2.69,0,0,1-2,.61,3.69,3.69,0,0,0-2.45.61c-.41.41-.41,1.23-.41,2.25.2,2,.2,4.09-1.23,5.11-1.43.82-3.07,0-4.09-.61L54.2,18c-1-.61-2.86-1.43-3.88-.2a3.38,3.38,0,0,0,.2,4.09c.61.82,1.64,2.45.61,3.88-1.23,1.84-3.88,1-4.91.61a1.07,1.07,0,0,0-1,.2,9.75,9.75,0,0,0-2.45,5.93A3.45,3.45,0,0,1,42.14,34.55Zm60.31-5.93Z"/><path class="cls-1" d="M42.75,110.19a8.13,8.13,0,0,1-8.18-7.77V71.14a2.52,2.52,0,0,1,.82-1.64,2,2,0,0,1,1.84-.2l8.18,2.86A2,2,0,0,1,46.84,74V92L60.13,78.71a1.63,1.63,0,0,1,2-.41l8.59,3.07A1.75,1.75,0,0,1,72,82.79a1.65,1.65,0,0,1-.61,1.84l-23.1,23.31A7.9,7.9,0,0,1,42.75,110.19ZM38.67,74v28.21a4,4,0,0,0,4.09,3.68,4.31,4.31,0,0,0,2.66-1L66.26,84,62,82.39,47.25,97.11a2.86,2.86,0,0,1-3.07.61,2.39,2.39,0,0,1-1.64-2.25V75.64Zm5.93,20.24Z"/><path class="cls-1" d="M77.71,78.91h-1c-.2,0-.41,0-.41-.2l-39-14.51c-.2,0-.41-.2-.61-.41l-.41-.41c-.2-.2-.61-.41-.82-.61l-.2-.2a18.36,18.36,0,0,1-3.68-9l-1-8.59a3.85,3.85,0,0,1,.41-1.64,2.21,2.21,0,0,1,1.43-.61h83.82A2.07,2.07,0,0,1,118,44a2.31,2.31,0,0,1-.41,2.25L88.14,74c-3.07,2.25-6.13,4.5-10.22,4.91Zm-.41-4.09h.2c2.66-.41,5.11-1.84,7.77-4.09l26-23.92H34.78l.61,6.34a13.82,13.82,0,0,0,2.66,6.75l.41.41.2.2Z"/></svg>