<svg id="Layer_1" data-name="Layer 1" xmlns="http://www.w3.org/2000/svg" viewBox="0 0 150 150"><defs><style>.cls-1{fill:none;stroke:#29abe2;stroke-miterlimit:10;}</style></defs><title>power backup</title><path class="cls-1" d="M43.17,57.39h62.71a0,0,0,0,1,0,0V107.5a3,3,0,0,1-3,3H46.17a3,3,0,0,1-3-3V57.39A0,0,0,0,1,43.17,57.39Z"/><path class="cls-1" d="M42.41,46.84h65.19a3,3,0,0,1,3,3v5.1a0,0,0,0,1,0,0H39.41a0,0,0,0,1,0,0v-5.1A3,3,0,0,1,42.41,46.84Z"/><rect class="cls-1" x="51.08" y="39.5" width="12.24" height="7.34"/><rect class="cls-1" x="86.11" y="39.5" width="12.24" height="7.34"/><path class="cls-1" d="M63.32,85.83C63.7,85.26,79,65.11,79,65.11L76.51,77.17l9.6.75L70.29,102.78l2.45-15.63Z"/></svg>