<svg id="Layer_1" data-name="Layer 1" xmlns="http://www.w3.org/2000/svg" viewBox="0 0 122.69 102.24"><defs><style>.cls-1{fill:#015ba1;}</style></defs><title>Power_Backup</title><path class="cls-1" d="M10.22,35.78h92a10.24,10.24,0,0,0,10.22-10.22V10.22A10.24,10.24,0,0,0,102.24,0h-92A10.24,10.24,0,0,0,0,10.22V25.56A10.24,10.24,0,0,0,10.22,35.78ZM92,12.78a5.11,5.11,0,1,1-5.11,5.11A5.12,5.12,0,0,1,92,12.78Zm-15.34,0a5.11,5.11,0,1,1-5.11,5.11A5.12,5.12,0,0,1,76.68,12.78Zm-40.9,0a2.56,2.56,0,1,1,5.11,0V23a2.56,2.56,0,1,1-5.11,0Zm-10.22,0a2.56,2.56,0,1,1,5.11,0V23a2.56,2.56,0,0,1-5.11,0Zm-10.22,0a2.56,2.56,0,1,1,5.11,0V23a2.56,2.56,0,0,1-5.11,0Z"/><path class="cls-1" d="M77.52,45.64a2.56,2.56,0,0,0-1.31-4.75h-66A10.24,10.24,0,0,0,0,51.12V66.46A10.24,10.24,0,0,0,10.22,76.68H58.79a2.55,2.55,0,0,0,2.56-2.56A33,33,0,0,1,77.52,45.64ZM20.45,63.9a2.56,2.56,0,1,1-5.11,0V53.68a2.56,2.56,0,0,1,5.11,0Zm10.22,0a2.56,2.56,0,1,1-5.11,0V53.68a2.56,2.56,0,0,1,5.11,0Zm10.22,0a2.56,2.56,0,1,1-5.11,0V53.68a2.56,2.56,0,0,1,5.11,0Z"/><path class="cls-1" d="M94.57,46a28.12,28.12,0,1,0,28.12,28.12A28.15,28.15,0,0,0,94.57,46ZM79.24,76.68h0a2.55,2.55,0,0,1-2.56-2.56,17.89,17.89,0,0,1,32.73-10A2.55,2.55,0,0,1,105.17,67a12.73,12.73,0,0,0-19.86-1.62L88,66.73a2.56,2.56,0,0,1,.27,4.41l-7.67,5.11s-.1,0-.15,0a2.49,2.49,0,0,1-1.26.38ZM94.57,92a17.88,17.88,0,0,1-14.83-7.89A2.55,2.55,0,1,1,84,81.27a12.73,12.73,0,0,0,19.86,1.62l-2.73-1.37a2.56,2.56,0,0,1-.27-4.41L108.49,72c.06,0,.08,0,.13,0a2.49,2.49,0,0,1,1.29-.4,2.55,2.55,0,0,1,2.56,2.56A17.91,17.91,0,0,1,94.57,92Z"/></svg>