<svg id="Layer_1" data-name="Layer 1" xmlns="http://www.w3.org/2000/svg" viewBox="0 0 104.43 122.46"><defs><style>.cls-1{fill:#015ba1;}</style></defs><title>Servant_room</title><path class="cls-1" d="M32.37,72H19.84a5.87,5.87,0,0,1-5.92-5.92V64a5.87,5.87,0,0,1,5.92-5.92H32.37A5.87,5.87,0,0,1,38.29,64v2.09A5.87,5.87,0,0,1,32.37,72ZM19.84,61.54A2.38,2.38,0,0,0,17.4,64v2.09a2.38,2.38,0,0,0,2.44,2.44H32.37a2.38,2.38,0,0,0,2.44-2.44V64a2.38,2.38,0,0,0-2.44-2.44Z"/><path class="cls-1" d="M7,122.46H3.48A3.49,3.49,0,0,1,0,119V70.24A1.64,1.64,0,0,1,1.74,68.5H26.11a1.64,1.64,0,0,1,1.74,1.74V94.61a1.64,1.64,0,0,1-1.74,1.74H10.44V119A3.49,3.49,0,0,1,7,122.46ZM3.48,72v47H7V94.61A1.64,1.64,0,0,1,8.7,92.87H24.37V72Z"/><path class="cls-1" d="M8.7,72h-7A1.64,1.64,0,0,1,0,70.24V42.4a3.49,3.49,0,0,1,3.48-3.48H7a3.49,3.49,0,0,1,3.48,3.48V70.24A1.64,1.64,0,0,1,8.7,72ZM3.48,68.5H7V42.4H3.48Z"/><path class="cls-1" d="M100.95,122.46H97.47A3.49,3.49,0,0,1,94,119V96.35H26.11a1.64,1.64,0,0,1-1.74-1.74V70.24a1.64,1.64,0,0,1,1.74-1.74H92.24a12.11,12.11,0,0,1,12.18,12.18V119A3.49,3.49,0,0,1,100.95,122.46ZM27.85,92.87H95.72a1.64,1.64,0,0,1,1.74,1.74V119h3.48V80.69a8.62,8.62,0,0,0-8.7-8.7H27.85Z"/><path class="cls-1" d="M89.07,10.07A10.07,10.07,0,1,1,79,0,10.07,10.07,0,0,1,89.07,10.07Zm0,0"/><path class="cls-1" d="M90,72.07H81.12a3.8,3.8,0,0,1-.93-.12v44.61a5.83,5.83,0,1,0,11.67,0v-45a3.79,3.79,0,0,1-1.82.47Zm0,0"/><path class="cls-1" d="M70.74,54.51a8.31,8.31,0,0,1,6.58-9.14v-1A3.78,3.78,0,0,1,78,42.21L70.56,23.36H67.71a11.44,11.44,0,0,0-8.94,4.27L50,38.44h-8a1.63,1.63,0,0,0,.6-1.27V35.9c3.3-.56,9.74-2.41,9-5.58-.06-.26-.5-.46-1-.46H21.31c-.53,0-1,.2-1,.46-.73,3.16,5.65,5,9,5.58v1.27a1.64,1.64,0,0,0,1.64,1.64h1.36a4.86,4.86,0,0,0,1.86,9.35H52.37a4.86,4.86,0,0,0,3.78-1.81L66,34.15v82.41a5.83,5.83,0,1,0,11.67,0V61.7a8.27,8.27,0,0,1-6.92-7.19Zm0,0"/><path class="cls-1" d="M103.5,34.8A11.53,11.53,0,0,0,92,23.36H87.43L80.67,40.55h0l8.92-1a3.79,3.79,0,0,1,2.16.39v-5a1,1,0,0,1,2,0c0,11.08,0,5.28,0,21.75l5.49-.67a4.86,4.86,0,0,0,4.27-4.85c0-1.88-.07-14.15-.08-16.28Zm0,0"/><path class="cls-1" d="M74.17,54.1a4.86,4.86,0,0,0,3.15,4V48.95a4.86,4.86,0,0,0-3.15,5.15Zm0,0"/><path class="cls-1" d="M89.93,42.4l-8.92,1a.89.89,0,0,0-.78.88v24a.88.88,0,0,0,.88.88H90a.88.88,0,0,0,.88-.88v-25a.88.88,0,0,0-1-.88Zm0,0"/><path class="cls-1" d="M49.23,25.28a13.34,13.34,0,0,0-11-11.61,2.22,2.22,0,1,0-4.43,0,13.35,13.35,0,0,0-11,11.61,1.39,1.39,0,0,0,1.37,1.54H47.86a1.38,1.38,0,0,0,1.37-1.54Zm0,0"/><path class="cls-1" d="M80.36,30.2A1.24,1.24,0,1,1,79.11,29a1.24,1.24,0,0,1,1.24,1.24Zm0,0"/><path class="cls-1" d="M80.36,35.27A1.24,1.24,0,1,1,79.11,34a1.24,1.24,0,0,1,1.24,1.24Zm0,0"/><path class="cls-1" d="M82.55,21.57l-3.43,1.9-3.43-1.9a.71.71,0,0,0-1,.62V27a.71.71,0,0,0,1,.62l3.43-1.89,3.43,1.89a.71.71,0,0,0,1-.62V22.19a.71.71,0,0,0-1-.62Zm0,0"/></svg>