<svg id="Layer_1" data-name="Layer 1" xmlns="http://www.w3.org/2000/svg" viewBox="0 0 150 150"><defs><style>.cls-1,.cls-2{fill:none;stroke:#29abe2;stroke-miterlimit:10;}.cls-2{stroke-linecap:round;}</style></defs><title>servant room</title><path class="cls-1" d="M57.92,42.41H92.19a0,0,0,0,1,0,0V63.55A17.14,17.14,0,0,1,75.06,80.69h0A17.14,17.14,0,0,1,57.92,63.55V42.41A0,0,0,0,1,57.92,42.41Z"/><line class="cls-1" x1="57.92" y1="56.41" x2="92.19" y2="56.41"/><path class="cls-1" d="M83.37,78.53a32.25,32.25,0,0,1,24.38,31.28V124H42.25v-14.2a32.25,32.25,0,0,1,24.46-31.3"/><polyline class="cls-1" points="91.09 81.57 62.38 96.16 62.38 124.01"/><line class="cls-2" x1="68.38" y1="102.35" x2="72.63" y2="102.35"/><line class="cls-2" x1="68.38" y1="110.01" x2="72.63" y2="110.01"/><line class="cls-2" x1="68.38" y1="117.68" x2="72.63" y2="117.68"/><line class="cls-2" x1="81" y1="105.38" x2="92.88" y2="105.38"/><line class="cls-2" x1="95.2" y1="123.62" x2="95.2" y2="111.74"/><line class="cls-2" x1="54.78" y1="123.62" x2="54.78" y2="111.74"/></svg>