<?xml version="1.0" encoding="utf-8"?>
<!-- Generator: Adobe Illustrator 22.0.1, SVG Export Plug-In . SVG Version: 6.00 Build 0)  -->
<svg version="1.1" id="Layer_1" xmlns="http://www.w3.org/2000/svg" xmlns:xlink="http://www.w3.org/1999/xlink" x="0px" y="0px"
	 viewBox="0 0 133 133" style="enable-background:new 0 0 133 133;" xml:space="preserve">
<style type="text/css">
	.st0{fill:#0071B5;}
</style>
<g transform="translate(0.000000,200.000000) scale(0.100000,-0.100000)">
	<path class="st0" d="M186,1904c-14-14-16-71-16-485V950h-25c-34,0-82-25-95-49c-15-29-12-88,6-116c8-13,29-28,46-34
		c43-15,1053-15,1096,0c17,6,38,21,46,34c18,28,21,87,6,116c-13,24-61,49-95,49h-25v469c0,414-2,471-16,485s-70,16-464,16
		S200,1918,186,1904z M610,1640v-210h-40h-40v141c0,77-5,149-10,160c-9,16-22,19-88,19c-47,0-83-5-90-12c-8-8-12-58-12-160v-148h-45
		h-45v210v210h185h185V1640z M1060,1800v-50H927c-90,0-137-4-145-12c-16-16-16-160,0-176c8-8,55-12,145-12h133v-60v-60H870H680v210
		v210h190h190V1800z M460,1554v-125l-32,3l-33,3l-3,123l-3,122h36h35V1554z M610,1160V950H425H240v60v60h139c159,0,151-5,151,95
		s8,95-151,95H240v55v55h185h185V1160z M1060,1160V950h-45h-44l-3,153l-3,152h-95h-95l-3-152l-3-153h-44h-45v210v210h190h190V1160z
		 M460,1165v-35H350H240v35v35h110h110V1165z M1191,864c9-11,10-20,2-32c-9-16-57-17-543-17s-534,1-543,17c-8,12-7,21,2,32
		c12,14,72,16,541,16S1179,878,1191,864z"/>
</g>
</svg>
