<?xml version="1.0" encoding="utf-8"?>
<!-- Generator: Adobe Illustrator 22.0.1, SVG Export Plug-In . SVG Version: 6.00 Build 0)  -->
<svg version="1.1" id="Layer_1" xmlns="http://www.w3.org/2000/svg" xmlns:xlink="http://www.w3.org/1999/xlink" x="0px" y="0px"
	 viewBox="0 0 125 135" style="enable-background:new 0 0 125 135;" xml:space="preserve">
<style type="text/css">
	.st0{fill:#0071B5;}
</style>
<g transform="translate(0.000000,200.000000) scale(0.100000,-0.100000)">
	<path class="st0" d="M260,1901c-12-24-14-570-1-590c26-40,31,7,31,285v284h340h340v-284c0-278,5-325,31-285c13,20,11,566-1,590
		c-10,18-25,19-370,19S270,1919,260,1901z"/>
	<path class="st0" d="M342,1842c-9-7-12-68-10-273c3-227,5-264,18-264s15,24,18,148l3,147h99c93,0,100,1,100,20s-7,20-100,20H370v85
		v85h120h120l2-252c3-217,5-253,18-253s15,24,18,148l3,147h119h119l3-147c3-124,5-148,18-148s15,37,18,264c2,205-1,266-10,273
		c-7,4-137,8-288,8S349,1846,342,1842z M890,1725v-85H770H650v85v85h120h120V1725z"/>
	<path class="st0" d="M82,1248c-15-15-16-58-1-58c6,0,19,10,29,23c10,12,21,20,24,16c3-3-6-70-19-150c-26-148-25-185,3-229
		c9-14,19-47,22-75l5-50h485h485l5,50c3,28,13,61,22,75c28,44,29,81,3,229c-13,80-22,147-19,150c3,4,14-4,24-16c10-13,23-23,29-23
		c15,0,14,43-1,58C1161,1265,99,1265,82,1248z M230,1218c0-7-9-65-20-128c-24-137-25-179-6-225c15-34,15-35-10-35c-19,0-29,10-46,45
		l-22,45l23,147c13,82,26,151,28,156C184,1235,230,1231,230,1218z M323,1223c2-5-2-62-10-128c-14-120-14-215,1-247c7-15,3-18-21-18
		c-22,0-32,7-45,33c-28,56-29,66-8,190c31,185,28,177,55,177C308,1230,321,1227,323,1223z M417,1158c-17-193-19-255-9-290
		c10-37,10-38-18-38c-23,0-30,7-44,41c-15,38-16,52-1,188c9,80,18,152,20,159c3,6,16,12,31,12h27L417,1158z M515,1028V830h-28
		c-42,0-50,33-43,181c3,69,9,147,12,173c6,43,9,47,33,44l26-3V1028z M610,1030V830h-30h-30v193c0,107,3,197,7,200c3,4,17,7,30,7h23
		V1030z M708,1028l2-198h-30h-30v201v200l28-3l27-3L708,1028z M803,1187c3-24,9-101,13-172c7-152,0-185-43-185h-28l1,193
		c0,105,1,195,2,200c1,4,13,7,26,7C794,1230,798,1224,803,1187z M913,1070c16-144,16-158,1-197c-13-37-20-43-44-43c-28,0-28,1-18,38
		c10,35,8,97-9,290l-6,74l29-4l29-3L913,1070z M994,1203c22-111,45-274,40-290c-19-58-39-83-67-83c-24,0-28,3-21,18
		c15,32,15,127,1,247c-8,66-12,123-10,128c2,4,15,7,28,7C983,1230,990,1223,994,1203z M1109,1073l25-153l-22-45c-17-35-27-45-46-45
		c-25,0-25,1-10,35c19,46,18,88-6,225c-25,147-26,142,7,138C1085,1225,1085,1224,1109,1073z M1080,775c0-13-57-15-450-15
		s-450,2-450,15s57,15,450,15S1080,788,1080,775z"/>
</g>
</svg>
