<?xml version="1.0" encoding="utf-8"?>
<!-- Generator: Adobe Illustrator 22.0.1, SVG Export Plug-In . SVG Version: 6.00 Build 0)  -->
<svg version="1.1" id="Layer_1" xmlns="http://www.w3.org/2000/svg" xmlns:xlink="http://www.w3.org/1999/xlink" x="0px" y="0px"
	 viewBox="0 0 121 137" style="enable-background:new 0 0 121 137;" xml:space="preserve">
<style type="text/css">
	.st0{fill:#0071B5;}
</style>
<g transform="translate(0.000000,200.000000) scale(0.100000,-0.100000)">
	<path class="st0" d="M237,1919c-38-22-47-70-47-249v-170h-23c-13,0-33-10-45-23c-21-22-22-32-22-223c0-222,7-262,60-326
		c41-50,121-87,203-95l67-6v-58v-59h160h160v59v58l67,6c82,8,162,45,203,95c53,64,60,104,60,327c0,198,0,202-23,223
		c-13,12-33,22-45,22c-22,0-22,2-22,170c0,225-14,260-105,260c-27,0-44-8-66-29l-29-29v-186v-186H590H390v186v186l-29,29
		c-23,22-39,29-68,29C272,1930,247,1925,237,1919z M338,1878c9-8,12-59,12-194v-184h-60h-60v179v180l27,20
		C283,1900,310,1900,338,1878z M924,1879l26-20v-180v-179h-60h-60l2,187l3,187l25,13C893,1904,893,1904,924,1879z M1038,1247
		c2-189,1-210-17-245c-26-51-91-108-138-121c-50-14-536-14-586,0c-47,13-112,70-138,120c-17,34-19,60-19,242c0,112,3,207,7,210
		c3,4,205,6,447,5l441-3L1038,1247z M710,785v-45H590H470v45v45h120h120V785z"/>
	<path class="st0" d="M563,1266c-54-65-66-96-38-96c24,0,27-22,10-69c-19-54-19-71-1-71c17,0,136,138,136,157c0,8-11,18-24,23
		c-24,9-24,10-10,56C662,1352,634,1352,563,1266z"/>
</g>
</svg>
