<?xml version="1.0" encoding="utf-8"?>
<!-- Generator: Adobe Illustrator 22.0.1, SVG Export Plug-In . SVG Version: 6.00 Build 0)  -->
<svg version="1.1" id="Layer_1" xmlns="http://www.w3.org/2000/svg" xmlns:xlink="http://www.w3.org/1999/xlink" x="0px" y="0px"
	 viewBox="0 0 120 138.9" style="enable-background:new 0 0 120 138.9;" xml:space="preserve">
<style type="text/css">
	.st0{fill:#0071B5;}
</style>
<g transform="translate(0.000000,200.000000) scale(0.100000,-0.100000)">
	<path class="st0" d="M545,1891.1c-29-11-46-35-54-71c-6-28-23-41-158-119c-104-61-158-87-172-83c-30,8-68-4-91-29
		c-24-26-27-85-5-114c22-28,22-396,0-414c-17-14-20-72-4-102c13-25,66-48,99-42c31,5,309-152,326-185c32-62,82-83,134-56
		c18,9,37,29,43,45c8,22,43,47,156,111c86,50,158,85,176,85c17,1,38,2,48,3c10,0,29,12,42,26c29,28,35,95,10,115
		c-22,18-22,386,0,414c22,29,19,88-5,114c-24,25-61,37-91,29c-15-4-67,20-171,80c-82,47-151,91-153,97s-6,24-9,39c-4,16-20,36-39,47
		C593,1902.1,577,1904.1,545,1891.1z M534,1725.1c14-5,16-27,16-143c0-134-1-138-25-159l-25-22l-132,59c-122,54-133,61-133,85
		c0,23,16,35,135,105C518,1736.1,512,1734.1,534,1725.1z M787,1649.1c188-109,188-109,5-189c-131-57-134-58-158-41
		c-23,16-23,21-24,159c0,135,2,147,29,152C641,1731.1,708,1694.1,787,1649.1z M353,1397.1c109-47,137-63,141-82c4-13,17-31,31-40
		s25-21,25-28c0-6-79-45-175-88c-160-70-177-75-205-65l-30,11v163v163l33,14c17,8,35,14,38,13C215,1457.1,278,1429.1,353,1397.1z
		 M993,1444.1c15-5,17-22,17-173v-167l-25-11c-22-10-46-3-200,65c-96,42-175,82-175,89c0,6,11,19,25,28s27,27,31,39
		c4,19,33,36,142,85c75,34,144,59,152,56C968,1451.1,983,1446.1,993,1444.1z M550,1004.1c-1-155-1-158-25-176c-24-17-25-16-159,60
		c-127,73-136,80-136,108c0,29,5,32,148,96c81,37,153,67,160,68C547,1161.1,550,1124.1,550,1004.1z M778,1094.1
		c150-67,152-68,150-98c-3-27-16-37-136-107c-132-76-134-77-158-60c-23,17-23,20-24,175c0,86,3,157,7,157S693,1131.1,778,1094.1z"/>
</g>
</svg>
