<?xml version="1.0" encoding="utf-8"?>
<!-- Generator: Adobe Illustrator 22.0.1, SVG Export Plug-In . SVG Version: 6.00 Build 0)  -->
<svg version="1.1" id="Layer_1" xmlns="http://www.w3.org/2000/svg" xmlns:xlink="http://www.w3.org/1999/xlink" x="0px" y="0px"
	 viewBox="0 0 125 145" style="enable-background:new 0 0 125 145;" xml:space="preserve">
<style type="text/css">
	.st0{fill:#0071B5;}
</style>
<g transform="translate(0.000000,200.000000) scale(0.100000,-0.100000)">
	<path class="st0" d="M510,1788c0-110-4-142-21-187c-24-65-28-147-9-218c13-51,15-53,47-53c41,0,52,23,60,120c5,68-17,182-37,188
		c-6,2-10,56-10,143c0,117-2,139-15,139S510,1899,510,1788z"/>
	<path class="st0" d="M700,1860c0-33-4-60-9-60c-4,0-16-34-26-76c-18-78-17-138,6-214c11-36,15-40,45-40c27,0,34,5,44,33
		c30,87,15,262-25,293c-10,8-15,30-15,68c0,31-4,56-10,56S700,1893,700,1860z"/>
	<path class="st0" d="M80,990c0-227,2-270,14-270c10,0,17,17,21,55l7,56l87-3l86-3l3-30c4-50,12-75,22-75c6,0,10,46,10,115v115h-99
		h-98l-7,53c-3,28-6,75-6,102c0,88-12,155-26,155C82,1260,80,1211,80,990z"/>
	<path class="st0" d="M1135,1105l-7-155h-109H910V835c0-106,1-115,19-115c15,0,20,10,26,55l6,55h90h89v-55c0-48,2-55,20-55
		c20,0,20,7,20,270c0,258-1,270-19,270C1144,1260,1142,1247,1135,1105z"/>
	<path class="st0" d="M234,1146c-3-8-4-27-2-43l3-28l113-3c104-2,112-4,112-22c0-17,7-20,40-20h40V886V741l-37-3c-27-2-39-8-41-20
		c-3-17,10-18,168-18s171,1,168,18c-2,12-14,18-41,20l-37,3v145v144h40c33,0,40,3,40,20c0,18,8,20,113,22l112,3v40v40l-393,3
		C300,1160,239,1158,234,1146z"/>
</g>
</svg>
