<?xml version="1.0" encoding="utf-8"?>
<!-- Generator: Adobe Illustrator 22.0.1, SVG Export Plug-In . SVG Version: 6.00 Build 0)  -->
<svg version="1.1" id="Layer_1" xmlns="http://www.w3.org/2000/svg" xmlns:xlink="http://www.w3.org/1999/xlink" x="0px" y="0px"
	 viewBox="0 0 125 92.3" style="enable-background:new 0 0 125 92.3;" xml:space="preserve">
<style type="text/css">
	.st0{fill:#0071B5;}
</style>
<g transform="translate(0.000000,200.000000) scale(0.100000,-0.100000)">
	<path class="st0" d="M200.4,1934.1c-50-25-63-65-63-193v-111l-32-13c-65-28-73-46-76-178c-4-126,2-149,39-149c17,0,19-8,19-66
		c0-89,10-104,65-104c63,0,75,17,75,101v69h410h410v-69c0-84,12-101,75-101c55,0,65,15,65,104c0,57,2,66,18,66c36,0,42,20,42,136
		c0,99-2,115-23,145c-13,20-37,39-57,45l-35,12l-5,129c-4,95-9,135-20,148c-35,43-60,45-477,45
		C289.4,1950.1,227.4,1947.1,200.4,1934.1z M1066.4,1874.1c18-23,21-41,21-135c0-102-1-109-20-109c-18,0-20,7-20,64
		c0,96-1,96-186,96c-88,0-164-4-175-10c-16-9-19-22-19-80v-70h-30h-30v70c0,58-3,71-19,80c-11,6-87,10-175,10c-185,0-186,0-186-96
		c0-57-2-64-20-64c-19,0-20,7-20,115c0,171-45,155,449,155h410L1066.4,1874.1z M567.4,1685.1v-55h-145h-145v55v55h145h145V1685.1z
		 M997.4,1685.1v-55h-140h-140v55v55h140h140V1685.1z M1172.4,1555.1c18-18,25-35,25-65v-40h-565h-565v31c0,34,15,68,39,86
		c12,9,141,12,529,13h513L1172.4,1555.1z M1197.4,1375.1v-35h-565h-565v28c0,16,3,32,7,35c3,4,258,7,565,7h558V1375.1z"/>
</g>
</svg>
