<?xml version="1.0" encoding="utf-8"?>
<!-- Generator: Adobe Illustrator 22.0.1, SVG Export Plug-In . SVG Version: 6.00 Build 0)  -->
<svg version="1.1" id="Layer_1" xmlns="http://www.w3.org/2000/svg" xmlns:xlink="http://www.w3.org/1999/xlink" x="0px" y="0px"
	 viewBox="0 0 143 139" style="enable-background:new 0 0 143 139;" xml:space="preserve">
<style type="text/css">
	.st0{fill:#0071B5;}
</style>
<g transform="translate(0.000000,200.000000) scale(0.100000,-0.100000)">
	<path class="st0" d="M100,1780v-140h180h180v140v140H280H100V1780z M420,1780v-100H280H140v100v100h140h140V1780z"/>
	<path class="st0" d="M530,1797v-123l-40-39c-22-21-40-47-40-57c0-17,16-18,260-18s260,1,260,18c0,10-18,36-40,57l-40,39v123v123
		H710H530V1797z M850,1771c0-103,1-111,26-140l26-31H710H518l26,31c25,29,26,37,26,140v109h140h140V1771z"/>
	<path class="st0" d="M960,1780v-140h180h180v140v140h-180H960V1780z M1280,1780v-100h-140h-140v100v100h140h140V1780z"/>
	<path class="st0" d="M140,1535c0-18-5-25-20-25c-13,0-20-7-20-20s7-20,20-20c17,0,20-7,20-38c0-26-7-45-20-57c-25-22-26-67-2-87
		c23-21,221-20,245,1c23,19,21,64-3,86c-13,12-20,31-20,57v38h60c53,0,60,2,60,20s-7,20-60,20c-57,0-60,1-60,25c0,18-5,25-20,25
		s-20-7-20-25s-5-25-20-25s-20,7-20,25s-5,25-20,25s-20-7-20-25s-5-25-20-25s-20,7-20,25s-5,25-20,25S140,1553,140,1535z"/>
	<path class="st0" d="M1141,1444c-27-35-28-74-2-74c12,0,21,8,23,21c4,30,33,47,56,33c13-9,18-28,20-83c3-66,1-71-18-71
		c-13,0-20-7-20-20s7-20,20-20s20-7,20-20c0-19-7-20-265-20s-265,1-265,20c0,13,7,20,20,20s20,7,20,20s-7,20-19,20c-10,0-21,9-24,20
		c-5,19-14,20-120,20c-107,0-116-2-122-20c-3-11-15-20-26-20c-12,0-19-7-19-20s7-20,20-20s20-7,20-20c0-19-8-20-178-22l-177-3
		l-3-241l-2-241l305-8c168-4,442-4,610,0l305,8v239c0,231-1,240-20,245s-20,14-20,118c0,98-3,116-21,139c-16,20-29,26-59,26
		S1157,1464,1141,1444z M420,1085v-65H280H140v65v65h140h140V1085z M1280,1085v-65h-140h-140v65v65h140h140V1085z M950,940V740H710
		H470v200v200h240h240V940z M420,860V740H280H140v120v120h140h140V860z M1120,860V740h-60h-60v120v120h60h60V860z M1280,860V740h-60
		h-60v120v120h60h60V860z"/>
	<path class="st0" d="M510,900V780h200h200v120v120H710H510V900z M870,900v-80H710H550v80v80h160h160V900z"/>
</g>
</svg>
