<?xml version="1.0" encoding="utf-8"?>
<!-- Generator: Adobe Illustrator 22.0.1, SVG Export Plug-In . SVG Version: 6.00 Build 0)  -->
<svg version="1.1" id="Layer_1" xmlns="http://www.w3.org/2000/svg" xmlns:xlink="http://www.w3.org/1999/xlink" x="0px" y="0px"
	 viewBox="0 0 123 134" style="enable-background:new 0 0 123 134;" xml:space="preserve">
<style type="text/css">
	.st0{fill:#0071B5;}
</style>
<g transform="translate(0.000000,200.000000) scale(0.100000,-0.100000)">
	<path class="st0" d="M82,1927c-23-25-31-94-12-113c5-5,11-108,14-229c2-121,7-244,11-273c9-68,28-82,117-82h68v-110
		c0-104,1-112,25-135c13-14,31-25,40-25c18,0,18,11,0-111c-8-55-13-105-10-110c4-5,104-9,231-9h224v28c0,15-9,61-20,102
		s-20,81-20,88c0,8,20,12,68,12c83,0,124,11,184,49c59,38,104,99,125,170c9,31,24,62,34,69c27,19,25,76-3,96c-12,9-29,16-36,16
		c-8,0-22,10-32,23c-18,22-21,22-279,22H550v233v232l-25,10c-14,5-25,16-25,24s-10,22-22,30c-18,13-55,16-198,16
		C108,1950,103,1949,82,1927z M458,1898c7-7,12-20,12-30c0-17-14-18-185-18H100v23c0,13,3,27,7,30C119,1916,445,1911,458,1898z
		 M438,1588l-3-223H280H125l-3,223l-2,222h160h160L438,1588z M1135,1295c0-20-8-20-489-23c-297-1-494,2-499,7s-7,17-4,25
		c6,15,58,16,499,14C1127,1315,1135,1315,1135,1295z M1094,1203c-19-78-78-148-154-182c-34-16-66-21-131-21c-58,0-90-4-97-13
		c-8-9-4-39,13-107c14-52,25-98,25-102c0-5-85-8-188-8H374l14,100c16,112,13,130-21,130c-41,0-47,17-47,127v103h390h390L1094,1203z"
		/>
</g>
</svg>
