<?xml version="1.0" encoding="iso-8859-1"?>
<!-- Generator: Adobe Illustrator 16.0.0, SVG Export Plug-In . SVG Version: 6.00 Build 0)  -->
<!DOCTYPE svg PUBLIC "-//W3C//DTD SVG 1.1//EN" "http://www.w3.org/Graphics/SVG/1.1/DTD/svg11.dtd">
<svg xmlns="http://www.w3.org/2000/svg" xmlns:xlink="http://www.w3.org/1999/xlink" version="1.1" id="Capa_1" x="0px" y="0px" width="512px" height="512px" viewBox="0 0 619.832 619.832" style="enable-background:new 0 0 619.832 619.832;" xml:space="preserve">
<g>
	<g>
		<defs>
			<rect id="SVGID_1_" x="33.401" width="553.029" height="619.832" fill="#059de9"/>
		</defs>
		<clipPath id="SVGID_2_">
			<use xlink:href="#SVGID_1_" style="overflow:visible;"/>
		</clipPath>
		<path style="clip-path:url(#SVGID_2_);" d="M554.82,241.856h-71.885v-0.147l-3.66-6.011    c-11.51-18.175-30.168-31.435-51.975-35.862l39.839-69.837v-0.308c0.304-0.474,0.626-0.962,0.777-1.417    c0.171-0.484,0.322-0.792,0.322-1.119c0.455-1.417,0.304-2.512,0.171-3.318c-0.171-0.298-0.322-0.621-0.493-0.796    c-0.303-0.611-0.777-0.943-0.777-0.943l-59.408-69.211c9.007-15.008,7.718-33.34-3.792-44.385    c-13.748-13.126-37.146-10.747-52.146,5.048c-2.086,2.195-3.812,4.409-5.233,6.793h-0.171l-58.92,22.427l27.324,27.338    l2.229,2.371l50.699,52.312l20.536-54.203l42.987,49.941c0,0,0.625,0.621,1.402,1.726c1.764,2.536,4.419,7.594,1.593,12.33    c0,0.147-0.151,0.147-0.151,0.312l-36.673,64.476c-24.024,3.949-44.39,18.483-56.09,38.55c-0.151,0.147-0.303,0.313-0.303,0.313    c-0.626,0.787-1.1,1.593-1.574,2.522c-0.171,0-0.171,0.156-0.171,0.312c-0.17,0.327-0.322,0.493-0.474,0.787H64.982    c-17.378,0-31.581,14.231-31.581,31.61v334.031c0,12.78,13.107,12.334,13.107,12.334h8.689c9.329,0,11.064-7.745,11.23-11.699    V301.748c0-15.644,12.477-28.282,27.959-28.282h431.667c15.359,0,27.817,12.638,27.817,28.282v306.223    c0,11.387,11.055,11.86,11.055,11.86h11.852c9.955,0,9.652-11.073,9.652-11.073V273.466    C586.411,256.087,572.189,241.856,554.82,241.856L554.82,241.856z" fill="#059de9"/>
	</g>
	<path d="M448.026,365.243h-71.999c-9.064,0-16.402-6.979-16.402-15.592c0-8.595,7.357-15.577,16.402-15.577   h71.999c9.063,0,16.383,6.992,16.383,15.577C464.409,358.264,457.071,365.243,448.026,365.243L448.026,365.243z M491.07,301.862   H330.532c-1.271,0-2.664,0.156-3.953,0.455v-0.455h-27.002v111.843h27.002v-0.455c1.289,0.304,2.683,0.455,3.953,0.455H491.07   c17.217,0,30.965-13.084,30.965-29.367v-53.075C522.035,314.955,508.306,301.862,491.07,301.862L491.07,301.862z" fill="#059de9"/>
	<path d="M446.793,505.443h-71.999c-9.045,0-16.384-6.987-16.384-15.596c0-8.6,7.339-15.577,16.384-15.577   h71.999c9.063,0,16.401,6.978,16.401,15.577C463.195,498.456,455.857,505.443,446.793,505.443L446.793,505.443z M491.07,445.959   H330.532c-1.271,0-2.664,0.171-3.953,0.455v-0.455h-27.002v112.019h27.002v-0.455c1.289,0.303,2.683,0.455,3.953,0.455H491.07   c17.217,0,30.965-13.265,30.965-29.363v-53.273C522.035,459.072,508.306,445.959,491.07,445.959L491.07,445.959z" fill="#059de9"/>
</g>
<g>
</g>
<g>
</g>
<g>
</g>
<g>
</g>
<g>
</g>
<g>
</g>
<g>
</g>
<g>
</g>
<g>
</g>
<g>
</g>
<g>
</g>
<g>
</g>
<g>
</g>
<g>
</g>
<g>
</g>
</svg>
