<svg id="Layer_1" data-name="Layer 1" xmlns="http://www.w3.org/2000/svg" viewBox="0 0 150 150"><defs><style>.cls-1,.cls-2{fill:none;stroke:#29abe2;}.cls-1{stroke-miterlimit:10;}.cls-2{stroke-linecap:round;stroke-linejoin:round;}</style></defs><title>techology</title><rect class="cls-1" x="61.25" y="56.75" width="31.75" height="31.75"/><rect class="cls-1" x="56" y="51.5" width="42.25" height="42.25"/><line class="cls-2" x1="65.25" y1="41.38" x2="65.25" y2="51.5"/><line class="cls-2" x1="73.13" y1="41.38" x2="73.13" y2="51.5"/><line class="cls-2" x1="81" y1="41.38" x2="81" y2="51.5"/><line class="cls-2" x1="88.88" y1="41.38" x2="88.88" y2="51.5"/><line class="cls-2" x1="65.25" y1="94.38" x2="65.25" y2="104.5"/><line class="cls-2" x1="73.13" y1="94.38" x2="73.13" y2="104.5"/><line class="cls-2" x1="81" y1="94.38" x2="81" y2="104.5"/><line class="cls-2" x1="88.88" y1="94.38" x2="88.88" y2="104.5"/><line class="cls-2" x1="108.37" y1="60.81" x2="98.25" y2="60.81"/><line class="cls-2" x1="108.37" y1="68.69" x2="98.25" y2="68.69"/><line class="cls-2" x1="108.37" y1="76.56" x2="98.25" y2="76.56"/><line class="cls-2" x1="108.37" y1="84.44" x2="98.25" y2="84.44"/><line class="cls-2" x1="56" y1="60.81" x2="45.88" y2="60.81"/><line class="cls-2" x1="56" y1="68.69" x2="45.88" y2="68.69"/><line class="cls-2" x1="56" y1="76.56" x2="45.88" y2="76.56"/><line class="cls-2" x1="56" y1="84.44" x2="45.88" y2="84.44"/><rect class="cls-2" x="64.38" y="60.81" width="6.56" height="6.56"/><rect class="cls-2" x="73.44" y="60.81" width="6.56" height="6.56"/><rect class="cls-2" x="82.5" y="60.81" width="6.56" height="6.56"/><rect class="cls-2" x="64.38" y="69.34" width="6.56" height="6.56"/><rect class="cls-2" x="73.44" y="69.34" width="6.56" height="6.56"/><rect class="cls-2" x="82.5" y="69.34" width="6.56" height="6.56"/><rect class="cls-2" x="64.38" y="77.88" width="6.56" height="6.56"/><rect class="cls-2" x="73.44" y="77.88" width="6.56" height="6.56"/><rect class="cls-2" x="82.5" y="77.88" width="6.56" height="6.56"/></svg>