<svg id="Layer_1" data-name="Layer 1" xmlns="http://www.w3.org/2000/svg" viewBox="0 0 112.67 122.43"><defs><style>.cls-1{fill:#015ba1;}</style></defs><title>Toilet</title><path class="cls-1" d="M106.21,59.18h-1.48A7.19,7.19,0,0,0,98,54.47H52.33a7.23,7.23,0,0,0-3.3.79V8.59a2,2,0,0,0-4-.44V7.89A7.9,7.9,0,0,0,37.19,0H7.89A7.9,7.9,0,0,0,0,7.89v3.24A3.44,3.44,0,0,0,2.1,14.3V55.12a9.55,9.55,0,0,0,3,6.91,6.45,6.45,0,0,0,5.36,10H22.05V91a8.44,8.44,0,0,0,8.28,8.43l-3,20.72a2,2,0,0,0,2,2.29H72A2,2,0,0,0,73.93,120L69,99.42h9.18A30,30,0,0,0,108.12,71.8a6.45,6.45,0,0,0-1.91-12.62Zm-53.88-.71H98a3.22,3.22,0,0,1,2,.71H50.32a3.2,3.2,0,0,1,2-.71Zm-9.61-3.35V22.29a2.9,2.9,0,0,0,0-5.31V14.39A3.44,3.44,0,0,0,45,11.69V58.48a2,2,0,0,0,.13.71H41.81a9.51,9.51,0,0,0,.92-4.06ZM4,10.56V7.89A3.89,3.89,0,0,1,7.89,4H37.19a3.89,3.89,0,0,1,3.89,3.89v2.67Zm2.1,44.56V14.57H38.72V55.12A5.59,5.59,0,0,1,37,59.18H10.42a6.44,6.44,0,0,0-2.12.36,5.56,5.56,0,0,1-2.19-4.42ZM96.39,88a25.85,25.85,0,0,1-18.18,7.41H66.5a2,2,0,0,0-1.95,2.47l4.9,20.54H31.63l3-20.72a2,2,0,0,0-2-2.29H30.48A4.43,4.43,0,0,1,26.06,91V72.09h78A25.82,25.82,0,0,1,96.39,88Zm9.82-19.92H10.42a2.45,2.45,0,1,1,0-4.9h95.79a2.45,2.45,0,1,1,0,4.9Zm0,0"/></svg>