<svg id="Layer_1" data-name="Layer 1" xmlns="http://www.w3.org/2000/svg" viewBox="0 0 122.66 122.66"><defs><style>.cls-1{fill:#015ba1;}</style></defs><title>Toilet Wall</title><path class="cls-1" d="M25.34,63.85a3,3,0,1,0,.89-2.14,3,3,0,0,0-.89,2.14Zm0,0"/><path class="cls-1" d="M23.32,61.83a3,3,0,1,0-2.14-.89,3,3,0,0,0,2.14.89Zm0,0"/><path class="cls-1" d="M18.29,66.87A3,3,0,1,0,16.15,66a3,3,0,0,0,2.14.89Zm0,0"/><path class="cls-1" d="M62.91,63.85a3,3,0,1,0,.89-2.14,3,3,0,0,0-.89,2.14Zm0,0"/><path class="cls-1" d="M60.89,61.83a3,3,0,1,0-2.14-.89,3,3,0,0,0,2.14.89Zm0,0"/><path class="cls-1" d="M55.86,66.87A3,3,0,1,0,53.72,66a3,3,0,0,0,2.14.89Zm0,0"/><path class="cls-1" d="M101.06,63.85a3,3,0,1,0,.88-2.14,3,3,0,0,0-.88,2.14Zm0,0"/><path class="cls-1" d="M99,61.83a3,3,0,1,0-2.14-.89,3,3,0,0,0,2.14.89Zm0,0"/><path class="cls-1" d="M94,66.87A3,3,0,1,0,91.87,66a3,3,0,0,0,2.14.89Zm0,0"/><path class="cls-1" d="M118.34,0H4.32A4.32,4.32,0,0,0,0,4.32v114a4.32,4.32,0,0,0,4.32,4.32h114a4.32,4.32,0,0,0,4.32-4.32V4.32A4.32,4.32,0,0,0,118.34,0ZM38,114H8.64V84.65H38Zm0-38H8.64V46.64H38Zm0-38H8.64V8.64H38Zm38,76H46.64V84.65H76Zm0-38H46.64V46.64H76Zm0-38H46.64V8.64H76Zm38,76H84.65V84.65H114Zm0-38H84.65V46.64H114Zm0-38H84.65V8.64H114Zm0,0"/></svg>