<svg id="Layer_1" data-name="Layer 1" xmlns="http://www.w3.org/2000/svg" viewBox="0 0 150 150"><defs><style>.cls-1{fill:#29abe2;}.cls-2,.cls-3{fill:none;stroke:#29abe2;}.cls-2{stroke-miterlimit:10;}.cls-3{stroke-linecap:round;stroke-linejoin:round;}</style></defs><title>Tv </title><path class="cls-1" d="M72,64.69H55.57a1.14,1.14,0,0,1,0-2.28H72a1.14,1.14,0,0,1,0,2.28Z"/><path class="cls-1" d="M63.8,83.5a1.14,1.14,0,0,1-1.14-1.14V63.55a1.14,1.14,0,1,1,2.28,0V82.36A1.14,1.14,0,0,1,63.8,83.5Z"/><path class="cls-1" d="M86.05,83.94h0a1.14,1.14,0,0,1-1-.69L76.63,64a1.14,1.14,0,0,1,2.09-.91l7.33,16.85,7.34-16.85a1.14,1.14,0,1,1,2.09.91L87.1,83.25A1.14,1.14,0,0,1,86.05,83.94Z"/><rect class="cls-2" x="29.39" y="48.25" width="91.22" height="54.17"/><rect class="cls-2" x="32.45" y="50.77" width="85.1" height="44.8"/><rect class="cls-1" x="72.02" y="97.99" width="5.97" height="1.53" rx="0.77" ry="0.77"/><path class="cls-3" d="M54.43,110a11.07,11.07,0,0,1,10.47-7.58H85.1A11.07,11.07,0,0,1,95.57,110"/></svg>