<svg id="Layer_1" data-name="Layer 1" xmlns="http://www.w3.org/2000/svg" viewBox="0 0 107.04 122.33"><defs><style>.cls-1{fill:#015ba1;}</style></defs><title>Wall Finish</title><path class="cls-1" d="M0,0V122.33H56.07V91.75H99.4A7.65,7.65,0,0,0,107,84.1V0ZM25.49,117.23H5.1V5.1H25.49V117.23Zm66.7-30.58H48.42a2.55,2.55,0,0,1-2.55-2.55V66.27H91.75V84.1A7.57,7.57,0,0,0,92.19,86.65ZM76.46,5.1V61.17H56.07V5.1ZM51,117.23H30.58V5.1H51V61.17H40.78V84.1a7.65,7.65,0,0,0,7.65,7.65H51v25.48Zm51-33.13a2.55,2.55,0,1,1-5.09,0V61.17H81.56V5.1h20.38v79Z"/></svg>