<svg id="Layer_1" data-name="Layer 1" xmlns="http://www.w3.org/2000/svg" viewBox="0 0 150 150"><defs><style>.cls-1{fill:none;stroke:#29abe2;stroke-miterlimit:10;}</style></defs><title>water</title><path class="cls-1" d="M76.78,39.44a2,2,0,0,0-3.16,0c-7,9.16-13.09,18.39-16.27,29.28C53.75,81,61.41,93.13,73.37,94,87.38,95,97,82.76,93.1,68.9,90,57.9,83.84,48.59,76.78,39.44Z"/><path class="cls-1" d="M63.06,111.51h0c-.87-6.21-1.69-12.44-5.58-17.74a8.44,8.44,0,0,0-8.67-3.58,9,9,0,0,0-7.51,7.53,8.7,8.7,0,0,0,5.19,9.54C51.59,109.47,57.76,109.77,63.06,111.51Z"/><path class="cls-1" d="M87.23,109.35a2,2,0,0,0,2.27,2.25c5.34-.78,10.35-1.83,14.81-4.75,3.38-2.21,5.09-5.38,4.25-9.46a8.57,8.57,0,0,0-7.19-7.13c-4.11-.8-7.25.89-9.44,4.28C89,99,87.95,104,87.23,109.35Z"/><path class="cls-1" d="M51.18,85h0c-1-3.28-.94-7.56-2.26-10.72a5.53,5.53,0,0,0-6.36-3.51,5.44,5.44,0,0,0-4.77,4.81,5.54,5.54,0,0,0,3.58,6.32C44.54,83.16,47.91,84,51.18,85Z"/><path class="cls-1" d="M97.84,84.14h0c3.5-1.17,8.08-1.16,11.42-2.69a5.22,5.22,0,0,0,2.89-6.1,5.5,5.5,0,0,0-4.65-4.6,5.24,5.24,0,0,0-6.09,2.93C99.92,77,99,80.64,97.84,84.14Z"/></svg>