<svg id="Layer_1" data-name="Layer 1" xmlns="http://www.w3.org/2000/svg" viewBox="0 0 91.16 122.75"><defs><style>.cls-1{fill:#015ba1;}</style></defs><title>Wooden</title><path class="cls-1" d="M40.31,109.64V31a1.8,1.8,0,0,0-3.6,0V51.84A411.4,411.4,0,0,1,30.77,3.6h5.95V23.78a1.8,1.8,0,0,0,3.6,0V1.8A1.8,1.8,0,0,0,38.51,0H1.8A1.8,1.8,0,0,0,0,1.8v84a1.8,1.8,0,1,0,3.6,0V28.23c3.6,12.85,8.13,40.56,2.81,90.92H3.6V93A1.8,1.8,0,0,0,0,93v28a1.8,1.8,0,0,0,1.8,1.8H15.09l23.65,0h0l.12,0,.08,0,.08,0,.09,0h.06l.11,0,.06,0,.09,0,.07,0,.07,0,.08-.06.06,0,.08-.07,0-.05.07-.07,0-.06L40,122l.05-.08,0-.06,0-.09,0-.06,0-.1,0-.06,0-.1,0-.08,0-.09v-.17s0-.07,0-.11v0h0S40.31,109.64,40.31,109.64ZM26.7,119.15c-1.42-6.84-2.63-17.18-.85-21.38.91,1.11,2.82,4.1,6.23,12,1.56,3.61,3,7.15,3.83,9.4H26.7Zm8.39-11.49c-5.46-12.5-7.59-13.8-9.16-14a2.51,2.51,0,0,0-2.42,1c-3.84,5.06-1.6,18.91-.49,24.51H17.17a372.9,372.9,0,0,0,4.2-56.54A184.39,184.39,0,0,0,17.62,25.7C15.06,14,11.76,7.12,9.65,3.6h9.63c.65,5.35,2.9,23.5,5.78,43.51,4.56,31.67,8.48,52.8,11.65,62.83v1.55C36.2,110.25,35.65,109,35.09,107.66Zm1.63-39.28V95C30.66,65.89,24.22,14.38,22.9,3.6h4.26C27.62,11.11,29.83,41.89,36.71,68.38ZM9.86,40.13C7.58,26.2,4.49,19.49,3.6,17.76V3.6H5.37C7.46,6.38,11.43,14,14.22,27a182.79,182.79,0,0,1,3.55,36.11,371.54,371.54,0,0,1-4.24,56H10C12.34,97,14.08,65.93,9.86,40.13Z"/><path class="cls-1" d="M89.37,90a1.8,1.8,0,0,0,1.8-1.8v-65h0V1.8A1.8,1.8,0,0,0,89.37,0H52.65a1.8,1.8,0,0,0-1.8,1.8V47.5h0V121a1.8,1.8,0,0,0,1.8,1.8H89.37a1.8,1.8,0,0,0,1.8-1.8V95.4a1.8,1.8,0,0,0-3.6,0v23.76H82.27c-.24-20.69.3-49.73,4-74.08.43-2.81.86-5.31,1.28-7.52V88.2A1.8,1.8,0,0,0,89.37,90ZM64.65,35.85a2.33,2.33,0,0,0,1.88-1c.62-.82,1.9-2.54.74-18.42-.38-5.16-.9-10.19-1.19-12.87h3.38c.87,6.45,3.77,31.89-2.39,45.06-1,2.12-1.74,2.52-2,2.5s-2.79-.48-7-13.88c-2-6.56-3.46-13.13-3.7-14.28V18.1c.43,1.11.88,2.26,1.34,3.41,5.14,12.81,7,14.08,8.5,14.32Zm-10.2,1.62.26.85c2.28,7.36,5.48,15.88,10,16.4l.47,0c2,0,3.74-1.54,5.16-4.58,3.18-6.79,4.56-17.07,4.09-30.54-.24-7-.93-13-1.33-16h8.54c-1.09,5.59-4.08,21.46-6.86,40.72-3.11,21.55-6.56,51.76-5.63,74.84H64.31c.84-19-1.8-37.29-4.21-49.44a210.17,210.17,0,0,0-5.65-22.53V37.48Zm8-33.88c.28,2.48.81,7.55,1.2,12.81.61,8.22.54,12.34.35,14.4-2.16-3.67-6-12.92-9.55-23.14V3.6Zm-8,57.22c3.2,13.33,7.3,35.45,6.26,58.34H54.45ZM82.77,44.24c-3.78,24.61-4.33,54-4.1,74.91H72.73C71,78.38,83.24,14,85.28,3.6h2.28V22.86C87,24.36,84.84,30.76,82.77,44.24Z"/></svg>