<svg id="Layer_1" data-name="Layer 1" xmlns="http://www.w3.org/2000/svg" viewBox="0 0 150 150"><defs><style>.cls-1{fill:none;stroke:#29abe2;stroke-linecap:round;stroke-linejoin:round;}</style></defs><title>wooden png</title><rect class="cls-1" x="45.41" y="41.01" width="25.68" height="67.91"/><path class="cls-1" d="M51.2,41c.32,1.72-1,3.24-1.77,4.82-1.53,3.31-.38,7.2,1.06,10.54s3.18,6.81,2.77,10.43c-.35,3.07-2.21,5.75-3.08,8.73a13.87,13.87,0,0,0,.12,8.11c1.24,3.83,4.15,7.09,4.66,11.09.59,4.63-2.18,9.26-1.34,13.85"/><path class="cls-1" d="M59.64,41.29c-2.47,2.91-4.52,6.53-4.18,10.34.24,2.67,1.62,5.08,2.75,7.51s2,5.18,1.31,7.76c-.56,2-2,3.56-2.67,5.49-1.22,3.59.51,7.46,2.38,10.75s4,6.79,3.62,10.56c-.27,2.65-1.76,5-2.76,7.46s-1.44,5.53.21,7.62"/><path class="cls-1" d="M66.44,41c-1.46,3.66-2.78,7.59-2.11,11.48.57,3.32,2.53,6.27,3.1,9.59a11.89,11.89,0,0,1-.75,6.58c-.95,2.25-2.58,4.19-3.34,6.51-1,3.1-.37,6.5.67,9.6s2.45,6.09,3,9.31c.82,5-.55,10.09-1.92,15"/><path class="cls-1" d="M61.82,45.31a24.25,24.25,0,0,0-1.35,5.93,12.86,12.86,0,0,0,.24,4.56C61,57,61.56,58,62,59.16c1.61,4.56.79,9.62-.51,14.28"/><path class="cls-1" d="M53.34,77.36a11.49,11.49,0,0,0,1.56,8.45c1.07,1.67,2.58,3.07,3.32,4.9a10.28,10.28,0,0,1,.5,4.76,22.63,22.63,0,0,1-2.18,7.85"/><path class="cls-1" d="M55,57a21.77,21.77,0,0,1-2-7.07c-.25-2.28,0-4.86,1.65-6.43"/><path class="cls-1" d="M48.52,58.19a17.29,17.29,0,0,1,1.6,4.2,7.19,7.19,0,0,1-.37,4.42c-.53,1.15-1.48,2.29-1.16,3.52"/><path class="cls-1" d="M49.18,88.17c.24,1.57,1.25,2.91,1.89,4.37,1.64,3.77.72,8.1-.23,12.1"/><path class="cls-1" d="M68.09,73c-1.18,1.25-1.32,3.13-1.37,4.85a15.75,15.75,0,0,0,.72,6.34,14.3,14.3,0,0,0,2.24,3.53"/><rect class="cls-1" x="78.91" y="41.01" width="25.68" height="67.91"/><path class="cls-1" d="M84.71,41c.32,1.72-1,3.24-1.77,4.82C81.41,49.14,82.56,53,84,56.38s3.18,6.81,2.77,10.43c-.35,3.07-2.21,5.75-3.08,8.73a13.87,13.87,0,0,0,.12,8.11c1.24,3.83,4.15,7.09,4.66,11.09.59,4.63-2.18,9.26-1.34,13.85"/><path class="cls-1" d="M93.15,41.29C90.67,44.2,88.63,47.82,89,51.63c.24,2.67,1.62,5.08,2.75,7.51s2,5.18,1.31,7.76c-.56,2-2,3.56-2.67,5.49-1.22,3.59.51,7.46,2.38,10.75s4,6.79,3.62,10.56c-.27,2.65-1.76,5-2.76,7.46s-1.44,5.53.21,7.62"/><path class="cls-1" d="M99.95,41c-1.46,3.66-2.78,7.59-2.11,11.48.57,3.32,2.53,6.27,3.1,9.59a11.89,11.89,0,0,1-.75,6.58c-.95,2.25-2.58,4.19-3.34,6.51-1,3.1-.37,6.5.67,9.6s2.45,6.09,3,9.31c.82,5-.55,10.09-1.92,15"/><path class="cls-1" d="M95.32,45.31A24.25,24.25,0,0,0,94,51.24a12.86,12.86,0,0,0,.24,4.56c.31,1.15.85,2.23,1.24,3.36,1.61,4.56.79,9.62-.51,14.28"/><path class="cls-1" d="M86.84,77.36a11.49,11.49,0,0,0,1.56,8.45c1.07,1.67,2.58,3.07,3.32,4.9a10.28,10.28,0,0,1,.5,4.76A22.63,22.63,0,0,1,90,103.32"/><path class="cls-1" d="M88.46,57a21.77,21.77,0,0,1-2-7.07c-.25-2.28,0-4.86,1.65-6.43"/><path class="cls-1" d="M82,58.19a17.29,17.29,0,0,1,1.6,4.2,7.19,7.19,0,0,1-.37,4.42c-.53,1.15-1.48,2.29-1.16,3.52"/><path class="cls-1" d="M82.68,88.17c.24,1.57,1.25,2.91,1.89,4.37,1.64,3.77.72,8.1-.23,12.1"/><path class="cls-1" d="M101.6,73c-1.18,1.25-1.32,3.13-1.37,4.85a15.75,15.75,0,0,0,.72,6.34,14.3,14.3,0,0,0,2.24,3.53"/></svg>