<?xml version="1.0" encoding="utf-8"?>
<!-- Generator: Adobe Illustrator 19.0.0, SVG Export Plug-In . SVG Version: 6.00 Build 0)  -->
<svg version="1.1" id="Capa_1" xmlns="http://www.w3.org/2000/svg" xmlns:xlink="http://www.w3.org/1999/xlink" x="0px" y="0px"
	 viewBox="-34 123.2 349.1 349.1" style="enable-background:new -34 123.2 349.1 349.1;" xml:space="preserve">
<style type="text/css">
	.st0{fill:#017ACD;}
</style>
<g>
	<path class="st0" d="M116.3,149.8v58.3c0,7.9-6.4,14.3-14.3,14.3c-28.2,0-43.5,28.9-45.6,86H102c7.9,0,14.3,6.4,14.3,14.3v123
		c0,7.9-6.4,14.3-14.3,14.3H-19.7c-7.9,0-14.3-6.4-14.3-14.3v-123c0-27.4,2.8-52.5,8.2-74.6c5.6-22.7,14.1-42.6,25.4-59
		c11.6-16.9,26.1-30.2,43.2-39.4c17.1-9.3,37.1-14,59.3-14C109.9,135.5,116.3,141.9,116.3,149.8z M300.8,222.4
		c7.9,0,14.3-6.4,14.3-14.3v-58.3c0-7.9-6.4-14.3-14.3-14.3c-22.2,0-42.1,4.7-59.2,14c-17,9.2-31.6,22.5-43.2,39.4
		c-11.3,16.5-19.8,36.3-25.4,59.1c-5.4,22.2-8.2,47.3-8.2,74.6v123c0,7.9,6.4,14.3,14.3,14.3h121.7c7.9,0,14.3-6.4,14.3-14.3v-123
		c0-7.9-6.4-14.3-14.3-14.3h-45C257.9,251.3,273,222.4,300.8,222.4z"/>
</g>
</svg>
