<?xml version="1.0" encoding="utf-8"?>
<!-- Generator: Adobe Illustrator 16.0.0, SVG Export Plug-In . SVG Version: 6.00 Build 0)  -->
<!DOCTYPE svg PUBLIC "-//W3C//DTD SVG 1.1//EN" "http://www.w3.org/Graphics/SVG/1.1/DTD/svg11.dtd">
<svg version="1.1" id="Layer_1" xmlns="http://www.w3.org/2000/svg" xmlns:xlink="http://www.w3.org/1999/xlink" x="0px" y="0px"
	 width="1000px" height="1000px" viewBox="0 0 1000 1000" enable-background="new 0 0 1000 1000" xml:space="preserve">
<rect fill="#1F1F1F" width="1000" height="1000"/>
<g>
	<g>
		<path fill="#FFFFFF" d="M455.157,221.969h245.054c35.041,0,63.717,28.665,63.717,63.711v389.053
			c0,35.042-28.676,63.718-63.717,63.718H455.157c-35.042,0-63.712-28.676-63.712-63.718V285.68
			C391.445,250.634,420.116,221.969,455.157,221.969z"/>
		<g>
			<path fill="#1F1F1F" d="M449.208,620.672h47.782c6.835,0,12.423,5.595,12.423,12.425v47.784c0,6.836-5.588,12.421-12.423,12.421
				h-47.782c-6.833,0-12.424-5.585-12.424-12.421v-47.784C436.784,626.267,442.375,620.672,449.208,620.672z"/>
			<path fill="#1F1F1F" d="M553.793,620.672h47.779c6.838,0,12.422,5.595,12.422,12.425v47.784c0,6.836-5.584,12.421-12.422,12.421
				h-47.779c-6.834,0-12.426-5.585-12.426-12.421v-47.784C541.367,626.267,546.959,620.672,553.793,620.672z"/>
			<path fill="#1F1F1F" d="M658.375,620.672h47.785c6.832,0,12.424,5.595,12.424,12.425v47.784c0,6.836-5.592,12.421-12.424,12.421
				h-47.785c-6.832,0-12.422-5.585-12.422-12.421v-47.784C645.953,626.267,651.543,620.672,658.375,620.672z"/>
			<path fill="#1F1F1F" d="M449.208,517.741h47.782c6.835,0,12.423,5.588,12.423,12.424v47.781c0,6.833-5.588,12.421-12.423,12.421
				h-47.782c-6.833,0-12.424-5.588-12.424-12.421v-47.781C436.784,523.329,442.375,517.741,449.208,517.741z"/>
			<path fill="#1F1F1F" d="M553.793,517.741h47.779c6.838,0,12.422,5.588,12.422,12.424v47.781c0,6.833-5.584,12.421-12.422,12.421
				h-47.779c-6.834,0-12.426-5.588-12.426-12.421v-47.781C541.367,523.329,546.959,517.741,553.793,517.741z"/>
			<path fill="#1F1F1F" d="M658.375,517.741h47.785c6.832,0,12.424,5.588,12.424,12.424v47.781c0,6.833-5.592,12.421-12.424,12.421
				h-47.785c-6.832,0-12.422-5.588-12.422-12.421v-47.781C645.953,523.329,651.543,517.741,658.375,517.741z"/>
			<path fill="#1F1F1F" d="M449.208,414.811h47.782c6.835,0,12.423,5.588,12.423,12.42v47.781c0,6.836-5.588,12.424-12.423,12.424
				h-47.782c-6.833,0-12.424-5.588-12.424-12.424V427.23C436.784,420.398,442.375,414.811,449.208,414.811z"/>
			<path fill="#1F1F1F" d="M553.793,414.811h47.779c6.838,0,12.422,5.588,12.422,12.42v47.781c0,6.836-5.584,12.424-12.422,12.424
				h-47.779c-6.834,0-12.426-5.588-12.426-12.424V427.23C541.367,420.398,546.959,414.811,553.793,414.811z"/>
			<path fill="#1F1F1F" d="M658.375,414.811h47.785c6.832,0,12.424,5.588,12.424,12.42v47.781c0,6.836-5.592,12.424-12.424,12.424
				h-47.785c-6.832,0-12.422-5.588-12.422-12.424V427.23C645.953,420.398,651.543,414.811,658.375,414.811z"/>
			<path fill="#1F1F1F" d="M457.835,258.938h239.69c11.584,0,21.055,9.472,21.055,21.053v80.969
				c0,11.576-9.471,21.048-21.055,21.048h-239.69c-11.578,0-21.051-9.472-21.051-21.048v-80.97
				C436.784,268.409,446.257,258.938,457.835,258.938z"/>
		</g>
	</g>
	<g>
		<circle fill="#FFFFFF" stroke="#1F1F1F" stroke-width="8" stroke-miterlimit="10" cx="348.06" cy="666.043" r="111.989"/>
		<g>
			<path fill="#1F1F1F" d="M389.733,629.58c-0.566-0.569-1.294-0.854-2.179-0.854H371.36c-1.073-5.236-3.093-9.789-6.063-13.64
				h22.063c0.886,0,1.611-0.281,2.18-0.851c0.568-0.566,0.851-1.295,0.851-2.18v-9.66c0-0.887-0.282-1.611-0.851-2.182
				c-0.568-0.564-1.294-0.851-2.18-0.851h-78.795c-0.885,0-1.609,0.284-2.179,0.851c-0.568,0.569-0.851,1.295-0.851,2.182v12.595
				c0,0.823,0.299,1.532,0.899,2.135c0.597,0.597,1.309,0.897,2.128,0.897h13.732c13.322,0,21.784,3.563,25.382,10.698h-39.114
				c-0.884,0-1.608,0.282-2.178,0.857c-0.568,0.565-0.851,1.288-0.851,2.172v9.66c0,0.888,0.281,1.611,0.851,2.182
				c0.569,0.566,1.294,0.853,2.178,0.853h40.441c-1.39,5.181-4.625,9.127-9.709,11.838c-5.082,2.715-11.789,4.078-20.122,4.078
				h-10.61c-0.82,0-1.532,0.295-2.128,0.895c-0.601,0.604-0.899,1.311-0.899,2.135v12.027c0,0.824,0.281,1.517,0.851,2.082
				c12.125,12.882,27.848,30.907,47.168,54.085c0.566,0.754,1.355,1.135,2.367,1.135h18.469c1.321,0,2.241-0.568,2.741-1.711
				c0.636-1.133,0.51-2.205-0.374-3.218c-18.437-22.603-32.927-39.528-43.472-50.769c10.73-1.258,19.444-4.732,26.136-10.415
				c6.692-5.681,10.769-13.072,12.221-22.156h15.91c0.884,0,1.612-0.284,2.179-0.857c0.568-0.568,0.853-1.294,0.853-2.175v-9.66
				C390.585,630.872,390.302,630.146,389.733,629.58L389.733,629.58z"/>
		</g>
	</g>
</g>
</svg>
