<?xml version="1.0" encoding="utf-8"?>
<!-- Generator: Adobe Illustrator 22.0.1, SVG Export Plug-In . SVG Version: 6.00 Build 0)  -->
<svg version="1.1" id="Layer_1" xmlns="http://www.w3.org/2000/svg" xmlns:xlink="http://www.w3.org/1999/xlink" x="0px" y="0px"
	 viewBox="0 0 1000 1000" style="enable-background:new 0 0 1000 1000;" xml:space="preserve">
<style type="text/css">
	.st0{fill:#1F1F1F;}
	.st1{fill:#FFFFFF;}
</style>
<rect y="0" class="st0" width="1000" height="1000"/>
<g>
	<g>
		<path class="st1" d="M409.5,303.5h197c6.3,0,11.4,5.1,11.4,11.4l0,0c0,6.3-5.1,11.4-11.4,11.4h-197c-6.3,0-11.4-5.1-11.4-11.4l0,0
			C398.1,308.6,403.2,303.5,409.5,303.5z"/>
		<path class="st1" d="M749.7,588c0,118.5-108.2,214.6-241.7,214.6S266.2,706.5,266.2,588c0-82.7,70.6-202.3,159.9-252.3h163.8
			C679.1,385.7,749.7,505.3,749.7,588L749.7,588z M425,294.1c-11.6-16.7-18.6-34.7-18.6-49.5c0-43.5,45.5-19,101.6-19
			c56.1,0,101.6-22.4,101.6,19c0,15.3-6.8,33.1-18,49.5H425z"/>
		<path class="st1" d="M387.2,297c-0.8-17.4-5.4-27.3-11-31.8c-0.4-0.3-0.9-0.7-1.3-0.9v-23.9c5.3,0.9,10.6,3.1,15.6,7.1
			c12.3,9.9,21.9,31.1,19.1,68.3h0c-0.1,1.2-0.4,2.4-0.8,3.5c-2.4,5.8-9.1,8.6-14.9,6.2c-7.1-3-13.4-6.1-19-9.3v-27.2
			C378.2,291.6,382.3,294.3,387.2,297z M374.9,264.3c-3.2-2-6.5-1.9-8.9-0.4c-2.5,1.5-4.1,4.8-3.1,9c1.1,4.8,4.8,10.4,12,16.2v27.2
			c-21.4-12.4-31.4-26.2-34.2-38.2c-3.5-14.9,3.1-27.3,13.6-33.6c6-3.6,13.3-5.2,20.6-4L374.9,264.3L374.9,264.3z"/>
		<path class="st1" d="M377.2,314c-7.7-3.6-14.2-5.6-19.6-6.3v-22.7c12.5,1.2,27.8,6.3,46,17.6c1.3,0.7,2.4,1.6,3.4,2.8
			c4,4.9,3.3,12-1.5,16c-18.6,15.5-34.7,23-47.8,25.3v-23.1C363.1,322,369.6,319,377.2,314z M357.6,307.6
			c-5.7-0.8-10.3-0.2-13.7,1.3c-4.2,1.8-6.1,5.2-5.9,8.4c0.2,3,2.3,5.9,6.4,6.9c3.4,0.9,7.8,0.8,13.2-0.7v23.1
			c-7.2,1.3-13.6,1-18.9-0.4c-14.8-3.9-22.8-15.5-23.5-27.7c-0.7-12,5.8-24.6,19.7-30.6c6-2.6,13.6-3.9,22.7-3L357.6,307.6
			L357.6,307.6z"/>
		<path class="st1" d="M385,310.8c1.6-6.1,7.9-9.7,14-8.1c6.1,1.6,9.7,7.9,8.1,13.9c-4.9,18.2-24.2,33.6-48.5,42.4
			c-22.6,8.2-50.2,11-74.4,5.2c-6.1-1.5-9.9-7.6-8.4-13.7c1.4-6.1,7.6-9.9,13.7-8.4c19.8,4.7,42.6,2.3,61.4-4.5
			C368.5,331.2,382.2,321.4,385,310.8z"/>
		<path class="st1" d="M384.7,313.3c0.2-6.3,5.4-11.2,11.7-11c6.3,0.2,11.2,5.4,11,11.7c0,1.1-0.1,2-0.2,2.8
			c-2.1,18.7-20.7,42.5-47.1,60.7c-25.6,17.7-59,30.9-92,29.9c-3.1-0.1-6.1-0.3-8.9-0.6c-6.3-0.7-10.8-6.3-10.1-12.6
			c0.7-6.3,6.3-10.8,12.6-10.1c2.5,0.3,4.9,0.5,7.1,0.5c27.7,0.9,56.3-10.6,78.4-25.9c21.2-14.7,36-32.1,37.4-44.5
			C384.6,313.9,384.7,313.5,384.7,313.3z"/>
	</g>
	<g>
		<path class="st0" d="M409,544v43.2h54.7v21.7H409v59.4h-27.2V522.4h92V544H409z"/>
		<path class="st0" d="M625.5,595.4c0,10.7-1.8,20.5-5.3,29.5c-3.6,8.9-8.6,16.6-15,23.1c-6.5,6.5-14.2,11.5-23.3,15
			c-9.1,3.6-19.2,5.3-30.3,5.3H496V522.4h55.6c11.1,0,21.2,1.8,30.3,5.4c9.1,3.6,16.8,8.6,23.3,15c6.5,6.4,11.5,14.1,15,23.1
			C623.8,574.8,625.5,584.7,625.5,595.4z M597.7,595.4c0-8-1.1-15.2-3.2-21.5c-2.1-6.4-5.2-11.7-9.2-16.1c-4-4.4-8.8-7.8-14.5-10.1
			c-5.7-2.4-12.1-3.5-19.2-3.5h-28.4v102.7h28.4c7.1,0,13.5-1.2,19.2-3.5c5.7-2.4,10.5-5.7,14.5-10.1c4-4.4,7.1-9.8,9.2-16.1
			C596.6,610.5,597.7,603.4,597.7,595.4z"/>
	</g>
</g>
</svg>
