<?xml version="1.0" encoding="utf-8"?>
<!-- Generator: Adobe Illustrator 22.0.1, SVG Export Plug-In . SVG Version: 6.00 Build 0)  -->
<svg version="1.1" id="Layer_1" xmlns="http://www.w3.org/2000/svg" xmlns:xlink="http://www.w3.org/1999/xlink" x="0px" y="0px"
	 viewBox="0 0 1000 1000" style="enable-background:new 0 0 1000 1000;" xml:space="preserve">
<style type="text/css">
	.st0{fill:#1F1F1F;}
	.st1{fill:#FFFFFF;}
</style>
<rect y="0" class="st0" width="1000" height="1000"/>
<g id="payU" transform="translate(72.000000, 66.000000)">
	<path class="st1" d="M715.6,333.9h-10.8c-10.9,0-19.8,8.9-19.8,19.8v124.4c0,0-1,21.6-37,21.6c-35.9,0-37-21.6-37-21.6V353.8
		c0-10.9-8.9-19.8-19.8-19.8h-21.7c-10.9,0-19.8,8.9-19.8,19.8v119.1c0,42.8,34.7,77.5,77.5,77.5h41.5c42.8,0,77.5-34.7,77.5-77.5
		v-90.2h23.5c5,0,9-4,9-9v-45.1c0-5-4-9-9-9h-45.1c-5,0-9,4-9,9L715.6,333.9L715.6,333.9z M715.6,333.9h10.8
		c10.9,0,19.8,8.9,19.8,19.8v28.9h-21.6c-5,0-9-4-9-9V333.9L715.6,333.9z M776.9,279.8c0-4,3.2-7.2,7.2-7.2h32.4
		c4,0,7.2,3.2,7.2,7.2v32.4c0,4-3.2,7.2-7.2,7.2h-32.4c-4,0-7.2-3.2-7.2-7.2V279.8z M746.3,247.4c0-3,2.4-5.4,5.4-5.4h21.7
		c3,0,5.4,2.4,5.4,5.4V269c0,3-2.4,5.4-5.4,5.4h-21.7c-3,0-5.4-2.4-5.4-5.4V247.4z M461.8,550.4c-0.6,0.1-4.1,0.6-4.1,0.6
		c-34.9,4.5-41.8-21.4-47.9-41.2l-30.4-113.1c-1.6-5.8,2-10.5,8-10.5h7.2c6,0,12.1,4.7,13.6,10.5c0,0,19.4,72,30.4,113.2
		c3.3,8.4,7.5,16.1,16.6,16.1c9.1,0,13.9-1.9,18.1-17.5l26.4-111.8c1.4-5.8,7.3-10.5,13.3-10.5h7.1c6,0,9.7,4.7,8.3,10.5l-34.9,143
		c-16.1,63.1-36.7,72.3-70.1,73.6c-10.2-1.3-15.4-22-7.1-25.3c0,0,16.8,0.1,26.5-6.9c10.5-7.6,15-19.8,17.4-26.8
		C460.5,554.3,461.6,550.8,461.8,550.4z"/>
	<path id="Path" class="st1" d="M340.5,453h-55c-26.4,0-47.8,21.4-47.8,47.8c0,26.4,21.4,47.8,47.8,47.8h36
		c26.4,0,47.8-21.4,47.8-47.8v-40.6v-28.9c0-48.7-52.3-48.7-66.7-48.7c-18.6,0-41.5,2.8-41.5,2.8c-4,0.4-7.2,4-7.2,8v10.8
		c0,4,3.2,6.9,7.2,6.4c0,0,25.1-2.8,40.1-2.8c14.3,0,39.3,0,39.3,23.4V453L340.5,453z M266.6,499.8c0-13.9,11.3-25.2,25.2-25.2h48.7
		v25.2c0,13.9-11.3,25.2-25.2,25.2h-23.5C277.9,525.1,266.6,513.8,266.6,499.8z"/>
	<path class="st1" d="M80.8,364.6c0-16.9,13.7-30.7,30.7-30.7h66.7c32.9,0,59.5,26.7,59.5,59.5v19.9c0,32.9-26.7,59.5-59.5,59.5
		h-66.7v66.7c0,5-4,9-9,9H89.8c-5,0-9-4-9-9L80.8,364.6L80.8,364.6z"/>
	<path class="st0" d="M111.5,371.6c0-4.9,3.9-8.8,8.9-8.8h47.9c22.4,0,40.6,18.2,40.6,40.6c0,22.4-18.1,40.6-40.6,40.6h-56.8
		L111.5,371.6L111.5,371.6z"/>
</g>
</svg>
