<?xml version="1.0" encoding="utf-8"?>
<!-- Generator: Adobe Illustrator 22.0.1, SVG Export Plug-In . SVG Version: 6.00 Build 0)  -->
<svg version="1.1" id="Layer_1" xmlns="http://www.w3.org/2000/svg" xmlns:xlink="http://www.w3.org/1999/xlink" x="0px" y="0px"
	 viewBox="0 0 1000 1000" style="enable-background:new 0 0 1000 1000;" xml:space="preserve">
<style type="text/css">
	.st0{fill:#1F1F1F;}
	.st1{fill:#FFFFFF;}
</style>
<rect y="0" class="st0" width="1000" height="1000"/>
<g>
	<path class="st1" d="M672.9,348.6c-2.4-2.4-5.5-3.6-9.3-3.6h-69c-4.6-22.3-13.2-41.7-25.8-58.1h93.9c3.8,0,6.9-1.2,9.3-3.6
		c2.4-2.4,3.6-5.5,3.6-9.3v-41.1c0-3.8-1.2-6.9-3.6-9.3c-2.4-2.4-5.5-3.6-9.3-3.6H327.3c-3.8,0-6.8,1.2-9.3,3.6
		c-2.4,2.4-3.6,5.5-3.6,9.3v53.6c0,3.5,1.3,6.5,3.8,9.1c2.5,2.5,5.6,3.8,9.1,3.8h58.5c56.7,0,92.7,15.2,108.1,45.6H327.3
		c-3.8,0-6.8,1.2-9.3,3.7c-2.4,2.4-3.6,5.5-3.6,9.2V399c0,3.8,1.2,6.9,3.6,9.3c2.4,2.4,5.5,3.6,9.3,3.6h172.2
		c-5.9,22.1-19.7,38.9-41.3,50.4c-21.6,11.6-50.2,17.4-85.7,17.4h-45.2c-3.5,0-6.5,1.3-9.1,3.8c-2.6,2.6-3.8,5.6-3.8,9.1v51.2
		c0,3.5,1.2,6.5,3.6,8.9c51.6,54.8,118.6,131.6,200.8,230.3c2.4,3.2,5.8,4.8,10.1,4.8h78.6c5.6,0,9.5-2.4,11.7-7.3
		c2.7-4.8,2.2-9.4-1.6-13.7c-78.5-96.2-140.2-168.3-185.1-216.1c45.7-5.4,82.8-20.1,111.3-44.3c28.5-24.2,45.8-55.7,52-94.3h67.7
		c3.8,0,6.9-1.2,9.3-3.7c2.4-2.4,3.6-5.5,3.6-9.3v-41.1C676.5,354.1,675.3,351,672.9,348.6L672.9,348.6z"/>
</g>
</svg>
