<?xml version="1.0" encoding="utf-8"?>
<!-- Generator: Adobe Illustrator 16.0.0, SVG Export Plug-In . SVG Version: 6.00 Build 0)  -->
<!DOCTYPE svg PUBLIC "-//W3C//DTD SVG 1.1//EN" "http://www.w3.org/Graphics/SVG/1.1/DTD/svg11.dtd">
<svg version="1.1" id="Layer_1" xmlns="http://www.w3.org/2000/svg" xmlns:xlink="http://www.w3.org/1999/xlink" x="0px" y="0px"
	 width="500px" height="500px" viewBox="0 0 500 500" enable-background="new 0 0 500 500" xml:space="preserve">
<g>
	<g>
		<path fill="#3399D5" d="M204.863,350.805c-1.572-1.218-14.058-10.664-48.697-12.963c-1.906-0.152-3.826-1.511-5.517-2.642
			c-2.154-1.434-4.392-2.938-6.021-4.878c-2.65-3.164-5.648-5.83-8.165-9.345c-16.843-23.479-33.345-28.192-35.811-29.123
			c-3.288-1.583-15.875,0.369-9.83,8.765c0.383,0.066,19.257,26.572,20.483,28.695c2.169,3.737,4.622,5.272,6.927,7.9
			c2.105,2.396,4.433,4.6,6.584,6.961c0,0-12.068-7.147-14.963-10.277c-1.29-1.409-1.909-3.412-2.934-5.075
			c-1.189-1.923-2.448-3.799-3.738-5.649c-1.615-2.305-3.238-4.607-4.951-6.844c-2.184-2.847-4.453-5.63-6.704-8.425
			c-1.403-1.744-2.982-3.423-4.14-5.242c-5.71-9.016,0.812-14.409,7.015-15.095c-0.301-1.04-3.154-28.31-3.652-32.881
			c-1.424-13.145-2.831-22.886-10.368-25.535c-1.94-0.688-3.314-0.457-4.761,1.072c-1.712,1.799-2.735,11.344-3.228,17.386
			c0,0-3.294,32.391-2.503,47.503c0.425,8.107,25.604,63.876,32.839,72.486c7.231,8.614,63.822,41.236,63.822,41.236
			c1.894,1.572,12.371,9.639,12.371,20.221v22.967l61.011,0.073l0.053-21.074c0.137-3.896,0.803-7.771,1.271-11.65
			c1.328-4.428,0.263-12.802-0.355-16.057C233.812,371.696,207.716,353.016,204.863,350.805z"/>
		<path fill="#3399D5" d="M427.607,247.61c-0.493-6.042-1.512-15.586-3.227-17.386c-1.444-1.528-2.819-1.759-4.766-1.072
			c-7.528,2.648-8.939,12.39-10.361,25.535c-0.501,4.571-3.354,31.841-3.654,32.881c6.203,0.686,12.725,6.079,7.013,15.095
			c-1.155,1.819-2.734,3.498-4.138,5.242c-2.251,2.795-4.524,5.578-6.708,8.425c-1.711,2.236-3.334,4.539-4.945,6.844
			c-1.29,1.851-2.553,3.727-3.739,5.649c-1.021,1.663-1.644,3.666-2.936,5.075c-2.895,3.13-14.963,10.277-14.963,10.277
			c2.15-2.361,4.481-4.564,6.586-6.961c2.307-2.628,4.755-4.163,6.926-7.9c1.229-2.123,20.103-28.629,20.486-28.695
			c6.047-8.396-6.544-10.348-9.831-8.765c-2.466,0.931-18.969,5.645-35.811,29.123c-2.517,3.515-5.515,6.181-8.163,9.345
			c-1.634,1.94-3.873,3.444-6.026,4.878c-1.691,1.131-3.613,2.489-5.517,2.642c-34.639,2.299-47.122,11.745-48.697,12.963
			c-2.854,2.211-28.947,20.892-36.035,52.511c-0.622,3.255-1.684,11.629-0.353,16.057c0.464,3.879,1.129,7.755,1.271,11.65
			l0.052,21.074l61.01-0.073v-22.967c0-10.582,10.479-18.648,12.371-20.221c0,0,56.587-32.622,63.82-41.236
			c7.233-8.61,32.412-64.379,32.837-72.486C430.902,280.001,427.607,247.61,427.607,247.61z"/>
	</g>
	<g>
		<path fill="#3399D5" d="M259.928,248.263c0-8.639-6.295-15.798-14.537-17.225l-0.005-0.044l-3.226-8.249l3.512-4.659
			l25.918-74.267c-2.058-0.759-4.134-1.463-6.235-1.985l-12.351,12.438l-11.981-12.569c-0.029,0.011-0.067,0.007-0.116,0.022
			c-14.454,4.236-32.323,16.794-32.323,16.794c-6.465,4.614-12.696,9.694-18.414,15.586c-16.515,16.215-28.198,34.863-35.887,59.698
			c-2.089,6.731-2.39,16.247,1.981,21.777c5.431,6.863,8.481,10.442,43.661,10.442c0-0.08,42.478-0.24,42.478-0.24
			C252.07,265.783,259.928,257.924,259.928,248.263z M221.139,260.577c-5.314,0.021-10.625,0.051-14.609,0.075
			c-2.003,0.016-3.665,0.026-4.833,0.04c-0.421,0.004-1.054,0.011-1.773,0.092v-0.055c-32.828,0-35.2-2.995-39.503-8.436
			c-2.979-3.775-2.8-11.368-1.078-16.921c7.154-23.106,18.127-41.374,34.628-57.578c4.96-5.111,10.749-10.001,17.625-14.912
			l1.153-0.798l27.587,70.544c0.583,1.858,2.163,3.285,4.152,3.631c5.877,1.018,10.145,6.068,10.145,12.003
			c0,6.742-5.487,12.219-12.25,12.219C242.383,260.482,231.762,260.521,221.139,260.577z"/>
		<path fill="#3399D5" d="M316.732,180.86c-8.751-11.241-21.608-25.405-40.272-34.898l-14.299,90.878c0,0,2.348,7.166,2.348,11.424
			c0,12.182-9.915,22.098-22.106,22.098h-40.13c0,0,0,8.367,0,23.986c0,3.024,0.144,5.568,0.37,7.725H303.39
			c0.216-2.156,0.356-4.7,0.356-7.725v-61.861c4.534,15.058,8.107,36.334,8.107,66.049c0,1.208,0.128,2.394,0.357,3.536h34.625
			c0.23-1.143,0.353-2.328,0.353-3.536C347.188,230.663,329.888,196.8,316.732,180.86z"/>
		<path fill="#3399D5" d="M253.111,140.631c25.605,0,46.361-20.761,46.361-46.366c0-25.602-20.756-46.362-46.361-46.362
			c-25.604,0-46.362,20.76-46.362,46.362C206.75,119.871,227.508,140.631,253.111,140.631z"/>
	</g>
</g>
</svg>
