<?xml version="1.0" encoding="utf-8"?>
<!-- Generator: Adobe Illustrator 16.0.0, SVG Export Plug-In . SVG Version: 6.00 Build 0)  -->
<!DOCTYPE svg PUBLIC "-//W3C//DTD SVG 1.1//EN" "http://www.w3.org/Graphics/SVG/1.1/DTD/svg11.dtd">
<svg version="1.1" id="Layer_1" xmlns="http://www.w3.org/2000/svg" xmlns:xlink="http://www.w3.org/1999/xlink" x="0px" y="0px"
	 width="500px" height="500px" viewBox="0 0 500 500" enable-background="new 0 0 500 500" xml:space="preserve">
<g id="XMLID_46_">
	<path id="XMLID_57_" fill="#3399D5" d="M315.907,141.82v1.853c0,18.477-13.177,33.945-30.628,37.489
		c1.692,9.761,7.104,18.509,15.582,24.026c10.243,6.674,23.02,7.675,34.156,2.724l27.58-12.24l-30.887-45.642
		c-3.668-5.438-9.625-8.081-15.713-8.21H315.907L315.907,141.82z"/>
	<path id="XMLID_56_" fill="#3399D5" d="M215.781,239.931l-12.04,56.63l48.862,27.401l90.907-24.297
		c1.902-0.503,3.845-0.779,5.788-1.09L339.05,250.31l-5.837-27.449c-4.218,1.122-8.495,1.893-12.795,1.893
		c-9.451,0-18.833-2.714-27.043-8.047c-12.355-8.031-19.979-21.013-21.808-35.381c-18.208-2.935-32.189-18.632-32.189-37.653v-1.878
		h-2.757c-6.705,0.147-13.191,3.457-16.67,9.755l-64.736,117.798l33.938,19.027L215.781,239.931z"/>
	<path id="XMLID_55_" fill="#3399D5" d="M302.178,141.82l-10.923-0.008l-38.148-0.009v1.87c0,13.526,11.006,24.533,24.54,24.533
		c13.525,0,24.531-11.007,24.531-24.533V141.82L302.178,141.82z"/>
	<path id="XMLID_54_" fill="#3399D5" d="M474.03,353.948l-103.436-35.082c-7.127-2.422-14.842-2.684-22.15-0.724l-98.41,26.287
		L131.31,277.865c-18.42-10.364-41.732-3.772-52.055,14.648c-10.331,18.419-3.771,41.715,14.647,52.047l132.283,74.172
		c8.69,4.877,18.948,6.187,28.571,3.584l102.24-27.318l92.478,31.367c4.063,1.383,8.209,2.04,12.282,2.04
		c15.932,0,30.799-10.039,36.204-25.969C504.748,382.438,494.025,360.735,474.03,353.948z"/>
	<path id="XMLID_53_" fill="#3399D5" d="M58.804,276.217c3.234,0,6.372-0.416,9.403-1.083c11.169-2.462,20.73-9.152,26.882-18.362
		c4.616-6.924,7.331-15.233,7.331-24.174c0-24.108-19.532-43.634-43.617-43.634c-24.101,0-43.635,19.526-43.635,43.634
		C15.169,256.683,34.702,276.217,58.804,276.217z"/>
	<path id="XMLID_52_" fill="#3399D5" d="M466.527,437.762h-42.982H271.021h-47.819L70.785,350.079l-34.969-20.118
		c-11.468-6.593-26.052-2.65-32.626,8.803c-6.584,11.437-2.642,26.042,8.794,32.626l192.922,110.979
		c3.624,2.09,7.729,3.186,11.916,3.186h249.706c13.201,0,23.896-10.694,23.896-23.896c0-7.235-3.283-13.639-8.363-18.021
		C477.874,440.021,472.494,437.762,466.527,437.762z"/>
	<path id="XMLID_51_" fill="#3399D5" d="M378.709,188.517c0.868-6.617,6.29-11.786,13.143-11.786
		c7.438,0,13.479,6.023,13.479,13.476c0,7.438-6.04,13.477-13.479,13.477c-2.868,0-5.38-1.089-7.56-2.617l-13.606,6.048
		l-30.093,13.346c-2.169,0.967-4.444,1.528-6.696,2.171l12.542,18.551c3.738,5.526,9.852,8.542,16.119,8.542
		c3.227,0,6.471-0.796,9.486-2.47l51.349-28.727c9.38-5.234,12.713-17.085,7.478-26.466c-2.846-5.09-7.682-8.193-12.973-9.316
		c-1.342-4.674-3.821-8.836-7.228-12.119c-4.892-4.707-11.501-7.632-18.817-7.632c-11.614,0-21.466,7.331-25.377,17.572
		c-1.146,3.017-1.845,6.243-1.845,9.641c0,1.496,0.211,2.935,0.447,4.366L378.709,188.517z"/>
	<path id="XMLID_50_" fill="#3399D5" d="M253.106,125.919c6.819,4.064,14.688,6.56,23.206,6.56c9.624,0,18.517-3.031,25.865-8.128
		c5.724-3.967,10.331-9.283,13.729-15.403c3.626-6.527,5.878-13.94,5.878-21.939c0-5.665-1.163-11.038-3.065-16.029
		c-13.867,3.495-28.091,5.421-42.406,5.421c-14.299,0-28.529-1.927-42.413-5.421c-1.895,5-3.048,10.364-3.048,16.029
		c0,9.851,3.202,18.923,8.526,26.36C243.019,118.466,247.711,122.693,253.106,125.919z"/>
	<path id="XMLID_47_" fill="#3399D5" d="M234.526,58.583c13.688,3.674,27.733,5.511,41.788,5.511
		c14.056,0,28.107-1.837,41.789-5.511c1.723-0.463,2.771-2.227,2.349-3.967c-2.431-10.136-4.887-27.385-7.325-37.636
		c-0.203-0.869-0.747-1.609-1.512-2.073c-0.52-0.309-1.105-0.463-1.689-0.463c-0.285,0-0.578,0.032-0.846,0.105
		c-10.746,2.82-21.759,4.227-32.774,4.227c-11.015,0-22.02-1.406-32.757-4.227c-0.276-0.073-0.561-0.105-0.837-0.105
		c-0.595,0-1.179,0.154-1.699,0.463c-0.764,0.463-1.308,1.204-1.512,2.064c-2.447,10.251-4.9,27.507-7.331,37.651
		C231.755,56.356,232.786,58.121,234.526,58.583z M264.764,34.304h5.397v-5.397h12.291v5.397h5.405v12.298h-5.405v5.39h-12.291
		v-5.39h-5.397V34.304L264.764,34.304z"/>
</g>
</svg>
