<?xml version="1.0" encoding="utf-8"?>
<!-- Generator: Adobe Illustrator 16.0.0, SVG Export Plug-In . SVG Version: 6.00 Build 0)  -->
<!DOCTYPE svg PUBLIC "-//W3C//DTD SVG 1.1//EN" "http://www.w3.org/Graphics/SVG/1.1/DTD/svg11.dtd">
<svg version="1.1" id="Layer_1" xmlns="http://www.w3.org/2000/svg" xmlns:xlink="http://www.w3.org/1999/xlink" x="0px" y="0px"
	 width="500px" height="500px" viewBox="0 0 500 500" enable-background="new 0 0 500 500" xml:space="preserve">
<g>
	<rect x="75" y="114.527" fill="none" width="349.999" height="269.999"/>
	<path fill="#3199D5" d="M255.934,140.824h-11.999v12.336h-12.332v12h12.332v12.332h11.999V165.16h12.336v-12h-12.336V140.824z
		 M255.934,140.824"/>
	<rect x="125.528" y="218.203" fill="#3199D5" width="248.815" height="12"/>
	<rect x="125.528" y="244.613" fill="#3199D5" width="248.815" height="12"/>
	<rect x="125.528" y="271.022" fill="#3199D5" width="248.815" height="12"/>
	<rect x="125.528" y="297.433" fill="#3199D5" width="248.815" height="12"/>
	<rect x="125.528" y="191.792" fill="#3199D5" width="62.203" height="12"/>
	<rect x="312.141" y="191.792" fill="#3199D5" width="62.207" height="12"/>
	<rect x="296.426" y="323.838" fill="#3199D5" width="77.918" height="12"/>
	<rect x="296.426" y="350.248" fill="#3199D5" width="77.918" height="12"/>
	<rect x="125.528" y="323.838" fill="#3199D5" width="77.918" height="12"/>
	<rect x="125.528" y="350.248" fill="#3199D5" width="77.918" height="12"/>
	<path fill="#3199D5" d="M418.87,372.514h-19.534V170.292c0-3.312-2.685-6-6-6h-98.771v-43.765c0-3.313-2.683-6-6-6h-77.264
		c-3.313,0-6,2.687-6,6v43.765h-98.766c-3.316,0-6,2.688-6,6v202.222H81c-3.312,0-6,2.684-6,6c0,3.313,2.688,6,6,6h337.87
		c3.317,0,6-2.688,6-6C424.87,375.197,422.184,372.514,418.87,372.514L418.87,372.514z M217.302,126.527h65.264v65.265h-65.264
		V126.527z M229.743,372.514v-36.612h14.196v36.612H229.743z M255.938,372.514v-36.612h14.191v36.612H255.938z M282.129,372.514
		v-42.612c0-3.313-2.688-6-6-6h-52.386c-3.312,0-6,2.687-6,6v42.612H112.536V176.292h92.766v21.5c0,3.313,2.687,6,6,6h77.264
		c3.317,0,6-2.687,6-6v-21.5h92.771v196.222H282.129z M282.129,372.514"/>
	<rect x="75.001" y="114.754" fill="none" width="349.919" height="270.719"/>
</g>
</svg>
