<?xml version="1.0" encoding="utf-8"?>
<!-- Generator: Adobe Illustrator 16.0.0, SVG Export Plug-In . SVG Version: 6.00 Build 0)  -->
<!DOCTYPE svg PUBLIC "-//W3C//DTD SVG 1.1//EN" "http://www.w3.org/Graphics/SVG/1.1/DTD/svg11.dtd">
<svg version="1.1" id="Layer_1" xmlns="http://www.w3.org/2000/svg" xmlns:xlink="http://www.w3.org/1999/xlink" x="0px" y="0px"
	 width="500px" height="500px" viewBox="0 0 500 500" enable-background="new 0 0 500 500" xml:space="preserve">
<g>
	<g>
		<path fill="#3399D5" d="M470.642,243.16l-22.473-5.301c27.091-48.198-4.658-79.125-35.654-84.565
			c-55.749-9.761-98.854,27.399-141.285,26.794c13.12-7.412,28.063-23.832,39.736-45.325c18.787-34.474,22.137-68.869,7.511-76.846
			c-12.822-7.006-35.237,8.661-53.213,35.832c-1.169-3.468-2.199-6.917-3.665-10.404C242.118,36.911,203.928,8.7,176.311,20.313
			c-27.567,11.604-34.117,58.623-14.615,105.058c9.948,23.603,24.693,42.401,40.429,53.757
			c-36.496-14.913-71.049-46.999-110.338-40.826c-40.647,6.412-45.275,67.194-62.428,64.558l9.255,50.199
			c38.319,0.654,39.637-64.082,77.965-68.709c53.4-6.461,91.214,21.979,124.845,6.649c4.796-2.17,8.186-3.587,9.869-4.667
			c0.853,0,1.565,0.088,2.457,0.049c12.743,15.131,89.381-13.942,141.008-0.654c25.507,6.56,18.113,54.104,13.774,79.203
			L470.642,243.16z M242.216,177.036c-2.061,0.853-4.241,1.328-6.48,1.526c-0.119,0.02-0.258,0.04-0.396,0.079
			c-16.548,1.12-36.465-15.825-47.306-41.618c-12.377-29.49-8.235-59.366,9.294-66.729c17.539-7.343,41.797,10.553,54.183,40.063
			c0.733,1.684,1.188,3.369,1.764,5.073c-11.474,24.793-14.724,48.029-8.838,60.188C243.703,176.065,243.069,176.68,242.216,177.036
			z M251.174,169.595c-3.706-7.938-1.426-23.079,6.223-39.112C260.172,146.496,257.872,160.766,251.174,169.595z M262.648,174.846
			c10.008-14.913,12.624-38.557,7.194-64.39c10.226-12.604,21.503-19.194,28.399-15.398c9.294,5.054,7.175,26.903-4.757,48.802
			C284.33,160.686,272.063,172.558,262.648,174.846z"/>
		<polygon fill="#3399D5" points="305.693,404.272 277.513,301.95 249.311,404.272 221.11,301.95 192.968,404.272 164.777,301.95 
			122.484,301.95 122.484,482.298 376.168,482.298 376.168,301.95 333.896,301.95 		"/>
		<rect x="111.912" y="207.478" fill="#3399D5" width="274.799" height="84.563"/>
	</g>
</g>
</svg>
