<?xml version="1.0" encoding="utf-8"?>
<!-- Generator: Adobe Illustrator 16.0.0, SVG Export Plug-In . SVG Version: 6.00 Build 0)  -->
<!DOCTYPE svg PUBLIC "-//W3C//DTD SVG 1.1//EN" "http://www.w3.org/Graphics/SVG/1.1/DTD/svg11.dtd">
<svg version="1.1" id="Layer_1" xmlns="http://www.w3.org/2000/svg" xmlns:xlink="http://www.w3.org/1999/xlink" x="0px" y="0px"
	 width="500px" height="500px" viewBox="0 0 500 500" enable-background="new 0 0 500 500" xml:space="preserve">
<g>
	<g>
		<g>
			<path fill="#3399D5" d="M499.892,299.302c0-66.364-27.339-153.147-103.426-184.295V81.755l22.624-18.1
				c2.044-1.636,3.233-4.113,3.232-6.731V8.659c0-4.76-3.859-8.619-8.619-8.619h-25.856c-2.286,0-4.478,0.909-6.094,2.525
				l-11.144,11.144L359.465,2.565c-1.616-1.616-3.808-2.525-6.094-2.525h-34.476c-2.286,0-4.477,0.909-6.093,2.525l-11.145,11.144
				L290.515,2.565c-1.616-1.616-3.808-2.525-6.094-2.525h-25.856c-4.76,0-8.618,3.859-8.618,8.619v48.265
				c-0.001,2.618,1.187,5.095,3.231,6.731l22.624,18.1v33.251c-76.085,31.148-103.424,117.966-103.424,184.295
				c-0.162,15.563,2.256,31.046,7.153,45.818c-3.706-0.207-7.438-0.328-11.161-0.328h-21.849c0-4.76-3.859-8.618-8.619-8.618H68.951
				c-4.76,0-8.619,3.858-8.619,8.618H0v17.238h60.332v86.188H0v17.238h60.332c0,4.76,3.859,8.618,8.619,8.618h68.951
				c4.76,0,8.619-3.858,8.619-8.618v-3.284l64.349,26.719c35.079,14.326,74.294,14.762,109.682,1.215l133.144-50.773
				c7.888-2.997,14.235-9.047,17.608-16.781c5.178-11.552,2.981-25.077-5.585-34.397
				C488.918,364.545,501.291,332.374,499.892,299.302z M129.283,456.837H77.57V353.411h51.713V456.837z M267.184,52.787v-35.51
				h13.669l14.713,14.712c3.365,3.365,8.82,3.365,12.187,0l14.712-14.712h27.339l14.713,14.712c3.365,3.365,8.821,3.365,12.187,0
				l14.713-14.712h13.67v35.51L384.821,68.99h-97.393L267.184,52.787z M379.228,86.228v25.856H293.04V86.228H379.228z
				 M455.496,415.604c-1.522,3.519-4.399,6.275-7.981,7.645l-133.144,50.766c-31.285,11.984-65.958,11.611-96.978-1.043
				l-70.873-29.468V362.03h21.849c28.578,0.033,56.759,6.686,82.334,19.436c8.445,4.216,17.754,6.413,27.192,6.421h66.856
				c7.14,0.046,12.891,5.871,12.844,13.011c-0.039,5.98-4.175,11.155-10,12.51c-1.129,0.104-2.232,0.336-3.379,0.336h-102.89v17.237
				h102.89c0.182,0,0.354,0,0.535,0c0.172,0,0.336-0.052,0.517-0.052c6.84-0.11,13.596-1.542,19.893-4.215l72.062-30.588
				c3.433-1.465,7.315-1.465,10.748,0c3.57,1.508,6.371,4.404,7.757,8.024C457.193,407.846,457.109,411.973,455.496,415.604z
				 M450.359,378.889c-6.594-1.767-13.587-1.285-19.875,1.37L374.6,403.986c0.163-1.05,0.27-2.109,0.319-3.172
				c0-16.66-13.506-30.166-30.166-30.166h-66.856c-6.764-0.009-13.434-1.585-19.487-4.602c-18.705-9.302-38.74-15.646-59.391-18.807
				c-6.441-15.148-9.645-31.479-9.403-47.938c0-62.054,25.348-143.511,96.53-169.979h99.979
				c71.183,26.469,96.531,107.925,96.531,169.979C484.103,329.287,472.292,358.392,450.359,378.889z"/>
		</g>
	</g>
	<g>
		<g>
			<rect x="94.808" y="422.361" fill="#3399D5" width="17.238" height="17.238"/>
		</g>
	</g>
	<g>
		<g>
			<path fill="#3399D5" d="M336.134,155.179c-52.36,0-94.806,42.447-94.806,94.807c0.062,52.333,42.472,94.746,94.806,94.806
				c52.36,0,94.808-42.446,94.808-94.806C430.941,197.625,388.494,155.179,336.134,155.179z M336.134,327.555
				c-42.84,0-77.569-34.729-77.569-77.569c0.048-42.82,34.749-77.522,77.569-77.569c42.841,0,77.569,34.729,77.569,77.569
				C413.703,292.826,378.975,327.555,336.134,327.555z"/>
		</g>
	</g>
	<path fill="#3399D5" d="M364.813,224.892c-0.39-0.391-0.89-0.587-1.5-0.587H352.17c-0.739-3.604-2.129-6.737-4.172-9.385h15.183
		c0.61,0,1.11-0.196,1.5-0.586c0.391-0.391,0.586-0.891,0.586-1.5v-6.649c0-0.609-0.195-1.109-0.586-1.5
		c-0.39-0.39-0.89-0.586-1.5-0.586h-54.226c-0.609,0-1.109,0.196-1.5,0.586c-0.391,0.391-0.586,0.891-0.586,1.5v8.668
		c0,0.567,0.207,1.055,0.621,1.469c0.41,0.41,0.898,0.617,1.465,0.617h9.449c9.168,0,14.992,2.452,17.469,7.362h-26.918
		c-0.609,0-1.109,0.196-1.5,0.591c-0.391,0.391-0.586,0.887-0.586,1.495v6.649c0,0.609,0.195,1.109,0.586,1.5
		c0.391,0.39,0.891,0.586,1.5,0.586h27.832c-0.957,3.566-3.184,6.281-6.684,8.148c-3.496,1.866-8.113,2.805-13.848,2.805h-7.301
		c-0.566,0-1.055,0.203-1.465,0.617c-0.414,0.414-0.621,0.901-0.621,1.469v8.276c0,0.566,0.195,1.043,0.586,1.435
		c8.344,8.862,19.164,21.269,32.461,37.218c0.391,0.52,0.933,0.782,1.629,0.782h12.711c0.91,0,1.543-0.392,1.886-1.177
		c0.438-0.78,0.352-1.52-0.257-2.215c-12.688-15.555-22.661-27.203-29.918-34.937c7.387-0.868,13.382-3.259,17.988-7.168
		c4.604-3.911,7.409-8.997,8.409-15.25h10.949c0.61,0,1.11-0.196,1.5-0.59c0.392-0.391,0.586-0.891,0.586-1.496v-6.648
		C365.399,225.783,365.205,225.283,364.813,224.892L364.813,224.892z M364.813,224.892"/>
</g>
</svg>
