<?xml version="1.0" encoding="utf-8"?>
<!-- Generator: Adobe Illustrator 16.0.0, SVG Export Plug-In . SVG Version: 6.00 Build 0)  -->
<!DOCTYPE svg PUBLIC "-//W3C//DTD SVG 1.1//EN" "http://www.w3.org/Graphics/SVG/1.1/DTD/svg11.dtd">
<svg version="1.1" id="Layer_1" xmlns="http://www.w3.org/2000/svg" xmlns:xlink="http://www.w3.org/1999/xlink" x="0px" y="0px"
	 width="500px" height="500px" viewBox="0 0 500 500" enable-background="new 0 0 500 500" xml:space="preserve">
<g>
	<g>
		<path fill="#3399D5" d="M383.4,8.34H155.292L47.774,121.866v301.687H383.4V8.34z M145.83,56.083v50.312H98.162L145.83,56.083z
			 M357.411,397.61H73.717V132.339h98.04V34.283h185.668L357.411,397.61L357.411,397.61z"/>
		<rect x="104.828" y="205.291" fill="#3399D5" width="219.867" height="29.23"/>
		<rect x="104.828" y="263.048" fill="#3399D5" width="219.867" height="29.215"/>
		<rect x="104.828" y="323.403" fill="#3399D5" width="219.867" height="29.23"/>
		<polygon fill="#3399D5" points="397.297,76.446 397.297,102.39 426.252,102.39 426.252,465.717 142.542,465.717 142.542,437.434 
			116.6,437.434 116.6,491.659 452.226,491.659 452.226,76.446 		"/>
	</g>
</g>
</svg>
