<?xml version="1.0" encoding="utf-8"?>
<!-- Generator: Adobe Illustrator 16.0.0, SVG Export Plug-In . SVG Version: 6.00 Build 0)  -->
<!DOCTYPE svg PUBLIC "-//W3C//DTD SVG 1.1//EN" "http://www.w3.org/Graphics/SVG/1.1/DTD/svg11.dtd">
<svg version="1.1" id="Layer_1" xmlns="http://www.w3.org/2000/svg" xmlns:xlink="http://www.w3.org/1999/xlink" x="0px" y="0px"
	 width="500px" height="500px" viewBox="0 0 500 500" enable-background="new 0 0 500 500" xml:space="preserve">
<g>
	<path fill="#FFFFFF" d="M269.654,202.206c2.337,0,4.309,1.92,4.309,4.293v3.72h3.704c2.379,0,4.31,1.919,4.31,4.293
		c0,2.337-1.931,4.262-4.31,4.262h-3.704v3.751c0,2.337-1.972,4.262-4.309,4.262c-2.368,0-4.257-1.925-4.257-4.262v-3.751h-3.756
		c-2.327,0-4.257-1.925-4.257-4.262c0-2.374,1.93-4.293,4.257-4.293h3.756v-3.72C265.397,204.125,267.286,202.206,269.654,202.206
		L269.654,202.206z"/>
	<path fill="#3199D5" d="M300.577,183.175v139.587c0,2.337-1.92,4.268-4.288,4.268H184.647c-2.332,0-4.257-1.931-4.257-4.268
		V183.175c0-2.384,1.925-4.304,4.257-4.304h28.045v-9.808c0-2.332,1.92-4.251,4.304-4.251h46.98c2.348,0,4.309,1.92,4.309,4.251
		v9.808h28.004C298.657,178.871,300.577,180.791,300.577,183.175L300.577,183.175z"/>
	<path fill="#FFFFFF" d="M278.669,236.38h-76.361c-2.384,0-4.304,1.243-4.304,2.78c0,1.503,1.92,2.75,4.304,2.75h76.361
		c2.389,0,4.309-1.247,4.309-2.75C282.978,237.624,281.058,236.38,278.669,236.38L278.669,236.38z"/>
	<path fill="#FFFFFF" d="M278.669,249.156h-76.361c-2.384,0-4.304,1.24-4.304,2.776c0,1.511,1.92,2.758,4.304,2.758h76.361
		c2.389,0,4.309-1.247,4.309-2.758C282.978,250.396,281.058,249.156,278.669,249.156L278.669,249.156z"/>
	<path fill="#FFFFFF" d="M278.669,261.935h-76.361c-2.384,0-4.304,1.24-4.304,2.75c0,1.537,1.92,2.777,4.304,2.777h76.361
		c2.389,0,4.309-1.24,4.309-2.777C282.978,263.148,281.058,261.935,278.669,261.935L278.669,261.935z"/>
	<path fill="#FFFFFF" d="M254.374,275.52h-53.363c-1.666,0-3.008,0.866-3.008,1.94c0,1.056,1.342,1.922,3.008,1.922h53.363
		c1.669,0,3.01-0.866,3.01-1.922C257.384,276.386,256.043,275.52,254.374,275.52L254.374,275.52z"/>
	<path fill="#FFFFFF" d="M275.868,201.225c2.337,0,4.309,1.92,4.309,4.293v3.72h3.704c2.379,0,4.31,1.919,4.31,4.293
		c0,2.337-1.931,4.262-4.31,4.262h-3.704v3.751c0,2.337-1.972,4.262-4.309,4.262c-2.368,0-4.257-1.925-4.257-4.262v-3.751h-3.756
		c-2.327,0-4.257-1.925-4.257-4.262c0-2.374,1.93-4.293,4.257-4.293h3.756v-3.72C271.611,203.145,273.5,201.225,275.868,201.225
		L275.868,201.225z"/>
	<path d="M319.609,229.917"/>
	<circle fill="#FFFFFF" cx="285.927" cy="303.438" r="31.75"/>
	<g>
		<path fill="#3199D5" d="M285.927,280.079l-18.573,7.316l0.972,9.281c1.266,12.103,7.68,23.076,17.602,30.119
			c9.923-7.043,16.336-18.017,17.603-30.119l0.971-9.281L285.927,280.079z M300.689,296.54
			c-1.102,10.531-6.453,20.167-14.763,26.667c-8.308-6.5-13.66-16.136-14.763-26.667l-0.754-7.201l15.517-6.113l15.518,6.113
			L300.689,296.54z"/>
		<polygon fill="#3199D5" points="292.761,303.318 292.761,300.233 287.471,300.233 287.471,294.945 284.385,294.945 
			284.385,300.233 279.095,300.233 279.095,303.318 284.385,303.318 284.385,308.609 287.471,308.609 287.471,303.318 		"/>
	</g>
</g>
</svg>
