<?xml version="1.0" encoding="utf-8"?>
<!-- Generator: Adobe Illustrator 16.0.0, SVG Export Plug-In . SVG Version: 6.00 Build 0)  -->
<!DOCTYPE svg PUBLIC "-//W3C//DTD SVG 1.1//EN" "http://www.w3.org/Graphics/SVG/1.1/DTD/svg11.dtd">
<svg version="1.1" id="Layer_1" xmlns="http://www.w3.org/2000/svg" xmlns:xlink="http://www.w3.org/1999/xlink" x="0px" y="0px"
	 width="500px" height="500px" viewBox="0 0 500 500" enable-background="new 0 0 500 500" xml:space="preserve">
<g>
	<g>
		<g>
			<path fill="#3399D5" d="M415.599,260.271c-4.019,0-7.276,3.258-7.276,7.275c0,5.095-4.145,9.239-9.239,9.239
				c-5.094,0-9.239-4.145-9.239-9.239c0-4.02-3.258-7.276-7.276-7.276s-7.276,3.258-7.276,7.276
				c0,13.119,10.674,23.792,23.792,23.792s23.792-10.674,23.792-23.792C422.875,263.526,419.617,260.271,415.599,260.271z"/>
		</g>
	</g>
	<g>
		<g>
			<path fill="#3399D5" d="M483.9,261.459l-20.48-6.561c-2.623-0.842-4.69-2.936-5.529-5.603
				c-4.316-13.723-10.83-26.607-19.36-38.294c-3.888-5.327-8.211-10.414-12.934-15.257c3.021-13.255,4.664-28.256,4.451-41.215
				c-0.305-18.54-4.01-29.415-11.326-33.247c-3.94-2.066-15.933-8.344-80.842,21.369c-1.537,0.703-2.973,1.569-4.302,2.562
				c-4.376-1.176-8.849-2.264-13.349-3.24c-0.542-0.118-1.101-0.223-1.646-0.338c5.26-11.49,8.331-23.97,8.908-36.853
				c0.18-4.016-2.929-7.416-6.944-7.595c-4.005-0.199-7.416,2.928-7.595,6.943c-0.948,21.183-9.735,41.113-24.74,56.12
				c-8.966,8.966-19.464,15.479-30.652,19.58c-19.403-2.723-39.167-2.723-58.57,0c-11.189-4.102-21.687-10.614-30.652-19.58
				c-16.01-16.01-24.827-37.296-24.827-59.938c0-22.643,8.817-43.928,24.827-59.938c16.01-16.011,37.297-24.828,59.938-24.828
				c22.64,0,43.927,8.817,59.937,24.828c6.434,6.434,11.75,13.775,15.801,21.819c1.808,3.59,6.184,5.035,9.772,3.227
				c3.59-1.807,5.034-6.183,3.227-9.771c-4.749-9.433-10.977-18.033-18.508-25.566c-18.759-18.759-43.7-29.09-70.228-29.09
				c-26.528,0-51.47,10.331-70.229,29.09c-18.759,18.76-29.09,43.7-29.09,70.229s10.331,51.47,29.09,70.229
				c5.411,5.411,11.298,10.064,17.524,13.963c0.002,0,0.004-0.001,0.006-0.001c-4.524,1.176-9.015,2.496-13.455,3.98
				c-3.812,1.274-5.868,5.396-4.594,9.209c1.273,3.812,5.397,5.868,9.208,4.595c39.684-13.267,83.394-13.267,123.078,0
				c0.766,0.256,1.543,0.377,2.308,0.377c3.044,0,5.882-1.926,6.9-4.972c1.274-3.812-0.782-7.935-4.594-9.209
				c-4.441-1.484-8.931-2.806-13.455-3.98c0.001,0,0.004,0.001,0.005,0.001c6.228-3.898,12.113-8.552,17.524-13.963
				c4.787-4.787,9.013-10.015,12.682-15.57c2.006,0.39,3.997,0.798,5.959,1.224c2.613,0.567,5.215,1.177,7.793,1.816
				c-0.081,0.316-0.164,0.632-0.231,0.953c-3.549,16.841-3.318,31.735,0.685,44.268c3.598,11.265,10.091,20.391,19.297,27.126
				c10.851,7.938,23.95,11.366,35.816,11.366c8.931,0,17.164-1.943,23.211-5.368c6.84-3.874,12.57-12.037,17.106-24.293
				c2.097,2.447,4.084,4.954,5.957,7.521c7.595,10.404,13.393,21.871,17.232,34.08c2.255,7.171,7.853,12.813,14.973,15.096
				l20.48,6.561c5.374,1.722,8.984,6.668,8.984,12.311v33.96c0,5.643-3.61,10.589-8.984,12.311l-32.997,10.569
				c-5.279,1.692-9.747,5.32-12.58,10.217c-12.964,22.404-33.346,40.944-60.583,55.105c-3.146,1.638-5.326,4.566-5.982,8.037
				l-10.568,55.96c-0.292,1.541-1.643,2.659-3.212,2.659h-34.362c-1.569,0-2.92-1.119-3.212-2.66l-5.854-30.927
				c-1.152-6.085-6.859-10.127-13.002-9.196c-14.802,2.238-30.054,3.372-45.329,3.372c-11.365,0-22.585-0.634-33.35-1.885
				c-5.952-0.685-11.497,3.373-12.609,9.25l-5.563,29.386c-0.292,1.542-1.643,2.66-3.212,2.66h-34.362
				c-1.569,0-2.92-1.119-3.216-2.684l-10.176-52.854c-0.655-3.405-2.794-6.3-5.871-7.943c-46.429-24.785-70.97-66.195-70.97-119.75
				c0-27.059,5.92-50.986,17.595-71.118c10.895-18.789,26.807-34.323,47.294-46.173c3.479-2.013,4.667-6.464,2.655-9.943
				c-2.012-3.479-6.463-4.665-9.942-2.655c-39.726,22.981-63.686,58.434-70.282,103.463v-0.001c-0.7-0.064-1.401-0.125-2.1-0.197
				c0.127-4.858-0.752-9.761-2.666-14.519c-4.222-10.494-12.894-18.068-22.094-19.295c-7.25-0.971-14.149,2.107-18.938,8.434
				c-6.942,9.173-5.811,16.433-3.64,20.908c3.665,7.552,13.086,12.894,28.72,16.252c-0.43,0.644-0.902,1.29-1.42,1.939
				c-9.237,11.585-20.12,14.146-27.187,14.388C6.312,294.84,3,298.161,3,302.301v0.034c0,4.083,3.221,7.413,7.3,7.6
				c0.522,0.024,1.068,0.037,1.637,0.037c8.941,0,23.292-3.298,37.079-20.586c2.177-2.729,3.95-5.607,5.313-8.582
				c1.373,0.155,2.692,0.288,3.956,0.405c0-0.003,0-0.005,0.001-0.008c-0.248,3.943-0.386,7.944-0.386,12.016
				c0,30.301,7.224,57.317,21.469,80.303c13.135,21.191,31.94,38.543,55.913,51.592l9.893,51.383
				c1.591,8.406,8.955,14.508,17.511,14.508h34.362c8.556,0,15.92-6.102,17.511-14.508l5.029-26.57
				c10.445,1.106,21.26,1.667,32.192,1.667c15,0,29.982-1.045,44.584-3.107l5.301,28.013c1.592,8.406,8.956,14.507,17.511,14.507
				h34.362c8.556,0,15.92-6.102,17.512-14.511l10.29-54.483c29.07-15.372,50.982-35.565,65.141-60.034
				c1.021-1.764,2.592-3.058,4.424-3.645l32.996-10.569c11.423-3.66,19.099-14.177,19.099-26.172v-33.961
				C502.999,275.635,495.323,265.118,483.9,261.459z M414.402,174.978c-2.801,23.951-10.313,44.439-17.862,48.715
				c-8.58,4.86-28.39,5.799-43.263-5.081c-14.891-10.893-19.847-30.48-14.334-56.647c0-0.001,0-0.001,0-0.001
				c0.554-2.628,2.421-4.901,4.994-6.079c36.43-16.675,57.433-22.129,65.235-22.129c1.178,0,2.055,0.124,2.639,0.352
				C414.155,136.605,417.229,150.806,414.402,174.978z M23.43,255.767c-0.753-1.554,1.024-4.283,2.151-5.773
				c1.786-2.359,3.432-2.842,4.675-2.842c0.263,0,0.508,0.021,0.732,0.052c3.346,0.446,8.033,4.128,10.517,10.301
				c0.585,1.453,1.345,3.86,1.522,6.862C32.955,262.28,25.128,259.271,23.43,255.767z"/>
		</g>
	</g>
	<path fill="#3399D5" d="M256.412,80.58c-0.39-0.39-0.89-0.586-1.5-0.586H243.77c-0.739-3.605-2.129-6.738-4.172-9.386h15.182
		c0.61,0,1.11-0.196,1.5-0.586c0.391-0.391,0.586-0.891,0.586-1.5v-6.649c0-0.609-0.195-1.109-0.586-1.5
		c-0.39-0.39-0.89-0.586-1.5-0.586h-54.225c-0.609,0-1.109,0.196-1.5,0.586c-0.391,0.391-0.586,0.891-0.586,1.5v8.668
		c0,0.567,0.207,1.055,0.621,1.469c0.41,0.41,0.898,0.617,1.465,0.617h9.449c9.168,0,14.992,2.453,17.469,7.363h-26.918
		c-0.609,0-1.109,0.196-1.5,0.59c-0.391,0.391-0.586,0.887-0.586,1.496v6.649c0,0.609,0.195,1.109,0.586,1.5
		c0.391,0.39,0.891,0.586,1.5,0.586h27.832c-0.957,3.566-3.184,6.281-6.684,8.148c-3.496,1.867-8.113,2.805-13.848,2.805h-7.301
		c-0.566,0-1.055,0.203-1.465,0.617c-0.414,0.414-0.621,0.902-0.621,1.469v8.277c0,0.566,0.195,1.043,0.586,1.435
		c8.344,8.862,19.164,21.269,32.461,37.218c0.391,0.52,0.933,0.782,1.629,0.782h12.711c0.91,0,1.543-0.392,1.886-1.177
		c0.438-0.78,0.352-1.52-0.257-2.215c-12.688-15.555-22.661-27.203-29.918-34.937c7.387-0.868,13.382-3.259,17.988-7.168
		c4.604-3.911,7.409-8.997,8.409-15.25h10.948c0.61,0,1.11-0.196,1.5-0.59c0.392-0.391,0.586-0.891,0.586-1.496V82.08
		C256.998,81.47,256.804,80.97,256.412,80.58L256.412,80.58z M256.412,80.58"/>
</g>
</svg>
