<?xml version="1.0" encoding="utf-8"?>
<!-- Generator: Adobe Illustrator 16.0.0, SVG Export Plug-In . SVG Version: 6.00 Build 0)  -->
<!DOCTYPE svg PUBLIC "-//W3C//DTD SVG 1.1//EN" "http://www.w3.org/Graphics/SVG/1.1/DTD/svg11.dtd">
<svg version="1.1" id="Layer_1" xmlns="http://www.w3.org/2000/svg" xmlns:xlink="http://www.w3.org/1999/xlink" x="0px" y="0px"
	 width="500px" height="499.999px" viewBox="0 0 500 499.999" enable-background="new 0 0 500 499.999" xml:space="preserve">
<g>
	<path fill="#3399D5" d="M398.398,206.859c-1.464,0-2.967,0.209-4.467,0.623l-15.757,4.34l-16.658-40.572
		c-4.992-12.161-19.746-22.055-32.894-22.055h-11.084v-33.637c0-5.913-4.812-10.721-10.723-10.721h-113.63
		c-5.913,0-10.722,4.808-10.722,10.721v33.637h-11.313c-13.146,0-27.904,9.893-32.895,22.052l-16.634,40.517l-15.553-4.283
		c-1.499-0.414-3.003-0.625-4.466-0.625c-8.019,0.002-13.84,6.129-13.84,14.569v8.625c0,9.854,8.017,17.869,17.871,17.869h1.147
		l-2.38,5.791c-4.637,11.298-8.412,30.428-8.412,42.637v80.945c0,9.854,8.016,17.87,17.87,17.87h21.482
		c9.855,0,17.87-8.017,17.87-17.87v-19.895h193.352v19.895c0,9.854,8.016,17.87,17.866,17.87h21.479
		c9.856,0,17.871-8.017,17.871-17.871v-80.942c0-12.211-3.772-31.339-8.411-42.639l-2.38-5.79h1.377
		c9.854,0,17.87-8.017,17.87-17.87v-8.623C412.236,212.986,406.417,206.859,398.398,206.859z"/>
	<path fill="#FFFFFF" d="M134.25,237.959l25.311-61.656c2.986-7.274,11.863-13.226,19.726-13.226h141.202
		c7.863,0,16.737,5.951,19.724,13.226l25.313,61.656c2.986,7.274-1.004,13.225-8.868,13.225h-213.54
		C135.253,251.184,131.263,245.234,134.25,237.959z"/>
	<path fill="#FFFFFF" d="M191.428,317.36c0,3.931-3.217,7.148-7.148,7.148h-48.312c-3.932,0-7.147-3.218-7.147-7.148v-22.92
		c0-3.931,3.215-7.147,7.147-7.147h48.312c3.931,0,7.148,3.217,7.148,7.147V317.36L191.428,317.36z"/>
	<path fill="#FFFFFF" d="M370.491,317.36c0,3.931-3.216,7.148-7.148,7.148h-48.313c-3.93,0-7.146-3.218-7.146-7.148v-22.92
		c0-3.931,3.217-7.147,7.146-7.147h48.313c3.933,0,7.148,3.217,7.148,7.147V317.36L370.491,317.36z"/>
	<g enable-background="new    ">
		<path fill="#FFFFFF" d="M227.399,142.267c0.385,0,0.727,0.149,1.025,0.446l2.784,3.021c-1.541,1.909-3.437,3.371-5.687,4.386
			c-2.25,1.016-4.951,1.523-8.103,1.523c-2.819,0-5.354-0.481-7.604-1.445c-2.25-0.962-4.171-2.302-5.765-4.019
			c-1.594-1.716-2.815-3.764-3.664-6.146c-0.85-2.381-1.274-4.981-1.274-7.801c0-2.854,0.455-5.467,1.366-7.841
			c0.911-2.373,2.194-4.417,3.848-6.133c1.655-1.716,3.629-3.051,5.923-4.005c2.294-0.954,4.833-1.432,7.618-1.432
			c2.767,0,5.222,0.456,7.368,1.367c2.145,0.911,3.97,2.101,5.476,3.572l-2.363,3.283c-0.141,0.21-0.32,0.394-0.539,0.552
			c-0.219,0.157-0.521,0.236-0.906,0.236c-0.263,0-0.535-0.074-0.814-0.223c-0.28-0.149-0.587-0.333-0.919-0.552
			s-0.718-0.459-1.156-0.723c-0.438-0.262-0.945-0.502-1.523-0.722c-0.578-0.219-1.247-0.402-2.009-0.551
			c-0.762-0.149-1.642-0.224-2.64-0.224c-1.699,0-3.252,0.303-4.663,0.907c-1.409,0.604-2.623,1.48-3.638,2.626
			c-1.016,1.147-1.804,2.548-2.364,4.203s-0.84,3.542-0.84,5.66c0,2.137,0.302,4.037,0.906,5.7c0.604,1.664,1.422,3.064,2.456,4.203
			c1.033,1.138,2.25,2.009,3.651,2.613c1.401,0.604,2.907,0.906,4.518,0.906c0.962,0,1.833-0.052,2.614-0.157
			c0.779-0.105,1.497-0.271,2.153-0.499c0.657-0.227,1.278-0.521,1.865-0.879c0.586-0.359,1.169-0.801,1.746-1.327
			c0.175-0.157,0.359-0.285,0.552-0.381C226.988,142.315,227.189,142.267,227.399,142.267z"/>
		<path fill="#FFFFFF" d="M268.608,151.224h-5.462c-0.614,0-1.112-0.154-1.497-0.46c-0.387-0.306-0.675-0.687-0.867-1.143
			l-2.837-7.749h-15.732l-2.837,7.749c-0.14,0.403-0.412,0.771-0.814,1.103c-0.402,0.333-0.902,0.5-1.498,0.5h-5.516l14.946-37.982
			h7.195L268.608,151.224z M256.133,136.883l-4.622-12.634c-0.229-0.56-0.464-1.226-0.709-1.997
			c-0.246-0.77-0.491-1.602-0.735-2.495c-0.228,0.893-0.465,1.729-0.709,2.508c-0.246,0.78-0.482,1.458-0.71,2.036l-4.596,12.582
			H256.133z"/>
		<path fill="#FFFFFF" d="M285.629,113.242c2.486,0,4.615,0.237,6.384,0.709c1.769,0.473,3.216,1.148,4.347,2.023
			c1.129,0.876,1.956,1.935,2.482,3.178c0.525,1.244,0.788,2.645,0.788,4.203c0,0.893-0.132,1.747-0.395,2.561
			c-0.264,0.814-0.67,1.576-1.221,2.286c-0.553,0.709-1.252,1.353-2.102,1.931c-0.851,0.577-1.86,1.068-3.033,1.471
			c5.217,1.173,7.826,3.992,7.826,8.458c0,1.611-0.306,3.1-0.92,4.465c-0.612,1.366-1.505,2.544-2.679,3.533
			c-1.173,0.99-2.617,1.765-4.333,2.325s-3.678,0.841-5.884,0.841h-14.342v-37.982H285.629z M279.613,118.706v10.979h5.622
			c2.417,0,4.242-0.438,5.476-1.313c1.235-0.875,1.853-2.268,1.853-4.176c0-1.979-0.561-3.389-1.682-4.229
			c-1.12-0.84-2.871-1.26-5.253-1.26H279.613z M286.759,145.708c1.313,0,2.417-0.157,3.309-0.472
			c0.894-0.316,1.607-0.735,2.141-1.261c0.535-0.526,0.92-1.139,1.157-1.838c0.236-0.7,0.354-1.445,0.354-2.233
			c0-0.823-0.13-1.563-0.394-2.219c-0.263-0.657-0.675-1.217-1.233-1.682c-0.562-0.463-1.283-0.818-2.167-1.063
			c-0.886-0.245-1.95-0.368-3.192-0.368h-7.119v11.137H286.759z"/>
	</g>
</g>
</svg>
