<?xml version="1.0" encoding="utf-8"?>
<!-- Generator: Adobe Illustrator 16.0.0, SVG Export Plug-In . SVG Version: 6.00 Build 0)  -->
<!DOCTYPE svg PUBLIC "-//W3C//DTD SVG 1.1//EN" "http://www.w3.org/Graphics/SVG/1.1/DTD/svg11.dtd">
<svg version="1.1" id="Layer_1" xmlns="http://www.w3.org/2000/svg" xmlns:xlink="http://www.w3.org/1999/xlink" x="0px" y="0px"
	 width="500px" height="500px" viewBox="0 0 500 500" enable-background="new 0 0 500 500" xml:space="preserve">
<g>
	<rect id="XMLID_290_" x="224.188" y="137.093" fill="#3399D5" width="29.794" height="62.981"/>
	<path id="XMLID_287_" fill="#3399D5" d="M195.501,85.523c0.253,23.886,19.643,43.173,43.586,43.173
		c23.943,0,43.343-19.287,43.616-43.173c8.443-0.223,15.257-7.08,15.257-15.586c-0.001-32.459-26.391-58.87-58.874-58.87
		c-32.454,0-58.862,26.411-58.862,58.87C180.225,78.444,187.02,85.301,195.501,85.523z M207.77,40.317v4.436
		c0,4.325,3.495,7.828,7.813,7.828c4.337,0,7.842-3.503,7.842-7.828V29.767c2.502-0.986,5.125-1.755,7.83-2.251v17.236
		c0,4.325,3.495,7.828,7.832,7.828c4.331,0,7.843-3.503,7.843-7.828V27.516c2.717,0.496,5.31,1.271,7.824,2.251v14.985
		c0,4.325,3.494,7.828,7.831,7.828c4.331,0,7.83-3.503,7.83-7.828v-4.436c7.321,7.735,11.891,18.115,11.891,29.621h-86.425
		C195.879,58.432,200.433,48.052,207.77,40.317z"/>
	<path id="XMLID_286_" fill="#3399D5" d="M292.061,267.95h-0.06v-49.873l5.833,9.836c1.028,1.708,2.293,3.26,3.813,4.565
		l39.269,34.124c0,0,7.213,5.729,10.328,7.288c5.097,2.55,10.908,3.728,10.908,3.728c4.774-0.339,9.441-2.269,12.81-6.15
		c6.773-7.787,5.949-19.57-1.834-26.332l-0.998-0.86l-19.465-16.931l-24.26-21.072l-35.551-59.914
		c-5.376-9.084-13.16-9.268-23.202-9.268c0,105.499,0,98.808,0,146.521h22.409c0,71.266,0,4.528,0,167.25h-44.817V333.058h-16.317
		v117.807h-44.789c0-162.255,0-96.174,0-167.25h22.391c0-47.689,0-41.007,0-146.521c-10.814,0-19.673,1.193-24.147,11.048
		l-62.23,136.341c-4.3,9.377-0.156,20.449,9.22,24.726c9.334,4.27,20.431,0.183,24.719-9.227l30.095-65.9v33.869h-0.048
		c-8.667,0-15.674,7.013-15.674,15.664v167.25c0,8.651,7.006,15.664,15.674,15.664c0,12.37,10.025,22.404,22.391,22.404
		c12.371,0,22.397-10.035,22.397-22.404c3.002,0,5.785-0.835,8.16-2.291c2.387,1.454,5.183,2.291,8.156,2.291
		c0,12.37,10.043,22.404,22.409,22.404c12.37,0,22.409-10.035,22.409-22.404c8.636,0,15.661-7.012,15.661-15.664v-167.25
		C307.722,274.963,300.696,267.95,292.061,267.95z"/>
</g>
</svg>
