<?xml version="1.0" encoding="utf-8"?>
<!-- Generator: Adobe Illustrator 21.0.2, SVG Export Plug-In . SVG Version: 6.00 Build 0)  -->
<svg version="1.1" id="Layer_1" xmlns="http://www.w3.org/2000/svg" xmlns:xlink="http://www.w3.org/1999/xlink" x="0px" y="0px"
	 viewBox="0 0 800 800" style="enable-background:new 0 0 800 800;" xml:space="preserve">
<style type="text/css">
	.st0{fill:none;stroke:#049DE9;stroke-width:6;stroke-miterlimit:10;}
</style>
<g transform="translate(1 1)">
	<g>
		<g>
			<path class="st0" d="M759,118.9H39c-22.7,0-40,17.3-40,40v266.7c0,22.7,17.3,40,40,40h720c22.7,0,40-17.3,40-40V158.9
				C799,136.3,781.7,118.9,759,118.9z M772.3,425.6c0,8-5.3,13.3-13.3,13.3H39c-8,0-13.3-5.3-13.3-13.3V158.9
				c0-8,6.7-13.3,13.3-13.3h720c8,0,13.3,5.3,13.3,13.3V425.6L772.3,425.6z"/>
			<path class="st0" d="M345.7,238.9h106.7c8,0,13.3-5.3,13.3-13.3s-5.3-13.3-13.3-13.3H345.7c-8,0-13.3,5.3-13.3,13.3
				C332.3,233.6,337.6,238.9,345.7,238.9z"/>
			<path class="st0" d="M732.3,385.6H65.7c-8,0-13.3,5.3-13.3,13.3c0,8,5.3,13.3,13.3,13.3h666.7c8,0,13.3-5.3,13.3-13.3
				C745.7,391,740.4,385.6,732.3,385.6z"/>
			<path class="st0" d="M732.3,332.2H65.7c-8,0-13.3,5.3-13.3,13.3c0,8,5.3,13.3,13.3,13.3h666.7c8,0,13.3-5.3,13.3-13.3
				C745.7,337.5,740.4,332.2,732.3,332.2z"/>
			<path class="st0" d="M405.7,560.3c-13.3-6.7-20-14.7-20-21.4c0-6.7,8-14.7,18.6-22.7c6.7-2.7,8-10.6,5.3-17.3
				c-2.7-6.7-10.6-9.4-17.3-5.3c-21.4,12-33.3,28-33.3,45.3c0,17.3,12,33.3,33.3,46.7c13.3,6.7,20,14.7,20,21.4
				c0,6.7-8,14.7-20,21.4c-6.7,2.7-9.4,10.6-5.3,17.3c2.7,4.1,6.7,6.7,12,6.7c2.7,0,4.1,0,6.7-1.4c21.4-12,33.3-28,33.3-45.3
				S427,571,405.7,560.3z"/>
			<path class="st0" d="M259,586.9c-13.3-6.7-20-14.7-20-21.4c0-6.7,8-14.7,18.6-22.7c6.7-2.7,9.4-10.6,5.3-17.3
				c-2.7-6.7-10.6-9.4-17.3-5.3c-21.4,12-33.3,28-33.3,45.3c0,17.3,12,33.3,33.3,46.7c13.3,6.7,20,14.7,20,21.4
				c0,6.7-8,14.7-20,21.4c-6.7,2.7-9.4,10.6-5.3,17.3c2.7,4.1,6.7,6.7,12,6.7c2.7,0,4.1,0,6.7-1.4c21.4-12,33.3-28,33.3-45.3
				S280.4,597.5,259,586.9z"/>
			<path class="st0" d="M552.3,586.9c-13.3-6.7-20-14.7-20-21.4c0-6.7,8-14.7,18.6-22.7c6.7-2.7,8-10.6,5.3-17.3
				c-2.7-6.7-10.6-9.4-17.3-5.3c-21.4,12-33.3,28-33.3,45.3c0,17.3,12,33.3,33.3,46.7c13.3,6.7,20,14.7,20,21.4
				c0,6.7-8,14.7-20,21.4c-6.7,2.7-9.4,10.6-5.3,17.3c2.7,4.1,6.7,6.7,12,6.7c2.7,0,4.1,0,6.7-1.4c21.4-12,33.3-28,33.3-45.3
				S573.7,597.5,552.3,586.9z"/>
		</g>
	</g>
</g>
</svg>
