<?xml version="1.0" encoding="utf-8"?>
<!-- Generator: Adobe Illustrator 21.0.2, SVG Export Plug-In . SVG Version: 6.00 Build 0)  -->
<svg version="1.1" id="Capa_1" xmlns="http://www.w3.org/2000/svg" xmlns:xlink="http://www.w3.org/1999/xlink" x="0px" y="0px"
	 viewBox="0 0 800 800" style="enable-background:new 0 0 800 800;" xml:space="preserve">
<style type="text/css">
	.st0{fill:none;stroke:#049DE9;stroke-width:6;stroke-miterlimit:10;}
</style>
<path class="st0" d="M169.3,9v782h461.4V9H169.3z M618.8,676.1h-10.5V361.3h10.5V676.1z M477.9,21.1v25.6l-19.7,19.7V21.1H477.9z
	 M477.9,674.6l-19.7,19.7v-26.6l19.7-19.7V674.6z M458.3,255.4l19.7-19.7v75.1l-19.7,19.7V255.4z M458.3,636.9l19.7-19.7V631
	l-19.7,19.7V636.9z M477.9,600.2l-19.7,19.7V476.2l19.7-19.7V600.2z M477.9,439.5l-19.7,19.7v-14.3l19.7-19.7V439.5z M477.9,408.1
	l-19.7,19.7v-80.1l19.7-19.7V408.1z M477.9,218.7l-19.7,19.7v-20.5l19.7-19.7V218.7z M477.9,181.1l-19.7,19.7V83.5l19.7-19.7V181.1z
	 M458.3,711.4l19.7-19.7v54.2h-19.7V711.4z M406.2,21.1h40.1v724.8h-40.1V21.1z M394.1,21.1v724.8H354V21.1H394.1z M341.9,674.6
	l-19.7,19.7v-26.6l19.7-19.7V674.6z M341.9,631.1l-19.7,19.7v-13.9l19.7-19.7V631.1z M341.9,600.2l-19.7,19.7V476.2l19.7-19.7V600.2
	z M341.9,439.5l-19.7,19.7v-14.3l19.7-19.7V439.5z M341.9,408.1l-19.7,19.7v-80.1l19.7-19.7V408.1z M341.9,310.9l-19.7,19.7v-75.1
	l19.7-19.7V310.9z M341.9,218.7l-19.7,19.7v-20.5l19.7-19.7V218.7z M341.9,181.1l-19.7,19.7V83.5l19.7-19.7V181.1z M322.2,711.4
	l19.7-19.7v54.2h-19.7V711.4z M341.9,21.1v25.6l-19.7,19.7V21.1H341.9z M181.4,361.3h10.5v314.6h-10.5V361.3z M181.4,688.2h22.6
	V349.2h-22.6V21.1h128.8v724.8H181.4C181.4,745.9,181.4,688.2,181.4,688.2z M618.8,778.9H181.4v-21h437.3L618.8,778.9L618.8,778.9z
	 M490,745.9V21.1h128.8v328.1h-22.6V688h22.6v57.7H490V745.9z"/>
</svg>
