<?xml version="1.0" encoding="utf-8"?>
<!-- Generator: Adobe Illustrator 21.0.2, SVG Export Plug-In . SVG Version: 6.00 Build 0)  -->
<svg version="1.1" id="Layer_1" xmlns="http://www.w3.org/2000/svg" xmlns:xlink="http://www.w3.org/1999/xlink" x="0px" y="0px"
	 viewBox="0 0 800 800" style="enable-background:new 0 0 800 800;" xml:space="preserve">
<style type="text/css">
	.st0{fill:none;stroke:#049DE9;stroke-width:6;stroke-miterlimit:10;}
</style>
<g>
	<g>
		<g>
			<rect x="178" y="8.6" class="st0" width="444.1" height="23.9"/>
		</g>
	</g>
	<g>
		<g>
			<polygon class="st0" points="195.4,42.9 195.4,66.9 218.2,66.9 218.2,188.7 242.2,188.7 242.2,66.9 387.9,66.9 387.9,403.2 
				412.1,403.2 412.1,66.9 557.8,66.9 557.8,403.2 581.8,403.2 581.8,66.9 604.6,66.9 604.6,42.9 			"/>
		</g>
	</g>
	<g>
		<g>
			<path class="st0" d="M638.3,708.2v-96.4c13.7-4.9,23.5-18.1,23.5-33.4c0-15.3-9.8-28.5-23.5-33.4v-73.3h-23.9V545
				c-13.7,4.9-23.5,18.1-23.5,33.4c0,15.3,9.8,28.5,23.5,33.4v96.4h-89.2v-96.4c13.7-4.9,23.5-18.1,23.5-33.4
				c0-15.3-9.8-28.5-23.5-33.4v-96.4h148.9v-23.9H126.1v23.9h35.7V545c-13.7,4.9-23.5,18.1-23.5,33.4c0,15.3,9.8,28.5,23.5,33.4
				v96.4h-35.7v12.1c0,39.2,31.9,71.2,71.2,71.2h405.5c39.2,0,71.2-31.9,71.2-71.2v-12.1H638.3L638.3,708.2z M626.4,566.9
				c6.4,0,11.6,5.2,11.6,11.6s-5.2,11.6-11.6,11.6s-11.6-5.2-11.6-11.6S620,566.9,626.4,566.9z M513.2,566.9
				c6.4,0,11.6,5.2,11.6,11.6s-5.2,11.6-11.6,11.6c-6.4,0-11.6-5.2-11.6-11.6S506.8,566.9,513.2,566.9z M412.1,611.8
				c13.7-4.9,23.5-18.1,23.5-33.4c0-15.3-9.8-28.5-23.5-33.4v-96.4h89.2V545c-13.7,4.9-23.5,18.1-23.5,33.4
				c0,15.3,9.8,28.5,23.5,33.4v96.4h-89.2V611.8z M400,566.9c6.4,0,11.6,5.2,11.6,11.6S406.4,590,400,590c-6.4,0-11.6-5.2-11.6-11.6
				S393.6,566.9,400,566.9z M298.9,611.8c13.7-4.9,23.5-18.1,23.5-33.4c0-15.3-9.8-28.5-23.5-33.4v-96.4h89.2V545
				c-13.7,4.9-23.5,18.1-23.5,33.4c0,15.3,9.8,28.5,23.5,33.4v96.4h-89.2V611.8z M286.8,566.9c6.4,0,11.6,5.2,11.6,11.6
				s-5.2,11.6-11.6,11.6c-6.4,0-11.6-5.2-11.6-11.6S280.5,566.9,286.8,566.9z M185.7,611.8c13.7-4.9,23.5-18.1,23.5-33.4
				c0-15.3-9.8-28.5-23.5-33.4v-96.4h89.2V545c-13.7,4.9-23.5,18.1-23.5,33.4c0,15.3,9.8,28.5,23.5,33.4v96.4h-89.2
				C185.7,708.2,185.7,611.8,185.7,611.8z M173.6,566.9c6.4,0,11.6,5.2,11.6,11.6S180,590,173.6,590s-11.6-5.2-11.6-11.6
				S167.3,566.9,173.6,566.9z M602.8,767.3H197.2c-21.8,0-40.4-15-45.6-35.2h496.9C643.2,752.4,624.8,767.3,602.8,767.3z"/>
		</g>
	</g>
	<g>
		<g>
			<rect x="218.2" y="216.5" class="st0" width="23.9" height="23.9"/>
		</g>
	</g>
	<g>
		<g>
			<rect x="218.2" y="269.3" class="st0" width="23.9" height="133.9"/>
		</g>
	</g>
	<g>
		<g>
			
				<rect x="250.5" y="195.7" transform="matrix(0.5736 -0.8192 0.8192 0.5736 -41.1737 336.2889)" class="st0" width="103.9" height="23.9"/>
		</g>
	</g>
	<g>
		<g>
			
				<rect x="273.5" y="238.2" transform="matrix(0.5736 -0.8192 0.8192 0.5736 -66.094 373.2878)" class="st0" width="103.9" height="23.9"/>
		</g>
	</g>
	<g>
		<g>
			
				<rect x="422.5" y="195.7" transform="matrix(0.5736 -0.8192 0.8192 0.5736 32.159 477.2081)" class="st0" width="103.9" height="23.9"/>
		</g>
	</g>
	<g>
		<g>
			
				<rect x="445.7" y="238.3" transform="matrix(0.5736 -0.8192 0.8192 0.5736 7.1777 514.3748)" class="st0" width="103.9" height="23.9"/>
		</g>
	</g>
</g>
</svg>
