<?xml version="1.0" encoding="utf-8"?>
<!-- Generator: Adobe Illustrator 21.0.2, SVG Export Plug-In . SVG Version: 6.00 Build 0)  -->
<svg version="1.1" id="Layer_1" xmlns="http://www.w3.org/2000/svg" xmlns:xlink="http://www.w3.org/1999/xlink" x="0px" y="0px"
	 viewBox="0 0 500 500" style="enable-background:new 0 0 500 500;" xml:space="preserve">
<style type="text/css">
	.st0{fill:none;stroke:#049DE9;stroke-width:3;stroke-miterlimit:10;}
</style>
<title>Balcony</title>
<path class="st0" d="M148.8,267.7V96.5c0-5.8,4.7-10.5,10.5-10.5l0,0h199.4c5.8,0,10.5,4.7,10.5,10.5l0,0v171.3"/>
<path class="st0" d="M171.3,267.7V122c0-5.8,4.7-10.5,10.5-10.5l0,0h153c5.8,0,10.5,4.7,10.5,10.5l0,0v145.7"/>
<line class="st0" x1="258.5" y1="111.5" x2="258.5" y2="272.7"/>
<line class="st0" x1="259" y1="173.4" x2="345.3" y2="173.4"/>
<line class="st0" x1="171.3" y1="173.4" x2="240.3" y2="173.4"/>
<path class="st0" d="M92.1,307.2c0-10.8,8.8-19.6,19.6-19.6h296.5c10.8,0,19.6,8.8,19.6,19.6l0,0"/>
<path class="st0" d="M142.3,287.6l-15.1,96.4c-0.3,1.6-0.1,3.3,0.4,4.9l11.6,35.5"/>
<path class="st0" d="M171.3,287.6l-11,96c-0.2,1.4-0.1,2.8,0.3,4.1l10.6,36.7"/>
<path class="st0" d="M200.7,287.6l-8.4,99.1c-0.1,1.1,0,2.2,0.3,3.3l8.1,33.3"/>
<path class="st0" d="M115.6,287.6L98.6,380c-0.3,1.7-0.2,3.4,0.3,5l10,31.9c1.4,4.4,5.4,7.4,10,7.4H400c4.6,0,8.6-3,10-7.4l10-31.9
	c0.5-1.6,0.6-3.4,0.3-5l-17-92.4"/>
<path class="st0" d="M376.7,287.6l15.1,96.4c0.3,1.6,0.1,3.3-0.4,4.9L380,424.3"/>
<path class="st0" d="M347.8,287.6l11,96c0.2,1.4,0.1,2.8-0.3,4.1l-10.6,36.7"/>
<path class="st0" d="M318.4,287.6l8.3,99.1c0.1,1.1,0,2.2-0.3,3.3l-8,33.3"/>
<line class="st0" x1="228.5" y1="287.6" x2="228.5" y2="423.2"/>
<line class="st0" x1="288" y1="287.6" x2="288" y2="423.2"/>
<line class="st0" x1="258.5" y1="287.6" x2="258.5" y2="423.2"/>
<path class="st0" d="M121.8,424.3h273.3c5.8,0,10.5,4.7,10.5,10.5l0,0c0,5.8-4.7,10.5-10.5,10.5H121.8c-5.8,0-10.5-4.7-10.5-10.5
	l0,0C111.3,429,116,424.3,121.8,424.3z"/>
</svg>
