<?xml version="1.0" encoding="utf-8"?>
<!-- Generator: Adobe Illustrator 21.0.2, SVG Export Plug-In . SVG Version: 6.00 Build 0)  -->
<svg version="1.1" id="Layer_1" xmlns="http://www.w3.org/2000/svg" xmlns:xlink="http://www.w3.org/1999/xlink" x="0px" y="0px"
	 viewBox="0 0 800 800" style="enable-background:new 0 0 800 800;" xml:space="preserve">
<style type="text/css">
	.st0{fill:none;stroke:#049DE9;stroke-width:6;stroke-miterlimit:10;}
</style>
<title>bathroom</title>
<g>
	<rect x="3.7" y="4.4" class="st0" width="305.6" height="787.6"/>
	<path class="st0" d="M529.4,141v-37.6c1.6-50.8,44.3-90.3,95.1-88.7c48.2,1.6,87.1,40.5,88.7,88.7v387.9H529.4"/>
	<path class="st0" d="M309.3,491.2h403.9l0,0v111.5c0,72-58.5,130.5-130.5,130.5H309l0,0L309.3,491.2L309.3,491.2z"/>
	<line class="st0" x1="713.2" y1="491.2" x2="800" y2="491.2"/>
	<path class="st0" d="M469,141h112.1c8.4,0,15.1,6.7,15.1,15.1l0,0c0,8.4-6.7,15.1-15.1,15.1H469c-8.4,0-15.1-6.7-15.1-15.1l0,0
		C453.9,147.7,460.7,141,469,141z"/>
	<rect x="454.9" y="242.2" class="st0" width="33.4" height="33.4"/>
	<rect x="560.9" y="242.2" class="st0" width="33.4" height="33.4"/>
	<rect x="454.9" y="349.5" class="st0" width="33.4" height="33.4"/>
	<rect x="560.9" y="349.5" class="st0" width="33.4" height="33.4"/>
	<line class="st0" x1="553.9" y1="732.9" x2="553.9" y2="791.7"/>
	<line class="st0" x1="166" y1="4.4" x2="166" y2="791.7"/>
</g>
</svg>
