<?xml version="1.0" encoding="utf-8"?>
<!-- Generator: Adobe Illustrator 21.0.2, SVG Export Plug-In . SVG Version: 6.00 Build 0)  -->
<svg version="1.1" id="Layer_1" xmlns="http://www.w3.org/2000/svg" xmlns:xlink="http://www.w3.org/1999/xlink" x="0px" y="0px"
	 viewBox="0 0 800 800" style="enable-background:new 0 0 800 800;" xml:space="preserve">
<style type="text/css">
	.st0{fill:none;stroke:#049DE9;stroke-width:6;stroke-miterlimit:10;}
</style>
<title>bedroom</title>
<g>
	<path class="st0" d="M207.9,223.9H593c6.3,0,11.8,5.2,11.8,11.8v137.1c0,6.3-5.2,11.8-11.8,11.8H207.9c-6.3,0-11.8-5.2-11.8-11.8
		V235.7C196.4,229.3,201.6,223.9,207.9,223.9z"/>
	<path class="st0" d="M245.1,280.6h144.1c6.3,0,11.8,5.2,11.8,11.8v80.4c0,6.3-5.2,11.8-11.8,11.8H245.1c-6.3,0-11.8-5.2-11.8-11.8
		v-80.4C233.5,286,238.7,280.6,245.1,280.6z"/>
	<path class="st0" d="M412.7,280.6h144.1c6.3,0,11.8,5.2,11.8,11.8v80.4c0,6.3-5.2,11.8-11.8,11.8H412.7c-6.3,0-11.8-5.2-11.8-11.8
		v-80.4C400.9,286,406.1,280.6,412.7,280.6z"/>
	<path class="st0" d="M155.9,384.5h488.3c6.3,0,11.8,5.2,11.8,11.8V566c0,6.3-5.2,11.8-11.8,11.8H155.9c-6.3,0-11.8-5.2-11.8-11.8
		V396.2C144.2,389.7,149.4,384.5,155.9,384.5z"/>
	<path class="st0" d="M183.5,534h337.9c4.2,0,7.8,3.5,7.8,7.8l0,0c0,4.2-3.5,7.8-7.8,7.8H183.5c-4.2,0-7.8-3.5-7.8-7.8l0,0
		C175.7,537.3,179,534,183.5,534z"/>
	<path class="st0" d="M552.8,534h44.9c4.2,0,7.8,3.5,7.8,7.8l0,0c0,4.2-3.5,7.8-7.8,7.8h-44.9c-4.2,0-7.8-3.5-7.8-7.8l0,0
		C545.1,537.3,548.6,534,552.8,534z"/>
	<path class="st0" d="M195.4,577.5L195.4,577.5c4.5,0,7.8,3.5,7.8,7.8v9.6c0,4.2-3.5,7.8-7.8,7.8l0,0c-4.2,0-7.8-3.5-7.8-7.8v-9.6
		C187.7,580.8,191.2,577.5,195.4,577.5z"/>
	<path class="st0" d="M603.8,577.5L603.8,577.5c4.5,0,7.8,3.5,7.8,7.8v9.6c0,4.2-3.5,7.8-7.8,7.8l0,0c-4.2,0-7.8-3.5-7.8-7.8v-9.6
		C596.1,580.8,599.6,577.5,603.8,577.5z"/>
	<polygon class="st0" points="130.3,271.9 5,271.9 36.3,197.3 99,197.3 	"/>
	<line class="st0" x1="67.8" y1="271.9" x2="67.8" y2="571.6"/>
	<line class="st0" x1="27.6" y1="571.2" x2="107.5" y2="571.2"/>
	<polygon class="st0" points="795,271.9 669.7,271.9 701,197.3 763.7,197.3 	"/>
	<line class="st0" x1="732.2" y1="271.9" x2="732.2" y2="571.6"/>
	<line class="st0" x1="692.3" y1="571.2" x2="772.2" y2="571.2"/>
</g>
</svg>
