<?xml version="1.0" encoding="utf-8"?>
<!-- Generator: Adobe Illustrator 21.0.2, SVG Export Plug-In . SVG Version: 6.00 Build 0)  -->
<svg version="1.1" id="Capa_1" xmlns="http://www.w3.org/2000/svg" xmlns:xlink="http://www.w3.org/1999/xlink" x="0px" y="0px"
	 viewBox="0 0 800 800" style="enable-background:new 0 0 800 800;" xml:space="preserve">
<style type="text/css">
	.st0{fill:none;stroke:#049DE9;stroke-width:6;stroke-miterlimit:10;}
</style>
<g>
	<g>
		<path class="st0" d="M776.9,6.3H22.6c-9.1,0-16.5,7.4-16.5,16.5v65.6c0,9.1,7.4,16.5,16.5,16.5h16.5v672.4
			c0,9.1,7.4,16.5,16.5,16.5c21.7,0,33-12.7,41-21.9c7.1-8.2,10-10.9,16.5-10.9c6.4,0,9.2,2.6,16.5,10.9c8.1,9.2,19.3,21.9,41,21.9
			s33.4-13.2,41-22.1c7.1-8.1,10-10.9,16.3-10.9c6.3,0,9.2,2.6,16.3,10.9c7.6,8.7,19.3,22.1,41,22.1c5.8,0,10.9-3,14-7.7
			c3-4.8,3.3-10.9,0.7-16L175,520.2c59.8-44.3,101.3-110.7,114.7-184.4l42-231h136.6l41.8,230.8C523.5,409.1,565,475.5,624.8,520
			L499.9,769.3c-1.5,3-2,6.9-1.5,10.2c1.2,8.1,8.1,14.2,16.3,14.2c21.7,0,33-12.7,41-21.9c7.1-8.2,10-10.9,16.5-10.9
			c6.4,0,9.2,2.6,16.5,10.9c8.1,9.2,19.3,21.9,41,21.9c21.7,0,33.4-13.2,41-22.1c7.1-8.1,10-10.9,16.3-10.9c6.3,0,9.2,2.6,16.3,10.9
			c7.6,8.7,19.3,22.1,41,22.1c9.1,0,16.5-7.4,16.5-16.5V104.7h16.5c9.1,0,16.5-7.4,16.5-16.5V22.8C793.3,13.7,785.9,6.3,776.9,6.3z
			 M243.2,730.4c-4.6-1.6-9.7-2.6-15.7-2.6c-21.7,0-33.3,13.2-41,22.1c-7.1,8.1-10,10.9-16.3,10.9c-6.4,0-9.2-2.6-16.5-10.9
			c-8.1-9.2-19.3-21.9-41-21.9s-33,12.7-41,21.9V519.2c22.2,8.6,51.2,11.2,71.8,11.7L243.2,730.4z M257.2,329.9
			c-12.4,68-51.9,129-108.6,168.4c-38.9-0.8-73.5-9.4-76.8-16.3V104.7h226.4L257.2,329.9z M727.8,749.9
			c-7.6-8.7-19.3-21.9-40.9-21.9c-21.7,0-33.3,13.2-41,22.1c-7.1,8.1-10,10.9-16.3,10.9c-6.4,0-9.2-2.6-16.5-10.9
			c-8.1-9.2-19.3-21.9-41-21.9c-6.3,0-11.5,1-16.1,2.6l100.2-199.7c20.6-0.5,49.6-3.1,71.8-11.7L727.8,749.9L727.8,749.9z
			 M727.8,481.6c-3.6,7.2-38.1,15.8-76.8,16.5c-56.7-39.4-96.2-100.3-108.6-168.4l-41-225.1h226.4V481.6z M760.6,71.9H38.9V39.1
			h721.6V71.9L760.6,71.9z"/>
	</g>
</g>
</svg>
