<?xml version="1.0" encoding="utf-8"?>
<!-- Generator: Adobe Illustrator 21.0.2, SVG Export Plug-In . SVG Version: 6.00 Build 0)  -->
<svg version="1.1" id="Layer_1" xmlns="http://www.w3.org/2000/svg" xmlns:xlink="http://www.w3.org/1999/xlink" x="0px" y="0px"
	 viewBox="0 0 800 800" style="enable-background:new 0 0 800 800;" xml:space="preserve">
<style type="text/css">
	.st0{fill:none;stroke:#049DE9;stroke-width:6;stroke-miterlimit:10;}
</style>
<title>dinning room</title>
<g>
	<polyline class="st0" points="352.1,792.8 352.1,664 352.1,589.1 352.1,535.2 352.1,509.8 352.1,451.5 185.4,451.5 185.4,509.8 
		185.4,535.2 185.4,589.1 185.4,664 185.4,792.8 	"/>
	<rect x="185.4" y="589.1" class="st0" width="166.7" height="74.9"/>
	<polyline class="st0" points="611.1,792.8 611.1,664 611.1,589.1 611.1,535.2 611.1,509.8 611.1,451.5 444.5,451.5 444.5,509.8 
		444.5,535.2 444.5,589.1 444.5,664 444.5,792.8 	"/>
	<rect x="444.5" y="589.1" class="st0" width="166.7" height="74.9"/>
	<rect x="11.4" y="496.7" class="st0" width="173.8" height="25.4"/>
	<rect x="352.1" y="496.7" class="st0" width="92.4" height="25.4"/>
	<rect x="611.1" y="496.7" class="st0" width="177.4" height="25.4"/>
	<rect x="96.3" y="521.9" class="st0" width="27.6" height="262.5"/>
	<rect x="674" y="521.9" class="st0" width="27.6" height="262.5"/>
	<path class="st0" d="M372.3,129.5h60.5c49.3,0,89.1,39.8,89.1,89.1l0,0l0,0l0,0H283.2l0,0l0,0C283.2,169.6,323.2,129.5,372.3,129.5
		z"/>
	<rect x="388.3" y="7.2" class="st0" width="28.9" height="122.3"/>
</g>
</svg>
