<?xml version="1.0" encoding="utf-8"?>
<!-- Generator: Adobe Illustrator 21.0.2, SVG Export Plug-In . SVG Version: 6.00 Build 0)  -->
<svg version="1.1" id="Capa_1" xmlns="http://www.w3.org/2000/svg" xmlns:xlink="http://www.w3.org/1999/xlink" x="0px" y="0px"
	 viewBox="0 0 800 800" style="enable-background:new 0 0 800 800;" xml:space="preserve">
<style type="text/css">
	.st0{fill:none;stroke:#049DE9;stroke-width:6;stroke-miterlimit:10;}
</style>
<g>
	<path class="st0" d="M440,777.5V22.5c0-9.2-7.6-16.9-16.9-16.9h-379c-9.2,0-16.9,7.5-16.9,16.9v755.1c0,9.2,7.6,16.9,16.9,16.9h379
		C432.4,794.4,440,786.9,440,777.5z M406.3,760.7H61V39.3h345.3V760.7z"/>
	<path class="st0" d="M114.4,485.6h232.9c9.2,0,16.9-7.5,16.9-16.9v-379c0-9.2-7.6-16.9-16.9-16.9H114.4c-9.2,0-16.9,7.5-16.9,16.9
		v379C97.5,478.1,105.1,485.6,114.4,485.6z M131.2,106.6h199.2v345.3H131.2V106.6z"/>
	<path class="st0" d="M755.8,485.6c9.2,0,16.9-7.5,16.9-16.9v-379c0-9.2-7.5-16.9-16.9-16.9H522.9c-9.2,0-16.9,7.5-16.9,16.9v379
		c0,9.2,7.6,16.9,16.9,16.9H755.8L755.8,485.6L755.8,485.6z M539.7,296.1h82.8v155.8h-82.8V296.1z M656.1,451.9V296.1H739v155.8
		H656.1z M739,262.4h-82.8V106.6H739V262.4z M622.4,106.6v155.8h-82.8V106.6H622.4z"/>
	<path class="st0" d="M350.2,520.8H117.1c-9.2,0-16.9,7.5-16.9,16.9v164.2c0,9.2,7.6,16.9,16.9,16.9h232.9c9.2,0,16.9-7.5,16.9-16.9
		V537.6C366.9,528.2,359.5,520.8,350.2,520.8z M333.4,685H134V554.5h199.2L333.4,685L333.4,685z"/>
</g>
</svg>
