<?xml version="1.0" encoding="utf-8"?>
<!-- Generator: Adobe Illustrator 21.0.2, SVG Export Plug-In . SVG Version: 6.00 Build 0)  -->
<svg version="1.1" id="Layer_1" xmlns="http://www.w3.org/2000/svg" xmlns:xlink="http://www.w3.org/1999/xlink" x="0px" y="0px"
	 viewBox="0 0 800 800" style="enable-background:new 0 0 800 800;" xml:space="preserve">
<style type="text/css">
	.st0{fill:none;stroke:#049DE9;stroke-width:6;stroke-miterlimit:10;}
</style>
<title>drawing room</title>
<g>
	<polygon class="st0" points="148.1,292.9 8,292.9 43.2,209.8 113,209.8 	"/>
	<line class="st0" x1="78.1" y1="292.9" x2="78.1" y2="627.5"/>
	<line class="st0" x1="33.2" y1="627" x2="122.7" y2="627"/>
	<line class="st0" x1="482.1" y1="512.3" x2="209.2" y2="512.3"/>
	<path class="st0" d="M172.3,443.8v-51.7c0-9.7,7.9-17.6,17.6-17.6h311.7c9.7,0,17.6,7.9,17.6,17.6v51.7"/>
	<rect x="209.2" y="528.6" class="st0" width="272.9" height="56.9"/>
	<path class="st0" d="M153.6,443.6h38.3c9.7,0,17.6,7.9,17.6,17.6v120.2c0,9.7-7.9,17.6-17.6,17.6h-38.3c-9.7,0-17.6-7.9-17.6-17.6
		V461.1C136,451.4,143.9,443.6,153.6,443.6z"/>
	<path class="st0" d="M499.4,443.6h38.3c9.7,0,17.6,7.9,17.6,17.6v120.2c0,9.7-7.9,17.6-17.6,17.6h-38.3c-9.7,0-17.6-7.9-17.6-17.6
		V461.1C482.1,451.4,490,443.6,499.4,443.6z"/>
	<rect x="156.8" y="609.1" class="st0" width="33.1" height="18.4"/>
	<rect x="498.4" y="609.1" class="st0" width="33.1" height="18.4"/>
	<line class="st0" x1="606.8" y1="491.8" x2="588.7" y2="627.5"/>
	<rect x="581.3" y="480.3" class="st0" width="210.7" height="11.5"/>
	<line class="st0" x1="770.7" y1="491.8" x2="789.1" y2="627.5"/>
	<rect x="649.3" y="434.9" class="st0" width="25.5" height="42.2"/>
	<rect x="688.1" y="434.9" class="st0" width="25.5" height="42.2"/>
	<rect x="498.4" y="172.5" class="st0" width="144.8" height="144.8"/>
	<path class="st0" d="M582.6,280.4h-61.1c-2.6,0-4.7-2.1-4.7-4.7c0-0.8,0.3-1.3,0.5-2.1l36.7-74.3l0,0l32.8,74.5
		c1,2.4,0,5.2-2.6,6.3C583.7,280.4,583.1,280.4,582.6,280.4z"/>
	<path class="st0" d="M567.7,280.4h57.2c2.6,0,4.7-2.1,4.7-4.7c0-0.8-0.3-1.3-0.5-1.8l-23.4-53c-1-2.4-3.7-3.7-6-2.6
		c-1,0.5-2.1,1.3-2.6,2.6l-17.6,35.9"/>
</g>
</svg>
