<?xml version="1.0" encoding="utf-8"?>
<!-- Generator: Adobe Illustrator 21.0.2, SVG Export Plug-In . SVG Version: 6.00 Build 0)  -->
<svg version="1.1" id="Capa_1" xmlns="http://www.w3.org/2000/svg" xmlns:xlink="http://www.w3.org/1999/xlink" x="0px" y="0px"
	 viewBox="0 0 800 800" style="enable-background:new 0 0 800 800;" xml:space="preserve">
<style type="text/css">
	.st0{fill:none;stroke:#049DE9;stroke-width:6;stroke-miterlimit:10;}
</style>
<g>
	<g>
		<g>
			<path class="st0" d="M269.1,229.8v-14.6c35.5-36.2,34.8-94.2-1.4-129.7S173.5,50.7,138,87c-35,35.6-35,92.7,0,128.3v14.6h-26.1
				v26.2h183.4v-26.2H269.1L269.1,229.8z M247.2,199.9c-2.8,2.5-4.3,6-4.3,9.7v20.1h-26.2v-33.8l35.5-35.5l-18.6-18.6L203.6,172
				l-30.1-30.1l-18.4,18.6l35.5,35.5v33.9h-26.2v-20.1c0-3.7-1.5-7.2-4.3-9.7c-27-24.2-29.3-65.7-5.2-92.5s65.5-29.3,92.4-5.2
				c27,24.1,29.3,65.5,5.2,92.4C250.8,196.5,249,198.2,247.2,199.9z"/>
		</g>
	</g>
	<g>
		<g>
			<rect x="478.6" y="59.5" class="st0" width="104.8" height="26.2"/>
		</g>
	</g>
	<g>
		<g>
			<rect x="531.1" y="112" class="st0" width="52.3" height="26.2"/>
		</g>
	</g>
	<g>
		<g>
			<path class="st0" d="M504.8,452.4c-29,0-52.3,23.5-52.3,52.3c0,28.9,23.5,52.3,52.3,52.3c28.9,0,52.3-23.5,52.3-52.3
				C557.2,475.9,533.7,452.4,504.8,452.4z M504.8,531.1c-14.4,0-26.2-11.7-26.2-26.2s11.7-26.2,26.2-26.2s26.2,11.7,26.2,26.2
				S519.3,531.1,504.8,531.1z"/>
		</g>
	</g>
	<g>
		<g>
			<path class="st0" d="M727.1,321.6c-11.7-14.1-24.7-27.2-38.8-38.8v-184c0-7.2-5.8-13-13-13h-39.3V20.2c0-7.2-5.8-13-13-13H20.2
				c-7.2,0-13,5.8-13,13v602.6c0,7.2,5.8,13,13,13h65.5v39.3c0,7.2,5.8,13,13,13h183.9C383.9,810.8,565.3,828.3,688.1,727
				C810.9,625.8,828.2,444.3,727.1,321.6z M59.4,609.7H33.4V33.4h26.2C59.4,33.4,59.4,609.7,59.4,609.7z M635.8,112H662v151.5
				c-8.4-5.5-17.2-10.6-26.2-15.2V112z M85.7,609.7V33.4h524v203.2c-148.1-58-315.1,15-373.1,163.1c-26.4,67.5-26.4,142.4,0,210
				H85.7L85.7,609.7z M111.9,662v-26.2h136.4c4.6,9.1,9.7,17.8,15.2,26.2H111.9z M504.8,766.9c-144.7,0-262-117.3-262-262
				s117.3-262,262-262s262,117.3,262,262C766.7,649.5,649.4,766.7,504.8,766.9z"/>
		</g>
	</g>
	<g>
		<g>
			<rect x="439.3" y="635.8" class="st0" width="130.9" height="26.2"/>
		</g>
	</g>
	<g>
		<g>
			<rect x="400" y="688.3" class="st0" width="209.5" height="26.2"/>
		</g>
	</g>
	<g>
		<g>
			<rect x="491.8" y="308.4" class="st0" width="26.2" height="26.2"/>
		</g>
	</g>
	<g>
		<g>
			<rect x="544.1" y="308.4" class="st0" width="26.2" height="26.2"/>
		</g>
	</g>
	<g>
		<g>
			<rect x="439.3" y="308.4" class="st0" width="26.2" height="26.2"/>
		</g>
	</g>
	<g>
		<g>
			<path class="st0" d="M504.8,400.1C447,400.1,400,447,400,504.9s47,104.8,104.8,104.8s104.8-47,104.8-104.8
				C609.5,447,562.7,400.2,504.8,400.1z M504.8,583.5c-43.4,0-78.6-35.1-78.6-78.6s35.1-78.6,78.6-78.6s78.6,35.1,78.6,78.6
				S548.3,583.5,504.8,583.5z"/>
		</g>
	</g>
</g>
</svg>
