<?xml version="1.0" encoding="utf-8"?>
<!-- Generator: Adobe Illustrator 21.0.2, SVG Export Plug-In . SVG Version: 6.00 Build 0)  -->
<svg version="1.1" id="Capa_1" xmlns="http://www.w3.org/2000/svg" xmlns:xlink="http://www.w3.org/1999/xlink" x="0px" y="0px"
	 viewBox="0 0 800 800" style="enable-background:new 0 0 800 800;" xml:space="preserve">
<style type="text/css">
	.st0{fill:none;stroke:#049DE9;stroke-width:6;stroke-miterlimit:10;}
</style>
<g>
	<path class="st0" d="M718.7,170.6h-77.3C592.7,73.8,492.5,7.2,376.9,7.2S161,73.8,112.4,170.6H22c-8.1,0-14.9,6.6-14.9,14.9v222.2
		c0,40.7,33,74,73.8,74.1v296.1c0,8.1,6.6,14.9,14.9,14.9h562.4c8.1,0,14.9-6.6,14.9-14.9V614.7H719c40.8,0,74.1-33.3,74.1-74.1
		v-296C792.8,203.7,759.6,170.6,718.7,170.6z M36.7,407.7V200.2h62.6C87.7,231.7,81.1,265.6,80.9,301c0,0.2,0,0.3,0,0.6v150.5
		C56.5,452,36.7,432.1,36.7,407.7z M643.3,763.2H110.6v-460c0-36.5,7.4-71.4,20.7-103h378.2c8.1,0,14.9-6.6,14.9-14.9
		s-6.6-14.9-14.9-14.9H146C192,90.7,278.3,36.6,376.9,36.6s184.9,53.9,230.9,133.8h-38.2c-8.1,0-14.9,6.6-14.9,14.9
		s6.6,14.9,14.9,14.9h52.9c13.3,31.8,20.7,66.6,20.7,103V763.2L643.3,763.2z M763.1,540.6c0,24.6-19.9,44.5-44.5,44.5h-45.9V301.6
		c0-0.2,0-0.3,0-0.6c-0.3-35.4-6.8-69.4-18.4-100.8h64.3c24.6,0,44.5,19.9,44.5,44.5V540.6L763.1,540.6z"/>
	<path class="st0" d="M392.4,243.9H364c-32.7,0-59.2,26.5-59.2,59.2v356.1c0,32.7,26.5,59.2,59.2,59.2h28.4
		c32.7,0,59.2-26.5,59.2-59.2V303.2C451.7,270.5,425.1,243.9,392.4,243.9z M422,659.3c0,16.3-13.3,29.6-29.6,29.6H364
		c-16.3,0-29.6-13.3-29.6-29.6v-15.2h30.7c8.1,0,14.9-6.6,14.9-14.9c0-8.1-6.6-14.9-14.9-14.9h-30.7v-29.3h30.7
		c8.1,0,14.9-6.6,14.9-14.9c0-8.3-6.6-14.9-14.9-14.9h-30.7v-29.5h30.7c8.1,0,14.9-6.6,14.9-14.9c0-8.1-6.6-14.9-14.9-14.9h-30.7
		v-29.3h30.7c8.1,0,14.9-6.6,14.9-14.9c0-8.3-6.6-14.9-14.9-14.9h-30.7v-30.2h30.7c8.1,0,14.9-6.6,14.9-14.9
		c0-8.3-6.6-14.9-14.9-14.9h-30.7v-29.3h30.7c8.1,0,14.9-6.6,14.9-14.9s-6.6-14.9-14.9-14.9h-30.7v-15.3c0-16.3,13.3-29.6,29.6-29.6
		h28.4c16.3,0,29.6,13.3,29.6,29.6V659.3z"/>
</g>
</svg>
