<?xml version="1.0" encoding="utf-8"?>
<!-- Generator: Adobe Illustrator 21.0.2, SVG Export Plug-In . SVG Version: 6.00 Build 0)  -->
<svg version="1.1" id="Layer_1" xmlns="http://www.w3.org/2000/svg" xmlns:xlink="http://www.w3.org/1999/xlink" x="0px" y="0px"
	 viewBox="0 0 800 800" style="enable-background:new 0 0 800 800;" xml:space="preserve">
<style type="text/css">
	.st0{fill:none;stroke:#049DE9;stroke-width:6;stroke-miterlimit:10;}
</style>
<g>
	<title>electrical</title>
	<path class="st0" d="M322.9,482.2c2.8-4,110.4-146.5,110.4-146.5L416.1,421l67.8,5.3L372.3,602l17.4-110.4L322.9,482.2z"/>
	<path class="st0" d="M132.1,274.1H669l0,0v221.7c0,92.2-74.6,166.8-166.8,167H299.1c-92.2,0-167-74.8-167-167l0,0L132.1,274.1
		L132.1,274.1z"/>
	<path class="st0" d="M284.1,5.5L284.1,5.5c21.4,0,38.8,17.4,38.8,38.8v229.8l0,0h-77.8l0,0V44.3C245.3,22.9,262.7,5.5,284.1,5.5z"
		/>
	<path class="st0" d="M517.2,5.5L517.2,5.5c21.4,0,38.8,17.4,38.8,38.8v229.8l0,0h-77.8l0,0V44.3C478.4,22.9,495.8,5.5,517.2,5.5z"
		/>
	<rect x="284.1" y="662.6" class="st0" width="233.2" height="131.8"/>
</g>
</svg>
