<svg id="Layer_1" data-name="Layer 1" xmlns="http://www.w3.org/2000/svg" viewBox="0 0 800 800"><defs><style>.cls-1{fill:none;stroke:#049de9;stroke-miterlimit:10;stroke-width:6px;}</style></defs><title>External developmentomaxe icons</title><rect class="cls-1" x="123.87" y="626.6" width="92.67" height="131.04"/><rect class="cls-1" x="110.75" y="757.64" width="275.9" height="30.18"/><polygon class="cls-1" points="334.6 757.63 239.81 757.63 239.81 58.3 286.35 12.18 334.6 58.3 334.6 757.63"/><line class="cls-1" x1="239.81" y1="162.96" x2="334.6" y2="162.96"/><line class="cls-1" x1="239.81" y1="261.42" x2="334.6" y2="261.42"/><line class="cls-1" x1="239.81" y1="359.87" x2="334.6" y2="359.87"/><line class="cls-1" x1="239.81" y1="458.32" x2="334.6" y2="458.32"/><line class="cls-1" x1="239.81" y1="556.78" x2="334.6" y2="556.78"/><line class="cls-1" x1="239.81" y1="655.23" x2="334.6" y2="655.23"/><line class="cls-1" x1="239.81" y1="156.39" x2="334.6" y2="64.14"/><line class="cls-1" x1="333.74" y1="159.23" x2="239.81" y2="67.14"/><line class="cls-1" x1="239.81" y1="256.89" x2="334.6" y2="164.65"/><line class="cls-1" x1="333.74" y1="259.73" x2="238.95" y2="167.49"/><line class="cls-1" x1="239.81" y1="355.35" x2="334.6" y2="263.1"/><line class="cls-1" x1="333.74" y1="358.19" x2="238.95" y2="265.94"/><line class="cls-1" x1="239.81" y1="453.8" x2="334.6" y2="361.55"/><line class="cls-1" x1="333.74" y1="456.64" x2="238.95" y2="364.39"/><line class="cls-1" x1="239.81" y1="553.9" x2="334.6" y2="461.66"/><line class="cls-1" x1="333.74" y1="556.74" x2="238.95" y2="464.5"/><line class="cls-1" x1="239.81" y1="650.62" x2="334.6" y2="558.37"/><line class="cls-1" x1="333.74" y1="653.46" x2="238.95" y2="561.21"/><line class="cls-1" x1="239.81" y1="751.14" x2="334.6" y2="658.89"/><line class="cls-1" x1="333.74" y1="753.98" x2="238.95" y2="661.73"/><path class="cls-1" d="M334.6,151.61l63-65.38H716a5.4,5.4,0,0,1,3.83,1.59l61.74,62a5.4,5.4,0,0,1-3.83,9.22h-758a5.4,5.4,0,0,1-3.9-9.14l59.34-62a5.4,5.4,0,0,1,3.9-1.67"/><line class="cls-1" x1="79.07" y1="86.23" x2="79.07" y2="159.01"/><line class="cls-1" x1="157.3" y1="86.23" x2="157.3" y2="159.01"/><line class="cls-1" x1="401.46" y1="86.23" x2="401.46" y2="159.01"/><line class="cls-1" x1="479.32" y1="86.23" x2="479.32" y2="159.01"/><line class="cls-1" x1="558.03" y1="86.23" x2="558.03" y2="159.01"/><line class="cls-1" x1="636.73" y1="86.23" x2="636.73" y2="159.01"/><line class="cls-1" x1="715.44" y1="86.23" x2="715.44" y2="159.01"/><line class="cls-1" x1="40.6" y1="124" x2="75.63" y2="159.01"/><line class="cls-1" x1="79.07" y1="86.23" x2="156.58" y2="158.4"/><line class="cls-1" x1="157.3" y1="86.23" x2="84.38" y2="159.01"/><line class="cls-1" x1="157.3" y1="86.23" x2="234.81" y2="158.4"/><line class="cls-1" x1="235.53" y1="86.23" x2="162.61" y2="159.01"/><line class="cls-1" x1="400.61" y1="86.23" x2="478.13" y2="158.4"/><line class="cls-1" x1="478.85" y1="86.23" x2="405.92" y2="159.01"/><line class="cls-1" x1="479.98" y1="86.23" x2="557.49" y2="158.4"/><line class="cls-1" x1="558.21" y1="86.23" x2="485.29" y2="159.01"/><line class="cls-1" x1="559.35" y1="86.23" x2="636.86" y2="158.4"/><line class="cls-1" x1="637.58" y1="86.23" x2="564.65" y2="159.01"/><line class="cls-1" x1="638.71" y1="86.23" x2="716.23" y2="158.4"/><line class="cls-1" x1="755.5" y1="123.61" x2="723.48" y2="159.01"/><polyline class="cls-1" points="239.81 86.23 79.07 86.23 286.35 12.18 716.95 86.23 644.02 159.01"/><line class="cls-1" x1="239.81" y1="58.3" x2="334.6" y2="58.3"/><path class="cls-1" d="M344.76,172.84V306H453.08a12.41,12.41,0,0,0,12.41-12.41V243.45a21.35,21.35,0,0,0-1.48-7.8l-19.33-49.27a21.35,21.35,0,0,0-19.87-13.55Z"/><path class="cls-1" d="M363.38,197.52V231A10.58,10.58,0,0,0,374,241.53h57.67a10.58,10.58,0,0,0,9.94-14.2L429.38,193.9a10.58,10.58,0,0,0-9.94-7H374A10.58,10.58,0,0,0,363.38,197.52Z"/><line class="cls-1" x1="547.02" y1="159.01" x2="547.02" y2="305.99"/><rect class="cls-1" x="504.71" y="305.99" width="87.17" height="104.53"/><rect class="cls-1" x="522.48" y="324.33" width="50.21" height="56.14"/><rect class="cls-1" x="635.04" y="401.06" width="87.17" height="386.76"/><rect class="cls-1" x="722.21" y="481.88" width="63.47" height="305.94"/><rect class="cls-1" x="500.19" y="563.41" width="134.84" height="224.27"/><rect class="cls-1" x="722.21" y="510.23" width="44.43" height="56.28"/><rect class="cls-1" x="722.21" y="594.44" width="44.43" height="56.28"/><rect class="cls-1" x="722.21" y="678.65" width="44.43" height="56.28"/><rect class="cls-1" x="590.61" y="594.44" width="44.43" height="56.28"/><rect class="cls-1" x="590.61" y="678.65" width="44.43" height="56.28"/><rect class="cls-1" x="652.25" y="426.73" width="50.5" height="55.15"/><rect class="cls-1" x="652.25" y="510.8" width="50.5" height="55.15"/><rect class="cls-1" x="652.25" y="594.86" width="50.5" height="55.15"/><rect class="cls-1" x="652.25" y="678.93" width="50.5" height="55.15"/><rect class="cls-1" x="519.66" y="594.86" width="50.5" height="55.15"/><rect class="cls-1" x="519.66" y="678.93" width="50.5" height="55.15"/></svg>