<?xml version="1.0" encoding="utf-8"?>
<!-- Generator: Adobe Illustrator 21.0.2, SVG Export Plug-In . SVG Version: 6.00 Build 0)  -->
<svg version="1.1" id="Layer_1" xmlns="http://www.w3.org/2000/svg" xmlns:xlink="http://www.w3.org/1999/xlink" x="0px" y="0px"
	 viewBox="0 0 800 800" style="enable-background:new 0 0 800 800;" xml:space="preserve">
<style type="text/css">
	.st0{fill:none;stroke:#049DE9;stroke-width:6;stroke-miterlimit:10;}
</style>
<title>external finish</title>
<g>
	<path class="st0" d="M636,327.9v78.2c0,11.6-9.4,20.7-20.7,20.7H397.7"/>
	<path class="st0" d="M151.5,316.6v43.3c-12-0.7-20.9-11.1-20.2-22.9C132,326,140.6,317.3,151.5,316.6z"/>
	<path class="st0" d="M636,327.9v-53.4c0-11.6-9.4-20.7-20.7-20.7H172.4c-11.6,0-20.7,9.1-20.9,20.7l0,0v131.4
		c0,11.6,9.4,20.7,20.7,20.7l0,0h225.3"/>
	<path class="st0" d="M636,327.9h12.8c11.1,0,20,8.9,20,20l0,0v117.7c0,11.1-8.9,20-20,20l0,0H397.7"/>
	<path class="st0" d="M359,544.8h65.2c10.4,0,18.5,8.2,18.5,18.5v209.2c0,10.4-8.2,18.5-18.5,18.5H359c-10.4,0-18.5-8.2-18.5-18.5
		V563.3C340.4,553,348.6,544.8,359,544.8z"/>
	<polyline class="st0" points="397.7,544.8 397.7,485.1 553,485.1 	"/>
	<path class="st0" d="M261.2,216c0-41.2-13.2-54.4-54.4-54.4c41.2,0,54.4-13.2,54.4-54.4c0,41.2,13.2,54.4,54.4,54.4
		C274.5,161.8,261.2,175,261.2,216z"/>
	<path class="st0" d="M312.5,236.4c0-24.1-7.9-31.5-31.5-31.5c24.1,0,31.5-7.9,31.5-31.5c0,24.1,7.9,31.5,31.5,31.5
		C320,204.9,312.5,212.4,312.5,236.4z"/>
	<path class="st0" d="M549.6,201.5c0-72.9,23.3-96.3,96.3-96.3c-72.9,0-96.3-23.3-96.3-96.3c0,72.9-23.3,96.3-96.3,96.3
		C526.3,105.2,549.6,128.3,549.6,201.5z"/>
	<path class="st0" d="M459.1,237.2c0-42.1,13.5-55.6,55.6-55.6c-42.1,0-55.6-13.5-55.6-55.6c0,42.1-13.5,55.6-55.6,55.6
		C445.6,181.5,459.1,195,459.1,237.2z"/>
</g>
</svg>
