<?xml version="1.0" encoding="utf-8"?>
<!-- Generator: Adobe Illustrator 21.0.2, SVG Export Plug-In . SVG Version: 6.00 Build 0)  -->
<svg version="1.1" id="Capa_1" xmlns="http://www.w3.org/2000/svg" xmlns:xlink="http://www.w3.org/1999/xlink" x="0px" y="0px"
	 viewBox="0 0 800 800" style="enable-background:new 0 0 800 800;" xml:space="preserve">
<style type="text/css">
	.st0{fill:none;stroke:#049DE9;stroke-width:6;stroke-miterlimit:10;}
</style>
<g>
	<path class="st0" d="M731.9,656.1v-20.6c31.3-9.1,55.2-38.1,55.2-72.6c0-41.6-33.6-75.4-75.3-75.4S636,521.4,636,563
		c0,34.3,23,63.4,54.3,72.4v19.7H588.7V35.3c0-11.5-8.5-20.9-20-20.9H227.5c-11.5,0-21.8,9.4-21.8,20.9v620.1h-96.5v-19.7
		c31.3-9.1,55-38.1,55-72.4c0-41.6-33.6-75.4-75.3-75.4s-75.8,33.6-75.8,75.3c0,34.5,23.1,63.5,54.4,72.6v20.6
		c-31.3,4.8-54.7,31.8-54.7,64.1v44.3c0,11.5,10.1,20.9,21.8,20.9h732c11.5,0,20-9.4,20-20.9v-44.3
		C786.6,688,763.2,661.1,731.9,656.1z M312.5,655.4h23.4V744h-23.4V655.4z M377.6,655.4h41.7V744h-20h-21.8V655.4L377.6,655.4z
		 M460.9,655.4h23.4V744h-23.4V655.4z M526.1,634.5c0-11.5-8.5-20.9-20-20.9H292.5c-11.5,0-21.8,9.4-21.8,20.9V744h-20h-3.5V56.2
		h152h147.6V744h0.9h-21.8V634.5H526.1z M54.7,720.4c0-13,11.3-23.4,24.3-23.4h126.7v46.9h-151V720.4z M588.7,697h133.7
		c13,0,22.5,10.6,22.5,23.4v23.4H588.7V697z M712.1,529.3c18.6,0,33.7,15.1,33.7,33.7s-15.1,33.7-33.7,33.7s-33.7-15.1-33.7-33.7
		C678.2,544.4,693.5,529.3,712.1,529.3z M89.3,529.3c18.6,0,33.7,15.1,33.7,33.7s-15.1,33.7-33.7,33.7S55.6,581.6,55.6,563
		C55.4,544.4,70.7,529.3,89.3,529.3z"/>
	<path class="st0" d="M310.8,100.5c-5.4,0-10.9,2.3-14.7,6c-3.9,3.9-6,9.2-6,14.8c0,5.4,2.3,10.9,6,14.8c3.9,3.9,9.2,6,14.7,6
		c5.4,0,10.9-2.3,14.8-6c3.9-3.9,6-9.2,6-14.8c0-5.4-2.3-10.9-6-14.8C321.7,102.6,316.2,100.5,310.8,100.5z"/>
	<path class="st0" d="M382,106.5c-3.9,3.9-6,9.2-6,14.8c0,5.4,2.3,10.9,6,14.8c3.9,3.9,9.2,6,14.7,6c0.9,0,1.8-0.2,2.6-0.2
		c4.5-0.6,8.9-2.7,12.1-5.9c3.9-3.9,6-9.2,6-14.8c0-5.4-2.3-10.9-6-14.8c-3.3-3.3-7.6-5.3-12.1-5.9c-0.9-0.2-1.7-0.2-2.6-0.2
		C391.2,100.5,385.9,102.6,382,106.5z"/>
	<path class="st0" d="M482.7,100.5c-5.4,0-10.9,2.3-14.7,6c-3.9,3.9-6,9.2-6,14.8c0,5.4,2.3,10.9,6,14.8c3.8,3.9,9.2,6,14.7,6
		c5.4,0,10.9-2.3,14.8-6c3.9-3.9,6-9.2,6-14.8c0-5.4-2.3-10.9-6-14.8C493.6,102.6,488.1,100.5,482.7,100.5z"/>
	<path class="st0" d="M310.8,186.4c-5.4,0-10.9,2.3-14.7,6c-3.9,3.9-6,9.2-6,14.8c0,5.4,2.3,10.9,6,14.8c3.9,3.9,9.2,6,14.7,6
		s10.9-2.3,14.8-6c3.9-3.9,6-9.2,6-14.8c0-5.4-2.3-10.9-6-14.8C321.7,188.6,316.2,186.4,310.8,186.4z"/>
	<path class="st0" d="M382,192.6c-3.9,3.9-6,9.2-6,14.8c0,5.4,2.3,10.9,6,14.8c3.9,3.9,9.2,6,14.7,6c0.9,0,1.8-0.2,2.6-0.2
		c4.5-0.6,8.9-2.7,12.1-5.9c3.9-3.9,6-9.2,6-14.8c0-5.4-2.3-10.9-6-14.8c-3.3-3.3-7.6-5.3-12.1-5.9c-0.9-0.2-1.7-0.2-2.6-0.2
		C391.2,186.4,385.9,188.6,382,192.6z"/>
	<path class="st0" d="M482.7,186.4c-5.4,0-10.9,2.3-14.7,6c-3.9,3.9-6,9.2-6,14.8c0,5.4,2.3,10.9,6,14.8c3.9,3.9,9.2,6,14.7,6
		c5.4,0,10.9-2.3,14.8-6c3.9-3.9,6-9.2,6-14.8c0-5.4-2.3-10.9-6-14.8C493.6,188.6,488.1,186.4,482.7,186.4z"/>
	<path class="st0" d="M310.8,272.4c-5.4,0-10.9,2.3-14.7,6c-3.9,3.9-6,9.2-6,14.8c0,5.4,2.3,10.9,6,14.8c3.9,3.8,9.2,6,14.7,6
		c5.4,0,10.9-2.3,14.8-6c3.9-3.9,6-9.2,6-14.8c0-5.4-2.3-10.9-6-14.8C321.7,274.5,316.2,272.4,310.8,272.4z"/>
	<path class="st0" d="M382,278.4c-3.9,3.9-6,9.2-6,14.8c0,5.4,2.3,10.9,6,14.8c3.9,3.8,9.2,6,14.8,6c0.9,0,1.8-0.2,2.6-0.2
		c4.5-0.6,8.9-2.7,12.1-5.9c3.9-3.9,6-9.2,6-14.8c0-5.4-2.3-10.9-6-14.8c-3.3-3.3-7.6-5.3-12.1-5.9c-0.9-0.2-1.7-0.2-2.6-0.2
		C391.2,272.4,385.9,274.5,382,278.4z"/>
	<path class="st0" d="M482.7,272.4c-5.4,0-10.9,2.3-14.8,6c-3.8,3.9-6,9.2-6,14.8c0,5.4,2.3,10.9,6,14.8c3.9,3.8,9.2,6,14.8,6
		c5.4,0,10.9-2.3,14.8-6c3.9-3.9,6-9.2,6-14.8c0-5.4-2.3-10.9-6-14.8C493.6,274.5,488.1,272.4,482.7,272.4z"/>
	<path class="st0" d="M310.8,358.3c-5.4,0-10.9,2.3-14.7,6c-3.9,3.9-6,9.2-6,14.8c0,5.4,2.3,10.9,6,14.8c3.9,3.9,9.2,6,14.7,6
		c5.4,0,10.9-2.3,14.8-6c3.9-3.9,6-9.2,6-14.8c0-5.4-2.3-10.9-6-14.8C321.7,360.5,316.2,358.3,310.8,358.3z"/>
	<path class="st0" d="M382,364.5c-3.9,3.9-6,9.2-6,14.8c0,5.4,2.3,10.9,6,14.8c3.9,3.9,9.2,6,14.7,6c0.9,0,1.8-0.2,2.6-0.2
		c4.5-0.6,8.9-2.7,12.1-5.9c3.9-3.9,6-9.2,6-14.8c0-5.4-2.3-10.9-6-14.8c-3.3-3.2-7.6-5.3-12.1-5.9c-0.9-0.2-1.7-0.2-2.6-0.2
		C391.2,358.3,385.9,360.5,382,364.5z"/>
	<path class="st0" d="M482.7,358.3c-5.4,0-10.9,2.3-14.7,6c-3.9,3.9-6,9.2-6,14.8c0,5.4,2.3,10.9,6,14.8c3.9,3.9,9.2,6,14.7,6
		c5.4,0,10.9-2.3,14.8-6c3.9-3.9,6-9.2,6-14.8c0-5.4-2.3-10.9-6-14.8C493.6,360.5,488.1,358.3,482.7,358.3z"/>
	<path class="st0" d="M310.8,444.3c-5.4,0-10.9,2.3-14.7,6c-3.9,3.9-6,9.2-6,14.8c0,5.4,2.3,10.9,6,14.8c3.9,3.8,9.2,6,14.7,6
		c5.4,0,10.9-2.3,14.8-6c3.9-3.9,6-9.2,6-14.8c0-5.4-2.3-10.9-6-14.8C321.7,446.6,316.2,444.3,310.8,444.3z"/>
	<path class="st0" d="M382,450.3c-3.9,3.9-6,9.2-6,14.8c0,5.4,2.3,10.9,6,14.8c3.9,3.8,9.2,6,14.8,6c0.9,0,1.8,0,2.6-0.2
		c4.5-0.6,8.9-2.7,12.1-5.9c3.9-3.9,6-9.2,6-14.8c0-5.4-2.3-10.9-6-14.8c-3.3-3.2-7.6-5.3-12.1-5.9c-0.9-0.2-1.7-0.2-2.6-0.2
		C391.2,444.3,385.9,446.6,382,450.3z"/>
	<path class="st0" d="M482.7,444.3c-5.4,0-10.9,2.3-14.7,6c-3.9,3.9-6,9.2-6,14.8c0,5.4,2.3,10.9,6,14.8c3.9,3.8,9.2,6,14.7,6
		c5.4,0,10.9-2.3,14.8-6c3.9-3.9,6-9.2,6-14.8c0-5.4-2.3-10.9-6-14.8C493.6,446.6,488.1,444.3,482.7,444.3z"/>
	<path class="st0" d="M310.8,530.2c-5.4,0-10.9,2.3-14.7,6c-3.9,3.9-6,9.2-6,14.8c0,5.4,2.3,10.9,6,14.8c3.9,3.9,9.2,6,14.7,6
		c5.4,0,10.9-2.3,14.8-6c3.9-3.9,6-9.2,6-14.8c0-5.4-2.3-10.9-6-14.8C321.7,532.5,316.2,530.2,310.8,530.2z"/>
	<path class="st0" d="M382,536.4c-3.9,3.9-6,9.2-6,14.8c0,5.4,2.3,10.9,6,14.8c3.9,3.9,9.2,6,14.7,6c0.9,0,1.8,0,2.6-0.2
		c4.5-0.6,8.9-2.7,12.1-5.9c3.9-3.9,6-9.2,6-14.8c0-5.4-2.3-10.9-6-14.8c-3.3-3.3-7.6-5.3-12.1-5.9c-0.9-0.2-1.7-0.2-2.6-0.2
		C391.2,530.2,385.9,532.5,382,536.4z"/>
	<path class="st0" d="M482.7,530.2c-5.4,0-10.9,2.3-14.7,6c-3.9,3.9-6,9.2-6,14.8c0,5.4,2.3,10.9,6,14.8c3.8,3.9,9.2,6,14.7,6
		c5.4,0,10.9-2.3,14.8-6c3.9-3.9,6-9.2,6-14.8c0-5.4-2.3-10.9-6-14.8C493.6,532.5,488.1,530.2,482.7,530.2z"/>
</g>
</svg>
