<?xml version="1.0" encoding="utf-8"?>
<!-- Generator: Adobe Illustrator 21.0.2, SVG Export Plug-In . SVG Version: 6.00 Build 0)  -->
<svg version="1.1" id="Layer_1" xmlns="http://www.w3.org/2000/svg" xmlns:xlink="http://www.w3.org/1999/xlink" x="0px" y="0px"
	 viewBox="0 0 800 800" style="enable-background:new 0 0 800 800;" xml:space="preserve">
<style type="text/css">
	.st0{fill:none;stroke:#049DE9;stroke-width:6;stroke-miterlimit:10;}
</style>
<g>
	<title>facilities</title>
	<path class="st0" d="M393.8,169.8l-278.8,188c-2.7,1.8-4.3,4.9-4.3,7.9v350.5c0,5.5,4.6,10.1,10.1,10.1h558.6
		c5.5,0,10.1-4.6,10.1-10.1V365.7c0-3-1.5-6.1-4.3-7.9l-280.7-188C401.4,167.6,397.1,167.6,393.8,169.8z M506.5,538.5H451
		c-5.5,0-10.1,4.6-10.1,10.1v54.5c0,5.5-4.6,10.1-10.1,10.1h-64c-5.5,0-10.1-4.6-10.1-10.1V548c0-5.5-4.6-10.1-10.1-10.1H292
		c-5.5,0-10.1-4.6-10.1-10.1v-64c0-5.5,4.6-10.1,10.1-10.1h55.8c5.5,0,10.1-4.6,10.1-10.1v-54.9c0-5.5,4.6-10.1,10.1-10.1h64.9
		c5.5,0,10.1,4.6,10.1,10.1v55.5c0,5.5,4.6,10.1,10.1,10.1h55.5c5.5,0,10.1,4.6,10.1,10.1v64.9c-0.6,5.5-5.5,9.8-11,9.1
		C507.1,538.5,506.8,538.5,506.5,538.5z"/>
	<path class="st0" d="M13.3,725.9h773.4c5.5,0,9.8,4.3,9.8,9.8v33.5c0,5.5-4.3,9.8-9.8,9.8H13.3c-5.5,0-9.8-4.3-9.8-9.8v-33.5
		C3.5,730.2,7.8,725.9,13.3,725.9z"/>
	<path class="st0" d="M747.2,278.3l-22.6,31.7c-3.4,4.3-9.1,5.2-13.7,2.4L405.3,96.6c-3.4-2.1-7.9-2.1-11.3,0L88.4,312.7
		c-4.3,2.7-10.1,1.5-13.1-2.4l-22.9-32.3c-2.4-4.3-1.5-10.1,2.4-13.1L400.1,21.1l0,0l345.3,243.8C749.4,268.5,750,274,747.2,278.3z"
		/>
</g>
</svg>
