<?xml version="1.0" encoding="utf-8"?>
<!-- Generator: Adobe Illustrator 21.0.2, SVG Export Plug-In . SVG Version: 6.00 Build 0)  -->
<svg version="1.1" id="Layer_1" xmlns="http://www.w3.org/2000/svg" xmlns:xlink="http://www.w3.org/1999/xlink" x="0px" y="0px"
	 viewBox="0 0 800 800" style="enable-background:new 0 0 800 800;" xml:space="preserve">
<style type="text/css">
	.st0{fill:none;stroke:#049DE9;stroke-width:6;stroke-miterlimit:10;}
</style>
<g>
	<title>fans</title>
	<circle class="st0" cx="407.2" cy="480.3" r="63.9"/>
	<path class="st0" d="M442.6,401l-71.1-0.5c-12,0-21.6-9.9-21.6-21.8c0-0.3,0-0.3,0-0.5l8.8-308c0.3-11.7,10.1-21.3,21.8-21h57
		c11.7,0,21.3,9.6,21.6,21.3l4.8,308.3c0.5,12-9.1,22.1-21,22.6C442.8,401,442.6,401,442.6,401z"/>
	<path class="st0" d="M316.6,491.8l32.7,62.8c5.6,10.6,1.3,23.7-9.1,29.3c-0.3,0-0.3,0.3-0.5,0.3L63.4,721
		c-10.6,5.3-23.4,1.1-29-9.3L7.8,661.1c-5.3-10.4-1.6-23.4,8.8-29l270-149.1c10.6-5.9,23.7-1.9,29.6,8.5
		C316.4,491.5,316.6,491.8,316.6,491.8z"/>
	<path class="st0" d="M461.7,553.8l38.9-59.1c6.7-10.1,20-12.8,30.1-6.1c0.3,0,0.3,0.3,0.5,0.3l254,174.9c9.9,6.7,12.2,20,5.9,29.8
		l-31.4,47.7c-6.4,9.9-19.7,12.8-29.8,6.4L468.1,584.4c-10.1-6.4-13.3-20-6.7-30.1C461.5,554.1,461.5,553.8,461.7,553.8z"/>
</g>
</svg>
