<?xml version="1.0" encoding="utf-8"?>
<!-- Generator: Adobe Illustrator 21.0.2, SVG Export Plug-In . SVG Version: 6.00 Build 0)  -->
<svg version="1.1" id="Layer_1" xmlns="http://www.w3.org/2000/svg" xmlns:xlink="http://www.w3.org/1999/xlink" x="0px" y="0px"
	 viewBox="0 0 800 800" style="enable-background:new 0 0 800 800;" xml:space="preserve">
<style type="text/css">
	.st0{fill:none;stroke:#049DE9;stroke-width:6;stroke-miterlimit:10;}
</style>
<g>
	<title>fire protection</title>
	<path class="st0" d="M610.6,625.3c-64.3,63-135,119-210.6,167.6c-69.1-44.1-133.7-94.5-193.3-150.7
		c-41.2-38.6-72.5-86.4-91.1-139.5C65.9,359.3,86.7,197.5,86.7,197.5C219.1,160.2,212.5,7.1,212.5,7.1h375
		c0,0-6.6,153.1,125.8,190.4c0,0,26.3,205.1-51.2,358.2C648.7,581.5,631.4,605.1,610.6,625.3z"/>
	<path class="st0" d="M519.5,632.7c-37.8,32.3-77.7,61.7-119.5,88.5c-39.9-25.5-78.3-53.8-114.5-84.3
		c-80.9-67.8-131.8-164.4-142.1-269.2c-4.2-44.4-4.2-89,0.5-133.2C252.1,204.1,264.2,64.1,264.2,64.1h271.3
		c0,0,12.1,140,120.3,170.4c5,47.8,4.7,96.1-0.5,143.9C643.7,477.2,595.4,568.1,519.5,632.7z"/>
	<path class="st0" d="M359.8,163.6c1.8,43.6-9.5,86.7-32.8,123.7c0,0-8.7-28.4-18.6-37.3c0,0-19.7,44.9-30.7,62.5
		c-11,17.6-82.7,195.9,82.5,244c0,0-64.9-99.5,11.8-179.4c0,0-3.2,122.6,89.8,179.4c0,0,172.8-98.5,42.8-282.3
		c0,0-14.2,42.8-28.4,44.9C475.9,319.1,468.3,228.2,359.8,163.6z"/>
</g>
</svg>
