<svg id="Layer_1" data-name="Layer 1" xmlns="http://www.w3.org/2000/svg" viewBox="0 0 800 800"><defs><style>.cls-1{fill:none;stroke:#049de9;stroke-miterlimit:10;stroke-width:6px;}</style></defs><title>Fire safetyomaxe icons</title><line class="cls-1" x1="19.45" y1="309.14" x2="621.75" y2="117.5"/><line class="cls-1" x1="47.14" y1="398.89" x2="649.43" y2="207.25"/><line class="cls-1" x1="108.57" y1="280.79" x2="138.03" y2="369.97"/><line class="cls-1" x1="216.61" y1="245.1" x2="246.06" y2="334.29"/><line class="cls-1" x1="319.38" y1="211.16" x2="348.83" y2="300.35"/><line class="cls-1" x1="424.94" y1="180.23" x2="454.4" y2="269.42"/><line class="cls-1" x1="533.18" y1="144.48" x2="562.64" y2="233.67"/><path class="cls-1" d="M712.1,389.9H564.27v167H482.14V414.54L49.58,417.28V619.87h49.8a66.31,66.31,0,0,1,126,0h38.49a66.33,66.33,0,0,1,126,0H569.5a66.33,66.33,0,0,1,126,0h85V544.58ZM647.77,540.48V415.91h45.17l57,124.57Z"/><line class="cls-1" x1="628.59" y1="363.9" x2="668.29" y2="363.9"/><circle class="cls-1" cx="162.38" cy="640.58" r="41.92"/><circle class="cls-1" cx="326.91" cy="640.58" r="41.92"/><circle class="cls-1" cx="632.53" cy="640.58" r="41.92"/></svg>