<?xml version="1.0" encoding="utf-8"?>
<!-- Generator: Adobe Illustrator 21.0.2, SVG Export Plug-In . SVG Version: 6.00 Build 0)  -->
<svg version="1.1" id="Layer_1" xmlns="http://www.w3.org/2000/svg" xmlns:xlink="http://www.w3.org/1999/xlink" x="0px" y="0px"
	 viewBox="0 0 800 800" style="enable-background:new 0 0 800 800;" xml:space="preserve">
<style type="text/css">
	.st0{fill:none;stroke:#049DE9;stroke-width:6;stroke-miterlimit:10;}
</style>
<g>
	<title>fittings</title>
	<polyline class="st0" points="473.6,173.8 521.6,173.8 521.6,68.4 287.1,68.4 287.1,173.8 337.2,173.8 	"/>
	<polyline class="st0" points="337.2,173.8 337.2,116.7 473.6,116.7 473.6,173.8 	"/>
	<path class="st0" d="M84.3,212.7h631.5c39.7,0,72.2,32.5,72.2,72.2v374.5c0,39.7-32.5,72.2-72.2,72.2H84.3
		c-39.7,0-72.2-32.5-72.2-72.2V284.9C12.1,245.2,44.6,212.7,84.3,212.7z"/>
	<rect x="12.1" y="407.2" class="st0" width="775.8" height="46.2"/>
	<path class="st0" d="M367.5,495.6l52,49.1c0,0,10.1,63.5-58.5,63.1l-55.6-56.3c0,0-21.3,103.9,71.1,130.3c17.7,3.6,36.1,3.6,53.8,0
		l50.2,45.5h123.8L489.8,619c0,0,35-81.5-64.2-123.8C406.1,492,386.6,492,367.5,495.6z"/>
</g>
</svg>
