<?xml version="1.0" encoding="utf-8"?>
<!-- Generator: Adobe Illustrator 21.0.2, SVG Export Plug-In . SVG Version: 6.00 Build 0)  -->
<svg version="1.1" id="Capa_1" xmlns="http://www.w3.org/2000/svg" xmlns:xlink="http://www.w3.org/1999/xlink" x="0px" y="0px"
	 viewBox="0 0 800 800" style="enable-background:new 0 0 800 800;" xml:space="preserve">
<style type="text/css">
	.st0{fill:none;stroke:#049DE9;stroke-width:6;stroke-miterlimit:10;}
</style>
<g>
	<path class="st0" d="M777.7,791.6H22.3c-7.6,0-13.9-6.3-13.9-13.9V22.3c0-7.6,6.3-13.9,13.9-13.9h755.3c7.6,0,13.9,6.3,13.9,13.9
		v755.3C791.6,785.3,785.3,791.6,777.7,791.6z M593.9,763.7h169.8V593.9L606.3,751.5l0,0l0,0L593.9,763.7z M377.2,763.7h177.4l22-22
		L488,653L377.2,763.7z M174.8,763.7h163.1L580,521.6l-81.5-81.5L241.4,697.2l0,0L174.8,763.7z M36.3,763.7h99.1l76.3-76.3
		l-85.5-85.7l-89.9,89.9V763.7z M507.7,633.3l88.7,88.7l167.3-167.3V377.2L609.4,531.5l0,0L507.7,633.3z M145.9,582l85.5,85.5
		l427.1-427.1L573,155L405.5,322.5l0,0L145.9,582z M36.3,465.3v187.1l80-80l0.2-0.2l0.2-0.2L376,312.7L284.4,221L36.3,465.3z
		 M518.1,420.5l81.5,81.5l163.7-163.7c0.2-0.2,0.3-0.3,0.5-0.5V174.8L518.1,420.5z M36.3,238v188.1l110.3-108.6L52,223L36.3,238z
		 M72.4,204.1l94.1,94.1L431.5,37.2h-182L72.4,204.1z M304.2,201.5l91.5,91.5L652.4,36.3H472L304.2,201.5z M592.7,135.2l85.5,85.5
		l85.5-85.4V36.3h-72L592.7,135.2z M36.3,36.3v163.4l5.2-4.9c0.3-0.3,0.6-0.8,0.9-1.1c0.6-0.5,1.1-1.1,1.7-1.4l165.7-156
		C209.7,36.3,36.3,36.3,36.3,36.3z"/>
</g>
</svg>
