<svg id="Layer_1" data-name="Layer 1" xmlns="http://www.w3.org/2000/svg" viewBox="0 0 800 800"><defs><style>.cls-1{fill:none;stroke:#049de9;stroke-miterlimit:10;stroke-width:6px;}</style></defs><title>Food Courtomaxe icons</title><polygon class="cls-1" points="398.03 193.91 92.63 502.8 92.63 781.49 703.43 781.49 703.43 502.8 398.03 193.91"/><path class="cls-1" d="M778.17,462.19a50.44,50.44,0,0,1-71.35,0L400,155.37,93.18,462.19a50.44,50.44,0,0,1-71.35-71.33L390,22.71a14.4,14.4,0,0,1,9.48-4.19c.37,0,.73,0,1.1,0A14.43,14.43,0,0,1,410,22.71L471.34,84,778.17,390.86A50.45,50.45,0,0,1,778.17,462.19Z"/><path class="cls-1" d="M415.25,600.91l-21.67,21.53-71,70.49a15.28,15.28,0,0,1-21.53-21.68l70.81-70.34,21.67-21.53Z"/><path class="cls-1" d="M486.13,692.85a15.27,15.27,0,0,1-21.6.07l-71-70.49-21.67-21.53-60-59.56c-19.45,6.7-46.63-1.7-67.57-22.63-26.3-26.3-32.79-62.45-14.5-80.74s54.44-11.8,80.74,14.5c20.79,20.79,29.2,47.7,22.78,67.12l60.17,59.78,21.67,21.53L486,671.24A15.28,15.28,0,0,1,486.13,692.85Z"/><path class="cls-1" d="M586.9,468.84l-77.3,70.1a14.72,14.72,0,0,1-20.79-1L484,532.62l-68.75,68.29-21.67-21.53L463.46,510l-6.16-6.79a14.72,14.72,0,0,1,1-20.79l77.29-70.1.68.75a9.55,9.55,0,0,1-.65,13.49L496.86,461.7l8.21,9.06,42-38.1a5.19,5.19,0,0,1,7,7.68l-42,38.1,6.73,7.41,42-38.09a5.19,5.19,0,1,1,7,7.68l-42,38.1L534,502.6l38.92-35.29a9.35,9.35,0,0,1,13.22.64Z"/></svg>