<?xml version="1.0" encoding="utf-8"?>
<!-- Generator: Adobe Illustrator 21.0.2, SVG Export Plug-In . SVG Version: 6.00 Build 0)  -->
<svg version="1.1" id="Layer_1" xmlns="http://www.w3.org/2000/svg" xmlns:xlink="http://www.w3.org/1999/xlink" x="0px" y="0px"
	 viewBox="0 0 500 500" style="enable-background:new 0 0 500 500;" xml:space="preserve">
<style type="text/css">
	.st0{fill:none;stroke:#049DE9;stroke-width:6;stroke-miterlimit:10;}
</style>
<title>furnishings</title>
<g>
	<path class="st0" d="M466.5,71.8v71.5c-0.2,10.5-8.5,18.8-19,19H248.1"/>
	<path class="st0" d="M22.3,61.6v39.5C11.5,100.5,3,91,3.7,80.2C4.3,70.3,12.3,62.1,22.3,61.6z"/>
	<path class="st0" d="M466.5,71.8V23c-0.2-10.5-8.5-18.8-19-19H41.7c-10.7,0-19.2,8.5-19.4,19v120.3c0.2,10.7,8.7,19,19.4,19h206.8"
		/>
	<path class="st0" d="M466.5,71.8h11.6c10.1,0,18.2,8.1,18.2,18.2l0,0v107.7c0,10.1-8.1,18.2-18.2,18.2h-230"/>
	<path class="st0" d="M210.5,270.6h63.8c8.3,0,14.9,6.6,14.9,14.9v195.5c0,8.3-6.6,14.9-14.9,14.9h-63.8c-8.3,0-14.9-6.6-14.9-14.9
		V285.6C195.6,277.2,202.4,270.6,210.5,270.6z"/>
	<polyline class="st0" points="248.1,270.6 248.1,216 390.1,216 	"/>
</g>
</svg>
