<svg id="Layer_1" data-name="Layer 1" xmlns="http://www.w3.org/2000/svg" viewBox="0 0 150 150"><defs><style>.cls-1{fill:none;stroke:#29abe2;stroke-linecap:round;stroke-linejoin:round;}</style></defs><title>Geyser</title><path class="cls-1" d="M85.33,114.58h13.4a10.94,10.94,0,0,0,10.9-10.08H40.38a10.94,10.94,0,0,0,10.9,10.08H65.51a2.21,2.21,0,0,1,4.08,0H81.25"/><path class="cls-1" d="M98.72,21H51.28A10.94,10.94,0,0,0,40.38,31h69.24A10.94,10.94,0,0,0,98.72,21Z"/><path class="cls-1" d="M109.67,39a7.49,7.49,0,0,0,0-.78H40.38a7.49,7.49,0,0,0,0,.78V98c0,.24,0,.47,0,.71h69.25c0-.23,0-.47,0-.71Z"/><circle class="cls-1" cx="83.29" cy="115.44" r="2.22"/><polyline class="cls-1" points="70.17 122.63 70.17 129 64.36 129 64.36 122.63"/><polyline class="cls-1" points="86.2 122.63 86.2 129 80.39 129 80.39 122.63"/><path class="cls-1" d="M85.33,114.58h9.84v.61a7.44,7.44,0,0,1-7.44,7.44H63.23a7.44,7.44,0,0,1-7.44-7.44v-.61h9.72a2,2,0,0,0-.18.86,2.22,2.22,0,1,0,4.43,0,2.2,2.2,0,0,0-.17-.86H81.25"/></svg>