<?xml version="1.0" encoding="utf-8"?>
<!-- Generator: Adobe Illustrator 21.0.2, SVG Export Plug-In . SVG Version: 6.00 Build 0)  -->
<svg version="1.1" id="Layer_1" xmlns="http://www.w3.org/2000/svg" xmlns:xlink="http://www.w3.org/1999/xlink" x="0px" y="0px"
	 viewBox="0 0 800 800" style="enable-background:new 0 0 800 800;" xml:space="preserve">
<style type="text/css">
	.st0{fill:none;stroke:#049DE9;stroke-width:6;stroke-miterlimit:10;}
</style>
<g>
	<title>green area</title>
	<path class="st0" d="M370.1,8.4L231.4,244.7c-46.5,79.1-19.9,181.2,59.2,227.4c25.6,15,54.5,22.9,84.1,22.9l0,0
		c91.8-0.3,165.9-74.8,165.9-166.6c0-30.9-8.6-61.2-24.9-87.4L370.1,8.4z"/>
	<path class="st0" d="M454.2,225.1c0,0,64.2,117.4-15.6,193.2"/>
	<line class="st0" x1="374.7" y1="495.1" x2="374.7" y2="791.6"/>
	<path class="st0" d="M668.3,249.4l-96.1,163.9c-32.2,54.9-14,125,40.9,157.2c18,10.3,38.2,16,58.8,16l0,0
		c63.5,0,115-51.2,115-114.7c0-21.6-6-42.9-17.6-61.2L668.3,249.4z"/>
	<path class="st0" d="M726.5,399.3c0,0,44.2,81.1-11,133.6"/>
	<line class="st0" x1="671.3" y1="586.5" x2="671.3" y2="791.6"/>
	<line class="st0" x1="13" y1="791.6" x2="786.3" y2="791.6"/>
	<rect x="29" y="644.7" class="st0" width="302.2" height="37.9"/>
	<rect x="29" y="730.8" class="st0" width="302.2" height="1"/>
	<line class="st0" x1="78.5" y1="730.8" x2="78.5" y2="791.6"/>
	<line class="st0" x1="268.4" y1="730.8" x2="268.4" y2="791.6"/>
	<line class="st0" x1="60.9" y1="682.2" x2="60.9" y2="644.7"/>
	<line class="st0" x1="100.5" y1="682.2" x2="100.5" y2="644.7"/>
	<line class="st0" x1="139.7" y1="682.2" x2="139.7" y2="644.7"/>
	<line class="st0" x1="178.9" y1="682.2" x2="178.9" y2="644.7"/>
	<line class="st0" x1="218.2" y1="682.2" x2="218.2" y2="644.7"/>
	<line class="st0" x1="257.4" y1="682.2" x2="257.4" y2="644.7"/>
	<line class="st0" x1="296.6" y1="682.2" x2="296.6" y2="644.7"/>
	<line class="st0" x1="78.5" y1="682.2" x2="78.5" y2="730.8"/>
	<line class="st0" x1="268.4" y1="682.2" x2="268.4" y2="730.8"/>
</g>
</svg>
