<?xml version="1.0" encoding="utf-8"?>
<!-- Generator: Adobe Illustrator 21.0.2, SVG Export Plug-In . SVG Version: 6.00 Build 0)  -->
<svg version="1.1" id="Layer_1" xmlns="http://www.w3.org/2000/svg" xmlns:xlink="http://www.w3.org/1999/xlink" x="0px" y="0px"
	 viewBox="0 0 800 800" style="enable-background:new 0 0 800 800;" xml:space="preserve">
<style type="text/css">
	.st0{fill:none;stroke:#049DE9;stroke-width:6;stroke-miterlimit:10;}
</style>
<title>health</title>
<g>
	<path class="st0" d="M103.6,149.8h105.2c9.1,0,16.4,7.3,16.4,16.4v467.7c0,9.1-7.3,16.4-16.4,16.4H103.6c-9.1,0-16.4-7.3-16.4-16.4
		V165.9C87.5,157.1,94.8,149.8,103.6,149.8z"/>
	<path class="st0" d="M21.4,247.4h49.7c9.1,0,16.4,7.3,16.4,16.4v272.1c0,9.1-7.3,16.4-16.4,16.4H21.4C12.3,552.3,5,545,5,535.9
		V263.8C5,254.8,12.3,247.4,21.4,247.4z"/>
	<path class="st0" d="M696.4,650H591.1c-9.1,0-16.4-7.3-16.4-16.4V166.2c0-9.1,7.3-16.4,16.4-16.4h105.2c9.1,0,16.4,7.3,16.4,16.4
		v467.7C712.5,642.7,705.2,650,696.4,650z"/>
	<path class="st0" d="M778.6,552.3h-49.7c-9.1,0-16.4-7.3-16.4-16.4V263.8c0-9.1,7.3-16.4,16.4-16.4h49.7c9.1,0,16.4,7.3,16.4,16.4
		v272.1C795,545,787.7,552.3,778.6,552.3z"/>
	<path class="st0" d="M241.7,350.9h316.7c9.1,0,16.4,7.3,16.4,16.4v61.2c0,9.1-7.3,16.4-16.4,16.4H241.7c-9.1,0-16.4-7.3-16.4-16.4
		v-61.2C225.3,358.3,232.6,350.9,241.7,350.9z"/>
</g>
</svg>
