<?xml version="1.0" encoding="utf-8"?>
<!-- Generator: Adobe Illustrator 21.0.2, SVG Export Plug-In . SVG Version: 6.00 Build 0)  -->
<svg version="1.1" id="Layer_1" xmlns="http://www.w3.org/2000/svg" xmlns:xlink="http://www.w3.org/1999/xlink" x="0px" y="0px"
	 viewBox="0 0 800 800" style="enable-background:new 0 0 800 800;" xml:space="preserve">
<style type="text/css">
	.st0{fill:none;stroke:#049DE9;stroke-width:6;stroke-miterlimit:10;}
</style>
<g>
	<g>
		<g>
			<path class="st0" d="M692.6,189.3c-6.5-10-20.1-11.6-28.5-3.9c-34.5,31.2-36.9,33.3-46,42.4l-49-6.8l-4.9,13.5
				c6.1,13,7.2,28,2.5,41.7l9.8,1.4c-12.8,18-24,37.1-33.4,57.1c-1.6,30.8,1.2,61.8,8.6,92.1c11.2-52.5,34.3-101.5,67.7-143.2
				l19.6,2.6c15.1,2.1,28.9-8.4,31-23.5c1.2-9.1-2.1-17.7-8.2-23.6l27.8-25.2C696,207.5,697.7,197,692.6,189.3z"/>
		</g>
	</g>
	<g>
		<g>
			<path class="st0" d="M546.5,166.2c-9.8-3.7-20.7,1.4-24.3,11.2l-9.6,25.9c13.5-0.5,26.1,4,35.9,11.9l9.1-24.5
				C561.2,180.7,556.3,169.9,546.5,166.2z"/>
		</g>
	</g>
	<g>
		<g>
			<path class="st0" d="M573.4,727.5c30.8-7.9,53.6-35.9,53.6-69.1c0-12.6-3.3-24.3-8.9-34.5c-6.1-11-15.2-20.3-26.1-26.8
				l-46.9-120.1c-20.7-52.7-27.8-109.2-21.5-164.6c-1.9,0.4,0.4,0-38.5,4.4c-5.3,58.6,3,118.2,24.9,174l37.3,95.2l-24-3.2
				l-22.4-57.1l-5.8,53.4l-70-9.3c-5.3,8.4-12.1,15.2-21.4,20.5l11.7,0.5c11.4,0.5,20.8,9.5,21.4,20.8c0.7,13.3-10.3,23.6-22.9,23.1
				c-9.1-0.5-69.3-3.3-77.4-3.7c-12.1-0.5-21.5-10.9-20.8-22.9c0.5-10.5,8.6-21.5,25-20.8c-10.9-7.7-19.1-18.9-22.9-31.7l-38.5-5.1
				l18.9-59.5c1.4-4.2,1.8-8.4,1.4-12.8L293,413c-60.7-11.4-59-10.7-65.1-13l7.7,77.9l-19.6,61.6c-62.3,4-111.5,55.8-111.5,119
				c0,35,15.1,66.3,38.9,88.2l-17.7,17.3c-5.4,5.4-6.3,14-1.8,20c5.6,7.5,16.5,8.1,22.9,1.8l21.7-21.7c16.5,8.6,35.4,13.7,55.3,13.7
				c17.9,0,312-45.5,312-45.5l52.7,53.6c5.8,6,15.4,6,21.4,0.2c6-5.8,6-15.4,0.2-21.4L573.4,727.5z M295.1,662.2
				c-1.9,36.2-31.3,65.6-67.6,67.6c-42.4,2.1-77.2-32.6-74.9-74.9c1.8-36.2,31.3-65.6,67.6-67.6
				C262.3,585.1,297.2,619.8,295.1,662.2z"/>
		</g>
	</g>
	<g>
		<g>
			<path class="st0" d="M430.9,16.5c-32.6-17-72.3-1.6-84.9,32.9c-10.5,28.4,2.1,60.6,28.9,74.6c32.6,17,72.3,1.6,84.9-32.9
				C470.3,62.7,457.7,30.5,430.9,16.5z"/>
		</g>
	</g>
	<g>
		<g>
			<path class="st0" d="M511.4,231l-94.4,10.7l-57.2-68.3c12.3,8.8,30.5,21.4,57.6,40.6l69.1-7.7c0,0-101.7-44.6-163-71.8
				c-18.7-8.2-41.5,3.5-49.9,25.6c-6,15.8-53.2,139.9-60.7,160.2c-8.2,21.9,0,45.5,19.3,52.9c6.5,3.5,0.2,1.8,124.5,24.9
				l-14.9,137.2c-2.1,19.6,13.1,36.4,32.7,36.4c16.6,0,30.8-12.4,32.7-29.4l18.2-167.5c1.9-17.2-9.8-32.7-26.8-35.9l-52.3-9.8
				l13.1-31.5c-4.4-9.5-37.5-79.7-41.7-88.6l66.7,79.5c5.8,7,14.9,10.7,24.2,9.6L517,285.9c14-1.6,25.2-13.1,25-27.3
				C541.9,241.7,527.5,229.1,511.4,231z"/>
		</g>
	</g>
</g>
</svg>
