<svg id="Layer_1" data-name="Layer 1" xmlns="http://www.w3.org/2000/svg" viewBox="0 0 800 800"><defs><style>.cls-1{fill:none;stroke:#049de9;stroke-miterlimit:10;stroke-width:6px;}</style></defs><title>Hvacomaxe icons</title><path class="cls-1" d="M466.18,148.45c-2.9,69.05-16.8,126.57-30.24,153.82a105.73,105.73,0,0,0-72.67-.61C358,281.22,335.32,199.74,286,116c-31.86-59.44,0-72.3,47.8-71.7S469.25,52.23,466.18,148.45Z"/><path class="cls-1" d="M624.67,268.92c-51,46.9-101.63,77.78-130.34,87.47a105.7,105.7,0,0,0-51.25-51.13c10-16.69,52.43-91.17,77.18-186.71,19.49-64.56,51.13-51.13,84.49-16.89S694.88,203.05,624.67,268.92Z"/><path class="cls-1" d="M755.73,333.82c-.61,47.8-8,135.44-104.18,132.37-68.7-2.89-126-16.66-153.4-30a105.82,105.82,0,0,0-.81-72.64C516,358.8,598.82,336.17,684,286,743.47,254.16,756.34,286,755.73,333.82Z"/><path class="cls-1" d="M698.34,604.74c-34.23,33.37-101.39,90.14-167.26,19.93-46-50-76.57-99.66-86.86-128.63a105.74,105.74,0,0,0,51.05-52.65c17.69,10.52,91.61,52.38,186.18,76.86C746,539.74,732.57,571.38,698.34,604.74Z"/><path class="cls-1" d="M466.18,755.73c-47.8-.61-135.44-8-132.37-104.18,2.83-67.12,16-123.36,29.12-151.48a105.79,105.79,0,0,0,74-.88c5.63,21.77,28.38,102.2,77,184.85C545.84,743.47,514,756.34,466.18,755.73Z"/><path class="cls-1" d="M355.55,497.07c-12,20.48-52.06,92.73-75.8,184.37-19.49,64.56-51.13,51.13-84.49,16.89s-90.14-101.39-19.93-167.26c49.38-45.39,98.37-75.78,127.51-86.46A105.81,105.81,0,0,0,355.55,497.07Z"/><path class="cls-1" d="M293.37,400.92a105,105,0,0,0,6.42,36.29C276.62,443.28,197.37,466.07,116,514c-59.44,31.86-72.3,0-71.7-47.8s8-135.44,104.18-132.37c67.47,2.85,123.93,16.16,151.91,29.32A104.79,104.79,0,0,0,293.37,400.92Z"/><path class="cls-1" d="M356,304.59a105.73,105.73,0,0,0-52.54,51.27c-19.73-11.62-92.45-52.17-184.91-76.11-64.56-19.49-51.13-51.13-16.9-84.49s101.39-90.14,167.26-19.93C315.23,225.7,345.93,275.71,356,304.59Z"/><circle class="cls-1" cx="400" cy="401.84" r="86.74"/></svg>