<?xml version="1.0" encoding="utf-8"?>
<!-- Generator: Adobe Illustrator 21.0.2, SVG Export Plug-In . SVG Version: 6.00 Build 0)  -->
<svg version="1.1" id="Layer_1" xmlns="http://www.w3.org/2000/svg" xmlns:xlink="http://www.w3.org/1999/xlink" x="0px" y="0px"
	 viewBox="0 0 800 800" style="enable-background:new 0 0 800 800;" xml:space="preserve">
<style type="text/css">
	.st0{fill:none;stroke:#049DE9;stroke-width:6;stroke-miterlimit:10;}
</style>
<g>
	<path class="st0" d="M89.6,400.8l44.8,41.3l9.7,95.5c1.2,11.9,11.3,20.8,23,20.8c0.8,0,1.6,0,2.4-0.1c12.7-1.3,22-12.6,20.7-25.4
		l-10.6-104.2c-0.6-5.6-3.1-10.8-7.3-14.7l-51.9-48c-9.3,3-18.1,6.6-26.3,11.1L89.6,400.8z"/>
	<path class="st0" d="M106.1,355.1c-2.2,0-4.2-0.4-6.2-1c-2.6-0.8-5-2.3-7.1-4.1l-10.6-0.4c-2.9-0.1-5.6-1.3-7.5-3.2
		c-1.7-1.8-2.5-4-2.4-6.2c0.1-4.9,4.6-8.9,10.1-8.9c0.1,0,0.4,0,0.5,0l3.7,0.1c0.1-0.8,0.4-1.6,0.6-2.4l11.5-35.1
		c-9.6,4-19.6,8.8-30.6,14.9c-7.9,5.2-13,10.7-16.1,16.2c-1.8,2.6-3.1,5.8-3.7,9.1L12.4,531c-2.4,13.1,6.2,25.6,19.3,28
		c1.4,0.2,2.9,0.4,4.3,0.4c11.4,0,21.5-8.2,23.7-19.8L90,374.3c20.7-11.7,46.4-17.9,69.2-22.5l-40.6-1.2
		C115.1,353.4,110.8,355.1,106.1,355.1z"/>
	<path class="st0" d="M248.3,330.5c-19.6,0-37-11.8-44.3-29.8c-2-5.2-3.2-10.5-3.5-15.7c-5.2-2.9-11.3-4.9-18.3-5.8l11.9,10.1
		c8.3,7.1,9.4,19.6,2.3,28c-3.7,4.4-9.3,7-15.1,7c-4.7,0-9.3-1.7-12.9-4.7l-28.2-24l-12.4,37.6l277.6,11.7c0.2-1,0.4-1.9,0.5-3
		c0.5-8.5-6.1-15.7-14.7-16.2L278.4,320c-3.6,3-7.7,5.4-12.3,7.2C260.4,329.5,254.4,330.5,248.3,330.5z"/>
	
		<ellipse transform="matrix(0.9268 -0.3755 0.3755 0.9268 -88.0362 113.9211)" class="st0" cx="248.3" cy="282.8" rx="43.4" ry="43.4"/>
	<path class="st0" d="M122.6,346.3l375.3,10.8c3.1,0.1,3.4-4,0.1-4.1l-371.8-15.6l-1.3,4C124.4,343.2,123.5,344.8,122.6,346.3z"/>
	<path class="st0" d="M82.7,335.6c-3.1-0.1-5.9,1.9-5.9,4.6c-0.1,2.6,2.4,4.9,5.6,4.9l6.7,0.2c-0.2-0.4-0.5-0.8-0.7-1.2
		c-1.3-2.6-2-5.5-2-8.3L82.7,335.6z"/>
	<path class="st0" d="M140.5,249.5c-4-3.4-9.3-4.4-14.2-3.1c-4.9,1.4-8.9,5.2-10.5,10l-24.4,73.9c-2.6,8.1,1.7,16.8,9.9,19.5
		c1.6,0.5,3.2,0.8,4.8,0.8c6.5,0,12.5-4.1,14.7-10.6l17.2-52.2l33.3,28.2c6.5,5.5,16.2,4.7,21.8-1.8c5.5-6.5,4.7-16.2-1.8-21.8
		L140.5,249.5z"/>
	<polygon class="st0" points="231.9,463.1 213.3,560.6 243.6,560.6 272.4,463.1 	"/>
	<polygon class="st0" points="753.1,560.6 734.5,463.1 694,463.1 723,560.6 	"/>
	<path class="st0" d="M178.7,373.2l18.3,70.9c1.3,5.2,6.7,9.4,12,9.4h548.5c5.3,0,10.7-4.2,12-9.4l18.3-70.9
		c1.3-5.2-1.9-9.4-7.2-9.4H185.9C180.6,363.8,177.4,368,178.7,373.2z"/>
</g>
</svg>
