<?xml version="1.0" encoding="utf-8"?>
<!-- Generator: Adobe Illustrator 21.0.2, SVG Export Plug-In . SVG Version: 6.00 Build 0)  -->
<svg version="1.1" id="Capa_1" xmlns="http://www.w3.org/2000/svg" xmlns:xlink="http://www.w3.org/1999/xlink" x="0px" y="0px"
	 viewBox="0 0 800 800" style="enable-background:new 0 0 800 800;" xml:space="preserve">
<style type="text/css">
	.st0{fill:none;stroke:#049DE9;stroke-width:6;stroke-miterlimit:10;}
</style>
<g>
	<g>
		<g>
			<path class="st0" d="M731.2,15H68.8C38.6,15,15,38.6,15,68.8v662.3c0,30.2,23.6,53.8,53.8,53.8h662.3c30.2,0,53.8-23.6,53.8-53.8
				V68.8C785,38.6,761.4,15,731.2,15z M760.2,731.2c0,16.2-12.8,29-29,29H68.8c-16.2,0-29-12.8-29-29V68.8c0-16.2,12.8-29,29-29
				h662.3c16.2,0,29,12.8,29,29V731.2L760.2,731.2z"/>
		</g>
	</g>
	<g>
		<g>
			<path class="st0" d="M234.4,97.9c-75.3,0-136.6,61.4-136.6,136.6S159.2,371,234.4,371S371,309.6,371,234.4S309.8,97.9,234.4,97.9
				z M234.4,346.2c-61.7,0-111.7-50.1-111.7-111.7s50.1-111.7,111.7-111.7s111.7,50.1,111.7,111.7S296.1,346.2,234.4,346.2z"/>
		</g>
	</g>
	<g>
		<g>
			<path class="st0" d="M565.6,429c-52.5,0-95.2,42.7-95.2,95.2s42.7,95.2,95.2,95.2c52.5,0,95.2-42.7,95.2-95.2
				C660.8,471.7,618.1,429,565.6,429z M565.6,594.6c-38.8,0-70.4-31.6-70.4-70.4s31.6-70.4,70.4-70.4c38.8,0,70.4,31.6,70.4,70.4
				S604.4,594.6,565.6,594.6z"/>
		</g>
	</g>
	<g>
		<g>
			<path class="st0" d="M234.4,429c-52.5,0-95.2,42.7-95.2,95.2s42.7,95.2,95.2,95.2s95.2-42.7,95.2-95.2S286.9,429,234.4,429z
				 M234.4,594.6c-38.8,0-70.4-31.6-70.4-70.4s31.6-70.4,70.4-70.4s70.4,31.6,70.4,70.4S273.2,594.6,234.4,594.6z"/>
		</g>
	</g>
	<g>
		<g>
			<path class="st0" d="M565.6,97.9c-75.3,0-136.6,61.4-136.6,136.6S490.4,371,565.6,371c75.3,0,136.6-61.4,136.6-136.6
				C702.1,159.1,640.9,97.9,565.6,97.9z M565.6,346.2c-61.7,0-111.7-50.1-111.7-111.7s50.1-111.7,111.7-111.7
				s111.7,50.1,111.7,111.7C677.3,296.1,627.2,346.2,565.6,346.2z"/>
		</g>
	</g>
	<g>
		<g>
			<path class="st0" d="M276.1,677.3c-88.7-1.8-88.9-1.8-93.5,5.7c-2.3,3.8-2.6,8.4-0.6,12.2c2.1,4.4,6.6,6.9,11.1,6.9
				c1.1,0,2.3-0.2,3.5-0.5c7.8-0.6,45.4-0.2,79.1,0.5c6.9,0.2,12.5-5.3,12.6-12.2C288.4,683.2,282.8,677.5,276.1,677.3z"/>
		</g>
	</g>
	<g>
		<g>
			<path class="st0" d="M505.1,677.3h-1.7c-6.9,0-12.5,5.6-12.5,12.5s5.6,12.5,12.5,12.5h1.7c6.9,0,12.5-5.6,12.5-12.5
				C517.6,682.9,512,677.3,505.1,677.3z"/>
		</g>
	</g>
	<g>
		<g>
			<path class="st0" d="M546.5,677.3h-1.7c-6.9,0-12.5,5.6-12.5,12.5s5.6,12.5,12.5,12.5h1.7c6.9,0,12.5-5.6,12.5-12.5
				C559,682.9,553.4,677.3,546.5,677.3z"/>
		</g>
	</g>
	<g>
		<g>
			<path class="st0" d="M588,677.3h-1.7c-6.9,0-12.5,5.6-12.5,12.5s5.6,12.5,12.5,12.5h1.7c6.9,0,12.5-5.6,12.5-12.5
				C600.3,682.9,594.8,677.3,588,677.3z"/>
		</g>
	</g>
	<g>
		<g>
			<path class="st0" d="M629.3,677.3h-1.7c-6.9,0-12.5,5.6-12.5,12.5s5.6,12.5,12.5,12.5h1.7c6.9,0,12.5-5.6,12.5-12.5
				C641.8,682.9,636.3,677.3,629.3,677.3z"/>
		</g>
	</g>
</g>
</svg>
