<?xml version="1.0" encoding="utf-8"?>
<!-- Generator: Adobe Illustrator 21.0.2, SVG Export Plug-In . SVG Version: 6.00 Build 0)  -->
<svg version="1.1" id="Capa_1" xmlns="http://www.w3.org/2000/svg" xmlns:xlink="http://www.w3.org/1999/xlink" x="0px" y="0px"
	 viewBox="0 0 800 800" style="enable-background:new 0 0 800 800;" xml:space="preserve">
<style type="text/css">
	.st0{fill:none;stroke:#049DE9;stroke-width:6;stroke-miterlimit:10;}
</style>
<g>
	<path class="st0" d="M311.4,402.3c0-55.7-45.2-101-101-101s-101,45.2-101,101s45.2,101,101,101S311.4,457.9,311.4,402.3z
		 M134.5,402.3c0-41.7,34-75.9,75.9-75.9s75.9,34,75.9,75.9s-34,75.9-75.9,75.9S134.5,444,134.5,402.3z"/>
	<path class="st0" d="M210.4,371.5c7.3,0,13.1-5.9,13.1-13.1s-5.9-13.1-13.1-13.1c-7.2,0-13.1,5.9-13.1,13.1
		S203.1,371.5,210.4,371.5z"/>
	<path class="st0" d="M179,368.9c-2-1.2-4.3-1.8-6.5-1.8c-4.7,0-9,2.6-11.4,6.5c-1.8,3-2.3,6.5-1.4,10.1c0.9,3.4,3,6.2,6.1,8.1
		c2,1.2,4.3,1.8,6.5,1.8c4.7,0,9-2.6,11.4-6.5c1.8-3,2.3-6.5,1.4-10.1S182,370.6,179,368.9z"/>
	<path class="st0" d="M172.4,411.6L172.4,411.6c-7,0-12.6,5.6-12.6,12.6s5.6,12.6,12.6,12.6s12.6-5.6,12.6-12.6
		S179.3,411.6,172.4,411.6z"/>
	<path class="st0" d="M223.6,446.2c0-7.3-5.9-13.1-13.1-13.1s-13.1,5.9-13.1,13.1s5.9,13.1,13.1,13.1
		C217.7,459.3,223.6,453.5,223.6,446.2z"/>
	<path class="st0" d="M241.9,435.6c2,1.2,4.3,1.8,6.5,1.8c4.7,0,9-2.6,11.4-6.5c1.8-3,2.3-6.5,1.4-10.1c-0.9-3.4-3-6.2-6.1-7.9
		c-2-1.2-4.3-1.8-6.5-1.8c-4.7,0-9.1,2.6-11.4,6.5c-1.8,3-2.3,6.5-1.4,10.1C236.7,431.2,238.7,433.8,241.9,435.6z"/>
	<path class="st0" d="M248.4,393.5c2.3,0,4.6-0.6,6.5-1.8c6.2-3.7,8.4-11.7,4.9-18c-2.3-4.1-6.7-6.5-11.4-6.5
		c-2.3,0-4.6,0.6-6.5,1.8c-6.2,3.7-8.4,11.7-4.9,18C239.3,390.9,243.7,393.5,248.4,393.5z"/>
	<path class="st0" d="M210.4,194.5c19.6,0,35.8-16,35.8-35.8c0-7-5.6-12.6-12.6-12.6c-7,0-12.6,5.6-12.6,12.6
		c0,5.8-4.7,10.7-10.7,10.7s-10.7-4.7-10.7-10.7s4.7-10.7,10.7-10.7c7,0,12.6-5.6,12.6-12.6s-5.6-12.6-12.6-12.6
		c-19.6,0-35.8,16-35.8,35.8S190.7,194.5,210.4,194.5z"/>
	<path class="st0" d="M151.6,262.2h69.2c7,0,12.6-5.6,12.6-12.6c0-7-5.6-12.6-12.6-12.6h-69.2c-15.2,0-27.7-12.3-27.9-27.7
		c1.8-68.4,4.6-120,5.3-134.2c0.5-7-4.9-12.9-11.9-13.3c-6.9-0.5-12.9,4.9-13.3,11.9c-0.8,14.3-3.7,66.3-5.3,135.1
		c0,0.2,0,0.2,0,0.3C98.7,238.4,122.5,262.2,151.6,262.2z"/>
	<path class="st0" d="M259.9,262.2h9.3c29.2,0,53-23.8,53-53c0-0.2,0-0.2,0-0.3c-1.8-68.8-4.6-120.8-5.3-135.1
		c-0.5-7-6.4-12.2-13.3-11.9c-7,0.5-12.2,6.4-11.9,13.3c0.8,14.2,3.5,65.8,5.3,134.2c-0.2,15.2-12.5,27.7-27.9,27.7h-9.3
		c-7,0-12.6,5.6-12.6,12.6S253,262.2,259.9,262.2z"/>
	<path class="st0" d="M741.5,58c-1.1-17.5-15.4-34.7-32.4-39.1c-1.4-0.3-35.6-8.8-119.4-8.8s-118,8.5-119.4,8.8
		c-17.1,4.4-31.4,21.6-32.4,39.1c-0.2,1.4-8.1,132.2-8.1,285.4c0.2,153.2,8.1,284.1,8.1,285.4c1.1,17.7,15.4,34.9,32.4,39.1
		c1.4,0.3,32.3,8.1,107.4,8.8v49.8c0,21-17.1,38.2-38.2,38.2H261.1c-21,0-38.2-17.1-38.2-38.2v-49.8c74.6-0.8,105.6-8.4,106.8-8.7
		c17.1-4.4,31.4-21.6,32.4-39.1c0.2-1.4,8.1-132.2,8.1-285.4c-0.2-153.2-8.1-284.1-8.1-285.4c-0.9-17.7-15.2-34.9-32.3-39.3
		c-1.4-0.3-35.5-8.8-119.4-8.8s-118,8.5-119.4,8.8C73.9,23.3,59.6,40.5,58.5,58c-0.2,1.4-8.1,132.2-8.1,285.4
		c0.2,153.2,8.1,284.1,8.1,285.4c1.1,17.7,15.4,34.9,32.4,39.1c1.4,0.3,32.1,7.9,106.8,8.7v49.8c0,34.9,28.5,63.4,63.4,63.4h278.3
		c34.9,0,63.4-28.5,63.4-63.4v-49.8c74.3-0.8,104.9-8.4,106.3-8.7c17.1-4.4,31.4-21.6,32.4-39.1c0.2-1.4,8.1-132.2,8.1-285.4
		C749.4,190.3,741.5,59.4,741.5,58z M83.6,627.3c-0.2-1.4-7.9-131.5-8.1-283.8c0.2-152.3,7.9-282.6,8.1-283.8
		c0.5-6.7,7-14.8,13.6-16.3c0.3-0.2,33.2-8.1,113.2-8.1s112.9,7.9,113.2,8.1c6.5,1.7,13.1,9.6,13.6,16.3
		c0.2,1.4,7.9,131.5,8.1,283.8c-0.2,152.3-7.9,282.6-8.1,283.8c-0.5,6.7-7,14.8-13.6,16.3c-0.3,0.2-33.2,8.1-113.2,8.1
		s-112.9-7.9-113.2-7.9C90.6,642,84.1,634.1,83.6,627.3z M716.4,627.3c-0.5,6.7-7,14.8-13.6,16.3c-0.3,0.2-33.2,8.1-113.2,8.1
		s-112.9-7.9-113.2-8.1c-6.5-1.7-13.1-9.6-13.6-16.3c-0.2-1.4-7.9-131.5-8.1-283.8c0.2-152.3,7.9-282.6,8.1-283.9
		c0.5-6.7,7-14.8,13.6-16.3c0.3-0.2,33.2-8.1,113.2-8.1s112.9,7.9,113.2,8.1c6.5,1.7,13.1,9.6,13.6,16.3
		c0.2,1.4,7.9,131.5,8.1,283.8C724.3,495.8,716.5,626,716.4,627.3z"/>
	<path class="st0" d="M530.4,262.9h69.8c7,0,12.6-5.6,12.6-12.6c0-7-5.6-12.6-12.6-12.6h-69.8c-15.5,0-28.2-12.5-28.2-28
		c1.8-69.2,4.6-121.1,5.5-135.4c0.5-7-4.9-12.9-11.9-13.3c-7-0.5-12.9,4.9-13.3,11.9c-0.8,14.5-3.7,66.9-5.5,136.5
		c0,0.2,0,0.2,0,0.3C476.9,239,501,262.9,530.4,262.9z"/>
	<path class="st0" d="M589.6,197.4c7,0,12.6-5.6,12.6-12.6v-45.7c0-7-5.6-12.6-12.6-12.6c-7,0-12.6,5.6-12.6,12.6v45.8
		C577,191.8,582.6,197.4,589.6,197.4z"/>
	<path class="st0" d="M696.9,72.8c-0.5-7-6.4-12.2-13.3-11.9c-7,0.5-12.2,6.4-11.9,13.3c0.8,14.3,3.7,66.6,5.5,135.4
		c-0.2,15.5-12.6,28-28.2,28h-9.3c-7,0-12.6,5.6-12.6,12.6c0,7,5.6,12.6,12.6,12.6h9.3c29.4,0,53.3-23.9,53.3-53.3
		c0-0.2,0-0.2,0-0.3C700.4,139.8,697.6,87.3,696.9,72.8z"/>
	<path class="st0" d="M269.6,598.9c0-7-5.6-12.6-12.6-12.6h-92c-7,0-12.6,5.6-12.6,12.6s5.6,12.6,12.6,12.6h92
		C264,611.4,269.6,605.8,269.6,598.9z"/>
	<path class="st0" d="M681.8,302.4H497.5c-7,0-12.6,5.6-12.6,12.6c0,7,5.6,12.6,12.6,12.6h184.3c7,0,12.6-5.6,12.6-12.6
		C694.4,308,688.6,302.4,681.8,302.4z"/>
</g>
</svg>
