<?xml version="1.0" encoding="utf-8"?>
<!-- Generator: Adobe Illustrator 21.0.2, SVG Export Plug-In . SVG Version: 6.00 Build 0)  -->
<svg version="1.1" id="Capa_1" xmlns="http://www.w3.org/2000/svg" xmlns:xlink="http://www.w3.org/1999/xlink" x="0px" y="0px"
	 viewBox="0 0 512 512" style="enable-background:new 0 0 512 512;" xml:space="preserve">
<style type="text/css">
	.st0{fill:none;stroke:#049DE9;stroke-width:3;stroke-miterlimit:10;}
</style>
<g>
	<g>
		<path class="st0" d="M454.1,160.6l0.2-35.4c0-0.1,0.1-0.2,0.1-0.3c-0.4-22.7-10.8-49.4-27.3-69.5C405.8,29.3,375.9,15,342.8,15
			c-6.1,0-11.9,2.4-16.1,6.8c-4.2,4.3-4,10.2-3.8,16.3v122.5H59.7C27.1,160.5,0,187,0,219.6v15.6c0,32.6,27.1,59,59.7,59h4.9
			l145.7,81.9L70,454.7c-10.9,6.1-14.7,19.8-8.6,30.7c4.1,7.4,11.8,11.5,19.7,11.5c3.7,0,7.5-0.9,11-2.9l164.5-91.9l163.5,91.9
			c3.5,2,7.3,2.9,11,2.9c7.9,0,15.6-4.2,19.7-11.5c6.1-10.9,2.2-24.6-8.6-30.7l-139.6-78.3l147.3-82.3h3.8c32.6,0,58.3-26.4,58.3-59
			v-15.6C512,187.2,486.4,161,454.1,160.6z M368,64.5c30,11.8,41.1,45.3,41.4,61l0,35.1H368L368,64.5L368,64.5z M256.2,350.4
			l-100.3-56.2h200.5L256.2,350.4z M466.9,235.2c0,7.7-6.2,13.9-13.9,13.9H59c-7.7,0-13.9-6.2-13.9-13.9v-15.6
			c0-7.7,6.2-13.9,13.9-13.9h394c7.7,0,13.9,6.2,13.9,13.9V235.2L466.9,235.2z"/>
	</g>
</g>
</svg>
