<?xml version="1.0" encoding="utf-8"?>
<!-- Generator: Adobe Illustrator 21.0.2, SVG Export Plug-In . SVG Version: 6.00 Build 0)  -->
<svg version="1.1" id="Capa_1" xmlns="http://www.w3.org/2000/svg" xmlns:xlink="http://www.w3.org/1999/xlink" x="0px" y="0px"
	 viewBox="0 0 800 800" style="enable-background:new 0 0 800 800;" xml:space="preserve">
<style type="text/css">
	.st0{fill:none;stroke:#049DE9;stroke-width:6;stroke-miterlimit:10;}
</style>
<g>
	<g>
		<path class="st0" d="M706.9,252.3l0.3-54.9c0-0.2,0.2-0.3,0.2-0.5c-0.6-35.2-16.7-76.5-42.3-107.7c-33-40.4-79.3-62.6-130.6-62.6
			c-9.5,0-18.4,3.7-24.9,10.5c-6.5,6.7-6.2,15.8-5.9,25.3v189.8H95.8c-50.5-0.2-92.5,40.9-92.5,91.4v24.2c0,50.5,42,91.4,92.5,91.4
			h7.6l225.8,126.9L111.8,708c-16.9,9.5-22.8,30.7-13.3,47.6c6.4,11.5,18.3,17.8,30.5,17.8c5.7,0,11.6-1.4,17-4.5l254.9-142.4
			l253.3,142.4c5.4,3.1,11.3,4.5,17,4.5c12.2,0,24.2-6.5,30.5-17.8c9.5-16.9,3.4-38.1-13.3-47.6L472.2,586.6l228.2-127.5h5.9
			c50.5,0,90.3-40.9,90.3-91.4v-24.2C796.7,293.5,757,252.9,706.9,252.3z M573.5,103.4c46.5,18.3,63.7,70.2,64.1,94.5v54.4h-64.1
			V103.4L573.5,103.4z M400.3,546.3l-155.4-87.1h310.7L400.3,546.3z M726.8,367.8c0,11.9-9.6,21.5-21.5,21.5H94.8
			c-11.9,0-21.5-9.6-21.5-21.5v-24.2c0-11.9,9.6-21.5,21.5-21.5h610.5c11.9,0,21.5,9.6,21.5,21.5V367.8L726.8,367.8z"/>
	</g>
</g>
</svg>
