<?xml version="1.0" encoding="utf-8"?>
<!-- Generator: Adobe Illustrator 21.0.2, SVG Export Plug-In . SVG Version: 6.00 Build 0)  -->
<svg version="1.1" id="Layer_1" xmlns="http://www.w3.org/2000/svg" xmlns:xlink="http://www.w3.org/1999/xlink" x="0px" y="0px"
	 viewBox="0 0 800 800" style="enable-background:new 0 0 800 800;" xml:space="preserve">
<style type="text/css">
	.st0{fill:none;stroke:#049DE9;stroke-width:6;stroke-miterlimit:10;}
</style>
<title>kitchen</title>
<g>
	<rect x="5.7" y="230.9" class="st0" width="241.2" height="506.5"/>
	<rect x="573.7" y="62.6" class="st0" width="159.4" height="135.3"/>
	<polygon class="st0" points="796.3,306.7 518.9,306.7 573.7,198.1 733.3,198.1 	"/>
	<rect x="246.9" y="464.2" class="st0" width="272" height="272"/>
	<line class="st0" x1="246.9" y1="554.3" x2="518.9" y2="554.3"/>
	<line class="st0" x1="246.9" y1="647" x2="518.9" y2="647"/>
	<line class="st0" x1="364.6" y1="513.1" x2="417.6" y2="513.1"/>
	<line class="st0" x1="364.6" y1="600.7" x2="417.6" y2="600.7"/>
	<line class="st0" x1="364.6" y1="689.2" x2="417.6" y2="689.2"/>
	<rect x="518.9" y="464.2" class="st0" width="266.7" height="273"/>
	<rect x="559.2" y="575.8" class="st0" width="189.6" height="125.2"/>
	<line class="st0" x1="518.9" y1="531.7" x2="785.4" y2="531.7"/>
	<rect x="553.2" y="488.7" class="st0" width="29.2" height="29.2"/>
	<rect x="612.7" y="488.7" class="st0" width="29.2" height="29.2"/>
	<rect x="672.3" y="488.7" class="st0" width="29.2" height="29.2"/>
	<rect x="731.9" y="488.7" class="st0" width="29.2" height="29.2"/>
	<path class="st0" d="M551.7,361.9c0,0,18.3,1.7,18.1,24.8c-0.2,23.2-18.1,21.5-18.1,21.5s-8.9,1.7-7,22.2
		c1.9,20.5,18.1,20.7,18.1,20.7"/>
	<path class="st0" d="M600.9,361.9c0,0,18.3,1.7,18.1,24.8c-0.2,23.2-18.1,21.5-18.1,21.5s-8.9,1.7-7,22.2
		c1.9,20.5,18.1,20.7,18.1,20.7"/>
	<path class="st0" d="M650.4,361.9c0,0,18.3,1.7,18.1,24.8c-0.2,23.2-18.1,21.5-18.1,21.5s-8.9,1.7-7,22.2
		c1.9,20.5,18.1,20.7,18.1,20.7"/>
	<path class="st0" d="M699.6,361.9c0,0,18.3,1.7,18.1,24.8c-0.2,23.2-18.1,21.5-18.1,21.5s-8.9,1.7-7,22.2
		c1.9,20.5,18.1,20.7,18.1,20.7"/>
	<path class="st0" d="M748.8,361.9c0,0,18.3,1.7,18.1,24.8c-0.2,23.2-18.1,21.5-18.1,21.5s-8.9,1.7-7,22.2
		c1.9,20.5,18.1,20.7,18.1,20.7"/>
	<rect x="289.8" y="350.1" class="st0" width="199.2" height="114.1"/>
	<rect x="435" y="350.1" class="st0" width="54" height="114.1"/>
	<rect x="319.2" y="373.2" class="st0" width="104.9" height="77.7"/>
	<line class="st0" x1="5.7" y1="433.8" x2="246.9" y2="433.8"/>
	<line class="st0" x1="41.9" y1="323.3" x2="41.9" y2="378.5"/>
	<line class="st0" x1="41.9" y1="503.2" x2="41.9" y2="548.3"/>
</g>
</svg>
