<?xml version="1.0" encoding="utf-8"?>
<!-- Generator: Adobe Illustrator 21.0.2, SVG Export Plug-In . SVG Version: 6.00 Build 0)  -->
<svg version="1.1" id="Layer_1" xmlns="http://www.w3.org/2000/svg" xmlns:xlink="http://www.w3.org/1999/xlink" x="0px" y="0px"
	 viewBox="0 0 800 800" style="enable-background:new 0 0 800 800;" xml:space="preserve">
<style type="text/css">
	.st0{fill:none;stroke:#049DE9;stroke-width:6;stroke-miterlimit:10;}
</style>
<g>
	<title>lift</title>
	<path class="st0" d="M58.2,9h683.5c16.3,0,29.6,13.3,29.6,29.6v722.8c0,16.3-13.3,29.6-29.6,29.6H58.2c-16.3,0-29.6-13.3-29.6-29.6
		V38.6C28.7,22,42,9,58.2,9z"/>
	<path class="st0" d="M178.3,161.6h440.4c16.3,0,29.6,13.3,29.6,29.6v570.2c0,16.3-13.3,29.6-29.6,29.6H178.3
		c-16.3,0-29.6-13.3-29.6-29.6V191.2C148.7,174.9,162.1,161.6,178.3,161.6z"/>
	<path class="st0" d="M194.9,432.5l42.6-53.2c10.4-12.7,29-14.8,41.7-4.4c1.8,1.5,3.5,3.3,5,5.3l39.3,52.4"/>
	<path class="st0" d="M323.8,556.8l-42.6,52.9c-10.4,12.7-29,14.8-41.7,4.4c-1.8-1.5-3.5-3.3-5-5.3l-39.6-52.1"/>
	<circle class="st0" cx="474.7" cy="328.7" r="54.1"/>
	<path class="st0" d="M388.6,602.9V462.1c0-16.3,13.3-29.6,29.6-29.6h112.7c16.3,0,29.6,13.3,29.6,29.6v141.1"/>
	<path class="st0" d="M536.5,602.9v158.5c0,16.3-13.3,29.6-29.6,29.6h-65.7c-16.3,0-29.6-13.3-29.6-29.6V602.9"/>
	<line class="st0" x1="388.6" y1="604.7" x2="411.7" y2="604.7"/>
	<line class="st0" x1="537.4" y1="604.7" x2="560.5" y2="604.7"/>
</g>
</svg>
