<?xml version="1.0" encoding="utf-8"?>
<!-- Generator: Adobe Illustrator 21.0.2, SVG Export Plug-In . SVG Version: 6.00 Build 0)  -->
<svg version="1.1" id="Layer_1" xmlns="http://www.w3.org/2000/svg" xmlns:xlink="http://www.w3.org/1999/xlink" x="0px" y="0px"
	 viewBox="0 0 800 800" style="enable-background:new 0 0 800 800;" xml:space="preserve">
<style type="text/css">
	.st0{fill:none;stroke:#049DE9;stroke-width:6;stroke-linecap:round;stroke-linejoin:round;}
	.st1{fill:#FFFFFF;stroke:#049DE9;stroke-width:6;stroke-linecap:round;stroke-linejoin:round;}
</style>
<g>
	<g>
		<path class="st0" d="M591.6,434.9H208.4c-10.4,0-18.9,8.5-18.9,18.9v99.5h421.1v-99.5C610.6,443.4,602.1,434.9,591.6,434.9z"/>
		<polygon class="st1" points="212.3,632.2 202.6,632.2 202.6,592.9 222.2,592.9 		"/>
		<polygon class="st1" points="587.7,632.2 597.4,632.2 597.4,592.9 577.8,592.9 		"/>
		<path class="st1" d="M633.8,474.4c-9.7-0.1-17.8,7.5-19.3,17.1l-10.3,61.9H196l-10.2-61.9c-1.5-9.6-9.7-17.1-19.3-17.1
			c-11.9,0.1-21,10.8-19,22.6l13.2,80.1c1.5,9.2,9.5,15.8,18.7,15.8H621c9.3,0,17.2-6.7,18.7-15.8L653,497
			C654.8,485.2,645.8,474.5,633.8,474.4z"/>
		<path class="st1" d="M390.5,513.9H198.9c-5.2,0-9.5,4.2-9.5,9.5V544c0,5.2,4.2,9.5,9.5,9.5h191.6c5.2,0,9.5-4.2,9.5-9.5v-20.6
			C400,518.2,395.8,513.9,390.5,513.9z"/>
		<path class="st1" d="M601.1,513.9H409.5c-5.2,0-9.5,4.2-9.5,9.5V544c0,5.2,4.2,9.5,9.5,9.5h191.6c5.2,0,9.5-4.2,9.5-9.5v-20.6
			C610.6,518.2,606.3,513.9,601.1,513.9z"/>
	</g>
	<g>
		<g>
			<path class="st1" d="M73.4,559.2c3.5,0,6.3-2.8,6.3-6.3c0-6.8-2.4-10.4-4.2-13.1c-1.4-2.1-2.1-3.3-2.1-6.3c0-3,0.8-4.2,2.1-6.3
				c1.7-2.7,4.2-6.5,4.2-13.1c0-6.8-2.4-10.4-4.2-13.1c-1.4-2.1-2.1-3.3-2.1-6.3c0-3.5-9.5-15.8-9.5-15.8s-3.2,12.3-3.2,15.8
				c0,6.8,2.4,10.4,4.2,13.1c1.4,2.1,2.1,3.3,2.1,6.3c0,3-0.8,4.2-2.1,6.3c-1.7,2.7-4.2,6.5-4.2,13.1c0,6.8,2.4,10.4,4.2,13.1
				c1.4,2.1,2.1,3.3,2.1,6.3C67.1,556.4,69.9,559.2,73.4,559.2z"/>
		</g>
		<g>
			<path class="st1" d="M94.7,559.2c-3.5,0-6.3-2.8-6.3-6.3c0-6.8,2.4-10.4,4.2-13.1c1.4-2.1,2.1-3.3,2.1-6.3c0-3-0.8-4.2-2.1-6.3
				c-1.7-2.7-4.2-6.5-4.2-13.1c0-6.8,2.4-10.4,4.2-13.1c1.4-2.1,2.1-3.3,2.1-6.3c0-3.5,9.5-15.8,9.5-15.8s3.2,12.3,3.2,15.8
				c0,6.8-2.4,10.4-4.2,13.1c-1.4,2.1-2.1,3.3-2.1,6.3c0,3,0.8,4.2,2.1,6.3c1.7,2.7,4.2,6.5,4.2,13.1c0,6.8-2.4,10.4-4.2,13.1
				c-1.4,2.1-2.1,3.3-2.1,6.3C101,556.4,98.2,559.2,94.7,559.2z"/>
		</g>
		<g>
			<path class="st1" d="M80.9,559.2c-3.5,0-6.3-2.8-6.3-6.3c0-8,2.1-12.4,3.8-15.9c1.4-3.1,2.5-5.3,2.5-10.4c0-5.1-1.1-7.3-2.5-10.4
				c-1.6-3.5-3.8-7.9-3.8-15.9s2.1-12.4,3.8-15.9c1.4-3.1,2.5-5.3,2.5-10.4c0-3.5,6.3-15.8,6.3-15.8s6.3,12.3,6.3,15.8
				c0,8-2.1,12.4-3.8,15.9c-1.4,3.1-2.5,5.3-2.5,10.4s1.1,7.3,2.5,10.4c1.6,3.5,3.8,7.9,3.8,15.9c0,8-2.1,12.4-3.8,15.9
				c-1.4,3.1-2.5,5.3-2.5,10.4C87.2,556.4,84.3,559.2,80.9,559.2z"/>
		</g>
		<path class="st1" d="M107.3,552.9H60.8c-9.9,8.9-16.2,23.3-16.2,39.5s6.4,30.6,16.2,39.5h46.6c9.9-8.9,16.2-23.3,16.2-39.5
			C123.6,576.1,117.1,561.8,107.3,552.9z"/>
		<path class="st0" d="M110.9,592.5c0,10.2-3.3,20-9,26.9"/>
	</g>
	<g>
		<g>
			<line class="st0" x1="716" y1="631.9" x2="716" y2="394"/>
			<polygon class="st1" points="735.8,316 696.3,316 676.5,394 755.5,394 			"/>
			<line class="st0" x1="699.8" y1="394" x2="706.2" y2="316"/>
			<line class="st0" x1="732.3" y1="394" x2="725.9" y2="316"/>
			<path class="st1" d="M737.7,614h-43.2c-9.9,0-17.9,8-17.9,17.9l0,0h79l0,0C755.5,622,747.5,614,737.7,614z"/>
			<circle class="st1" cx="715.8" cy="444.3" r="9.9"/>
		</g>
		<g>
			<line class="st0" x1="716" y1="274.9" x2="716" y2="255.2"/>
			<line class="st0" x1="716" y1="274.9" x2="716" y2="265"/>
			<line class="st0" x1="686.4" y1="282.8" x2="681.5" y2="274.3"/>
			<line class="st0" x1="664.7" y1="304.5" x2="647.7" y2="294.6"/>
			<line class="st0" x1="664.7" y1="304.5" x2="656.2" y2="299.6"/>
			<line class="st0" x1="656.8" y1="334.1" x2="647" y2="334.1"/>
			<line class="st0" x1="775.2" y1="334.1" x2="785.2" y2="334.1"/>
			<line class="st0" x1="767.3" y1="304.5" x2="784.4" y2="294.6"/>
			<line class="st0" x1="767.3" y1="304.5" x2="775.9" y2="299.6"/>
			<line class="st0" x1="745.7" y1="282.8" x2="750.6" y2="274.3"/>
		</g>
	</g>
	<g>
		<line class="st0" x1="453.2" y1="233.1" x2="354.6" y2="303.6"/>
		<line class="st0" x1="532.8" y1="289.9" x2="453.2" y2="233.1"/>
		<polyline class="st1" points="373.5,289.9 320.5,252.1 267.4,289.9 		"/>
		<line class="st0" x1="453.2" y1="248.6" x2="520.2" y2="296.5"/>
		<rect x="252" y="167.9" class="st0" width="296.2" height="178.2"/>
		<rect x="267.4" y="183.2" class="st0" width="265.4" height="147.4"/>
		<polyline class="st0" points="267.4,289.9 267.4,330.7 532.8,330.7 532.8,289.9 		"/>
		<circle class="st0" cx="374" cy="231.3" r="12.7"/>
	</g>
	<line class="st0" x1="5.1" y1="631.9" x2="794.9" y2="631.9"/>
</g>
</svg>
