<?xml version="1.0" encoding="utf-8"?>
<!-- Generator: Adobe Illustrator 21.0.2, SVG Export Plug-In . SVG Version: 6.00 Build 0)  -->
<svg version="1.1" id="Layer_1" xmlns="http://www.w3.org/2000/svg" xmlns:xlink="http://www.w3.org/1999/xlink" x="0px" y="0px"
	 viewBox="0 0 800 800" style="enable-background:new 0 0 800 800;" xml:space="preserve">
<style type="text/css">
	.st0{fill:none;stroke:#049DE9;stroke-width:6;stroke-miterlimit:10;}
</style>
<g>
	<title>master bedroom</title>
	<path class="st0" d="M235.2,122.1h327.3c4.1,0,7.5,3.4,7.5,7.5v170.5c0,4.1-3.4,7.5-7.5,7.5H235.2c-4.1,0-7.5-3.4-7.5-7.5V129.6
		C227.7,125.5,231.1,122.1,235.2,122.1z"/>
	<circle class="st0" cx="301.7" cy="183.3" r="27.5"/>
	<path class="st0" d="M183.1,395h430.1c4.1,0,7.5,3.4,7.5,7.5v88.1c0,4.1-3.4,7.5-7.5,7.5H183.1c-4.1,0-7.5-3.4-7.5-7.5v-88.1
		C175.6,398.4,179,395,183.1,395z"/>
	<path class="st0" d="M143.3,498.3h513.4c4.1,0,7.5,3.4,7.5,7.5v50.3c0,4.1-3.4,7.5-7.5,7.5H143.3c-4.1,0-7.5-3.4-7.5-7.5v-50.3
		C135.8,501.7,139.2,498.3,143.3,498.3z"/>
	<path class="st0" d="M670.1,675.4L572.3,593c-1.4-1.1-3.2-1.8-4.8-1.8H238c-1.8,0-3.4,0.7-4.8,1.6l-104,83.5c-3.2,2.5-8,2-10.7-1.1
		c-1.1-1.4-1.6-3-1.6-4.8v-98.8c0-4.1,3.4-7.5,7.5-7.5h550.5c4.1,0,7.5,3.4,7.5,7.5v98.5c-0.2,4.1-4.1,7.3-8.2,7.1
		C672.9,677.2,671.3,676.5,670.1,675.4z"/>
	<path class="st0" d="M225.9,446.6H370c4.1,0,7.5,3.4,7.5,7.5v36.4c0,4.1-3.4,7.5-7.5,7.5H225.9c-4.1,0-7.5-3.4-7.5-7.5v-36.4
		C218.2,450.1,221.6,446.6,225.9,446.6z"/>
	<path class="st0" d="M427.5,446.6h144.1c4.1,0,7.5,3.4,7.5,7.5v36.4c0,4.1-3.4,7.5-7.5,7.5H427.5c-4.1,0-7.5-3.4-7.5-7.5v-36.4
		C420,450.1,423.4,446.6,427.5,446.6z"/>
	<path class="st0" d="M151.7,323.5H48.8c-4.1,0-7.5-3.4-7.5-7.5c0-0.9,0.2-1.6,0.5-2.5l32.5-93.3c1.1-3,3.9-5,7.1-5h38
		c3.2,0,6.1,2,7.1,5l32.5,93.3c1.4,3.9-0.7,8.2-4.6,9.8C153.5,323.3,152.6,323.5,151.7,323.5z"/>
	<path class="st0" d="M93.9,323.5h6.4c4.1,0,7.5,3.4,7.5,7.5v56.4c0,4.1-3.4,7.5-7.5,7.5h-6.4c-4.1,0-7.5-3.4-7.5-7.5V331
		C86.2,326.9,89.6,323.5,93.9,323.5z"/>
	<path class="st0" d="M68.9,395h59.4c4.1,0,7.5,3.4,7.5,7.5v22.8c0,4.1-3.4,7.5-7.5,7.5H68.9c-4.1,0-7.5-3.4-7.5-7.5v-22.8
		C61.4,398.4,64.8,395,68.9,395z"/>
	<path class="st0" d="M116.9,602.1H17.4c-4.1,0-7.5-3.4-7.5-7.5V440.5c0-4.1,3.4-7.5,7.5-7.5h137.5c4.1,0,7.5,3.4,7.5,7.5v57.8"/>
	<path class="st0" d="M40.7,456.2h114c4.1,0,7.5,3.4,7.5,7.5v22.8c0,4.1-3.4,7.5-7.5,7.5h-114c-4.1,0-7.5-3.4-7.5-7.5v-22.8
		C33.1,459.6,36.6,456.2,40.7,456.2z"/>
	<path class="st0" d="M116.9,585H38.1c-4.1,0-7.5-3.4-7.5-7.5v-52.3c0-4.1,3.4-7.5,7.5-7.5h97.6"/>
	<circle class="st0" cx="100.7" cy="475.8" r="8"/>
	<path class="st0" d="M648.3,323.5h102.6c4.1,0,7.5-3.4,7.5-7.5c0-0.9-0.2-1.6-0.5-2.5l-32.5-93.3c-1.1-3-3.9-5-7.1-5h-38
		c-3.2,0-6.1,2-7.1,5l-32.5,93.3c-1.4,3.9,0.7,8.2,4.6,9.8C646.5,323.3,647.4,323.5,648.3,323.5z"/>
	<path class="st0" d="M706.3,395h-6.4c-4.1,0-7.5-3.4-7.5-7.5V331c0-4.1,3.4-7.5,7.5-7.5h6.4c4.1,0,7.5,3.4,7.5,7.5v56.4
		C713.8,391.6,710.4,395,706.3,395z"/>
	<path class="st0" d="M731.1,432.8h-59.4c-4.1,0-7.5-3.4-7.5-7.5v-22.8c0-4.1,3.4-7.5,7.5-7.5h59.4c4.1,0,7.5,3.4,7.5,7.5v22.8
		C738.6,429.4,735.2,432.8,731.1,432.8z"/>
	<path class="st0" d="M637.6,498.3v-57.8c0-4.1,3.4-7.5,7.5-7.5h137.5c4.1,0,7.5,3.4,7.5,7.5v154.1c0,4.1-3.4,7.5-7.5,7.5h-99.5"/>
	<path class="st0" d="M759.3,494.2h-114c-4.1,0-7.5-3.4-7.5-7.5v-22.8c0-4.1,3.4-7.5,7.5-7.5h114c4.1,0,7.5,3.4,7.5,7.5v22.8
		C766.9,490.8,763.4,494.2,759.3,494.2z"/>
	<path class="st0" d="M664.2,517.4h97.6c4.1,0,7.5,3.4,7.5,7.5v52.3c0,4.1-3.4,7.5-7.5,7.5h-78.7"/>
	<circle class="st0" cx="695.9" cy="475.8" r="9.1"/>
	<path class="st0" d="M474,307.8h-98.1c-4.1,0-7.5-3.4-7.7-7.5c0-1.1,0.2-2.5,0.9-3.4l59.2-119.3l0,0l52.6,119.5
		c1.8,3.9,0,8.4-3.9,10C476,307.6,474.9,307.8,474,307.8z"/>
	<path class="st0" d="M449.6,307.8h91.9c4.1,0,7.5-3.4,7.5-7.5c0-1.1-0.2-2-0.7-3L511.1,212c-1.8-3.9-6.4-5.5-10-3.6
		c-1.6,0.7-3,2-3.6,3.6l-29.1,57.3"/>
</g>
</svg>
