<?xml version="1.0" encoding="utf-8"?>
<!-- Generator: Adobe Illustrator 21.0.2, SVG Export Plug-In . SVG Version: 6.00 Build 0)  -->
<svg version="1.1" id="Capa_1" xmlns="http://www.w3.org/2000/svg" xmlns:xlink="http://www.w3.org/1999/xlink" x="0px" y="0px"
	 viewBox="0 0 800 800" style="enable-background:new 0 0 800 800;" xml:space="preserve">
<style type="text/css">
	.st0{fill:none;stroke:#049DE9;stroke-width:6;stroke-miterlimit:10;}
</style>
<g>
	<path class="st0" d="M491.1,48H138.8c-14.2,0-25.5,11.5-25.5,25.5v652.6c0,14.2,11.5,25.7,25.7,25.7h365.9
		c14.2,0,25.7-11.5,25.7-25.7v-639C530.2,65.6,512.8,48,491.1,48z M504.2,530.2v195.5h-365V530.2H504.2z M230.7,504.2h-91.5V308.7
		h364.9v195.5l0,0h-78.2c6.7,0-58.8,0-52.1,0h-91.2C289.4,504.2,224,504.2,230.7,504.2z M504.2,282.6h-365V74.2h364.9L504.2,282.6
		L504.2,282.6z"/>
	<g>
		<g>
			<path class="st0" d="M716.8,335.5l-30.2-10.1V48c0-21.5-17.6-39.1-39.1-39.1h-26.1c-21.5,0-39.1,17.6-39.1,39.1v599.4h-13V74.2
				c0-36-29.2-65.1-65.2-65.2H139.2c-35.9,0-65.1,29.2-65.1,65.2v651.7c0,36,29.2,65.1,65.2,65.2h364.9c36,0,65.1-29.2,65.2-65.2
				v-13h13V752c0,21.5,17.6,39.1,39.1,39.1h26.1c21.5,0,39.1-17.6,39.1-39.1V474.5l30.2-10.1c5.3-1.8,8.9-6.7,8.9-12.4V347.7
				C725.7,342.2,722.2,337.2,716.8,335.5z M660.6,751.8c0,7.2-5.8,13-13,13h-26.1c-7.2,0-13-5.8-13-13v-52.1c0-7.2-5.8-13-13-13
				h-39.1c-7.2,0-13,5.8-13,13v26.1c0,21.5-17.6,39.1-39.1,39.1H139.2c-21.5,0-39.1-17.6-39.1-39.1V74.2c0-21.5,17.6-39.1,39.1-39.1
				h364.9c21.5,0,39.1,17.6,39.1,39.1v586.5c0,7.2,5.8,13,13,13h39.3c7.2,0,13-5.8,13-13V48c0-7.2,5.8-13,13-13h26.1
				c7.2,0,13,5.8,13,13L660.6,751.8L660.6,751.8z M699.7,442.7l-13,4.3v-94.1l13,4.3V442.7z"/>
		</g>
	</g>
	<g>
		<g>
			<path class="st0" d="M217.4,100.1h-39.1c-7.2,0-13,5.8-13,13s5.8,13,13,13h39.1c7.2,0,13-5.8,13-13S224.6,100.1,217.4,100.1z"/>
		</g>
	</g>
	<g>
		<g>
			<path class="st0" d="M439,100.1H269.6c-7.2,0-13,5.8-13,13s5.8,13,13,13H439c7.2,0,13,5.8,13,13v39.1c0,7.2,5.8,13,13,13
				c7.2,0,13-5.8,13-13v-38.9C478.1,117.7,460.6,100.1,439,100.1z"/>
		</g>
	</g>
</g>
</svg>
