<?xml version="1.0" encoding="utf-8"?>
<!-- Generator: Adobe Illustrator 21.0.2, SVG Export Plug-In . SVG Version: 6.00 Build 0)  -->
<svg version="1.1" id="Layer_1" xmlns="http://www.w3.org/2000/svg" xmlns:xlink="http://www.w3.org/1999/xlink" x="0px" y="0px"
	 viewBox="0 0 800 800" style="enable-background:new 0 0 800 800;" xml:space="preserve">
<style type="text/css">
	.st0{fill:none;stroke:#049DE9;stroke-width:6;stroke-miterlimit:10;}
</style>
<g>
	<title>modular kitchen</title>
	<rect x="597" y="163.2" class="st0" width="194" height="447"/>
	<rect x="9" y="439.1" class="st0" width="588" height="171.4"/>
	<line class="st0" x1="345.8" y1="439.1" x2="345.8" y2="610.2"/>
	<line class="st0" x1="345.8" y1="522" x2="597" y2="522"/>
	<line class="st0" x1="437.4" y1="482.4" x2="503.1" y2="482.4"/>
	<line class="st0" x1="437.4" y1="561.7" x2="503.1" y2="561.7"/>
	<rect x="208" y="501.9" class="st0" width="107.7" height="78"/>
	<line class="st0" x1="60.7" y1="494.4" x2="126.2" y2="494.4"/>
	<circle class="st0" cx="218.9" cy="472.4" r="10.4"/>
	<circle class="st0" cx="261.7" cy="472.4" r="10.4"/>
	<circle class="st0" cx="304.6" cy="472.4" r="10.4"/>
	<rect x="197.4" y="416.6" class="st0" width="33.3" height="17.2"/>
	<rect x="245.2" y="416.6" class="st0" width="33.3" height="17.2"/>
	<rect x="293" y="416.6" class="st0" width="33.3" height="17.2"/>
	<path class="st0" d="M94,242.6L94,242.6c30.6,0,55.3,24.7,55.3,55.3l0,0l0,0l0,0H38.7l0,0l0,0C38.7,267.3,63.4,242.6,94,242.6
		L94,242.6z"/>
	<line class="st0" x1="93.3" y1="163.2" x2="93.3" y2="242.8"/>
	<path class="st0" d="M455.1,242.6L455.1,242.6c30.6,0,55.3,24.7,55.3,55.3l0,0l0,0l0,0H400l0,0l0,0
		C400,267.5,424.7,242.8,455.1,242.6z"/>
	<line class="st0" x1="454.4" y1="163.2" x2="454.4" y2="242.8"/>
	<line class="st0" x1="34.2" y1="163.2" x2="524" y2="163.2"/>
	<rect x="251.3" y="163.2" class="st0" width="20.9" height="79.3"/>
	<polygon class="st0" points="356.5,297.9 174,297.9 204.2,242.8 326.3,242.8 	"/>
	<rect x="662.3" y="211.3" class="st0" width="61.4" height="67.1"/>
	<line class="st0" x1="633.9" y1="379.5" x2="633.9" y2="425.2"/>
	<line class="st0" x1="633.9" y1="501.9" x2="633.9" y2="554.2"/>
	<rect x="400.7" y="369.9" class="st0" width="44.4" height="66.6"/>
	<rect x="496.1" y="369.9" class="st0" width="44.4" height="66.6"/>
	<line class="st0" x1="470.3" y1="340.7" x2="470.3" y2="436.6"/>
	<rect x="455.1" y="373.3" class="st0" width="31.1" height="15.4"/>
</g>
</svg>
