<?xml version="1.0" encoding="utf-8"?>
<!-- Generator: Adobe Illustrator 21.0.2, SVG Export Plug-In . SVG Version: 6.00 Build 0)  -->
<svg version="1.1" id="Layer_1" xmlns="http://www.w3.org/2000/svg" xmlns:xlink="http://www.w3.org/1999/xlink" x="0px" y="0px"
	 viewBox="0 0 800 800" style="enable-background:new 0 0 800 800;" xml:space="preserve">
<style type="text/css">
	.st0{fill:none;stroke:#049DE9;stroke-width:6;stroke-miterlimit:10;}
	.st1{fill:#049DE9;}
	.st2{font-family:'ArialMT';}
	.st3{font-size:117.3536px;}
	.st4{enable-background:new    ;}
</style>
<g>
	<title>parking</title>
	<g>
		<rect x="32.8" y="148.6" class="st0" width="166.6" height="197.4"/>
		<line class="st0" x1="116.2" y1="346" x2="116.2" y2="602.1"/>
		<rect x="89.2" y="563.4" class="st0" width="53.1" height="45.8"/>
		<rect x="8.5" y="622.7" class="st0" width="783" height="28.8"/>
		<circle class="st0" cx="330.9" cy="584.8" r="30.8"/>
		<path class="st0" d="M578.8,588.4c1.8,17,16.7,29.3,33.4,27.6c14.7-1.5,26.1-12.9,27.6-27.6"/>
		<path class="st0" d="M640.1,588.4c0-1.2,0-2.3,0-3.5c0-17-13.8-30.8-30.8-30.8s-30.8,13.8-30.8,30.8c0,1.2,0,2.3,0,3.5"/>
		<path class="st0" d="M300.1,588.4h-40.8c-6.5-10.3-7.6-22.9-3.2-34.3c6.7-21.7,30.5-47.2,120-61c27.6-17.9,56.3-34.3,86-49h119.4
			c0,0,60.4,28.5,71,34.9c10.9,6.5,23.5,10.3,36.1,10.6c18.2-0.6,14.4,44.9,14.4,44.9h7.9v42.8h-7.9v10.6h-63.1c0-1.2,0-2.3,0-3.5
			c0-17-13.8-30.8-30.8-30.8s-30.8,13.8-30.8,30.8c0,1.2,0,2.3,0,3.5H361.1"/>
		<line class="st0" x1="355.8" y1="497.1" x2="697.3" y2="497.1"/>
		<line class="st0" x1="464.1" y1="448.7" x2="464.1" y2="497.1"/>
		<line class="st0" x1="581.5" y1="444.6" x2="581.5" y2="497.1"/>
		<text transform="matrix(1 0 0 1 64.221 312.7643)" class="st1 st2 st3">P</text>
		<g class="st4">
			<path class="st0" d="M73.3,312.8v-84H105c5.6,0,9.8,0.3,12.8,0.8c4.1,0.7,7.6,2,10.4,3.9c2.8,1.9,5,4.6,6.7,8.1
				c1.7,3.5,2.6,7.3,2.6,11.5c0,7.1-2.3,13.2-6.8,18.1c-4.5,4.9-12.8,7.4-24.6,7.4H84.4v34.2H73.3z M84.4,268.7h21.7
				c7.2,0,12.3-1.3,15.3-4c3-2.7,4.5-6.4,4.5-11.3c0-3.5-0.9-6.5-2.7-9c-1.8-2.5-4.1-4.2-7-5c-1.9-0.5-5.3-0.7-10.4-0.7H84.4V268.7z
				"/>
		</g>
	</g>
</g>
</svg>
