<?xml version="1.0" encoding="utf-8"?>
<!-- Generator: Adobe Illustrator 21.0.2, SVG Export Plug-In . SVG Version: 6.00 Build 0)  -->
<svg version="1.1" id="Layer_1" xmlns="http://www.w3.org/2000/svg" xmlns:xlink="http://www.w3.org/1999/xlink" x="0px" y="0px"
	 viewBox="0 0 800 800" style="enable-background:new 0 0 800 800;" xml:space="preserve">
<style type="text/css">
	.st0{fill:none;stroke:#049DE9;stroke-width:6;stroke-miterlimit:10;}
</style>
<g>
	<title>plot sizes</title>
	<g>
		<path class="st0" d="M791.6,205.1V29.6c0-11.6-9.6-21.2-21.2-21.2h-496c-11.6,0-21.2,9.6-21.2,21.2v154.2
			c0,11.6,9.6,21.2,21.2,21.2h320.8"/>
		<path class="st0" d="M594.7,205.1c0.8-0.6,0,245.6,0,320.6c0,11.6,9.3,21.2,20.9,21.2c0,0,0,0,0.3,0h154.2
			c11.6,0,21.2-9.6,21.2-21.2v-496c0-11.6-9.6-21.2-21.2-21.2H594.7"/>
		<line class="st0" x1="336.9" y1="8.4" x2="253.4" y2="92.2"/>
		<line class="st0" x1="433.7" y1="8.4" x2="253.7" y2="188.4"/>
		<line class="st0" x1="530.1" y1="8.4" x2="333.5" y2="205.1"/>
		<line class="st0" x1="626.9" y1="8.4" x2="430.3" y2="205.1"/>
		<line class="st0" x1="723.4" y1="8.4" x2="526.8" y2="205.1"/>
		<line class="st0" x1="791.6" y1="37" x2="594.9" y2="233.4"/>
		<line class="st0" x1="791.6" y1="133.5" x2="594.9" y2="330.1"/>
		<line class="st0" x1="791.6" y1="230.2" x2="594.9" y2="426.6"/>
		<line class="st0" x1="791.6" y1="326.7" x2="594.9" y2="523.4"/>
		<line class="st0" x1="791.6" y1="423.5" x2="668.2" y2="546.6"/>
		<line class="st0" x1="791.6" y1="520" x2="764.7" y2="546.6"/>
		<path class="st0" d="M205.1,253.2H29.6c-11.6,0-21.2,9.6-21.2,21.2v495.7c0,11.6,9.6,21.2,21.2,21.2l0,0h154.2
			c11.6,0,21.2-9.6,21.2-21.2l0,0V449.5"/>
		<path class="st0" d="M205.1,449.8c-0.6-0.8,245.6,0,320.6,0c11.6,0,21.2-9.3,21.2-20.9c0,0,0,0,0-0.3V274.4
			c0-11.6-9.6-21.2-21.2-21.2h-496c-11.6,0-21.2,9.6-21.2,21.2v175.4"/>
		<line class="st0" x1="8.4" y1="707.8" x2="92.2" y2="791.6"/>
		<line class="st0" x1="8.4" y1="611.1" x2="188.4" y2="791"/>
		<line class="st0" x1="8.4" y1="514.6" x2="205.1" y2="711.2"/>
		<line class="st0" x1="8.4" y1="417.8" x2="205.1" y2="614.5"/>
		<line class="st0" x1="8.4" y1="321.3" x2="205.1" y2="518"/>
		<line class="st0" x1="37" y1="253.2" x2="233.4" y2="449.5"/>
		<line class="st0" x1="133.5" y1="253.2" x2="330.1" y2="449.5"/>
		<line class="st0" x1="230.2" y1="253.2" x2="426.6" y2="449.8"/>
		<line class="st0" x1="326.7" y1="253.2" x2="523.4" y2="449.8"/>
		<line class="st0" x1="423.5" y1="253.2" x2="546.6" y2="376.5"/>
		<line class="st0" x1="520" y1="253.2" x2="546.6" y2="280"/>
	</g>
</g>
</svg>
