<?xml version="1.0" encoding="utf-8"?>
<!-- Generator: Adobe Illustrator 21.0.2, SVG Export Plug-In . SVG Version: 6.00 Build 0)  -->
<svg version="1.1" id="Layer_1" xmlns="http://www.w3.org/2000/svg" xmlns:xlink="http://www.w3.org/1999/xlink" x="0px" y="0px"
	 viewBox="0 0 800 800" style="enable-background:new 0 0 800 800;" xml:space="preserve">
<style type="text/css">
	.st0{fill:none;stroke:#049DE9;stroke-width:6;stroke-miterlimit:10;}
</style>
<g>
	<title>power backup</title>
	<g>
		<path class="st0" d="M48.8,205.8h691.5l0,0v552.5c0,18.2-14.9,33.1-33.1,33.1H81.9c-18.2,0-33.1-14.9-33.1-33.1V205.8L48.8,205.8z
			"/>
		<path class="st0" d="M40.5,89.3h718.9c18.2,0,33.1,14.9,33.1,33.1v56.2l0,0H7.5l0,0v-56.2C7.5,104.2,22,89.3,40.5,89.3z"/>
		<rect x="136.2" y="8.6" class="st0" width="135" height="81.1"/>
		<rect x="522.2" y="8.6" class="st0" width="135" height="81.1"/>
		<path class="st0" d="M271.1,519.4c4.3-6.3,173-228.6,173-228.6l-27.5,133l105.9,8.3L348.2,706.4L375.4,534L271.1,519.4z"/>
	</g>
</g>
</svg>
