<?xml version="1.0" encoding="utf-8"?>
<!-- Generator: Adobe Illustrator 21.0.2, SVG Export Plug-In . SVG Version: 6.00 Build 0)  -->
<svg version="1.1" id="Layer_1" xmlns="http://www.w3.org/2000/svg" xmlns:xlink="http://www.w3.org/1999/xlink" x="0px" y="0px"
	 viewBox="0 0 800 800" style="enable-background:new 0 0 800 800;" xml:space="preserve">
<style type="text/css">
	.st0{fill:none;stroke:#049DE9;stroke-width:6;stroke-miterlimit:10;}
</style>
<title>servant room</title>
<g>
	<path class="st0" d="M236.4,9h328.3l0,0v202.7c0,90.6-73.6,164.2-164.2,164.2l0,0c-90.9,0-164.2-73.6-164.2-164.2l0,0L236.4,9
		L236.4,9z"/>
	<line class="st0" x1="236.4" y1="143.3" x2="564.7" y2="143.3"/>
	<path class="st0" d="M480.2,355.1C617.6,389.6,714,513.3,714,655v136H86V655c0-142,96.6-265.6,234.3-299.9"/>
	<polyline class="st0" points="554.1,384.2 279,524.2 279,791 	"/>
	<line class="st0" x1="336.5" y1="583.4" x2="377.3" y2="583.4"/>
	<line class="st0" x1="336.5" y1="656.7" x2="377.3" y2="656.7"/>
	<line class="st0" x1="336.5" y1="730.3" x2="377.3" y2="730.3"/>
	<line class="st0" x1="457.5" y1="612.5" x2="571.3" y2="612.5"/>
	<line class="st0" x1="593.5" y1="787.3" x2="593.5" y2="673.4"/>
	<line class="st0" x1="206.2" y1="787.3" x2="206.2" y2="673.4"/>
</g>
</svg>
