<?xml version="1.0" encoding="utf-8"?>
<!-- Generator: Adobe Illustrator 21.0.2, SVG Export Plug-In . SVG Version: 6.00 Build 0)  -->
<svg version="1.1" id="Layer_1" xmlns="http://www.w3.org/2000/svg" xmlns:xlink="http://www.w3.org/1999/xlink" x="0px" y="0px"
	 viewBox="0 0 800 800" style="enable-background:new 0 0 800 800;" xml:space="preserve">
<style type="text/css">
	.st0{fill:none;stroke:#049DE9;stroke-width:5;stroke-miterlimit:10;}
</style>
<g>
	<title>sewage</title>
	<path class="st0" d="M126.1,230l103.5-86.5c2.4-2.2,4-5.1,4-8.4V51.6c0-6.2,4.8-11,10.8-11.3l0,0h37.4c5.9,0.3,10.8,5.1,10.8,11.3
		v16.7c-0.3,6.2,4.6,11.3,10.8,11.3c2.7,0,5.1-0.8,7.3-2.4l82.2-66c4-3.2,10-3.2,14,0L674.1,231c4.8,3.8,5.4,10.8,1.6,15.6
		c-0.3,0.3-0.5,0.5-0.5,0.8l-18.6,19.1c-3.8,4-10,4.6-14.5,1.1L615.9,248c-4.8-3.8-11.6-3-15.6,1.6c-1.6,2.2-2.4,4.6-2.4,7.3v131.2
		c0.3,6.2-4.6,11-10.8,11.3l0,0H306.9c-5.9,0-11,4.8-11,10.8l-2.2,123.9c0,6.2,4.8,11,10.8,11.3c0,0,0,0,0.3,0h22.1
		c6.2,0,11-5.1,10.8-11.3l0,0V438c0-6.2,4.8-11,11-11l0,0h202.9c5.9,0.3,10.5,5.1,10.5,11V633c0,3,1.1,5.7,3.2,7.8l8.9,8.9
		c2.2,2.2,3.2,4.8,3.2,7.8l0,0c0.3,5.9-4.6,11-10.5,11.3H471c-6.2,0-11-4.8-11-11l0,0v-1.6c0-3,1.1-5.7,3.2-7.8l9.7-9.7
		c2.2-2.2,3.2-4.8,3.2-7.8v-99.4c0-6.2-4.8-11-11-11l0,0h-30.4c-6.2,0-11,4.8-11,11l0,0v109.9c0,6.2-4.8,11-11,11l0,0H212.3
		c-6.2,0-11-4.8-11-11l0,0V259.9c-0.3-6.2-5.1-11-11.3-10.8c-2.4,0-4.8,0.8-6.7,2.4l-18.9,16.2c-4,3.5-10.2,3.5-14.5,0l-24.2-20.7
		c-4.6-4-5.1-11-1.1-15.6C125.3,230.8,125.9,230.2,126.1,230z"/>
	<path class="st0" d="M270.8,223.5h79.5c6.2,0,11,4.8,11,11v106.7c0,6.2-4.8,11-11,11h-79.5c-6.2,0-11-4.8-11-11V234.6
		C259.8,228.4,264.6,223.5,270.8,223.5z"/>
	<path class="st0" d="M473.9,745.3c0-11.9,4.8-23.2,13.2-31.5l24.8-24.8c4.3-4.3,11.3-4.3,15.6,0l0,0l24.8,24.8
		c15.1,14.8,17.5,38.5,6.2,56.3c-0.5,0.8-1.1,1.3-1.6,2.2l-5.7,5.7c-17.5,17.5-45.8,17.8-63.6,0.3l-0.3-0.3
		c-1.9-1.9-3.8-4.3-5.4-6.5C476.4,763.4,473.7,754.5,473.9,745.3z"/>
</g>
</svg>
