<?xml version="1.0" encoding="utf-8"?>
<!-- Generator: Adobe Illustrator 21.0.2, SVG Export Plug-In . SVG Version: 6.00 Build 0)  -->
<svg version="1.1" id="Capa_1" xmlns="http://www.w3.org/2000/svg" xmlns:xlink="http://www.w3.org/1999/xlink" x="0px" y="0px"
	 viewBox="0 0 800 800" style="enable-background:new 0 0 800 800;" xml:space="preserve">
<style type="text/css">
	.st0{fill:none;stroke:#049DE9;stroke-width:6;stroke-miterlimit:10;}
</style>
<g>
	<path class="st0" d="M683.3,368.3c-56.5,0-102.5,45.1-104.1,101.2v81.2H221.1v-81.2c-1.5-56.1-47.6-101.2-104.1-101.2
		c-57.5,0-104.1,46.6-104.1,104.1S59.5,576.5,117,576.5c1.9,0,3.6,0,5.3-0.2c0,0,0,57.8,0,58.9c0,46.8,38,84.6,84.6,84.6h18.6v24.5
		c0,5.3,4.2,9.4,9.4,9.4h62.6c5.3,0,9.4-4.2,9.4-9.4v-24.5h186v24.5c0,5.3,4.2,9.4,9.4,9.4H565c5.3,0,9.4-4.2,9.4-9.4v-24.5H593
		c46.8,0,84.6-38,84.6-84.6c0-0.5,0-0.8,0-1.2v-57.6c1.9,0.2,3.6,0.2,5.4,0.2c57.5,0,104.1-46.6,104.1-104.1
		C787.4,414.9,740.8,368.3,683.3,368.3z"/>
	<path class="st0" d="M252.4,468.5v0.9v49.7h295.4v-50.7c2-73.9,61.5-131.7,135.4-131.7c2.2,0,4.2,0,6.4,0.2v-8.2
		c0-156-126.4-282.5-282.5-282.5h-14.1C237,46.4,110.6,172.8,110.6,328.8v8.2c2.2-0.2,4.2-0.2,6.4-0.2
		C190.9,336.9,250.4,394.8,252.4,468.5z"/>
</g>
</svg>
