<?xml version="1.0" encoding="utf-8"?>
<!-- Generator: Adobe Illustrator 21.0.2, SVG Export Plug-In . SVG Version: 6.00 Build 0)  -->
<svg version="1.1" id="Capa_1" xmlns="http://www.w3.org/2000/svg" xmlns:xlink="http://www.w3.org/1999/xlink" x="0px" y="0px"
	 viewBox="0 0 800 800" style="enable-background:new 0 0 800 800;" xml:space="preserve">
<style type="text/css">
	.st0{clip-path:url(#SVGID_2_);fill:none;stroke:#049DE9;stroke-width:6;stroke-miterlimit:10;}
	.st1{fill:none;stroke:#049DE9;stroke-width:6;stroke-miterlimit:10;}
</style>
<g>
	<g>
		<g>
			<defs>
				<rect id="SVGID_1_" x="45.4" y="2.5" width="709.3" height="795"/>
			</defs>
			<clipPath id="SVGID_2_">
				<use xlink:href="#SVGID_1_"  style="overflow:visible;"/>
			</clipPath>
			<path class="st0" d="M714.1,312.7h-92.2v-0.2l-4.7-7.8c-14.8-23.3-38.7-40.4-66.6-46l51.1-89.6v-0.5c0.5-0.6,0.8-1.2,0.9-1.9
				s0.5-1.1,0.5-1.4c0.6-1.9,0.5-3.3,0.2-4.2c-0.2-0.3-0.5-0.8-0.6-1.1c-0.5-0.8-0.9-1.2-0.9-1.2l-76.2-88.8
				c11.5-19.3,9.9-42.7-4.8-57C502.9-3.6,473-0.6,453.7,19.7c-2.6,2.8-4.8,5.6-6.7,8.7h-0.2l-75.6,28.7l34.9,35.2l2.8,3.1l65.1,67.1
				L500.5,93l55.1,64.1c0,0,0.8,0.8,1.9,2.2c2.3,3.3,5.6,9.8,2,15.8c0,0.2-0.2,0.2-0.2,0.5l-47,82.8c-30.7,5.1-57,23.8-71.9,49.4
				c-0.2,0.2-0.5,0.5-0.5,0.5c-0.8,0.9-1.4,2-2,3.3c-0.2,0-0.2,0.2-0.2,0.5c-0.2,0.5-0.5,0.6-0.6,0.9H85.9
				c-22.4,0-40.5,18.3-40.5,40.5v428.4c0,16.5,16.8,15.8,16.8,15.8h11.2c12,0,14.1-9.9,14.4-15.1v-393c0-20,16-36.3,35.9-36.3h553.7
				c19.7,0,35.7,16.1,35.7,36.3v392.7c0,14.6,14.1,15.2,14.1,15.2h15.2c12.7,0,12.4-14.1,12.4-14.1V353.3
				C754.6,330.9,736.3,312.7,714.1,312.7L714.1,312.7z"/>
		</g>
	</g>
	<path class="st1" d="M577.2,471h-92.4c-11.6,0-21-9-21-20s9.5-20,21-20h92.4c11.6,0,21,9,21,20C598.1,462,588.8,471,577.2,471
		L577.2,471z M632.3,389.6H426.4c-1.6,0-3.4,0.2-5.1,0.6v-0.6h-34.6v143.5h34.6v-0.6c1.7,0.5,3.4,0.6,5.1,0.6h205.9
		c22,0,39.8-16.8,39.8-37.7v-68C672,406.5,654.5,389.6,632.3,389.6L632.3,389.6z"/>
	<path class="st1" d="M575.6,650.8h-92.4c-11.6,0-21-9-21-20s9.5-20,21-20h92.4c11.6,0,21,9,21,20S587.3,650.8,575.6,650.8
		L575.6,650.8z M632.3,574.5H426.4c-1.6,0-3.4,0.2-5.1,0.6v-0.6h-34.6v143.6h34.6v-0.6c1.7,0.5,3.4,0.6,5.1,0.6h205.9
		c22,0,39.8-17.1,39.8-37.7v-68.3C672,591.3,654.5,574.5,632.3,574.5L632.3,574.5z"/>
</g>
</svg>
