<?xml version="1.0" encoding="utf-8"?>
<!-- Generator: Adobe Illustrator 21.0.2, SVG Export Plug-In . SVG Version: 6.00 Build 0)  -->
<svg version="1.1" id="Layer_1" xmlns="http://www.w3.org/2000/svg" xmlns:xlink="http://www.w3.org/1999/xlink" x="0px" y="0px"
	 viewBox="0 0 800 800" style="enable-background:new 0 0 800 800;" xml:space="preserve">
<style type="text/css">
	.st0{fill:none;stroke:#049DE9;stroke-width:6;stroke-miterlimit:10;}
</style>
<g>
	<title>techology</title>
	<rect x="202.6" y="198.7" class="st0" width="395.2" height="395.2"/>
	<rect x="137.2" y="133.3" class="st0" width="525.9" height="525.9"/>
	<line class="st0" x1="252.3" y1="7.1" x2="252.3" y2="133.3"/>
	<line class="st0" x1="350.5" y1="7.1" x2="350.5" y2="133.3"/>
	<line class="st0" x1="448.4" y1="7.1" x2="448.4" y2="133.3"/>
	<line class="st0" x1="546.6" y1="7.1" x2="546.6" y2="133.3"/>
	<line class="st0" x1="252.3" y1="667.1" x2="252.3" y2="792.9"/>
	<line class="st0" x1="350.5" y1="667.1" x2="350.5" y2="792.9"/>
	<line class="st0" x1="448.4" y1="667.1" x2="448.4" y2="792.9"/>
	<line class="st0" x1="546.6" y1="667.1" x2="546.6" y2="792.9"/>
	<line class="st0" x1="789" y1="249.1" x2="663.1" y2="249.1"/>
	<line class="st0" x1="789" y1="347.3" x2="663.1" y2="347.3"/>
	<line class="st0" x1="789" y1="445.2" x2="663.1" y2="445.2"/>
	<line class="st0" x1="789" y1="543.4" x2="663.1" y2="543.4"/>
	<line class="st0" x1="137.2" y1="249.1" x2="11" y2="249.1"/>
	<line class="st0" x1="137.2" y1="347.3" x2="11" y2="347.3"/>
	<line class="st0" x1="137.2" y1="445.2" x2="11" y2="445.2"/>
	<line class="st0" x1="137.2" y1="543.4" x2="11" y2="543.4"/>
	<rect x="241.4" y="249.1" class="st0" width="81.8" height="81.8"/>
	<rect x="354.2" y="249.1" class="st0" width="81.8" height="81.8"/>
	<rect x="467" y="249.1" class="st0" width="81.8" height="81.8"/>
	<rect x="241.4" y="355.2" class="st0" width="81.8" height="81.8"/>
	<rect x="354.2" y="355.2" class="st0" width="81.8" height="81.8"/>
	<rect x="467" y="355.2" class="st0" width="81.8" height="81.8"/>
	<rect x="241.4" y="461.6" class="st0" width="81.8" height="81.8"/>
	<rect x="354.2" y="461.6" class="st0" width="81.8" height="81.8"/>
	<rect x="467" y="461.6" class="st0" width="81.8" height="81.8"/>
</g>
</svg>
