<?xml version="1.0" encoding="utf-8"?>
<!-- Generator: Adobe Illustrator 22.0.1, SVG Export Plug-In . SVG Version: 6.00 Build 0)  -->
<svg version="1.1" id="Layer_1" xmlns="http://www.w3.org/2000/svg" xmlns:xlink="http://www.w3.org/1999/xlink" x="0px" y="0px"
	 viewBox="0 0 500 500" style="enable-background:new 0 0 500 500;" xml:space="preserve">
<style type="text/css">
	.st0{fill:none;stroke:#049DE9;stroke-width:3;stroke-miterlimit:10;}
</style>
<title>techology</title>
<g>
	<rect x="163.9" y="160.3" class="st0" width="171.9" height="171.9"/>
	<rect x="135.4" y="131.8" class="st0" width="228.8" height="228.8"/>
	<line class="st0" x1="185.5" y1="76.9" x2="185.5" y2="131.8"/>
	<line class="st0" x1="228.2" y1="76.9" x2="228.2" y2="131.8"/>
	<line class="st0" x1="270.8" y1="76.9" x2="270.8" y2="131.8"/>
	<line class="st0" x1="313.5" y1="76.9" x2="313.5" y2="131.8"/>
	<line class="st0" x1="185.5" y1="364" x2="185.5" y2="418.8"/>
	<line class="st0" x1="228.2" y1="364" x2="228.2" y2="418.8"/>
	<line class="st0" x1="270.8" y1="364" x2="270.8" y2="418.8"/>
	<line class="st0" x1="313.5" y1="364" x2="313.5" y2="418.8"/>
	<line class="st0" x1="419" y1="182.2" x2="364.2" y2="182.2"/>
	<line class="st0" x1="419" y1="224.9" x2="364.2" y2="224.9"/>
	<line class="st0" x1="419" y1="267.5" x2="364.2" y2="267.5"/>
	<line class="st0" x1="419" y1="310.2" x2="364.2" y2="310.2"/>
	<line class="st0" x1="135.4" y1="182.2" x2="80.5" y2="182.2"/>
	<line class="st0" x1="135.4" y1="224.9" x2="80.5" y2="224.9"/>
	<line class="st0" x1="135.4" y1="267.5" x2="80.5" y2="267.5"/>
	<line class="st0" x1="135.4" y1="310.2" x2="80.5" y2="310.2"/>
	<rect x="180.8" y="182.2" class="st0" width="35.6" height="35.6"/>
	<rect x="229.8" y="182.2" class="st0" width="35.6" height="35.6"/>
	<rect x="278.9" y="182.2" class="st0" width="35.6" height="35.6"/>
	<rect x="180.8" y="228.3" class="st0" width="35.6" height="35.6"/>
	<rect x="229.8" y="228.3" class="st0" width="35.6" height="35.6"/>
	<rect x="278.9" y="228.3" class="st0" width="35.6" height="35.6"/>
	<rect x="180.8" y="274.7" class="st0" width="35.6" height="35.6"/>
	<rect x="229.8" y="274.7" class="st0" width="35.6" height="35.6"/>
	<rect x="278.9" y="274.7" class="st0" width="35.6" height="35.6"/>
</g>
</svg>
