<svg id="Layer_1" data-name="Layer 1" xmlns="http://www.w3.org/2000/svg" viewBox="0 0 150 150"><defs><style>.cls-1{fill:none;stroke:#29abe2;stroke-linecap:round;stroke-linejoin:round;}</style></defs><title>Toilet Floor</title><path class="cls-1" d="M70.17,91.34H40.62l-15,22.9h42Zm0,0"/><path class="cls-1" d="M88.84,73.83H78.15l1.33,11.9H94.16A1.6,1.6,0,0,1,92.6,84.1V84c0-.3,0-6.22-3.76-10.22Zm0,0"/><path class="cls-1" d="M61.75,73.83H52.09l-7.8,11.9H70.8l1.33-11.9H65.32a19.88,19.88,0,0,0-.23,2.26v.07a1.59,1.59,0,0,1-1.6,1.55h0a1.6,1.6,0,0,1-1.57-1.63V76a19.84,19.84,0,0,0-.12-2.19Zm0,0"/><path class="cls-1" d="M98.78,75.17a16.66,16.66,0,0,0-.95,1.51,18.17,18.17,0,0,0-2,7.44s0,0,0,.05h0a1.61,1.61,0,0,1-1.61,1.55h11.5Zm0,0"/><path class="cls-1" d="M80.11,91.34l2.56,22.9h41.71l-15-22.9Zm0,0"/><path class="cls-1" d="M83.6,55.94c-19.85,0-20.12-20.17-20.12-20.17,0,19.62-20.17,20.17-20.17,20.17,16.51,0,19.52,12.63,20.06,17.89A19.77,19.77,0,0,1,63.48,76a20.71,20.71,0,0,1,.21-2.22c.75-5.26,4.21-17.87,20-17.89Zm0,0"/><path class="cls-1" d="M109.86,68.42c-15.46,0-15.66-15.7-15.66-15.7,0,15.27-15.7,15.7-15.7,15.7,6.4,0,10.19,2.45,12.44,5.41A17.83,17.83,0,0,1,94.2,84.08a19.24,19.24,0,0,1,3.61-10.25c2.28-3,6-5.4,12.09-5.41Zm0,0"/></svg>