<?xml version="1.0" encoding="utf-8"?>
<!-- Generator: Adobe Illustrator 21.0.2, SVG Export Plug-In . SVG Version: 6.00 Build 0)  -->
<svg version="1.1" id="Layer_1" xmlns="http://www.w3.org/2000/svg" xmlns:xlink="http://www.w3.org/1999/xlink" x="0px" y="0px"
	 viewBox="0 0 800 800" style="enable-background:new 0 0 800 800;" xml:space="preserve">
<style type="text/css">
	.st0{fill:none;stroke:#049DE9;stroke-width:6;stroke-miterlimit:10;}
</style>
<g>
	<title>toilet</title>
	<path class="st0" d="M579.1,38.8H749c7,0,12.8,5.7,12.8,12.8v22c0,7-5.7,12.8-12.8,12.8H579.1c-7,0-12.8-5.7-12.8-12.8v-22
		C566.3,44.5,572.1,38.8,579.1,38.8z"/>
	<path class="st0" d="M760,119.1l-34.8,281.2c-0.9,6.4-6.2,11.2-12.8,11.2h-58.8c-7,0-12.8,5.7-12.8,12.8V528
		c0,7-5.7,12.8-12.8,12.8H515.5l0,0c8.4-16.9,14.3-35,17.6-53.5l0,0h47.3c7,0,12.8-5.7,12.8-12.8v-50.2c0-7-5.7-12.8-12.5-12.8h-1.5
		c-7,0-12.8-5.7-12.8-12.8V117.6c0-7,5.7-12.8,12.8-12.8h168.1c7,0,12.8,5.7,12.8,12.8C760.2,118.2,760.2,118.7,760,119.1z"/>
	<path class="st0" d="M480.8,404.3V19.9c0-7,5.7-12.8,12.8-12.8h30.6c7,0,12.8,5.7,12.8,12.8v397.4c0,7-5.7,12.8-12.8,12.8h-43.3
		L480.8,404.3L480.8,404.3z"/>
	<path class="st0" d="M480.8,404.3H51c-7,0-12.8,5.7-12.8,12.8l0,0c0,7,5.7,12.8,12.8,12.8h473.1c7,0,12.8-5.7,12.8-12.8v-12.8"/>
	<path class="st0" d="M536.9,448.3c0,13-1.3,26-3.7,38.9l-17.6,53.5l0,0c-27.3,55.9-77.5,96.8-137.7,112.4l0,0l52.6,73.3v66.5H148.3
		v-63.6l55-69.8c1.1-1.5,2.4-3.1,3.7-4.4C108.7,634.9,38.3,548.4,38.3,448.1L536.9,448.3L536.9,448.3z"/>
	<path class="st0" d="M533.3,487.2c-3.3,18.5-9.2,36.5-17.6,53.5L533.3,487.2z"/>
	<path class="st0" d="M533.3,487.2c-3.3,18.5-9.2,36.5-17.6,53.5L533.3,487.2z"/>
</g>
</svg>
