<?xml version="1.0" encoding="utf-8"?>
<!-- Generator: Adobe Illustrator 21.0.2, SVG Export Plug-In . SVG Version: 6.00 Build 0)  -->
<svg version="1.1" id="Layer_1" xmlns="http://www.w3.org/2000/svg" xmlns:xlink="http://www.w3.org/1999/xlink" x="0px" y="0px"
	 viewBox="0 0 800 800" style="enable-background:new 0 0 800 800;" xml:space="preserve">
<style type="text/css">
	.st0{fill:#049DE9;stroke:#049DE9;stroke-width:6;stroke-miterlimit:10;}
	.st1{fill:none;stroke:#049DE9;stroke-width:6;stroke-miterlimit:10;}
</style>
<g>
	<title>Tv</title>
	<g>
		<path class="st0" d="M374.4,277.5H235c-5.3,0-9.7-4.3-9.7-9.7c0-5.3,4.3-9.7,9.7-9.7h139.5c5.3,0,9.7,4.3,9.7,9.7
			C384.1,273.1,379.8,277.5,374.4,277.5z"/>
		<path class="st0" d="M304.9,437c-5.3,0-9.7-4.3-9.7-9.7V267.8c0-5.3,4.3-9.7,9.7-9.7c5.3,0,9.7,4.3,9.7,9.7v159.6
			C314.6,432.7,310.3,437,304.9,437L304.9,437z"/>
		<path class="st0" d="M493.5,440.8L493.5,440.8c-3.8-0.3-7.1-2.5-8.4-5.9l-71.5-163.4c-2-4.8,0.3-10.7,5.3-12.7
			c4.8-2,10.2,0.3,12.5,4.8l62.1,143l62.3-143c2-4.8,7.6-7.4,12.7-5.3c4.8,2,7.4,7.6,5.3,12.7c0,0,0,0.3-0.3,0.3l-71,163.4
			C500.9,438.6,497.6,440.8,493.5,440.8z"/>
		<rect x="13.1" y="138" class="st1" width="773.9" height="459.6"/>
		<rect x="39" y="159.4" class="st1" width="722" height="380"/>
		<path class="st1" d="M381,559.9h37.7c3.6,0,6.6,2.8,6.6,6.6l0,0c0,3.6-2.8,6.4-6.6,6.4H381c-3.6,0-6.6-2.8-6.6-6.4l0,0
			C374.7,563,377.5,559.9,381,559.9z"/>
		<path class="st1" d="M225.3,662c12.7-38.2,48.4-64.1,88.8-64.4h171.3c40.5,0.3,76.1,26,88.8,64.4"/>
	</g>
</g>
</svg>
