<svg id="Layer_1" data-name="Layer 1" xmlns="http://www.w3.org/2000/svg" viewBox="0 0 150 150"><defs><style>.cls-1{fill:none;stroke:#29abe2;stroke-linecap:round;stroke-linejoin:round;}</style></defs><title>WALL FINISH</title><path class="cls-1" d="M121,83.43a1.84,1.84,0,1,0,1.84-1.84A2,2,0,0,0,121,83.43Z"/><path class="cls-1" d="M115.44,77.91a1.84,1.84,0,1,0,1.84-1.84,2,2,0,0,0-1.84,1.84Z"/><path class="cls-1" d="M109.92,83.43a1.84,1.84,0,1,0,1.84-1.84,2,2,0,0,0-1.84,1.84Z"/><path class="cls-1" d="M98.88,83.43a1.84,1.84,0,1,0,1.84-1.84,2,2,0,0,0-1.84,1.84Z"/><path class="cls-1" d="M104.4,77.91a1.84,1.84,0,1,0,1.84-1.84,2,2,0,0,0-1.84,1.84Z"/><path class="cls-1" d="M93.36,77.91a1.84,1.84,0,1,0,1.84-1.84,2,2,0,0,0-1.84,1.84Z"/><path class="cls-1" d="M87.84,83.43a1.84,1.84,0,1,0,1.84-1.84,2,2,0,0,0-1.84,1.84Z"/><path class="cls-1" d="M82.32,77.91a1.84,1.84,0,1,0,1.84-1.84,2,2,0,0,0-1.84,1.84Z"/><path class="cls-1" d="M121,72.39a1.84,1.84,0,1,0,1.84-1.84A2,2,0,0,0,121,72.39Z"/><path class="cls-1" d="M121,61.35a1.84,1.84,0,1,0,1.84-1.84A2,2,0,0,0,121,61.35Z"/><path class="cls-1" d="M115.44,66.87A1.84,1.84,0,1,0,117.28,65a2,2,0,0,0-1.84,1.84Z"/><path class="cls-1" d="M109.92,72.39a1.84,1.84,0,1,0,1.84-1.84,2,2,0,0,0-1.84,1.84Z"/><path class="cls-1" d="M98.88,72.39a1.84,1.84,0,1,0,1.84-1.84,2,2,0,0,0-1.84,1.84Z"/><path class="cls-1" d="M109.92,61.35a1.84,1.84,0,1,0,1.84-1.84,2,2,0,0,0-1.84,1.84Z"/><path class="cls-1" d="M98.88,61.35a1.84,1.84,0,1,0,1.84-1.84,2,2,0,0,0-1.84,1.84Z"/><path class="cls-1" d="M104.4,66.87A1.84,1.84,0,1,0,106.24,65a2,2,0,0,0-1.84,1.84Z"/><path class="cls-1" d="M93.36,66.87A1.84,1.84,0,1,0,95.2,65a2,2,0,0,0-1.84,1.84Z"/><path class="cls-1" d="M87.84,72.39a1.84,1.84,0,1,0,1.84-1.84,2,2,0,0,0-1.84,1.84Z"/><path class="cls-1" d="M87.84,61.35a1.84,1.84,0,1,0,1.84-1.84,2,2,0,0,0-1.84,1.84Z"/><path class="cls-1" d="M82.32,66.87A1.84,1.84,0,1,0,84.16,65a2,2,0,0,0-1.84,1.84Z"/><path class="cls-1" d="M121,50.31a1.84,1.84,0,1,0,1.84-1.84A2,2,0,0,0,121,50.31Z"/><path class="cls-1" d="M115.44,55.83A1.84,1.84,0,1,0,117.28,54a2,2,0,0,0-1.84,1.84Z"/><path class="cls-1" d="M115.44,44.79A1.84,1.84,0,1,0,117.28,43a2,2,0,0,0-1.84,1.84Z"/><path class="cls-1" d="M109.92,50.31a1.84,1.84,0,1,0,1.84-1.84,2,2,0,0,0-1.84,1.84Z"/><path class="cls-1" d="M98.88,50.31a1.84,1.84,0,1,0,1.84-1.84,2,2,0,0,0-1.84,1.84Z"/><path class="cls-1" d="M104.4,55.83A1.84,1.84,0,1,0,106.24,54a2,2,0,0,0-1.84,1.84Z"/><path class="cls-1" d="M93.36,55.83A1.84,1.84,0,1,0,95.2,54a2,2,0,0,0-1.84,1.84Z"/><path class="cls-1" d="M104.4,44.79A1.84,1.84,0,1,0,106.24,43a2,2,0,0,0-1.84,1.84Z"/><path class="cls-1" d="M93.36,44.79A1.84,1.84,0,1,0,95.2,43a2,2,0,0,0-1.84,1.84Z"/><path class="cls-1" d="M87.84,50.31a1.84,1.84,0,1,0,1.84-1.84,2,2,0,0,0-1.84,1.84Z"/><path class="cls-1" d="M82.32,55.83A1.84,1.84,0,1,0,84.16,54a2,2,0,0,0-1.84,1.84Z"/><path class="cls-1" d="M82.32,44.79A1.84,1.84,0,1,0,84.16,43a2,2,0,0,0-1.84,1.84Z"/><path class="cls-1" d="M121,39.27a1.84,1.84,0,1,0,1.84-1.84A2,2,0,0,0,121,39.27Z"/><path class="cls-1" d="M115.44,33.75a1.84,1.84,0,1,0,1.84-1.84,2,2,0,0,0-1.84,1.84Z"/><path class="cls-1" d="M109.92,39.27a1.84,1.84,0,1,0,1.84-1.84,2,2,0,0,0-1.84,1.84Z"/><path class="cls-1" d="M98.88,39.27a1.84,1.84,0,1,0,1.84-1.84,2,2,0,0,0-1.84,1.84Z"/><path class="cls-1" d="M104.4,33.75a1.84,1.84,0,1,0,1.84-1.84,2,2,0,0,0-1.84,1.84Z"/><path class="cls-1" d="M93.36,33.75a1.84,1.84,0,1,0,1.84-1.84,2,2,0,0,0-1.84,1.84Z"/><path class="cls-1" d="M87.84,39.27a1.84,1.84,0,1,0,1.84-1.84,2,2,0,0,0-1.84,1.84Z"/><path class="cls-1" d="M82.32,33.75a1.84,1.84,0,1,0,1.84-1.84,2,2,0,0,0-1.84,1.84Z"/><path class="cls-1" d="M122.8,111.08c-5.15,0-9.2-5.7-9.2-12.88s4-12.88,9.2-12.88S132,91,132,98.2,128,111.08,122.8,111.08Zm0-22.08c-2.94,0-5.52,4.23-5.52,9.2s2.58,9.2,5.52,9.2,5.52-4.23,5.52-9.2S125.74,89,122.8,89Z"/><path class="cls-1" d="M122.8,111.08H69.44c-5.15,0-9.2-5.7-9.2-12.88s4-12.88,9.2-12.88H122.8a1.84,1.84,0,0,1,0,3.68c-2.94,0-5.52,4.23-5.52,9.2s2.58,9.2,5.52,9.2a1.84,1.84,0,0,1,0,3.68ZM69.44,89c-2.94,0-5.52,4.23-5.52,9.2s2.58,9.2,5.52,9.2h46.92a16.71,16.71,0,0,1,0-18.4Z"/><path class="cls-1" d="M130.16,100a1.74,1.74,0,0,1-1.84-1.84c0-5-2.58-9.2-5.52-9.2h-46A1.74,1.74,0,0,1,75,87.16V26.45a1.74,1.74,0,0,1,1.84-1.84h53.36A1.74,1.74,0,0,1,132,26.45V98.2A1.74,1.74,0,0,1,130.16,100ZM78.64,85.32H122.8a7.45,7.45,0,0,1,5.52,2.58V28.29H78.64Z"/><path class="cls-1" d="M76.8,135H23.45a1.74,1.74,0,0,1-1.84-1.84V26.45a1.74,1.74,0,0,1,1.84-1.84H76.8a1.74,1.74,0,0,1,1.84,1.84V87.16A1.74,1.74,0,0,1,76.8,89H69.44c-2.94,0-5.52,4.23-5.52,9.2s2.58,9.2,5.52,9.2H76.8a1.74,1.74,0,0,1,1.84,1.84v23.92A1.74,1.74,0,0,1,76.8,135Zm-51.52-3.68H75V111.08H69.44c-5.15,0-9.2-5.7-9.2-12.88s4-12.88,9.2-12.88H75v-57H25.29Z"/><path class="cls-1" d="M40.84,49l.47,1.27a.12.12,0,0,0,.23,0L42,49a3.73,3.73,0,0,1,2.21-2.22l1.27-.47a.12.12,0,0,0,0-.23l-1.27-.46A3.74,3.74,0,0,1,42,43.46l-.47-1.27a.12.12,0,0,0-.23,0l-.46,1.27a3.74,3.74,0,0,1-2.21,2.22l-1.27.47a.12.12,0,0,0,0,.23l1.27.46A3.74,3.74,0,0,1,40.84,49Zm0,0"/><path class="cls-1" d="M51.13,54.37l-1.27-.46a3.74,3.74,0,0,1-2.22-2.21l-.47-1.27a.12.12,0,0,0-.23,0l-.46,1.27a3.74,3.74,0,0,1-2.21,2.22L43,54.39a.12.12,0,0,0,0,.23l1.27.46a3.73,3.73,0,0,1,2.22,2.21L47,58.56a.12.12,0,0,0,.23,0l.46-1.27a3.74,3.74,0,0,1,2.21-2.22l1.27-.47a.12.12,0,0,0,0-.23Zm0,0"/><path class="cls-1" d="M57.67,48.93l-.86-.31a2.54,2.54,0,0,1-1.51-1.5L55,46.26a.08.08,0,0,0-.15,0l-.32.86A2.54,2.54,0,0,1,53,48.63l-.86.32a.08.08,0,0,0,0,.15l.86.31a2.54,2.54,0,0,1,1.51,1.5l.32.86a.08.08,0,0,0,.15,0l.32-.86a2.54,2.54,0,0,1,1.5-1.51l.86-.32a.08.08,0,0,0,0-.15Zm0,0"/><path class="cls-1" d="M55.62,60.28l-.6-.22A1.77,1.77,0,0,1,54,59l-.22-.6a.06.06,0,0,0-.05,0,.06.06,0,0,0-.05,0l-.22.6a1.77,1.77,0,0,1-1,1.05l-.6.22a.06.06,0,0,0,0,.11l.6.22a1.77,1.77,0,0,1,1.05,1l.22.6a.06.06,0,0,0,.11,0l.22-.6a1.77,1.77,0,0,1,1-1.05l.6-.22a.06.06,0,0,0,0-.11Zm0,0"/><path class="cls-1" d="M51.14,43l-.6-.22a1.77,1.77,0,0,1-1.05-1l-.22-.6a.06.06,0,0,0-.05,0,.06.06,0,0,0-.05,0l-.22.6a1.77,1.77,0,0,1-1,1.05l-.6.22a.06.06,0,0,0,0,.11l.6.22a1.77,1.77,0,0,1,1.05,1l.22.6a.06.06,0,0,0,.05,0,.06.06,0,0,0,.05,0l.22-.6a1.77,1.77,0,0,1,1-1.05l.6-.22a.06.06,0,0,0,0-.11Zm0,0"/><path class="cls-1" d="M43.82,59.07l-.76-.28a2.23,2.23,0,0,1-1.32-1.32l-.28-.75a.07.07,0,0,0-.14,0l-.28.76a2.23,2.23,0,0,1-1.32,1.32l-.75.28a.07.07,0,0,0,0,.14l.76.28a2.23,2.23,0,0,1,1.32,1.32l.28.75a.07.07,0,0,0,.14,0l.28-.76a2.23,2.23,0,0,1,1.32-1.32l.75-.28a.07.07,0,0,0,0-.14Zm0,0"/></svg>