<?xml version="1.0" encoding="utf-8"?>
<!-- Generator: Adobe Illustrator 21.0.2, SVG Export Plug-In . SVG Version: 6.00 Build 0)  -->
<svg version="1.1" id="Layer_1" xmlns="http://www.w3.org/2000/svg" xmlns:xlink="http://www.w3.org/1999/xlink" x="0px" y="0px"
	 viewBox="0 0 800 800" style="enable-background:new 0 0 800 800;" xml:space="preserve">
<style type="text/css">
	.st0{fill:none;stroke:#049DE9;stroke-width:3;stroke-miterlimit:10;}
</style>
<g>
	<title>water</title>
	<path class="st0" d="M418.4,27.8c-7.2-9.1-20-10.6-29.4-3.8c-1.3,0.9-2.5,2.2-3.8,3.8c-72.9,95.4-136.4,191.7-169.5,305.2
		C178.2,461,258,587.6,382.7,596.7c146,10.3,246.4-117.3,205.8-261.8C556.3,220.2,492.2,123.2,418.4,27.8z"/>
	<path class="st0" d="M275.5,779L275.5,779c-9.1-64.7-17.5-129.8-58.2-184.8c-19.7-29.7-55.4-44.4-90.4-37.2
		c-40.3,6.3-72.2,38.2-78.2,78.5c-7.5,41.6,15,82.9,54.1,99.4C156,757.8,220.1,760.9,275.5,779z"/>
	<path class="st0" d="M527.5,756.5c-1.6,11.3,6.6,21.9,17.8,23.5c1.9,0.3,3.8,0.3,5.9,0c55.7-8.1,107.9-19.1,154.5-49.4
		c35.3-23.1,53.2-56,44.4-98.5c-6.3-38.5-36.3-68.5-75.1-74.4c-42.8-8.4-75.7,9.4-98.5,44.7C546,648.6,535,700.8,527.5,756.5z"/>
	<path class="st0" d="M151.6,502.6L151.6,502.6c-10.3-34.1-9.7-78.8-23.5-111.6c-10-26.9-38.2-42.5-66.3-36.6
		c-26.3,3.1-46.9,23.8-49.7,50c-5.6,28.1,10.3,56.3,37.2,66C82.5,483.5,117.5,492.2,151.6,502.6z"/>
	<path class="st0" d="M637.9,493.8L637.9,493.8c36.6-12.2,84.1-12.2,119.2-28.1c24.4-10.9,36.9-37.8,30-63.5
		c-3.8-25-23.5-44.4-48.5-47.8c-25.6-6.6-52.5,6.3-63.5,30.6C659.8,419.4,650.1,457.2,637.9,493.8z"/>
</g>
</svg>
