<?xml version="1.0" encoding="utf-8"?>
<!-- Generator: Adobe Illustrator 21.0.2, SVG Export Plug-In . SVG Version: 6.00 Build 0)  -->
<svg version="1.1" id="Layer_1" xmlns="http://www.w3.org/2000/svg" xmlns:xlink="http://www.w3.org/1999/xlink" x="0px" y="0px"
	 viewBox="0 0 800 800" style="enable-background:new 0 0 800 800;" xml:space="preserve">
<style type="text/css">
	.st0{fill:none;stroke:#049DE9;stroke-width:6;stroke-miterlimit:10;}
</style>
<g>
	<title>wooden png</title>
	<g>
		<rect x="63.5" y="12.9" class="st0" width="292.1" height="772.6"/>
		<path class="st0" d="M129.4,12.9c3.8,19.5-11.3,36.9-20.1,54.9c-17.4,37.5-4.4,81.9,11.9,119.8s36.2,77.5,31.4,118.8
			c-4.1,34.8-25.3,65.5-35.1,99.3c-8.9,30.4-8.2,62.4,1.4,92.1c14,43.7,47.1,80.5,52.9,126.3c6.8,52.6-24.9,105.4-15.4,157.7"/>
		<path class="st0" d="M225.3,15.9c-28,33.1-51.5,74.4-47.4,117.7c2.7,30.4,18.4,57.7,31.4,85.3s22.9,59,15,88.4
			c-6.5,22.9-22.9,40.6-30.4,62.4c-14,41,5.8,85,27,122.2c21.2,37.5,45.4,77.1,41.3,120.1c-3.1,30-20.1,57-31.4,85
			c-11.3,28-16.4,62.8,2.4,86.7"/>
		<path class="st0" d="M302.7,12.9C286,54.5,271,99.2,278.9,143.5c6.5,37.9,28.7,71.3,35.1,109.2c4.4,25.3,1.4,51.2-8.5,74.7
			c-10.9,25.6-29.3,47.8-37.9,74.1c-11.3,35.1-4.1,74.1,7.5,109.2c11.9,35.1,28,69.3,34.1,105.8c9.2,57-6.1,114.7-21.8,170.6"/>
		<path class="st0" d="M250.2,61.6c-7.8,21.8-13,44.4-15.4,67.6c-2,17.4-1.4,34.8,2.7,51.9c3.4,13.7,9.6,24.9,14.7,38.2
			c18.4,51.9,8.9,109.5-5.8,162.4"/>
		<path class="st0" d="M153.6,426.4c-6.8,33.1-0.3,67.6,17.7,96.2c12.3,19.1,29.3,34.8,37.9,55.6c6.1,17.4,8.2,35.8,5.8,54.3
			c-2.7,31.1-11.3,61.4-24.9,89.4"/>
		<path class="st0" d="M172.4,194.7c-11.9-25.3-19.8-52.6-22.9-80.5c-2.7-25.9,0-55.3,18.8-73"/>
		<path class="st0" d="M98.7,208.4c8.2,15,14.3,31.1,18.1,47.8c4.1,16.7,2.4,34.5-4.1,50.2c-6.1,13-16.7,25.9-13.3,39.9"/>
		<path class="st0" d="M106.2,549.3c2.7,17.7,14.3,33.1,21.5,49.8c18.8,43,8.2,92.1-2.7,137.5"/>
		<path class="st0" d="M321.5,376.6c-13.3,14.3-15,35.5-15.7,55.3c-2,24.2,0.7,48.8,8.2,72c6.5,14.7,15,28,25.6,40.3"/>
		<rect x="444.4" y="12.9" class="st0" width="292.1" height="772.6"/>
		<path class="st0" d="M510.6,12.9c3.8,19.5-11.3,36.9-20.1,54.9c-17.4,37.9-4.4,81.6,11.9,120.1c16.4,38.6,36.2,77.5,31.4,118.8
			c-4.1,34.8-25.3,65.5-35.1,99.3c-8.9,30-8.2,62.4,1.4,92.1c14,43.7,47.1,80.5,52.9,126.3c6.8,52.6-24.9,105.4-15.4,157.7"/>
		<path class="st0" d="M606.5,15.9c-28.3,33.1-51.5,74.4-47.1,117.7c2.7,30.4,18.4,57.7,31.4,85.3s22.9,59,15,88.4
			c-6.5,22.9-22.9,40.6-30.4,62.4c-14,41,5.8,85,27,122.2s45.4,77.1,41.3,120.1c-3.1,30-20.1,57-31.4,85
			c-11.3,28-16.4,62.8,2.4,86.7"/>
		<path class="st0" d="M683.9,12.9c-16.7,41.6-31.7,86.3-23.9,130.7c6.5,37.9,28.7,71.3,35.1,109.2c4.4,25.3,1.4,51.2-8.5,74.7
			c-10.9,25.6-29.3,47.8-37.9,74.1c-11.3,35.1-4.1,74.1,7.5,109.2c11.9,35.1,28,69.3,34.1,105.8c9.2,57-6.1,114.7-21.8,170.6"/>
		<path class="st0" d="M631,61.6c-7.8,21.8-13,44.4-15,67.6c-2,17.4-1.4,34.8,2.7,51.9c3.4,13,9.6,25.3,14,38.2
			c18.4,51.9,8.9,109.5-5.8,162.4"/>
		<path class="st0" d="M534.8,426.4c-6.8,33.1-0.3,67.6,17.7,96.2c12.3,19.1,29.3,34.8,37.9,55.6c6.1,17.4,8.2,35.8,5.8,54.3
			c-3.1,31.1-11.6,61.4-25.3,89.4"/>
		<path class="st0" d="M553.2,194.7c-11.9-25.3-19.8-52.6-22.9-80.5c-2.7-25.9,0-55.3,18.8-73"/>
		<path class="st0" d="M479.5,208.4c8.2,15,14.3,31.1,18.1,47.8c4.1,16.7,2.4,34.5-4.1,50.2c-6.1,13-16.7,25.9-13.3,39.9"/>
		<path class="st0" d="M487.4,549.3c2.7,17.7,14.3,33.1,21.5,49.8c18.8,43,8.2,92.1-2.7,137.5"/>
		<path class="st0" d="M702.7,376.6c-13.3,14.3-15,35.5-15.7,55.3c-2,24.2,0.7,48.8,8.2,72c6.5,14.7,15,28,25.6,40.3"/>
	</g>
</g>
</svg>
