<?xml version="1.0" encoding="utf-8"?>
<!-- Generator: Adobe Illustrator 21.0.2, SVG Export Plug-In . SVG Version: 6.00 Build 0)  -->
<svg version="1.1" id="Layer_1" xmlns="http://www.w3.org/2000/svg" xmlns:xlink="http://www.w3.org/1999/xlink" x="0px" y="0px"
	 viewBox="0 0 500 500" style="enable-background:new 0 0 500 500;" xml:space="preserve">
<style type="text/css">
	.st0{fill:none;stroke:#049DE9;stroke-width:3;stroke-miterlimit:10;}
</style>
<title>wooden png</title>
<rect x="151.4" y="136.7" class="st0" width="85.6" height="226.4"/>
<path class="st0" d="M170.7,136.7c1.1,5.7-3.3,10.8-5.9,16.1c-5.1,11-1.3,24,3.5,35.1s10.6,22.7,9.2,34.8
	c-1.2,10.2-7.4,19.2-10.3,29.1c-2.6,8.9-2.4,18.3,0.4,27c4.1,12.8,13.8,23.6,15.5,37c2,15.4-7.3,30.9-4.5,46.2"/>
<path class="st0" d="M198.8,137.6c-8.2,9.7-15.1,21.8-13.9,34.5c0.8,8.9,5.4,16.9,9.2,25s6.7,17.3,4.4,25.9
	c-1.9,6.7-6.7,11.9-8.9,18.3c-4.1,12,1.7,24.9,7.9,35.8c6.2,11,13.3,22.6,12.1,35.2c-0.9,8.8-5.9,16.7-9.2,24.9
	c-3.3,8.2-4.8,18.4,0.7,25.4"/>
<path class="st0" d="M221.5,136.7c-4.9,12.2-9.3,25.3-7,38.3c1.9,11.1,8.4,20.9,10.3,32c1.3,7.4,0.4,15-2.5,21.9
	c-3.2,7.5-8.6,14-11.1,21.7c-3.3,10.3-1.2,21.7,2.2,32c3.5,10.3,8.2,20.3,10,31c2.7,16.7-1.8,33.6-6.4,50"/>
<path class="st0" d="M206.1,151c-2.3,6.4-3.8,13-4.5,19.8c-0.6,5.1-0.4,10.2,0.8,15.2c1,4,2.8,7.3,4.3,11.2
	c5.4,15.2,2.6,32.1-1.7,47.6"/>
<path class="st0" d="M177.8,257.9c-2,9.7-0.1,19.8,5.2,28.2c3.6,5.6,8.6,10.2,11.1,16.3c1.8,5.1,2.4,10.5,1.7,15.9
	c-0.8,9.1-3.3,18-7.3,26.2"/>
<path class="st0" d="M183.3,190c-3.5-7.4-5.8-15.4-6.7-23.6c-0.8-7.6,0-16.2,5.5-21.4"/>
<path class="st0" d="M161.7,194c2.4,4.4,4.2,9.1,5.3,14c1.2,4.9,0.7,10.1-1.2,14.7c-1.8,3.8-4.9,7.6-3.9,11.7"/>
<path class="st0" d="M163.9,293.9c0.8,5.2,4.2,9.7,6.3,14.6c5.5,12.6,2.4,27-0.8,40.3"/>
<path class="st0" d="M227,243.3c-3.9,4.2-4.4,10.4-4.6,16.2c-0.6,7.1,0.2,14.3,2.4,21.1c1.9,4.3,4.4,8.2,7.5,11.8"/>
<rect x="263" y="136.7" class="st0" width="85.6" height="226.4"/>
<path class="st0" d="M282.4,136.7c1.1,5.7-3.3,10.8-5.9,16.1c-5.1,11.1-1.3,23.9,3.5,35.2s10.6,22.7,9.2,34.8
	c-1.2,10.2-7.4,19.2-10.3,29.1c-2.6,8.8-2.4,18.3,0.4,27c4.1,12.8,13.8,23.6,15.5,37c2,15.4-7.3,30.9-4.5,46.2"/>
<path class="st0" d="M310.5,137.6c-8.3,9.7-15.1,21.8-13.8,34.5c0.8,8.9,5.4,16.9,9.2,25s6.7,17.3,4.4,25.9
	c-1.9,6.7-6.7,11.9-8.9,18.3c-4.1,12,1.7,24.9,7.9,35.8s13.3,22.6,12.1,35.2c-0.9,8.8-5.9,16.7-9.2,24.9c-3.3,8.2-4.8,18.4,0.7,25.4
	"/>
<path class="st0" d="M333.2,136.7c-4.9,12.2-9.3,25.3-7,38.3c1.9,11.1,8.4,20.9,10.3,32c1.3,7.4,0.4,15-2.5,21.9
	c-3.2,7.5-8.6,14-11.1,21.7c-3.3,10.3-1.2,21.7,2.2,32c3.5,10.3,8.2,20.3,10,31c2.7,16.7-1.8,33.6-6.4,50"/>
<path class="st0" d="M317.7,151c-2.3,6.4-3.8,13-4.4,19.8c-0.6,5.1-0.4,10.2,0.8,15.2c1,3.8,2.8,7.4,4.1,11.2
	c5.4,15.2,2.6,32.1-1.7,47.6"/>
<path class="st0" d="M289.5,257.9c-2,9.7-0.1,19.8,5.2,28.2c3.6,5.6,8.6,10.2,11.1,16.3c1.8,5.1,2.4,10.5,1.7,15.9
	c-0.9,9.1-3.4,18-7.4,26.2"/>
<path class="st0" d="M294.9,190c-3.5-7.4-5.8-15.4-6.7-23.6c-0.8-7.6,0-16.2,5.5-21.4"/>
<path class="st0" d="M273.3,194c2.4,4.4,4.2,9.1,5.3,14c1.2,4.9,0.7,10.1-1.2,14.7c-1.8,3.8-4.9,7.6-3.9,11.7"/>
<path class="st0" d="M275.6,293.9c0.8,5.2,4.2,9.7,6.3,14.6c5.5,12.6,2.4,27-0.8,40.3"/>
<path class="st0" d="M338.7,243.3c-3.9,4.2-4.4,10.4-4.6,16.2c-0.6,7.1,0.2,14.3,2.4,21.1c1.9,4.3,4.4,8.2,7.5,11.8"/>
</svg>
